<?xml version="1.0" encoding="utf-8"?>
<!-- Generator: Adobe Illustrator 27.5.0, SVG Export Plug-In . SVG Version: 6.00 Build 0)  -->
<svg version="1.1" xmlns="http://www.w3.org/2000/svg" xmlns:xlink="http://www.w3.org/1999/xlink" x="0px" y="0px"
	 viewBox="0 0 600 500" style="enable-background:new 0 0 600 500;" xml:space="preserve">
<g id="BACKGROUND">
	<rect style="fill:#FFFFFF;" width="600" height="500"/>
</g>
<g id="OBJECTS">
	<g>
		<path style="fill:#717091;" d="M538.938,396.77H79.691c-6.249-5.406-11.396-9.833-16.228-16.537
			c-83.815-116.279,29.29-257.184,133.03-197.996c1.531-22.497,61.609-58.06,90.254-9.02c22.86-34.042,59.687-66.415,102.418-67.568
			c42.731-1.152,86.909,22.605,103.598,61.96c19.965-0.611,39.151,10.709,49.84,27.583c10.689,16.874,14.085,37.505,13.533,57.473
			c-0.545,19.718-5.307,40.437-19.093,54.546c12.461,9.199,18.504,24.704,18.505,40.192
			C555.551,362.89,547.318,383.744,538.938,396.77z"/>
		<g>
			<rect x="313.939" y="149.744" style="fill:#5C5B7D;" width="84.379" height="247.008"/>
			<polygon style="fill:#5C5B7D;" points="524.751,194.514 524.751,186.212 514.211,186.212 514.211,192.074 501.632,189.162 
				501.632,397.029 532.609,397.029 532.609,196.333 			"/>
			<path style="fill:#605F82;" d="M546.243,209.461h-10.018v8.085h-11.608v179.205h14.333c8.376-13.026,16.602-33.869,16.601-49.35
				c-0.001-15.488-6.044-30.993-18.505-40.192c13.786-14.109,18.547-34.828,19.093-54.546c0.326-11.779-0.74-23.784-3.849-35.117
				h-6.045V209.461z"/>
			<polygon style="fill:#605F82;" points="454.081,396.752 387.693,396.752 387.693,163.479 454.081,177.728 			"/>
			<polygon style="fill:#605F82;" points="298.779,397.029 356.129,397.029 356.129,226.003 298.779,243.98 			"/>
			<polygon style="fill:#5C5B7D;" points="233.309,396.359 175.287,396.359 175.287,189.162 233.309,199.018 			"/>
			<polygon style="fill:#605F82;" points="240.871,263.54 240.871,223.153 216.215,233.419 216.215,263.54 202.108,263.54 
				202.108,396.359 259.406,396.359 259.406,263.54 			"/>
			<rect x="78.144" y="198.787" style="fill:#5C5B7D;" width="56.805" height="186.342"/>
			<polygon style="fill:#605F82;" points="151.605,234.974 151.605,222.717 126.562,222.717 126.562,229.62 112.483,226.609 
				112.483,385.129 158.704,385.129 158.704,236.492 			"/>
		</g>
		<g>
			<g>
				<rect x="485.065" y="240.775" style="fill:#747C9B;" width="51.268" height="155.977"/>
				<g>
					<rect x="489.601" y="245.885" style="fill:#6E7592;" width="6.711" height="7.631"/>
					<rect x="501.43" y="245.885" style="fill:#6E7592;" width="6.711" height="7.631"/>
					<rect x="513.258" y="245.885" style="fill:#6E7592;" width="6.711" height="7.631"/>
					<rect x="525.086" y="245.885" style="fill:#6E7592;" width="6.711" height="7.631"/>
				</g>
				<g>
					<rect x="489.601" y="262.056" style="fill:#6E7592;" width="6.711" height="7.631"/>
					<rect x="501.43" y="262.056" style="fill:#6E7592;" width="6.711" height="7.631"/>
					<rect x="513.258" y="262.056" style="fill:#FFE67C;" width="6.711" height="7.631"/>
					<rect x="525.086" y="262.056" style="fill:#FFE67C;" width="6.711" height="7.631"/>
					<rect x="513.258" y="267.686" style="fill:#FFD053;" width="6.711" height="2"/>
					<rect x="525.086" y="267.686" style="fill:#FFD053;" width="6.711" height="2"/>
				</g>
				<g>
					<rect x="489.601" y="278.227" style="fill:#6E7592;" width="6.711" height="7.631"/>
					<rect x="501.43" y="278.227" style="fill:#6E7592;" width="6.711" height="7.631"/>
					<rect x="513.258" y="278.227" style="fill:#6E7592;" width="6.711" height="7.631"/>
					<rect x="525.086" y="278.227" style="fill:#6E7592;" width="6.711" height="7.631"/>
				</g>
				<g>
					<rect x="489.601" y="294.398" style="fill:#6E7592;" width="6.711" height="7.631"/>
					<rect x="501.43" y="294.398" style="fill:#6E7592;" width="6.711" height="7.631"/>
					<rect x="513.258" y="294.398" style="fill:#6E7592;" width="6.711" height="7.631"/>
					<rect x="525.086" y="294.398" style="fill:#6E7592;" width="6.711" height="7.631"/>
				</g>
				<g>
					<rect x="489.601" y="310.569" style="fill:#6E7592;" width="6.711" height="7.631"/>
					<rect x="501.43" y="310.569" style="fill:#FFE67C;" width="6.711" height="7.631"/>
					<rect x="501.43" y="316.052" style="fill:#FFD053;" width="6.711" height="2.147"/>
					<rect x="513.258" y="310.569" style="fill:#6E7592;" width="6.711" height="7.631"/>
					<rect x="525.086" y="310.569" style="fill:#6E7592;" width="6.711" height="7.631"/>
				</g>
				<g>
					<rect x="489.601" y="326.74" style="fill:#6E7592;" width="6.711" height="7.631"/>
					<rect x="501.43" y="326.74" style="fill:#6E7592;" width="6.711" height="7.631"/>
					<rect x="513.258" y="326.74" style="fill:#6E7592;" width="6.711" height="7.631"/>
					<rect x="525.086" y="326.74" style="fill:#6E7592;" width="6.711" height="7.631"/>
				</g>
				<g>
					<rect x="489.601" y="342.91" style="fill:#6E7592;" width="6.711" height="7.631"/>
					<rect x="501.43" y="342.91" style="fill:#6E7592;" width="6.711" height="7.631"/>
					<rect x="513.258" y="342.91" style="fill:#6E7592;" width="6.711" height="7.631"/>
					<rect x="525.086" y="342.91" style="fill:#6E7592;" width="6.711" height="7.631"/>
				</g>
				<g>
					<rect x="489.601" y="359.081" style="fill:#6E7592;" width="6.711" height="7.631"/>
					<rect x="501.43" y="359.081" style="fill:#6E7592;" width="6.711" height="7.631"/>
					<rect x="513.258" y="359.081" style="fill:#FFE67C;" width="6.711" height="7.631"/>
					<rect x="513.258" y="364.257" style="fill:#FFD053;" width="6.711" height="2.455"/>
					<rect x="525.086" y="359.081" style="fill:#6E7592;" width="6.711" height="7.631"/>
				</g>
				<g>
					<rect x="489.601" y="375.252" style="fill:#6E7592;" width="6.711" height="7.631"/>
					<rect x="501.43" y="375.252" style="fill:#FFE67C;" width="6.711" height="7.631"/>
					<rect x="501.43" y="380.626" style="fill:#FFD053;" width="6.711" height="2.256"/>
					<rect x="513.258" y="375.252" style="fill:#6E7592;" width="6.711" height="7.631"/>
					<rect x="525.086" y="375.252" style="fill:#6E7592;" width="6.711" height="7.631"/>
				</g>
			</g>
			<g>
				<rect x="438.486" y="134.991" style="fill:#7C7F9F;" width="54.594" height="261.76"/>
				<g>
					<rect x="471.457" y="129.164" style="fill:#717493;" width="13.189" height="5.827"/>
					<g>
						<rect x="445.668" y="142.638" style="fill:#717493;" width="8.413" height="9.683"/>
						<rect x="461.576" y="142.638" style="fill:#717493;" width="8.413" height="9.683"/>
						<rect x="477.485" y="142.638" style="fill:#717493;" width="8.413" height="9.683"/>
					</g>
					<g>
						<rect x="445.668" y="163.479" style="fill:#FFD053;" width="8.413" height="9.683"/>
						<rect x="461.576" y="163.479" style="fill:#FFD053;" width="8.413" height="9.683"/>
						<rect x="477.485" y="163.479" style="fill:#717493;" width="8.413" height="9.683"/>
					</g>
					<g>
						<rect x="445.668" y="184.32" style="fill:#717493;" width="8.413" height="9.683"/>
						<rect x="461.576" y="184.32" style="fill:#717493;" width="8.413" height="9.683"/>
						<rect x="477.485" y="184.32" style="fill:#717493;" width="8.413" height="9.683"/>
					</g>
					<g>
						<rect x="445.668" y="205.162" style="fill:#717493;" width="8.413" height="9.683"/>
						<rect x="461.576" y="205.162" style="fill:#717493;" width="8.413" height="9.683"/>
						<rect x="477.485" y="205.162" style="fill:#FFD053;" width="8.413" height="9.683"/>
					</g>
					<g>
						<rect x="445.668" y="226.003" style="fill:#717493;" width="8.413" height="9.683"/>
						<rect x="461.576" y="226.003" style="fill:#FFD053;" width="8.413" height="9.683"/>
						<rect x="477.485" y="226.003" style="fill:#717493;" width="8.413" height="9.683"/>
					</g>
					<g>
						<rect x="445.668" y="246.845" style="fill:#717493;" width="8.413" height="9.683"/>
						<rect x="461.576" y="246.845" style="fill:#717493;" width="8.413" height="9.683"/>
						<rect x="477.485" y="246.845" style="fill:#717493;" width="8.413" height="9.683"/>
					</g>
					<g>
						<rect x="445.668" y="267.686" style="fill:#FFD053;" width="8.413" height="9.683"/>
						<rect x="461.576" y="267.686" style="fill:#717493;" width="8.413" height="9.683"/>
						<rect x="477.485" y="267.686" style="fill:#717493;" width="8.413" height="9.683"/>
					</g>
					<g>
						<rect x="445.668" y="288.528" style="fill:#717493;" width="8.413" height="9.683"/>
						<rect x="461.576" y="288.528" style="fill:#717493;" width="8.413" height="9.683"/>
						<rect x="477.485" y="288.528" style="fill:#FFD053;" width="8.413" height="9.683"/>
						<rect x="445.668" y="168.32" style="fill:#FFB253;" width="8.413" height="4.841"/>
						<rect x="461.576" y="168.32" style="fill:#FFB253;" width="8.413" height="4.841"/>
						<rect x="477.485" y="212.216" style="fill:#FFB253;" width="8.413" height="2.629"/>
						<rect x="461.576" y="231.943" style="fill:#FFB253;" width="8.413" height="3.743"/>
						<rect x="445.668" y="274.429" style="fill:#FFB253;" width="8.413" height="2.94"/>
						<rect x="477.485" y="295.094" style="fill:#FFB253;" width="8.413" height="3.117"/>
					</g>
					<g>
						<rect x="445.668" y="309.369" style="fill:#717493;" width="8.413" height="9.683"/>
						<rect x="461.576" y="309.369" style="fill:#717493;" width="8.413" height="9.683"/>
						<rect x="477.485" y="309.369" style="fill:#717493;" width="8.413" height="9.683"/>
					</g>
					<g>
						<rect x="445.668" y="330.211" style="fill:#717493;" width="8.413" height="9.683"/>
						<rect x="461.576" y="330.211" style="fill:#717493;" width="8.413" height="9.683"/>
						<rect x="477.485" y="330.211" style="fill:#717493;" width="8.413" height="9.683"/>
					</g>
					<g>
						<rect x="445.668" y="351.052" style="fill:#717493;" width="8.413" height="9.683"/>
						<rect x="461.576" y="351.052" style="fill:#717493;" width="8.413" height="9.683"/>
						<rect x="477.485" y="351.052" style="fill:#717493;" width="8.413" height="9.683"/>
					</g>
					<g>
						<rect x="445.668" y="371.894" style="fill:#717493;" width="8.413" height="9.683"/>
						<rect x="461.576" y="371.894" style="fill:#717493;" width="8.413" height="9.683"/>
						<rect x="477.485" y="371.894" style="fill:#717493;" width="8.413" height="9.683"/>
					</g>
				</g>
			</g>
			<g>
				<polygon style="fill:#747C9B;" points="379.598,396.752 438.486,396.752 438.486,190.813 379.598,218.613 				"/>
				<polygon style="fill:#7C7F9F;" points="386.789,215.218 386.789,206.05 411.7,195.107 411.7,203.148 				"/>
				<polygon style="fill:#7C7F9F;" points="426.831,196.315 426.831,187.337 421.105,187.337 421.105,199.018 				"/>
				<g>
					<g>
						<rect x="383.824" y="221.508" style="fill:#6E7592;" width="7.738" height="12.697"/>
						<rect x="398.852" y="221.508" style="fill:#6E7592;" width="7.738" height="12.697"/>
						<rect x="413.88" y="221.508" style="fill:#FFE67C;" width="7.738" height="12.697"/>
						<rect x="413.88" y="230.845" style="fill:#FFD053;" width="7.738" height="3.361"/>
						<rect x="428.908" y="221.508" style="fill:#6E7592;" width="7.738" height="12.697"/>
						<rect x="413.88" y="206.762" style="fill:#6E7592;" width="7.738" height="9.416"/>
						<rect x="428.908" y="203.48" style="fill:#6E7592;" width="7.738" height="12.697"/>
					</g>
					<g>
						<rect x="383.824" y="240.745" style="fill:#6E7592;" width="7.738" height="12.697"/>
						<rect x="398.852" y="240.745" style="fill:#6E7592;" width="7.738" height="12.697"/>
						<rect x="413.88" y="240.745" style="fill:#6E7592;" width="7.738" height="12.697"/>
						<rect x="428.908" y="240.745" style="fill:#6E7592;" width="7.738" height="12.697"/>
					</g>
					<g>
						<rect x="383.824" y="259.982" style="fill:#FFE67C;" width="7.738" height="12.697"/>
						<rect x="383.824" y="269.319" style="fill:#FFD053;" width="7.738" height="3.361"/>
						<rect x="398.852" y="259.982" style="fill:#6E7592;" width="7.738" height="12.697"/>
						<rect x="413.88" y="259.982" style="fill:#6E7592;" width="7.738" height="12.697"/>
						<rect x="428.908" y="259.982" style="fill:#6E7592;" width="7.738" height="12.697"/>
					</g>
					<g>
						<rect x="383.824" y="279.219" style="fill:#6E7592;" width="7.738" height="12.697"/>
						<rect x="398.852" y="279.219" style="fill:#6E7592;" width="7.738" height="12.697"/>
						<rect x="413.88" y="279.219" style="fill:#FFE67C;" width="7.738" height="12.697"/>
						<rect x="413.88" y="288.528" style="fill:#FFD053;" width="7.738" height="3.388"/>
						<rect x="428.908" y="279.219" style="fill:#6E7592;" width="7.738" height="12.697"/>
					</g>
					<g>
						<rect x="383.824" y="298.456" style="fill:#6E7592;" width="7.738" height="12.697"/>
						<rect x="398.852" y="298.456" style="fill:#6E7592;" width="7.738" height="12.697"/>
						<rect x="413.88" y="298.456" style="fill:#6E7592;" width="7.738" height="12.697"/>
						<rect x="428.908" y="298.456" style="fill:#6E7592;" width="7.738" height="12.697"/>
					</g>
					<g>
						<rect x="383.824" y="317.693" style="fill:#6E7592;" width="7.738" height="12.697"/>
						<rect x="398.852" y="317.693" style="fill:#6E7592;" width="7.738" height="12.697"/>
						<rect x="413.88" y="317.693" style="fill:#6E7592;" width="7.738" height="12.697"/>
						<rect x="428.908" y="317.693" style="fill:#6E7592;" width="7.738" height="12.697"/>
					</g>
					<g>
						<rect x="383.824" y="336.93" style="fill:#6E7592;" width="7.738" height="12.697"/>
						<rect x="398.852" y="336.93" style="fill:#6E7592;" width="7.738" height="12.697"/>
						<rect x="413.88" y="336.93" style="fill:#6E7592;" width="7.738" height="12.697"/>
						<rect x="428.908" y="336.93" style="fill:#6E7592;" width="7.738" height="12.697"/>
					</g>
					<g>
						<rect x="383.824" y="356.166" style="fill:#6E7592;" width="7.738" height="12.697"/>
						<rect x="398.852" y="356.166" style="fill:#6E7592;" width="7.738" height="12.697"/>
						<rect x="413.88" y="356.166" style="fill:#6E7592;" width="7.738" height="12.697"/>
						<rect x="428.908" y="356.166" style="fill:#6E7592;" width="7.738" height="12.697"/>
					</g>
					<g>
						<rect x="383.824" y="375.403" style="fill:#6E7592;" width="7.738" height="12.697"/>
						<rect x="398.852" y="375.403" style="fill:#6E7592;" width="7.738" height="12.697"/>
						<rect x="413.88" y="375.403" style="fill:#6E7592;" width="7.738" height="12.697"/>
						<rect x="428.908" y="375.403" style="fill:#6E7592;" width="7.738" height="12.697"/>
					</g>
				</g>
			</g>
		</g>
		<g>
			<path style="fill:#733A50;" d="M271.816,212.445c1.913-1.318,3.222-3.481,3.501-5.787c0.068-0.557,0.077-1.131-0.076-1.671
				c-0.153-0.54-0.483-1.046-0.971-1.323c0.197-0.82,0.359-1.846-0.175-2.498c-0.278-0.339-0.712-0.538-0.94-0.912
				c-0.128-0.211-0.179-0.458-0.242-0.696c-0.211-0.803-0.621-1.605-1.336-2.026c-0.256-0.151-0.54-0.246-0.825-0.333
				c-0.483-0.147-0.984-0.271-1.488-0.243c-0.505,0.029-1.02,0.23-1.326,0.632c-0.159-0.815-0.767-1.502-1.522-1.848
				c-0.525-0.241-1.113-0.301-1.69-0.332c-1.378-0.074-2.858,0.035-3.957,0.87c-0.397-0.497-1.038-0.738-1.658-0.88
				c-1.433-0.327-3.001-0.109-4.241,0.679c-1.241,0.788-2.118,2.157-2.225,3.623c-1.004-0.625-2.313-0.163-3.193,0.627
				c-1.027,0.921-1.635,2.291-1.635,3.67c0,1.379,0.605,2.747,1.623,3.678c-0.536,1.813-1.363,3.885-0.591,5.611
				c0.088,0.197,0.193,0.392,0.216,0.606c0.022,0.199-0.029,0.397-0.072,0.592c-0.22,0.994-0.256,2.029-0.105,3.036
				c0.089,0.589,0.248,1.184,0.598,1.665c0.35,0.481,0.923,0.833,1.517,0.792c-0.274,0.986,0.65,2.101,1.67,2.015
				c0.151-0.013,0.306-0.046,0.45-0.002c0.198,0.061,0.322,0.251,0.458,0.407c0.785,0.905,2.203,0.851,3.358,0.536
				c2.665-0.727,4.962-2.403,7.077-4.179c2.115-1.777,4.135-3.702,6.53-5.079C271.258,213.266,272.111,212.358,271.816,212.445z"/>
			<path style="fill:#FF6E72;" d="M256.578,226.025c0,0-11.562,4.635-14.045,7.118c-1.657,1.658-1.655,12.25-0.497,20.61
				c0,0,3.559,0.138,6.208,0c0,0-0.662,13.216-1.214,18.844c-0.552,5.628-0.993,9.932,0.773,10.815s13.574,5.518,31.563,1.987
				c0,0,1.624-3.532,1.435-7.063c-0.22-4.115-0.974-19.313-0.653-23.396l6.391-1.435c0,0-1.655-19.254-4.856-21.049
				c-3.2-1.796-10.997-5.548-17.804-5.272C257.073,227.46,256.578,226.025,256.578,226.025z"/>
			<path style="fill:#AC6676;" d="M266.846,286.706l-0.331-0.003c0.108-24.791-3.087-49.575-3.112-49.796l0.328-0.036
				C263.757,237.091,266.954,261.895,266.846,286.706z"/>
			<path style="fill:#FBB098;" d="M255.583,219.845c0,0,0.772,5.849-0.331,7.836c-0.546,0.984,4.577,9.209,7.753,9.209
				c3.175,0,5.021-7.885,4.483-8.492c-0.538-0.607-1.559-2.206-0.331-5.6C268.385,219.404,255.583,219.845,255.583,219.845z"/>
			<path style="fill:#BC6572;" d="M262.025,233.082l0.757,3.792c-2.013-0.288-3.42-1.22-3.613-2.737
				c-0.23-1.808,1.6-1.055,1.6-1.055H262.025z"/>
			<path style="fill:#FF8A81;" d="M255.767,225.641l-1.701,1.431c-0.441,3.348,2.364,7.445,5.411,9.818
				c-1.149-2.761,2.548-3.807,2.548-3.807C256.578,231.854,255.767,225.641,255.767,225.641z"/>
			<path style="fill:#BC6572;" d="M264.27,236.457l0.75-3.459l1.986-1.181C267.006,231.817,267.695,234.137,264.27,236.457"/>
			<path style="fill:#FF8A81;" d="M269.318,227.686l-2.554-0.621c1.524,3.033-1.745,5.932-1.745,5.932s2.969-0.071,3.256,2.181
				C270.013,232.834,269.318,227.686,269.318,227.686z"/>
			<path style="fill:#FBB098;" d="M271.861,205.609c0,0,0.717,6.401,0,10.153c-0.717,3.752-4.525,11.257-11.202,9.16
				c-6.677-2.097-6.015-11.643-6.015-11.643c0.848,0,1.341-0.984,1.691-1.756c0.35-0.772,0.492-1.621,0.629-2.458
				c0.184-1.113,0.367-2.227,0.551-3.34c0.716,0.497,1.553,0.725,2.418,0.623c0.865-0.103,1.688-0.532,2.267-1.183
				c0.462,0.115,0.982,0.256,1.444,0.371c0.38,0.095,0.767,0.19,1.159,0.178c0.258-0.008,0.512-0.062,0.763-0.127
				c0.753-0.194,1.527-0.513,1.971-1.152c0.102,0.648,0.905,1.118,1.532,1.311C269.882,205.997,271.067,205.909,271.861,205.609z"/>
			<path style="fill:#D89698;" d="M265.908,217.173c0.372-0.462,0.764-0.976,0.761-1.57c-0.001-0.203-0.049-0.403-0.102-0.6
				c-0.221-0.833-0.517-1.645-0.811-2.456c0.214,0.256,0.385,0.508,0.557,0.793c0.461,0.762,0.937,1.573,0.941,2.464
				c0.001,0.174-0.018,0.351-0.087,0.51c-0.099,0.227-0.293,0.399-0.495,0.542C266.446,217.016,266.163,217.067,265.908,217.173z"/>
			<path style="fill:#4F4153;" d="M263.184,210.63c0,0.549-0.259,0.993-0.579,0.993s-0.579-0.445-0.579-0.993
				c0-0.549,0.259-0.993,0.579-0.993S263.184,210.081,263.184,210.63z"/>
			<path style="fill:#733A50;" d="M260.735,208.617c-0.206,0.057-0.409,0.123-0.616,0.175c-0.172,0.043-0.39,0.059-0.491-0.087
				c-0.074-0.108-0.042-0.262,0.041-0.363c0.084-0.101,0.207-0.158,0.329-0.206c0.574-0.226,1.194-0.308,1.806-0.387
				c0.796-0.104,1.646-0.2,2.368,0.152c0.108,0.053,0.224,0.132,0.237,0.252c0.059,0.541-1.28,0.227-1.51,0.218
				C262.171,208.34,261.438,208.423,260.735,208.617z"/>
			<path style="fill:#4F4153;" d="M269.723,210.382c0,0.549-0.259,0.993-0.579,0.993s-0.579-0.445-0.579-0.993
				s0.259-0.993,0.579-0.993S269.723,209.833,269.723,210.382z"/>
			<path style="fill:#733A50;" d="M267.807,208.391c-0.212,0.02-0.424,0.05-0.637,0.064c-0.177,0.012-0.395-0.01-0.468-0.171
				c-0.054-0.119,0.004-0.266,0.104-0.35c0.1-0.084,0.232-0.119,0.36-0.145c0.605-0.122,1.229-0.095,1.846-0.066
				c0.802,0.037,1.656,0.091,2.305,0.563c0.097,0.071,0.197,0.169,0.189,0.29c-0.036,0.543-1.301,0.001-1.525-0.049
				C269.269,208.368,268.533,208.322,267.807,208.391z"/>
			<path style="fill:#DCECF2;" d="M261.702,214.616c-1.799-1.278-6.012-4.273-7.49-7.003c0,0-0.779-0.545-1.595-0.304l1.304,0.462
				c1.514,2.798,5.772,5.823,7.59,7.115c0.378,0.268,0.703,0.5,0.753,0.555l0.135-0.092l0.162-0.036
				C262.538,215.214,262.498,215.182,261.702,214.616z"/>
			<path style="fill:#DCECF2;" d="M256.864,221.829c-2.282-2.668-4.665-8.996-4.765-9.264l0.31-0.116
				c0.024,0.065,2.462,6.543,4.707,9.166L256.864,221.829z"/>
			<path style="fill:#73DCC9;" d="M262.083,215.113c-0.758,1.36-1.555,2.759-2.52,3.981c-0.827,1.046-1.826,1.971-2.985,2.62
				c0.896,1.408,2.185,2.613,4.082,3.208c6.677,2.097,10.484-5.408,11.202-9.16c0.051-0.267,0.093-0.55,0.13-0.841
				c-1.532,0.525-3.164,0.729-4.785,0.718C265.488,215.628,263.779,215.393,262.083,215.113z"/>
			<path style="fill:#FBB098;" d="M254.066,207.691c0,0-0.745,2.594-0.386,5.049c0.027,0.182-0.187,0.284-0.368,0.317
				c-0.181,0.033-0.365-0.025-0.535-0.094c-0.807-0.329-1.493-0.95-1.9-1.721c-0.408-0.771-0.611-1.707-0.352-2.54
				C251.11,206.817,253.697,207.264,254.066,207.691z"/>
			<path style="fill:#D89698;" d="M252.779,208.918c-0.317,0.03-0.654,0.07-0.898,0.274c-0.212,0.176-0.319,0.449-0.377,0.718
				c-0.132,0.617-0.04,1.279,0.255,1.837s0.79,1.007,1.375,1.245c0.062,0.025,0.126,0.048,0.191,0.062
				c0.178-0.035,0.381-0.136,0.355-0.313c-0.2-1.368-0.056-2.762,0.109-3.744C253.486,208.879,253.077,208.889,252.779,208.918z"/>
			<g>
				<path style="fill:#D4EBE8;" d="M267.479,217.542c-1.716,0-3.445-0.18-4.892-0.361l0.041-0.329
					c2.134,0.267,4.89,0.532,7.279,0.211l0.044,0.329C269.155,217.499,268.319,217.542,267.479,217.542z"/>
				<path style="fill:#D4EBE8;" d="M266.556,219.576c-1.948,0-3.695-0.26-4.99-0.532l0.069-0.325
					c1.946,0.409,4.924,0.793,8.062,0.28l0.053,0.327C268.654,219.504,267.577,219.576,266.556,219.576z"/>
				<path style="fill:#D4EBE8;" d="M266.336,221.503c-2.134,0-4.418-0.265-6.434-0.764l0.079-0.321
					c2.714,0.672,5.917,0.915,8.567,0.65l0.032,0.33C267.865,221.468,267.111,221.503,266.336,221.503z"/>
				<path style="fill:#D4EBE8;" d="M264.547,223.353c-2.184,0-3.875-0.215-5.974-0.921l0.106-0.314
					c2.641,0.889,4.634,0.987,7.843,0.859l0.013,0.331C265.821,223.335,265.164,223.353,264.547,223.353z"/>
			</g>
			<g>
				<polygon style="fill:#FFDD3E;" points="282.18,274.405 299.355,275.018 299.355,267.147 282.18,267.76 				"/>
				<path style="fill:#FFAA3E;" d="M303.494,277.569l-4.71-0.868c-0.48-0.089-0.836-0.598-0.836-1.198v-9.458
					c0-0.6,0.356-1.11,0.836-1.198l4.71-0.868V277.569z"/>
				<path style="fill:#FFEEBB;" d="M304.818,275.995h-1.324v-10.445h1.324c0.366,0,0.662,0.296,0.662,0.662v9.12
					C305.48,275.699,305.184,275.995,304.818,275.995z"/>
				<polygon style="fill:#8281B5;" points="305.48,267.306 305.48,274.911 366.374,296.223 374.976,242.984 				"/>
				<polygon style="fill:#8D8CBF;" points="356.129,249.58 305.48,267.306 305.48,274.911 356.129,292.638 				"/>
				<polygon style="fill:#FFB83E;" points="288.305,267.541 288.305,269.805 294.885,269.805 294.885,267.306 				"/>
			</g>
			<path style="fill:#FBB098;" d="M275.614,273.894c-11.734-1.297-25.033-4.313-28.229-5.647
				c-3.196-1.334-4.107-14.459-4.107-14.459s8.297-0.201,11.35-0.864c0,0-0.147,5.38,0.584,6.291
				c0.731,0.91,18.775,8.029,22.334,7.946c3.559-0.083,4.387-1.655,6.539-1.738c2.152-0.083,1.821,0.91,1.49,1.407
				c-0.331,0.497-1.242,1.076-1.159,1.407c0.083,0.331,6.384,5.689,7.615,6.29c1.51,0.738,0.103,1.663-0.685,1.452
				c-0.988-0.265-1.941-0.67-2.784-1.249c-0.042,0.177-0.207,0.327-0.374,0.401c-0.167,0.074-0.353,0.09-0.536,0.088
				c-0.372-0.004-0.743-0.08-1.087-0.222c-0.102,0.179-0.302,0.239-0.501,0.29c-0.199,0.051-0.408,0.047-0.614,0.037
				c-0.342-0.017-0.691-0.05-1.001-0.196c-1.278,0.787-2.84,0.598-4.268,0.137"/>
			<path style="fill:#FBB098;" d="M313.09,241.034c-2.869,0.331-3.816,5.187-4.368,5.518c-0.552,0.331-18.651,7.284-20.5,7.615
				c-1.848,0.331-1.683-0.662-1.683-0.662l-6.391,1.435c0,0,0.266,7.836,4.957,7.946c4.69,0.11,21.631-9.822,24.831-9.96
				c3.201-0.138,4.828-0.055,6.511-1.545C317.158,250.751,313.09,241.034,313.09,241.034z"/>
			<path style="fill:#ECA098;" d="M312.955,243.833c-0.422,0.398-0.646,1.075-0.697,1.637c-0.033,0.368,0.004,0.74-0.038,1.108
				c-0.042,0.367-0.162,0.726-0.161,1.096c0.001,0.535,0.252,1.033,0.38,1.552c0.204,0.829,0.088,1.715-0.206,2.517
				c-0.141,0.386-0.325,0.753-0.53,1.11c2.088-0.098,3.406-0.286,4.745-1.471c0.473-0.418-1.165-4.846-2.317-7.772
				C313.684,243.534,313.243,243.56,312.955,243.833z"/>
			<rect x="312.916" y="221.872" style="fill:#F5F5F5;" width="2.207" height="38.586"/>
			<path style="fill:#E4E1F5;" d="M312.916,228.046c0.368,0.019,0.731,0.056,1.104,0.056c0.372,0,0.736-0.036,1.104-0.056v-6.174
				h-2.207V228.046z"/>
			<path style="fill:#FBB098;" d="M319.48,250.203c-0.283,0.293-0.599,0.558-0.952,0.761c-0.871,0.502-1.909,0.603-2.911,0.692
				c-0.207,0.018-0.423,0.035-0.614-0.046c-0.302-0.129-0.461-0.483-0.444-0.811c0.017-0.328,0.176-0.631,0.359-0.903
				c0.163-0.241,0.35-0.47,0.584-0.643c0.257-0.189,0.559-0.302,0.858-0.411c0.714-0.261,1.433-0.51,2.156-0.747
				c0.518-0.17,1.194-0.401,1.528,0.171C320.443,248.95,319.959,249.708,319.48,250.203z"/>
			<path style="fill:#ECA098;" d="M319.507,248.646c0.171-0.144,0.319-0.312,0.449-0.492c-0.354-0.416-0.962-0.216-1.44-0.059
				c-0.723,0.237-1.441,0.486-2.156,0.747c-0.299,0.109-0.602,0.223-0.858,0.411c-0.234,0.172-0.422,0.401-0.584,0.643
				c-0.046,0.068-0.08,0.144-0.122,0.216c0.105-0.008,0.211-0.014,0.315-0.028C316.663,249.888,318.309,249.652,319.507,248.646z"/>
			<path style="fill:#FBB098;" d="M320.156,246.519c0.158,0.31,0.135,0.691-0.003,1.01c-0.138,0.319-0.38,0.583-0.647,0.807
				c-1.198,1.006-2.844,1.242-4.396,1.438c-0.319,0.04-0.651,0.08-0.957-0.021c-0.299-0.098-0.542-0.32-0.743-0.561
				c-0.182-0.217-0.346-0.482-0.317-0.764c0.018-0.178,0.112-0.34,0.225-0.479c0.417-0.514,1.076-0.754,1.707-0.953
				c0.976-0.308,1.966-0.573,2.965-0.795C318.682,246.049,319.725,245.677,320.156,246.519z"/>
			<path style="fill:#ECA098;" d="M317.99,246.202c-0.999,0.221-1.989,0.486-2.965,0.794c-0.631,0.199-1.29,0.439-1.707,0.953
				c-0.1,0.123-0.177,0.267-0.207,0.422c0.359,0.252,0.814,0.357,1.257,0.347c0.513-0.012,1.013-0.152,1.51-0.277
				c0.959-0.241,1.95-0.439,2.796-0.951c0.51-0.308,0.938-0.771,1.2-1.299C319.365,245.811,318.561,246.076,317.99,246.202z"/>
			<path style="fill:#FBB098;" d="M319.768,244.137c0.177,0.183,0.252,0.444,0.272,0.698c0.076,0.986-0.611,1.898-1.457,2.41
				c-0.846,0.511-1.838,0.71-2.796,0.951c-0.497,0.125-0.997,0.265-1.51,0.277c-0.513,0.012-1.051-0.118-1.425-0.468
				c-0.374-0.35-0.536-0.952-0.284-1.399c0.139-0.247,0.379-0.419,0.62-0.568c0.865-0.536,1.833-0.881,2.793-1.221
				c0.704-0.25,1.409-0.5,2.113-0.749C318.611,243.884,319.315,243.667,319.768,244.137z"/>
			<path style="fill:#ECA098;" d="M318.358,244.935c0.37-0.27,0.719-0.63,0.864-1.05c-0.376-0.053-0.79,0.063-1.129,0.183
				c-0.704,0.25-1.409,0.5-2.113,0.75c-0.96,0.34-1.928,0.685-2.793,1.221c-0.083,0.051-0.16,0.111-0.239,0.17
				c0.148,0.096,0.314,0.167,0.49,0.189c0.282,0.035,0.566-0.01,0.846-0.056C315.715,246.105,317.187,245.791,318.358,244.935z"/>
			<path style="fill:#FBB098;" d="M318.213,242.415c0.29-0.037,0.618-0.055,0.842,0.133c0.162,0.136,0.232,0.356,0.237,0.568
				c0.015,0.61-0.442,1.129-0.934,1.489c-1.171,0.855-2.643,1.17-4.074,1.406c-0.28,0.046-0.565,0.09-0.846,0.056
				c-0.282-0.034-0.564-0.158-0.73-0.388c-0.46-0.638,0.087-1.531,0.691-1.825c0.953-0.465,1.964-0.831,2.992-1.092
				C316.99,242.609,317.599,242.493,318.213,242.415z"/>
			
				<ellipse transform="matrix(0.1611 -0.9869 0.9869 0.1611 58.8363 483.8274)" style="fill:#FF7C76;" cx="314.019" cy="207.304" rx="18.142" ry="18.143"/>
			<path style="fill:#FFFFFF;" d="M314.019,223.924c-9.164,0-16.62-7.456-16.62-16.619c0-9.164,7.456-16.619,16.62-16.619
				c9.165,0,16.62,7.455,16.62,16.619C330.639,216.468,323.184,223.924,314.019,223.924z M314.019,191.062
				c-8.956,0-16.242,7.286-16.242,16.242c0,8.956,7.286,16.242,16.242,16.242c8.956,0,16.242-7.286,16.242-16.242
				C330.262,198.349,322.975,191.062,314.019,191.062z"/>
			
				<ellipse transform="matrix(0.9183 -0.396 0.396 0.9183 -56.4198 141.2882)" style="fill:#E9CBD8;" cx="314.019" cy="207.304" rx="13.967" ry="13.967"/>
			
				<ellipse transform="matrix(0.1608 -0.987 0.987 0.1608 58.9124 483.8975)" style="fill:#FFEBDF;" cx="314.019" cy="207.304" rx="12.748" ry="12.748"/>
			<text transform="matrix(1 0 0 1 302.9316 209.7949)" style="fill:#6B5676; font-family:'Montserrat-Bold'; font-size:7.8298px;">STOP</text>
			<path style="fill:#956676;" d="M276.469,266.643c-0.225,1.871-0.505,3.734-0.839,5.589c-0.131,0.729-0.285,1.489-0.746,2.069
				c-0.584,0.735-1.902,0.316-2.655-0.245c0.993-2.41,1.664-4.982,1.876-7.58c0.249-0.3,0.595-0.487,0.985-0.488
				C275.481,265.987,276.219,266.344,276.469,266.643z"/>
			<path style="fill:#956676;" d="M247.78,242.538c0.02-0.869,0.033-1.696,0.053-2.565c-2.191,0.154-4.387,0.208-6.583,0.183
				c-0.026,0.892-0.033,1.832-0.02,2.81C243.417,243.038,245.627,242.895,247.78,242.538z"/>
			<path style="fill:#FFBAB3;" d="M245.678,246.801c-0.372-0.745-0.538-1.655-0.91-1.738c-0.275-0.061-2.388-0.032-3.483-0.013
				c0.088,2.297,0.268,4.696,0.535,6.994c0.503-0.094,1.08-0.238,1.706-0.443C245.43,250.981,246.051,247.546,245.678,246.801z"/>
			<path style="fill:#AC6676;" d="M254.462,252.932c-0.003-0.074-0.29-7.346-0.315-9.109l0.331-0.005
				c0.025,1.759,0.312,9.027,0.315,9.101L254.462,252.932z"/>
			<path style="fill:#AC6676;" d="M279.982,254.943c-0.002-0.087-0.234-8.76-0.561-12.792l0.33-0.026
				c0.328,4.04,0.559,12.722,0.562,12.81L279.982,254.943z"/>
			<path style="fill:#D7D1DE;" d="M250.065,286.709c0,0-1.49,13.645,0.993,18.114s19.499,20.196,21.172,25.824
				c1.673,5.628,4.239,45.469,4.239,45.469h16.204c0,0,3.468-50.104,2.419-56.725c-1.048-6.622-17.161-31.784-17.161-31.784
				L250.065,286.709z"/>
			<rect x="269.723" y="245.026" style="fill:#FFBAB3;" width="7.491" height="1.527"/>
			<path style="fill:#9D7C76;" d="M249.482,284.099c-0.198,1.095-0.471,3.199,0.14,4.09c1.738,1.738,27.509,1.652,28.999,0.659
				c1.021-0.303,1.294-2.842,0.745-3.449C264.317,288.354,253.619,285.598,249.482,284.099z"/>
			<path style="fill:#B39EA1;" d="M267.975,289.548c2.348-0.018,4.542-0.077,6.333-0.17v-3.177
				c-2.234,0.275-4.343,0.421-6.333,0.475V289.548z"/>
			<path style="fill:#C5C4D3;" d="M254.344,309.015c-0.575,5.475-2.38,21.309-4.341,24.447
				c-2.379,3.807-20.135,19.858-20.135,19.858l7.449,11.919c0,0,28.926-18.147,30.657-19.803c1.465-1.402,2.503-10.505,4.041-15.374
				C270.021,325.337,259.866,315.273,254.344,309.015z"/>
			<path style="fill:#F5F5F5;" d="M285.226,372.036l-0.463-0.008c0.006-0.411,0.645-41.237-0.817-45.948
				c-1.465-4.718-13.922-24.906-14.047-25.109l0.395-0.243c0.514,0.832,12.613,20.442,14.095,25.215
				C285.872,330.725,285.253,370.351,285.226,372.036z"/>
			<path style="fill:#BFBED8;" d="M268.936,292.686c-1.18,3.202-3.492,5.974-6.43,7.71c0.303,0.249,0.582,0.537,0.885,0.786
				c3.054-1.863,5.612-4.451,7.336-7.586C270.156,293.36,269.44,293.042,268.936,292.686z"/>
			<path style="fill:#C1925B;" d="M316.116,389.746c-1.655-1.573-3.145-1.655-3.807-1.655c-0.662,0-7.367,0.166-9.601-0.993
				c-2.235-1.159-11.091-5.463-12.333-5.38c-1.242,0.083-0.828,1.655-3.394,2.483s-7.035-0.497-8.36-1.49
				c-1.324-0.993-2.069,1.821-2.235,2.566c-0.165,0.745,0.503,5.582,0,6.704c-1.076,2.4,0,5.049,0,5.049h7.997
				c0.506,0,0.958-0.245,1.328-0.592c0.679-0.637,1.912-1.064,3.33-1.064c1.417,0,2.65,0.427,3.33,1.064
				c0.37,0.346,0.821,0.592,1.328,0.592h21.803c0.365,0,0.685-0.247,0.772-0.602C316.644,394.919,317.442,391.005,316.116,389.746z"
				/>
			<path style="fill:#9E735B;" d="M293.536,394.464c-0.537,0-1.016-0.26-1.409-0.628c-0.721-0.675-2.028-1.128-3.531-1.128
				c-1.503,0-2.811,0.453-3.531,1.128c-0.392,0.367-0.871,0.628-1.409,0.628h-7.739c0.023,1.442,0.469,2.566,0.469,2.566h7.997
				c0.507,0,0.958-0.245,1.328-0.592c0.679-0.637,1.912-1.064,3.329-1.064c1.417,0,2.65,0.427,3.33,1.064
				c0.37,0.346,0.821,0.592,1.328,0.592h21.803c0.365,0,0.686-0.248,0.773-0.603c0.115-0.472,0.272-1.177,0.393-1.963H293.536z"/>
			<path style="fill:#FBB098;" d="M286.981,384.2c2.499-0.806,2.182-2.308,3.311-2.463v-5.621h-11.919l0.425,6.701
				C280.281,383.795,284.504,384.999,286.981,384.2z"/>
			<path style="fill:#C1925B;" d="M238.755,393.38c0.481-2.232-0.224-3.547-0.569-4.113c-0.345-0.565-3.976-6.204-4.15-8.715
				c-0.174-2.511-1.109-12.314-1.827-13.331c-0.717-1.017-1.844,0.155-3.887-1.605c-2.042-1.76-3.238-6.266-3.08-7.913
				c0.159-1.648-2.632-0.819-3.354-0.572c-0.722,0.246-4.504,3.335-5.724,3.49c-2.61,0.331-4.311,2.628-4.311,2.628l4.163,6.828
				c0.264,0.433,0.709,0.69,1.197,0.826c0.897,0.249,1.904,1.079,2.641,2.289c0.738,1.21,1.015,2.485,0.825,3.397
				c-0.103,0.496-0.078,1.009,0.186,1.442l11.35,18.616c0.19,0.312,0.568,0.456,0.916,0.346
				C234.613,396.523,238.37,395.167,238.755,393.38z"/>
			<path style="fill:#9E735B;" d="M222.972,376.556c-0.28-0.459-0.307-1.003-0.197-1.529c0.201-0.967-0.093-2.319-0.875-3.602
				c-0.782-1.283-1.85-2.164-2.801-2.428c-0.518-0.143-0.99-0.417-1.269-0.876l-4.029-6.608c-1.219,0.77-1.947,1.736-1.947,1.736
				l4.163,6.828c0.264,0.432,0.708,0.69,1.197,0.826c0.897,0.249,1.904,1.079,2.641,2.289c0.738,1.21,1.015,2.485,0.825,3.396
				c-0.103,0.496-0.078,1.009,0.186,1.442l11.35,18.616c0.19,0.312,0.569,0.457,0.917,0.346c0.463-0.147,1.147-0.381,1.881-0.686
				L222.972,376.556z"/>
			<path style="fill:#FBB098;" d="M230.457,354.26l-5.212,3.649c-0.063,1.776,1.108,6.009,3.079,7.707
				c1.989,1.714,3.107,0.662,3.827,1.545l4.613-2.812L230.457,354.26z"/>
			<g>
				<path style="fill:#90BFDC;" d="M250.992,198.914c0,0-1.536-2.1-1.536-3.662s21.962-5.329,24.721-5.432
					c2.759-0.103-1.286,9.094-1.286,9.094H250.992z"/>
				<rect x="249.937" y="198.914" style="fill:#B3D1DC;" width="22.955" height="1.479"/>
				<path style="fill:#C3E7DC;" d="M268.932,198.241c0.614-2.089-0.453-4.242-2.381-4.809c-1.929-0.567-3.99,0.668-4.604,2.757
					c-0.279,0.95-0.197,1.907,0.142,2.728h6.574C268.768,198.703,268.862,198.479,268.932,198.241z"/>
				<path style="fill:#DCECF2;" d="M267.924,198.484c0.436-1.486-0.322-3.017-1.694-3.42c-1.372-0.403-2.838,0.475-3.274,1.961
					c-0.198,0.676-0.14,1.356,0.101,1.94h4.675C267.808,198.812,267.874,198.654,267.924,198.484z"/>
				<path style="fill:#9CCADC;" d="M272.892,198.914h-14.467c4.612,2.856,8.926,3.858,15.449,3.936
					c1.878,0.022,7.187-0.542,6.275-1.963C279.336,199.622,272.892,198.914,272.892,198.914z"/>
			</g>
			<path style="fill:#FFCFD4;" d="M243.775,248.373c0-1.128-0.914-2.042-2.042-2.042c-0.128,0-0.251,0.015-0.373,0.038
				c0.071,1.345,0.173,2.691,0.303,4.039c0.024,0.001,0.046,0.007,0.07,0.007C242.86,250.415,243.775,249.501,243.775,248.373z"/>
			<path style="fill:#D69B98;" d="M286.615,275.013c-0.036-0.082-0.092-0.154-0.208-0.251c-0.108-0.091-0.216-0.182-0.324-0.273
				c-0.066-0.055-0.302-0.194-0.324-0.273c0.028,0.1,0.09,0.187,0.151,0.271c0.132,0.183,0.263,0.367,0.395,0.55
				c0.028,0.039,0.063,0.073,0.095,0.109c0.063-0.04,0.127-0.081,0.166-0.15C286.581,275.004,286.598,275.007,286.615,275.013z"/>
			<path style="fill:#D69B98;" d="M284.485,275.14c-0.077-0.216-0.485-0.393-0.617-0.458c-0.281-0.138-0.591-0.202-0.898-0.264
				c0.19,0.227,0.509,0.29,0.76,0.447c0.087,0.055,0.273,0.273,0.445,0.403c0.091-0.046,0.185-0.085,0.273-0.139
				C284.461,275.134,284.474,275.135,284.485,275.14z"/>
			<path style="fill:#D69B98;" d="M286.758,273.034c0.232,0.35,1,0.948,1.314,1.219c0.155,0.134,0.303,0.277,0.42,0.447
				c0.014,0.021,0.03,0.05,0.045,0.077c0.006-0.016,0.022-0.028,0.026-0.044c0.046,0.031,0.099,0.05,0.145,0.081
				c0.021-0.034,0.036-0.075,0.022-0.106C288.503,274.217,287.1,273.213,286.758,273.034z"/>
		</g>
		<g>
			<defs>
				<path id="SVGID_1_" d="M538.938,396.77H79.691c-6.249-5.406-11.396-9.833-16.228-16.537
					c-83.815-116.279,29.29-257.184,133.03-197.996c1.531-22.497,61.609-58.06,90.254-9.02
					c22.86-34.042,59.687-66.415,102.418-67.568c42.731-1.152,86.909,22.605,103.598,61.96c19.965-0.611,39.151,10.709,49.84,27.583
					c10.689,16.874,14.085,37.505,13.533,57.473c-0.545,19.718-5.307,40.437-19.093,54.546
					c12.461,9.199,18.504,24.704,18.505,40.192C555.551,362.89,547.318,383.744,538.938,396.77z"/>
			</defs>
			<clipPath id="SVGID_00000168828446888004738120000011430575018256244408_">
				<use xlink:href="#SVGID_1_"  style="overflow:visible;"/>
			</clipPath>
			<g style="clip-path:url(#SVGID_00000168828446888004738120000011430575018256244408_);">
				<g>
					<polygon style="fill:#838BA2;" points="527.888,396.752 565.975,396.752 565.975,292.027 527.888,284.666 					"/>
					<g>
						<g>
							<rect x="533.77" y="295.823" style="fill:#FFD053;" width="4.841" height="4.841"/>
							<rect x="544.584" y="295.823" style="fill:#717B91;" width="4.841" height="4.841"/>
							<rect x="555.398" y="295.823" style="fill:#717B91;" width="4.841" height="4.841"/>
						</g>
						<g>
							<rect x="533.77" y="306.986" style="fill:#717B91;" width="4.841" height="4.841"/>
							<rect x="544.584" y="306.986" style="fill:#717B91;" width="4.841" height="4.841"/>
							<rect x="555.398" y="306.986" style="fill:#717B91;" width="4.841" height="4.841"/>
						</g>
						<g>
							<rect x="533.77" y="318.15" style="fill:#717B91;" width="4.841" height="4.841"/>
							<rect x="544.584" y="318.15" style="fill:#717B91;" width="4.841" height="4.841"/>
							<rect x="555.398" y="318.15" style="fill:#717B91;" width="4.841" height="4.841"/>
						</g>
						<g>
							<rect x="533.77" y="329.313" style="fill:#717B91;" width="4.841" height="4.841"/>
							<rect x="544.584" y="329.313" style="fill:#717B91;" width="4.841" height="4.841"/>
							<rect x="555.398" y="329.313" style="fill:#717B91;" width="4.841" height="4.841"/>
						</g>
						<g>
							<rect x="533.77" y="340.476" style="fill:#FFD053;" width="4.841" height="4.841"/>
							<rect x="544.584" y="340.476" style="fill:#717B91;" width="4.841" height="4.841"/>
							<rect x="555.398" y="340.476" style="fill:#717B91;" width="4.841" height="4.841"/>
						</g>
						<g>
							<rect x="533.77" y="351.639" style="fill:#717B91;" width="4.841" height="4.841"/>
							<rect x="544.584" y="351.639" style="fill:#717B91;" width="4.841" height="4.841"/>
							<rect x="555.398" y="351.639" style="fill:#717B91;" width="4.841" height="4.841"/>
						</g>
						<g>
							<rect x="533.77" y="362.803" style="fill:#717B91;" width="4.841" height="4.841"/>
							<rect x="544.584" y="362.803" style="fill:#717B91;" width="4.841" height="4.841"/>
							<rect x="555.398" y="362.803" style="fill:#717B91;" width="4.841" height="4.841"/>
						</g>
						<g>
							<rect x="533.77" y="373.966" style="fill:#717B91;" width="4.841" height="4.841"/>
							<rect x="544.584" y="373.966" style="fill:#717B91;" width="4.841" height="4.841"/>
							<rect x="555.398" y="373.966" style="fill:#717B91;" width="4.841" height="4.841"/>
						</g>
						<g>
							<rect x="533.77" y="385.129" style="fill:#717B91;" width="4.841" height="4.841"/>
							<rect x="544.584" y="385.129" style="fill:#717B91;" width="4.841" height="4.841"/>
							<rect x="555.398" y="385.129" style="fill:#717B91;" width="4.841" height="4.841"/>
						</g>
					</g>
				</g>
				<polygon style="fill:#FFAA3E;" points="60.21,385.386 201.706,385.386 207.84,396.752 54.076,396.752 				"/>
				<polygon style="fill:#FF8E3E;" points="54.076,396.752 207.84,396.752 205.096,391.667 56.821,391.667 				"/>
				<g>
					<g>
						<path style="fill:#6E92BB;" d="M61.704,385.386H44.786c-2.052,0-3.715-1.663-3.715-3.715v-21.892
							c0-2.052,1.663-3.715,3.715-3.715h16.917c2.052,0,3.715,1.663,3.715,3.715v21.892
							C65.419,383.723,63.755,385.386,61.704,385.386z"/>
						<path style="fill:#6E92BB;" d="M195.143,385.386h-16.917c-2.052,0-3.715-1.663-3.715-3.715v-21.892
							c0-2.052,1.663-3.715,3.715-3.715h16.917c2.052,0,3.715,1.663,3.715,3.715v21.892
							C198.858,383.723,197.195,385.386,195.143,385.386z"/>
					</g>
					<path style="fill:#90BFDC;" d="M196.816,366.867H46.127c-5.185,0-9.389-4.203-9.389-9.388V327.15
						c0-5.185,4.203-9.389,9.389-9.389h150.689c5.185,0,9.389,4.203,9.389,9.389v30.328
						C206.204,362.663,202.001,366.867,196.816,366.867z"/>
					<path style="fill:#83B5DC;" d="M171.446,270.718H70.035c-2.834,0-5.386,1.714-6.458,4.337l-17.45,42.706h149.227l-17.45-42.706
						C176.832,272.432,174.28,270.718,171.446,270.718z"/>
					<path style="fill:#6E8297;" d="M167.984,273.944H73.497c-2.64,0-5.018,1.597-6.017,4.041l-16.259,39.79H190.26l-16.259-39.79
						C173.003,275.541,170.625,273.944,167.984,273.944z"/>
					<path style="fill:#7AA0C5;" d="M156.1,350.224H86.842c-1.058,0-1.968-0.75-2.17-1.789l-4.094-21.097
						c-0.265-1.364,0.78-2.631,2.17-2.631h77.446c1.39,0,2.435,1.267,2.17,2.631l-4.094,21.097
						C158.069,349.474,157.159,350.224,156.1,350.224z"/>
					<g>
						<polygon style="fill:#84AACF;" points="83.318,341.455 83.678,343.312 159.264,343.312 159.625,341.455 						"/>
						<polygon style="fill:#84AACF;" points="158.343,348.057 158.704,346.2 84.239,346.2 84.599,348.057 						"/>
						<path style="fill:#84AACF;" d="M80.569,327.218c0.006,0.04,0.002,0.079,0.009,0.119l0.337,1.738h81.111l0.337-1.738
							c0.008-0.04,0.004-0.079,0.009-0.119H80.569z"/>
						<polygon style="fill:#84AACF;" points="81.476,331.964 81.837,333.821 161.106,333.821 161.467,331.964 						"/>
						<polygon style="fill:#84AACF;" points="82.397,336.709 82.757,338.566 160.185,338.566 160.546,336.709 						"/>
					</g>
					<g>
						<g>
							
								<ellipse transform="matrix(0.1826 -0.9832 0.9832 0.1826 -281.9024 326.7206)" style="fill:#B9D8DC;" cx="55.534" cy="332.892" rx="12.122" ry="12.122"/>
							
								<ellipse transform="matrix(0.671 -0.7415 0.7415 0.671 -228.5539 150.6961)" style="fill:#6E92BB;" cx="55.534" cy="332.892" rx="8.532" ry="8.532"/>
							<path style="fill:#7AA0C5;" d="M62.062,332.892c0,3.605-2.923,6.528-6.528,6.528s-6.528-2.923-6.528-6.528
								c0-3.605,2.923-6.528,6.528-6.528S62.062,329.287,62.062,332.892z"/>
							<path style="fill:#8FB4D0;" d="M54.809,330.529c0,0.905-0.734,1.639-1.639,1.639c-0.905,0-1.639-0.734-1.639-1.639
								c0-0.905,0.734-1.639,1.639-1.639C54.076,328.89,54.809,329.624,54.809,330.529z"/>
						</g>
						<g>
							
								<ellipse transform="matrix(0.1608 -0.987 0.987 0.1608 -171.285 464.3375)" style="fill:#B9D8DC;" cx="187.409" cy="332.892" rx="12.122" ry="12.122"/>
							
								<ellipse transform="matrix(0.2405 -0.9706 0.9706 0.2405 -180.7887 434.7242)" style="fill:#6E92BB;" cx="187.409" cy="332.892" rx="8.532" ry="8.532"/>
							<path style="fill:#7AA0C5;" d="M193.937,332.892c0,3.605-2.923,6.528-6.528,6.528c-3.605,0-6.528-2.923-6.528-6.528
								c0-3.605,2.923-6.528,6.528-6.528C191.014,326.364,193.937,329.287,193.937,332.892z"/>
							<path style="fill:#8FB4D0;" d="M186.685,330.529c0,0.905-0.734,1.639-1.639,1.639c-0.905,0-1.639-0.734-1.639-1.639
								c0-0.905,0.734-1.639,1.639-1.639C185.951,328.89,186.685,329.624,186.685,330.529z"/>
						</g>
					</g>
					<path style="fill:#B9D8DC;" d="M165.494,371.132H77.449c-1.82,0-3.295-1.475-3.295-3.295v-5.514
						c0-1.82,1.475-3.295,3.295-3.295h88.046c1.82,0,3.295,1.475,3.295,3.295v5.514C168.79,369.657,167.314,371.132,165.494,371.132
						z"/>
					<g>
						<g>
							<path style="fill:#6E92BB;" d="M58.105,361.503H45.134c-1.356,0-2.456-1.099-2.456-2.456v-2.242
								c0-1.356,1.099-2.456,2.456-2.456h12.971c1.356,0,2.456,1.099,2.456,2.456v2.242
								C60.561,360.404,59.461,361.503,58.105,361.503z"/>
							<path style="fill:#7AA0C5;" d="M49.085,357.718h-3.751c-0.659,0-1.194-0.534-1.194-1.194l0,0
								c0-0.659,0.534-1.194,1.194-1.194h3.751c0.659,0,1.194,0.534,1.194,1.194l0,0C50.279,357.183,49.744,357.718,49.085,357.718z
								"/>
						</g>
						<g>
							<path style="fill:#6E92BB;" d="M197.809,361.503h-12.971c-1.356,0-2.455-1.099-2.455-2.456v-2.242
								c0-1.356,1.099-2.456,2.455-2.456h12.971c1.356,0,2.456,1.099,2.456,2.456v2.242
								C200.264,360.404,199.165,361.503,197.809,361.503z"/>
							<path style="fill:#7AA0C5;" d="M188.788,357.718h-3.751c-0.659,0-1.194-0.534-1.194-1.194l0,0
								c0-0.659,0.534-1.194,1.194-1.194h3.751c0.659,0,1.193,0.534,1.193,1.194l0,0
								C189.982,357.183,189.448,357.718,188.788,357.718z"/>
						</g>
					</g>
					<path style="fill:#DBE8E5;" d="M87.435,365.879h-6.06c-1.208,0-2.188-0.98-2.188-2.188v0c0-1.208,0.979-2.188,2.188-2.188h6.06
						c1.208,0,2.188,0.979,2.188,2.188v0C89.623,364.899,88.644,365.879,87.435,365.879z"/>
					<path style="fill:#DBE8E5;" d="M119.284,365.879H94.941c-1.208,0-2.188-0.98-2.188-2.188v0c0-1.208,0.979-2.188,2.188-2.188
						h24.343c1.208,0,2.188,0.979,2.188,2.188v0C121.471,364.899,120.492,365.879,119.284,365.879z"/>
					<g>
						<polygon style="fill:#829AB3;" points="106.547,273.944 102.159,273.944 81.34,317.776 85.727,317.776 						"/>
						<polygon style="fill:#829AB3;" points="164.208,273.944 159.821,273.944 139.001,317.776 143.389,317.776 						"/>
						<polygon style="fill:#829AB3;" points="63.917,317.776 72.692,317.776 93.511,273.944 84.737,273.944 						"/>
					</g>
					<g>
						<g>
							<rect x="193.247" y="312.591" style="fill:#7AA0C5;" width="3.246" height="5.17"/>
							<path style="fill:#90BFDC;" d="M207.208,316.431h-13.96v-7.826c0-2.796,2.266-5.062,5.062-5.062h8.898
								c2.796,0,5.062,2.266,5.062,5.062v2.763C212.27,314.165,210.003,316.431,207.208,316.431z"/>
							<path style="fill:#AFCFE3;" d="M208.877,307.709c0,1.258-1.515,2.278-3.385,2.278c-1.869,0-3.385-1.02-3.385-2.278
								c0-1.258,1.515-2.278,3.385-2.278C207.362,305.431,208.877,306.451,208.877,307.709z"/>
						</g>
						<g>
							<rect x="46.449" y="312.591" style="fill:#7AA0C5;" width="3.246" height="5.17"/>
							<path style="fill:#90BFDC;" d="M35.735,316.431h13.96v-7.826c0-2.796-2.266-5.062-5.062-5.062h-8.898
								c-2.796,0-5.062,2.266-5.062,5.062v2.763C30.673,314.165,32.939,316.431,35.735,316.431z"/>
						</g>
					</g>
				</g>
			</g>
		</g>
		<g>
			<rect x="163.144" y="190.813" style="fill:#D7D1DE;" width="3.192" height="194.573"/>
			<path style="fill:#BFBED8;" d="M180.547,198.787h-31.614c-0.762,0-1.387-0.606-1.41-1.368l-2.413-80.698h39.259l-2.413,80.698
				C181.934,198.181,181.309,198.787,180.547,198.787z"/>
			<rect x="140.97" y="113.675" style="fill:#D7D1DE;" width="47.54" height="3.046"/>
			<g>
				
					<ellipse transform="matrix(0.6905 -0.7233 0.7233 0.6905 -43.8214 159.7259)" style="fill:#B2B5D3;" cx="164.74" cy="131.071" rx="11.407" ry="11.407"/>
				
					<ellipse transform="matrix(0.6902 -0.7236 0.7236 0.6902 -43.808 159.823)" style="fill:#D7D1DE;" cx="164.74" cy="131.071" rx="10.483" ry="10.483"/>
				
					<ellipse transform="matrix(0.6897 -0.7241 0.7241 0.6897 -43.7874 159.9723)" style="fill:#BFC0DA;" cx="164.74" cy="131.071" rx="9.063" ry="9.063"/>
				
					<ellipse transform="matrix(0.6893 -0.7245 0.7245 0.6893 -43.7734 160.0731)" style="fill:#CA7C76;" cx="164.74" cy="131.071" rx="8.103" ry="8.103"/>
				<path style="fill:#FF7C76;" d="M171.635,131.071c0,3.808-3.087,6.895-6.895,6.895c-3.808,0-6.895-3.087-6.895-6.895
					c0-3.808,3.087-6.895,6.895-6.895C168.548,124.176,171.635,127.263,171.635,131.071z"/>
				<circle style="fill:#FFA5A0;" cx="163.427" cy="128.685" r="3.209"/>
			</g>
			<g>
				<circle style="fill:#B2B5D3;" cx="164.74" cy="157.847" r="11.407"/>
				<circle style="fill:#D7D1DE;" cx="164.74" cy="157.847" r="10.483"/>
				<circle style="fill:#EBC23A;" cx="164.74" cy="157.847" r="8.103"/>
				<circle style="fill:#FFDD3E;" cx="164.74" cy="157.847" r="6.895"/>
				<circle style="fill:#FFF4C0;" cx="163.427" cy="155.461" r="3.209"/>
			</g>
			<g>
				<circle style="fill:#B2B5D3;" cx="164.74" cy="184.623" r="11.407"/>
				
					<ellipse transform="matrix(0.2344 -0.9721 0.9721 0.2344 -53.3605 301.4868)" style="fill:#D7D1DE;" cx="164.74" cy="184.623" rx="10.483" ry="10.483"/>
				
					<ellipse transform="matrix(0.2347 -0.9721 0.9721 0.2347 -53.3897 301.4323)" style="fill:#70C6C9;" cx="164.74" cy="184.623" rx="8.103" ry="8.103"/>
				<circle style="fill:#73DCC9;" cx="164.74" cy="184.623" r="6.895"/>
				<path style="fill:#C9EEE3;" d="M166.636,182.237c0,1.772-1.437,3.209-3.209,3.209c-1.772,0-3.209-1.437-3.209-3.209
					c0-1.772,1.437-3.209,3.209-3.209C165.199,179.027,166.636,180.464,166.636,182.237z"/>
			</g>
			<polygon style="fill:#B2B5D3;" points="145.166,118.582 184.314,118.582 184.369,116.721 145.111,116.721 			"/>
		</g>
		<g>
			<g>
				<polygon style="fill:#FFAA3E;" points="330.001,396.752 324.072,396.752 334.704,306.953 340.634,306.953 				"/>
				<polygon style="fill:#FFAA3E;" points="481.948,396.752 487.877,396.752 477.245,306.953 471.315,306.953 				"/>
			</g>
			<g>
				<polygon style="fill:#E5943E;" points="363.715,396.752 358.515,396.752 345.417,328.832 350.617,328.832 				"/>
				<polygon style="fill:#E5943E;" points="448.234,396.752 453.434,396.752 466.533,328.832 461.332,328.832 				"/>
			</g>
			<path style="fill:#FFDD3E;" d="M483.62,328.832H328.329c-1.071,0-1.94-0.868-1.94-1.94v-17.999c0-1.071,0.868-1.94,1.94-1.94
				H483.62c1.071,0,1.94,0.868,1.94,1.94v17.999C485.56,327.964,484.692,328.832,483.62,328.832z"/>
			<path style="fill:#FFDD3E;" d="M487.493,375.861H324.456c-1.071,0-1.94-0.868-1.94-1.94v-17.999c0-1.071,0.868-1.94,1.94-1.94
				h163.036c1.071,0,1.94,0.868,1.94,1.94v17.999C489.432,374.992,488.564,375.861,487.493,375.861z"/>
			<g>
				<rect x="337.655" y="304.448" style="fill:#FFAA3E;" width="23.157" height="2.505"/>
				<rect x="340.486" y="302.915" style="fill:#FFDD3E;" width="17.494" height="1.534"/>
				<path style="fill:#6BFFFF;" d="M349.31,296.474h-0.46c-3.557,0-6.441,2.884-6.441,6.441l0,0h13.342l0,0
					C355.751,299.358,352.867,296.474,349.31,296.474z"/>
				<rect x="451.137" y="304.448" style="fill:#FFAA3E;" width="23.157" height="2.505"/>
				<rect x="453.969" y="302.915" style="fill:#FFDD3E;" width="17.494" height="1.534"/>
				<path style="fill:#FF428D;" d="M462.792,296.474h-0.46c-3.557,0-6.441,2.884-6.441,6.441l0,0h13.342l0,0
					C469.233,299.358,466.35,296.474,462.792,296.474z"/>
			</g>
			<g>
				<polygon style="fill:#FF8D3E;" points="340.639,328.817 331.805,328.817 338.879,306.968 347.713,306.968 				"/>
				<polygon style="fill:#FF8D3E;" points="359.3,328.817 350.467,328.817 357.54,306.968 366.374,306.968 				"/>
				<polygon style="fill:#FF8D3E;" points="377.961,328.817 369.128,328.817 376.201,306.968 385.035,306.968 				"/>
				<polygon style="fill:#FF8D3E;" points="396.623,328.817 387.789,328.817 394.863,306.968 403.696,306.968 				"/>
				<polygon style="fill:#FF8D3E;" points="415.284,328.817 406.45,328.817 413.524,306.968 422.357,306.968 				"/>
				<polygon style="fill:#FF8D3E;" points="433.945,328.817 425.111,328.817 432.185,306.968 441.019,306.968 				"/>
				<polygon style="fill:#FF8D3E;" points="452.606,328.817 443.772,328.817 450.846,306.968 459.68,306.968 				"/>
				<polygon style="fill:#FF8D3E;" points="471.267,328.817 462.433,328.817 469.507,306.968 478.341,306.968 				"/>
			</g>
			<g>
				<polygon style="fill:#FF8D3E;" points="340.639,375.846 331.805,375.846 338.879,353.997 347.713,353.997 				"/>
				<polygon style="fill:#FF8D3E;" points="359.3,375.846 350.467,375.846 357.54,353.997 366.374,353.997 				"/>
				<polygon style="fill:#FF8D3E;" points="377.961,375.846 369.128,375.846 376.201,353.997 385.035,353.997 				"/>
				<polygon style="fill:#FF8D3E;" points="396.623,375.846 387.789,375.846 394.863,353.997 403.696,353.997 				"/>
				<polygon style="fill:#FF8D3E;" points="415.284,375.846 406.45,375.846 413.524,353.997 422.357,353.997 				"/>
				<polygon style="fill:#FF8D3E;" points="433.945,375.846 425.111,375.846 432.185,353.997 441.019,353.997 				"/>
				<polygon style="fill:#FF8D3E;" points="452.606,375.846 443.772,375.846 450.846,353.997 459.68,353.997 				"/>
				<polygon style="fill:#FF8D3E;" points="471.267,375.846 462.433,375.846 469.507,353.997 478.341,353.997 				"/>
			</g>
			<path style="fill:#FAF1E9;" d="M440.655,321.471h-69.361c-0.699,0-1.265-0.566-1.265-1.265V304.18
				c0-0.699,0.566-1.265,1.265-1.265h69.361c0.699,0,1.265,0.566,1.265,1.265v16.026
				C441.92,320.905,441.354,321.471,440.655,321.471z"/>
			<path style="fill:#FAF1E9;" d="M440.655,368.95h-69.361c-0.699,0-1.265-0.566-1.265-1.265v-16.026
				c0-0.699,0.566-1.265,1.265-1.265h69.361c0.699,0,1.265,0.566,1.265,1.265v16.026C441.92,368.384,441.354,368.95,440.655,368.95z
				"/>
			
				<text transform="matrix(1 0 0 1 375.3037 316.1396)" style="fill:#915264; font-family:'Montserrat-ExtraBold'; font-size:11.7692px;">CURFEW</text>
			
				<text transform="matrix(1 0 0 1 374.3027 363.9873)" style="fill:#5C5362; font-family:'Montserrat-ExtraBold'; font-size:11.7692px;">COVID-19</text>
		</g>
	</g>
</g>
</svg>
