<?xml version="1.0" encoding="utf-8"?>
<!-- Generator: Adobe Illustrator 27.5.0, SVG Export Plug-In . SVG Version: 6.00 Build 0)  -->
<svg version="1.1" xmlns="http://www.w3.org/2000/svg" xmlns:xlink="http://www.w3.org/1999/xlink" x="0px" y="0px"
	 viewBox="0 0 750 500" style="enable-background:new 0 0 750 500;" xml:space="preserve">
<g id="Background_Simple">
	<g>
		<path style="fill:#92E3A9;" d="M717.566,332.313c-9.468-44.785-28.643-88.619-51.708-128.026
			c-37.457-63.996-93.424-120.28-167.889-137.035C329.225,29.284,292.944,195.498,254.977,217.435
			c-37.968,21.937-132.465,10.125-183.932,80.154c-51.467,70.029-45.561,180.557-45.561,180.557h699.448
			C726.525,429.277,727.651,380.014,717.566,332.313z"/>
		<path style="opacity:0.7;fill:#FFFFFF;" d="M717.566,332.313c-9.468-44.785-28.643-88.619-51.708-128.026
			c-37.457-63.996-93.424-120.28-167.889-137.035C329.225,29.284,292.944,195.498,254.977,217.435
			c-37.968,21.937-132.465,10.125-183.932,80.154c-51.467,70.029-45.561,180.557-45.561,180.557h699.448
			C726.525,429.277,727.651,380.014,717.566,332.313z"/>
	</g>
</g>
<g id="Buildings">
	<g>
		<polyline style="fill:none;stroke:#263238;stroke-miterlimit:10;" points="414.894,223.185 414.894,116.99 426.157,116.99 
			426.157,106.042 459.946,106.042 459.946,114.801 468.795,114.801 468.795,296.536 492.93,296.536 492.93,328.285 
			508.216,328.285 		"/>
		<polyline style="fill:none;stroke:#263238;stroke-miterlimit:10;" points="305.482,237.417 305.482,155.308 328.813,155.308 
			328.813,175.014 340.076,175.014 340.076,146.55 365.015,146.55 365.015,269.166 385.932,269.166 385.932,312.957 
			402.826,312.957 402.826,245.081 414.894,245.081 414.894,230.848 		"/>
		<polyline style="fill:none;stroke:#263238;stroke-miterlimit:10;" points="217.792,182.678 217.792,328.285 231.468,328.285 
			231.468,242.891 250.776,242.891 250.776,315.147 305.482,315.147 305.482,250.555 		"/>
		<polyline style="fill:none;stroke:#263238;stroke-miterlimit:10;" points="175.154,289.967 175.154,110.422 217.792,110.422 
			217.792,170.635 		"/>
		<polyline style="fill:none;stroke:#263238;stroke-miterlimit:10;" points="92.29,237.417 92.29,258.218 104.358,258.218 
			104.358,164.066 152.628,164.066 152.628,309.673 175.154,309.673 175.154,295.441 		"/>
		<polyline style="fill:none;stroke:#263238;stroke-miterlimit:10;" points="39.998,328.285 57.697,328.285 57.697,192.531 
			92.29,192.531 92.29,226.469 		"/>
	</g>
</g>
<g id="Clouds">
	<g>
		<g>
			<path style="fill:none;stroke:#263238;stroke-linecap:round;stroke-linejoin:round;stroke-miterlimit:10;" d="M79.792,104.025
				h65.639c0,0,1.353-4.962-2.256-7.218c-3.609-2.256-4.511,0.451-8.572-0.451c0,0-10.827-16.692-19.399-15.789
				c-1.365,0.144-2.501,0.425-3.459,0.815"/>
			<path style="fill:none;stroke:#263238;stroke-linecap:round;stroke-linejoin:round;stroke-miterlimit:10;" d="M107.982,84.43
				c-1.668,2.426-2.312,5.578-4.055,8.317c-3.158,4.962-8.12-2.256-13.083-0.451c-4.962,1.805-3.158,4.962-6.316,6.316
				s-10.376-5.865-13.083-3.609c-2.707,2.256-3.609,5.865-5.414,6.767c-1.804,0.902-5.414-2.256-7.218,0
				c-1.805,2.256-1.805,2.256-1.805,2.256h18.332"/>
		</g>
		<g>
			<path style="fill:none;stroke:#263238;stroke-linecap:round;stroke-linejoin:round;stroke-miterlimit:10;" d="M634.107,118.74
				c-1.593-0.622-3.253-1.029-4.914-0.425c-4.962,1.804-3.158,4.962-6.316,6.316s-10.376-5.865-13.083-3.609
				c-2.707,2.256-3.609,5.865-5.414,6.767s-5.414-2.256-7.218,0c-1.805,2.256-1.805,2.256-1.805,2.256h52.304"/>
			<path style="fill:none;stroke:#263238;stroke-linecap:round;stroke-linejoin:round;stroke-miterlimit:10;" d="M662.868,110.673
				c-3.004-2.545-6.298-4.404-9.314-4.087c-8.571,0.902-8.12,7.218-11.278,12.18c-0.525,0.826-1.101,1.314-1.717,1.563"/>
			<path style="fill:none;stroke:#263238;stroke-linecap:round;stroke-linejoin:round;stroke-miterlimit:10;" d="M652.67,130.044
				h31.11c0,0,1.353-4.963-2.256-7.218c-3.609-2.256-4.511,0.451-8.571-0.451c0,0-2.762-4.258-6.6-8.356"/>
		</g>
		<g>
			<path style="fill:none;stroke:#263238;stroke-linecap:round;stroke-linejoin:round;stroke-miterlimit:10;" d="M250.042,54.563
				c-2.183-0.622-4.417-0.825-6.651-0.013c-8.936,3.249-5.686,8.936-11.372,11.372c-5.686,2.437-18.683-10.56-23.557-6.498
				c-4.874,4.062-6.499,10.56-9.748,12.185c-3.249,1.625-9.748-4.062-12.997,0c-3.249,4.062-3.249,4.062-3.249,4.062h95.952"/>
			<path style="fill:none;stroke:#263238;stroke-linecap:round;stroke-linejoin:round;stroke-miterlimit:10;" d="M283.984,75.67
				h57.698c0,0,2.437-8.936-4.062-12.997c-6.499-4.062-8.123,0.812-15.434-0.812c0,0-19.496-30.056-34.93-28.431
				c-15.434,1.625-14.622,12.997-20.308,21.932c-3.147,4.945-7.289,3.173-11.875,1.154"/>
		</g>
	</g>
</g>
<g id="Trees">
	<g>
		<path style="fill:#92E3A9;" d="M735.384,250.141c15.929,80.77-34.115,47.128-76.199,47.128c-42.084,0-95.41,27.392-76.199-47.128
			c10.977-42.58,34.115-69.201,76.199-69.201C701.269,180.939,728.667,216.079,735.384,250.141z"/>
		<path style="opacity:0.3;fill:#FFFFFF;" d="M735.384,250.141c15.929,80.77-34.115,47.128-76.199,47.128
			c-42.084,0-95.41,27.392-76.199-47.128c10.977-42.58,34.115-69.201,76.199-69.201
			C701.269,180.939,728.667,216.079,735.384,250.141z"/>
		<polygon style="fill:#A1A1A1;" points="635.168,289.938 655.691,305.6 653.589,426.617 665.99,426.617 663.608,279.915 
			692.958,247.632 663.253,273.017 662.173,224.948 658.932,257.894 651.293,252.354 634.628,228.729 645.34,250.203 
			610.864,236.29 646.001,256.145 657.564,264.159 656.232,299.119 		"/>
		<g>
			<path style="fill:#FFFFFF;" d="M646.745,211.47c0,0-1.124,5.204,1.212,9.521c2.336,4.318,5.529,7.186,5.529,7.186
				S655.804,219.964,646.745,211.47z"/>
			<path style="fill:#FFFFFF;" d="M603.121,257.437c0,0,4.013,3.499,8.922,3.54c4.908,0.042,8.963-1.368,8.963-1.368
				S614.934,253.61,603.121,257.437z"/>
			<path style="fill:#FFFFFF;" d="M597.008,279.005c0,0,4.871,2.151,9.57,0.733c4.7-1.417,8.153-3.966,8.153-3.966
				S607.154,271.844,597.008,279.005z"/>
			<path style="fill:#FFFFFF;" d="M626.098,281.251c0,0,5.324-0.071,9.008-3.315c3.684-3.244,5.764-6.999,5.764-6.999
				S632.345,270.518,626.098,281.251z"/>
			<path style="fill:#FFFFFF;" d="M613.825,216.852c0,0,1.207,5.186,5.164,8.091c3.957,2.905,8.07,4.134,8.07,4.134
				S625.645,220.66,613.825,216.852z"/>
			<path style="fill:#FFFFFF;" d="M700.622,213.008c0,0-5.272,0.747-8.513,4.433c-3.242,3.686-4.828,7.674-4.828,7.674
				S695.79,224.448,700.622,213.008z"/>
			<path style="fill:#FFFFFF;" d="M718.889,240.401c0,0-5.205-1.119-9.521,1.22c-4.315,2.339-7.181,5.535-7.181,5.535
				S710.403,249.468,718.889,240.401z"/>
			<path style="fill:#FFFFFF;" d="M717.102,271.518c0,0-3.753-3.777-8.646-4.168c-4.893-0.392-9.038,0.725-9.038,0.725
				S705.045,274.492,717.102,271.518z"/>
			<path style="fill:#FFFFFF;" d="M696.716,288.215c0,0-2.161-4.866-6.593-6.976c-4.432-2.11-8.703-2.544-8.703-2.544
				S684.391,286.697,696.716,288.215z"/>
			<path style="fill:#FFFFFF;" d="M685.987,237.725c0,0-5.271,0.747-8.513,4.433c-3.242,3.686-4.828,7.675-4.828,7.675
				S681.155,249.164,685.987,237.725z"/>
			<path style="fill:#FFFFFF;" d="M599.618,230.861c0,0,2.346,4.78,6.856,6.717c4.51,1.938,8.794,2.207,8.794,2.207
				S611.992,231.904,599.618,230.861z"/>
			<path style="fill:#FFFFFF;" d="M674.786,205.673c0,0-4.268,3.183-5.345,7.972c-1.077,4.789-0.556,9.05-0.556,9.05
				S676.032,218.029,674.786,205.673z"/>
			<path style="fill:#FFFFFF;" d="M658.69,190.611c0,0-2.423,4.741-1.274,9.514c1.148,4.772,3.498,8.365,3.498,8.365
				S665.265,201.146,658.69,190.611z"/>
			<path style="fill:#FFFFFF;" d="M623.847,195.674c0,0,0,5.324,3.195,9.051c3.194,3.727,6.921,5.857,6.921,5.857
				S634.496,202.063,623.847,195.674z"/>
		</g>
	</g>
	<g>
		<path style="fill:#92E3A9;" d="M641.538,150.333c20.568,104.294-44.051,60.854-98.391,60.854
			c-54.34,0-123.197,35.37-98.391-60.854c14.174-54.981,44.051-89.355,98.391-89.355
			C597.487,60.977,632.864,106.352,641.538,150.333z"/>
		<path style="opacity:0.3;fill:#FFFFFF;" d="M641.538,150.333c20.568,104.294-44.051,60.854-98.391,60.854
			c-54.34,0-123.197,35.37-98.391-60.854c14.174-54.981,44.051-89.355,98.391-89.355
			C597.487,60.977,632.864,106.352,641.538,150.333z"/>
		<polygon style="fill:#A1A1A1;" points="512.134,201.721 538.635,221.945 535.92,426.484 551.932,426.484 548.857,188.779 
			586.755,147.094 548.398,179.871 547.004,117.804 542.819,160.344 532.956,153.19 511.437,122.685 525.269,150.413 
			480.752,132.449 526.122,158.086 541.053,168.434 539.332,213.576 		"/>
		<g>
			<path style="fill:#FFFFFF;" d="M527.083,100.4c0,0-1.452,6.72,1.564,12.295c3.016,5.575,7.139,9.279,7.139,9.279
				S538.781,111.367,527.083,100.4z"/>
			<path style="fill:#FFFFFF;" d="M470.753,159.755c0,0,5.182,4.518,11.52,4.571c6.338,0.054,11.574-1.766,11.574-1.766
				S486.007,154.813,470.753,159.755z"/>
			<path style="fill:#FFFFFF;" d="M462.861,187.604c0,0,6.289,2.777,12.358,0.947c6.069-1.83,10.528-5.122,10.528-5.122
				S475.961,178.357,462.861,187.604z"/>
			<path style="fill:#FFFFFF;" d="M500.423,190.504c0,0,6.874-0.092,11.631-4.28c4.757-4.189,7.443-9.037,7.443-9.037
				S508.489,176.645,500.423,190.504z"/>
			<path style="fill:#FFFFFF;" d="M484.575,107.349c0,0,1.559,6.696,6.668,10.447c5.109,3.751,10.42,5.338,10.42,5.338
				S499.838,112.266,484.575,107.349z"/>
			<path style="fill:#FFFFFF;" d="M596.652,102.386c0,0-6.807,0.965-10.993,5.724c-4.186,4.759-6.234,9.91-6.234,9.91
				S590.412,117.157,596.652,102.386z"/>
			<path style="fill:#FFFFFF;" d="M620.238,137.757c0,0-6.721-1.446-12.293,1.575c-5.572,3.021-9.273,7.147-9.273,7.147
				S609.281,149.465,620.238,137.757z"/>
			<path style="fill:#FFFFFF;" d="M617.931,177.936c0,0-4.846-4.876-11.164-5.382c-6.318-0.506-11.67,0.936-11.67,0.936
				S602.363,181.777,617.931,177.936z"/>
			<path style="fill:#FFFFFF;" d="M591.608,199.496c0,0-2.79-6.283-8.513-9.008c-5.723-2.724-11.237-3.285-11.237-3.285
				S575.693,197.536,591.608,199.496z"/>
			<path style="fill:#FFFFFF;" d="M577.755,134.301c0,0-6.807,0.964-10.993,5.724c-4.186,4.759-6.234,9.91-6.234,9.91
				S571.515,149.073,577.755,134.301z"/>
			<path style="fill:#FFFFFF;" d="M466.23,125.438c0,0,3.03,6.171,8.853,8.673c5.824,2.502,11.355,2.85,11.355,2.85
				S482.208,126.785,466.23,125.438z"/>
			<path style="fill:#FFFFFF;" d="M563.291,92.914c0,0-5.511,4.11-6.902,10.294c-1.391,6.184-0.718,11.686-0.718,11.686
				S564.899,108.868,563.291,92.914z"/>
			<path style="fill:#FFFFFF;" d="M542.507,73.465c0,0-3.128,6.122-1.645,12.284c1.483,6.162,4.517,10.801,4.517,10.801
				S550.996,87.068,542.507,73.465z"/>
			<path style="fill:#FFFFFF;" d="M497.517,80.004c0,0,0,6.875,4.125,11.687c4.125,4.812,8.937,7.562,8.937,7.562
				S511.267,88.254,497.517,80.004z"/>
		</g>
	</g>
</g>
<g id="Traffic_Cones_2">
	<g>
		<path style="fill:#92E3A9;stroke:#263238;stroke-linecap:round;stroke-linejoin:round;stroke-miterlimit:10;" d="M644.94,366.922
			l-14.411,57.336h33.357l-14.411-57.336C648.883,364.564,645.532,364.564,644.94,366.922z"/>
		
			<rect x="626.241" y="422.936" style="fill:#92E3A9;stroke:#263238;stroke-linecap:round;stroke-linejoin:round;stroke-miterlimit:10;" width="41.933" height="3.681"/>
		<g>
			<polygon style="fill:#FFFFFF;stroke:#263238;stroke-linecap:round;stroke-linejoin:round;stroke-miterlimit:10;" points="
				643.479,372.735 639.525,388.464 654.89,388.464 650.936,372.735 			"/>
			<polygon style="fill:#FFFFFF;stroke:#263238;stroke-linecap:round;stroke-linejoin:round;stroke-miterlimit:10;" points="
				660.946,412.561 656.993,396.831 637.422,396.831 633.469,412.561 			"/>
		</g>
	</g>
	<g>
		<path style="fill:#92E3A9;stroke:#263238;stroke-linecap:round;stroke-linejoin:round;stroke-miterlimit:10;" d="M303.499,366.922
			l-14.411,57.336h33.357l-14.411-57.336C307.442,364.564,304.091,364.564,303.499,366.922z"/>
		
			<rect x="284.8" y="422.936" style="fill:#92E3A9;stroke:#263238;stroke-linecap:round;stroke-linejoin:round;stroke-miterlimit:10;" width="41.933" height="3.681"/>
		<g>
			<polygon style="fill:#FFFFFF;stroke:#263238;stroke-linecap:round;stroke-linejoin:round;stroke-miterlimit:10;" points="
				302.038,372.735 298.084,388.464 313.449,388.464 309.495,372.735 			"/>
			<polygon style="fill:#FFFFFF;stroke:#263238;stroke-linecap:round;stroke-linejoin:round;stroke-miterlimit:10;" points="
				319.505,412.561 315.552,396.831 295.981,396.831 292.028,412.561 			"/>
		</g>
	</g>
</g>
<g id="Character_2">
	<g>
		<g>
			
				<rect x="372.16" y="266.522" style="fill:#FFFFFF;stroke:#263238;stroke-linecap:round;stroke-linejoin:round;stroke-miterlimit:10;" width="23.481" height="7.548"/>
			<g>
				<path style="fill:#999999;stroke:#263238;stroke-linecap:round;stroke-linejoin:round;stroke-miterlimit:10;" d="M370.179,310.7
					l-5.074-4.349c-1.471-1.261-3.345-1.954-5.283-1.954h-38.23c-1.492,0-2.954,0.411-4.228,1.188l-8.383,5.115H288.56v16.403
					h101.887V310.7H370.179z"/>
				<path style="fill:#6E6E6E;stroke:#263238;stroke-linecap:round;stroke-linejoin:round;stroke-miterlimit:10;" d="
					M373.21,316.328l-5.074-4.349c-1.471-1.261-3.345-1.954-5.283-1.954h-38.23c-1.492,0-2.954,0.411-4.228,1.188l-8.383,5.115
					H291.59v16.403h101.888v-16.403H373.21z"/>
			</g>
		</g>
		<g>
			<path style="fill:#263238;stroke:#263238;stroke-linecap:round;stroke-linejoin:round;stroke-miterlimit:10;" d="M345.24,308.235
				c-9.704,0-17.57,7.867-17.57,17.57c0,9.704,7.866,17.57,17.57,17.57s17.57-7.866,17.57-17.57
				C362.811,316.101,354.944,308.235,345.24,308.235z M345.24,339.741c-7.697,0-13.936-6.239-13.936-13.936
				c0-7.697,6.24-13.936,13.936-13.936c7.697,0,13.936,6.239,13.936,13.936C359.176,333.502,352.937,339.741,345.24,339.741z"/>
			<g>
				<g>
					<g>
						<path style="fill:#FFFFFF;stroke:#263238;stroke-linecap:round;stroke-linejoin:round;stroke-miterlimit:10;" d="
							M379.016,280.91c0,0,0.209,4.282-0.699,5.964c-0.908,1.682-2.141,2.841-2.141,2.841l2.136,2.803c0,0,1.036,5.163,2.211,5.884
							c1.175,0.721,6.472,0.886,6.472,0.886s-0.154,10.428-0.17,10.941c-0.016,0.513,11.795-3.334,11.795-3.334
							s-1.788-7.744-0.859-10.11c0.929-2.366,2.459-4.782,3.901-7.131c1.441-2.35-1.565-10.14-7.274-13.567
							c-5.708-3.428-8.095-3.673-11.56-2.242C379.363,275.276,379.016,280.91,379.016,280.91z"/>
						<path style="fill:#263238;" d="M380.34,285.894c-0.023,0.749,0.208,1.364,0.516,1.373c0.308,0.01,0.577-0.59,0.6-1.338
							c0.023-0.749-0.208-1.364-0.516-1.373C380.632,284.546,380.363,285.146,380.34,285.894z"/>
						<path style="fill:none;stroke:#263238;stroke-linecap:round;stroke-linejoin:round;stroke-miterlimit:10;" d="M379.85,292.566
							c0,0,1.004,0.715,2.232-0.273"/>
					</g>
					<path style="fill:#263238;stroke:#263238;stroke-linecap:round;stroke-linejoin:round;stroke-miterlimit:10;" d="
						M395.543,288.437c0,0-2.889-0.603-5.564-2.568c-2.675-1.965-3.626-4.389-3.76-5.59c-0.134-1.201-0.112-1.885-0.112-1.885
						l-1.852,4.56c0,0-0.694,0.32-3.738-0.801c-3.044-1.121-5.559-2.739-5.559-2.739s0.517-5.628,4.186-8.079
						c3.668-2.451,7.966-3.172,7.966-3.172s5.718-2.387,11.624,0.191c5.906,2.578,8.598,9.504,8.086,14.961
						c-0.512,5.457-4.186,8.079-6.599,8.688C397.807,292.613,395.543,288.437,395.543,288.437z"/>
					<path style="fill:#FFFFFF;stroke:#263238;stroke-miterlimit:10;" d="M391.087,288.297c0,0,1.692-4.907,4.875-2.756
						c3.183,2.152,1.352,6.028-1.259,7.486c-2.611,1.458-4.095-0.299-4.095-0.299"/>
					<path style="fill:#263238;stroke:#263238;stroke-linecap:round;stroke-linejoin:round;stroke-miterlimit:10;" d="
						M405.03,274.879c0,0,5.473,0,9.12,3.705c3.647,3.705,2.282,20.082,2.341,23.676c0.059,3.594,0.353,5.142,0.353,5.142
						s-2.942,1.105-7.385,0.967c-4.443-0.138-8.319-1.97-8.319-1.97s5.669-11.796,6.064-18.967
						C407.599,280.261,407.087,280.245,405.03,274.879z"/>
				</g>
				<path style="fill:#92E3A9;stroke:#263238;stroke-linecap:round;stroke-linejoin:round;stroke-miterlimit:10;" d="
					M355.629,318.774c0,0,2.064-3.096,6.192-3.44c4.128-0.344,8.255,1.032,8.255,1.032s-6.191,5.389-8.141,6.306
					c-1.949,0.917-5.045,0-5.045,0L355.629,318.774z"/>
				<path style="fill:#92E3A9;stroke:#263238;stroke-linecap:round;stroke-linejoin:round;stroke-miterlimit:10;" d="
					M384.039,306.329c-0.548,0.282-8.595,10.569-10.303,15.021c-1.708,4.452-4.265,10.341-4.556,14.437
					c-0.291,4.096-1.038,9.173-0.435,9.929c0.603,0.756,7.846,3.64,15.058,3.768c7.211,0.128,19.499,1.002,21.467-1.184
					c1.968-2.186,0.787-16.083,1.479-22.198c0.692-6.115,1.073-7.965-0.543-11.932c-1.616-3.968-6.987-8.188-11.366-9.028
					C390.461,304.303,384.039,306.329,384.039,306.329z"/>
				<path style="fill:#92E3A9;stroke:#263238;stroke-linecap:round;stroke-linejoin:round;stroke-miterlimit:10;" d="
					M381.773,306.589c0,0,3.557-4.071,8.112-6.308c4.554-2.237,5.589-0.744,9.926,1.983c4.337,2.727,7.465,5.49,7.76,8.964
					c0.295,3.474,1.555,6.025,0.045,5.683c-1.51-0.343-3.766-4.727-6.875-7.66c-3.109-2.932-7.167-3.564-10.66-3.098
					c-3.493,0.465-8.823,3.475-9.577,2.529C379.75,307.737,381.773,306.589,381.773,306.589z"/>
				<g>
					<path style="fill:#FFFFFF;stroke:#263238;stroke-linecap:round;stroke-linejoin:round;stroke-miterlimit:10;" d="
						M350.332,318.674c0,0-3.194-2.586-3.641-3.571c-0.447-0.984-1.368-4.841-2.379-6.282c-1.011-1.441-4.599-1.235-5.959-1.092
						c-1.36,0.143-1.593,1.199-2.336,2.308c-0.743,1.109,2.389,1.468,2.389,1.468s0.42,2.362,1.771,3.767
						c1.351,1.405,3.991,1.987,3.991,1.987l1.825,4.277L350.332,318.674z"/>
					<path style="fill:#92E3A9;stroke:#263238;stroke-linecap:round;stroke-linejoin:round;stroke-miterlimit:10;" d="
						M358.304,320.93c0,0,5.086-3.291,10.446-6.261c5.36-2.97,14.753-5.842,18.825-4.723c4.071,1.119,8.464,8.564,3.783,14.729
						c-4.681,6.165-12.216,12.973-20.547,17.115c-8.331,4.142-13.709,3.676-18.397-1.676c-4.688-5.351-8.786-8.359-9.546-13.951
						c-0.76-5.593,3.858-7.453,4.368-7.507c0.51-0.054,1.387-1.521,5.163-1.574C356.175,317.028,358.304,320.93,358.304,320.93z"/>
					
						<line style="fill:none;stroke:#263238;stroke-linecap:round;stroke-linejoin:round;stroke-miterlimit:10;" x1="358.304" y1="320.93" x2="363.69" y2="329.646"/>
				</g>
				<path style="fill:#FFFFFF;stroke:#263238;stroke-linecap:round;stroke-linejoin:round;stroke-miterlimit:10;" d="
					M351.616,308.569c0,0,1.491-0.344,2.408-0.229c0.917,0.115,3.096,1.835,3.784,3.096c0.688,1.261,1.261,2.178,1.261,2.178
					l1.72,1.835l-3.325,1.605l-3.325-2.637c0,0-2.866-1.376-3.44-1.72c-0.573-0.344-0.459-0.803-1.949-2.293
					c-1.491-1.491-0.573-1.72,0.229-1.491c0.803,0.229,0.803,0.229,0.803,0.229L351.616,308.569z"/>
				<path style="fill:none;stroke:#263238;stroke-linecap:round;stroke-linejoin:round;stroke-miterlimit:10;" d="M349.782,309.142
					c0,0,1.72,0.803,3.669,0.917"/>
			</g>
		</g>
		<g>
			<g>
				<path style="fill:#263238;stroke:#263238;stroke-linecap:round;stroke-linejoin:round;stroke-miterlimit:10;" d="
					M584.07,361.913h-11.39l-0.163,0.24c-0.967-0.145-1.946-0.24-2.943-0.24c-13.887,0-25.144,14.485-25.144,32.352
					c0,17.868,11.258,32.352,25.144,32.352c0.997,0,9.241-0.095,10.208-0.24l-7.102,0.24h11.39
					c13.886,0,25.144-14.484,25.144-32.352C609.214,376.398,597.957,361.913,584.07,361.913z"/>
				<path style="fill:#263238;stroke:#263238;stroke-linecap:round;stroke-linejoin:round;stroke-miterlimit:10;" d="
					M350.779,361.913h-11.389l-0.164,0.24c-0.967-0.145-1.946-0.24-2.943-0.24c-13.887,0-25.144,14.485-25.144,32.352
					c0,17.868,11.257,32.352,25.144,32.352c0.997,0,1.976-0.095,2.943-0.24l0.164,0.24h11.389c13.887,0,25.144-14.484,25.144-32.352
					C375.923,376.398,364.666,361.913,350.779,361.913z"/>
				<path style="fill:#FFFFFF;stroke:#263238;stroke-linecap:round;stroke-linejoin:round;stroke-miterlimit:10;" d="
					M692.451,362.865h-5.464l-4.897-34.33c-0.596-4.18-4.175-7.285-8.397-7.285H643.06l-49.738-52.783
					c-5.384-5.714-12.888-8.954-20.739-8.954H440.729c-5.747,0-11.246,58.443-15.224,62.591l-226.47,39.511v40.366h339.548
					l85.215-0.605l63.189-4.143v-0.288h5.195c1.146,0,2.074-0.929,2.074-2.074v-30.201
					C694.257,363.674,693.449,362.865,692.451,362.865z"/>
				<path style="fill:#263238;stroke:#263238;stroke-linecap:round;stroke-linejoin:round;stroke-miterlimit:10;" d="M595.99,395.78
					v5.794l27.809-0.198l63.189-4.143v-0.288h5.195c0.815,0,1.503-0.481,1.842-1.165H595.99z"/>
				<path style="fill:#263238;stroke:#263238;stroke-linecap:round;stroke-linejoin:round;stroke-miterlimit:10;" d="
					M623.799,401.377L623.799,401.377c2.67-0.175,2.54-4.143-0.136-4.143h-31.951l-118.166-63.876h-32.817
					c-5.747,0-11.246,2.345-15.224-0.062l-226.47,21.767v46.921h339.548L623.799,401.377z"/>
				<g>
					<path style="fill:#263238;stroke:#263238;stroke-linecap:round;stroke-linejoin:round;stroke-miterlimit:10;" d="
						M251.942,361.913h-11.39l-7.468,10.965c-3.91,5.702-6.286,13.186-6.286,21.387c0,8.202,2.377,15.685,6.286,21.388l7.468,10.965
						h11.39c13.887,0,25.144-14.485,25.144-32.352C277.086,376.398,265.829,361.913,251.942,361.913z"/>
					
						<ellipse style="fill:#636363;stroke:#263238;stroke-linecap:round;stroke-linejoin:round;stroke-miterlimit:10;" cx="237.446" cy="394.265" rx="25.144" ry="32.352"/>
					
						<ellipse style="fill:#FFFFFF;stroke:#263238;stroke-linecap:round;stroke-linejoin:round;stroke-miterlimit:10;" cx="237.446" cy="394.265" rx="20.059" ry="25.809"/>
					<path style="fill:#FFFFFF;stroke:#263238;stroke-linecap:round;stroke-linejoin:round;stroke-miterlimit:10;" d="
						M241.684,394.265c0,3.012-1.898,5.453-4.238,5.453c-2.34,0-4.238-2.441-4.238-5.453c0-3.011,1.897-5.452,4.238-5.452
						C239.786,388.813,241.684,391.254,241.684,394.265z"/>
				</g>
				<g>
					<path style="fill:#263238;stroke:#263238;stroke-linecap:round;stroke-linejoin:round;stroke-miterlimit:10;" d="
						M505.713,361.913h-11.39l-7.468,10.965c-3.909,5.702-6.286,13.186-6.286,21.387c0,8.202,2.377,15.685,6.286,21.388
						l7.468,10.965h11.39c13.887,0,25.144-14.485,25.144-32.352C530.857,376.398,519.599,361.913,505.713,361.913z"/>
					
						<ellipse style="fill:#636363;stroke:#263238;stroke-linecap:round;stroke-linejoin:round;stroke-miterlimit:10;" cx="491.217" cy="394.265" rx="25.144" ry="32.352"/>
					
						<ellipse style="fill:#FFFFFF;stroke:#263238;stroke-linecap:round;stroke-linejoin:round;stroke-miterlimit:10;" cx="491.217" cy="394.265" rx="20.059" ry="25.809"/>
					<path style="fill:#FFFFFF;stroke:#263238;stroke-linecap:round;stroke-linejoin:round;stroke-miterlimit:10;" d="
						M495.455,394.265c0,3.012-1.897,5.453-4.237,5.453c-2.341,0-4.238-2.441-4.238-5.453c0-3.011,1.897-5.452,4.238-5.452
						C493.557,388.813,495.455,391.254,495.455,394.265z"/>
				</g>
				<path style="fill:#263238;stroke:#263238;stroke-linecap:round;stroke-linejoin:round;stroke-miterlimit:10;" d="
					M593.323,268.468c-0.41-0.436-0.856-0.83-1.291-1.237H489.314v50.754h150.67L593.323,268.468z"/>
				<path style="fill:#92E3A9;stroke:#263238;stroke-linecap:round;stroke-linejoin:round;stroke-miterlimit:10;" d="
					M599.133,362.865l-5.936-41.615h-37.992l-49.737-52.783c-5.385-5.714-12.888-8.954-20.74-8.954H363.694
					c-5.747,0-11.246,2.345-15.224,6.493l-77.311,51.682l-58.64,25.305c-8.445,3.644-15.783,9.446-21.277,16.823l-2.807,3.769
					c-2.754,3.698-4.241,8.186-4.241,12.796v25.6h22.557v-8.531c0-20.861,15.17-37.771,33.883-37.771h0
					c16.673,0,27.033,13.521,29.634,31.88l2.043,14.422H460.82v-8.531c0-20.861,8.56-37.771,31.568-37.771
					c20.5,0,27.83,13.521,31.027,31.88l2.406,13.816l73.312-4.143v-0.288h5.986v-34.08H599.133z M406.801,317.689H282.735
					l66.381-44.075c3.62-3.702,8.579-5.789,13.757-5.789h43.928V317.689z"/>
				<path style="fill:#FFFFFF;stroke:#263238;stroke-linecap:round;stroke-linejoin:round;stroke-miterlimit:10;" d="
					M525.742,289.984l-20.275-21.516c-5.385-5.714-12.888-8.954-20.74-8.954h-51.564l-26.363,26.363v31.812h-31.812l-84.293,84.293
					h123.048L525.742,289.984z"/>
				<path style="fill:#263238;stroke:#263238;stroke-linecap:round;stroke-linejoin:round;stroke-miterlimit:10;" d="
					M501.331,275.946l28.22,28.862c0.941,0.963,1.609,2.159,1.935,3.465l0,0c1.193,4.784-2.425,9.416-7.355,9.416H415.112v-49.864
					h66.921C489.296,267.825,496.252,270.753,501.331,275.946z"/>
				<g>
					<polygon style="fill:#FFFFFF;stroke:#263238;stroke-linecap:round;stroke-linejoin:round;stroke-miterlimit:10;" points="
						474.894,267.825 463.932,267.825 424.584,317.689 435.546,317.689 					"/>
				</g>
				<path style="fill:#FFFFFF;stroke:#263238;stroke-linecap:round;stroke-linejoin:round;stroke-miterlimit:10;" d="
					M501.331,275.946c-2.657-2.718-5.832-4.808-9.293-6.19l-37.824,47.933h30.284l25.746-32.627L501.331,275.946z"/>
				<path style="fill:#92E3A9;stroke:#263238;stroke-linecap:round;stroke-linejoin:round;stroke-miterlimit:10;" d="
					M593.197,321.25h80.497c4.222,0,7.801,3.105,8.397,7.285l4.897,34.33h-87.855L593.197,321.25z"/>
				
					<rect x="631.43" y="340.014" style="fill:#FFFFFF;stroke:#263238;stroke-linecap:round;stroke-linejoin:round;stroke-miterlimit:10;" width="38.175" height="15.676"/>
				
					<line style="fill:#FFFFFF;stroke:#263238;stroke-width:2;stroke-linecap:round;stroke-linejoin:round;stroke-miterlimit:10;" x1="691.183" y1="369.281" x2="527.602" y2="369.281"/>
				
					<line style="fill:#FFFFFF;stroke:#263238;stroke-width:2;stroke-linecap:round;stroke-linejoin:round;stroke-miterlimit:10;" x1="454.506" y1="369.281" x2="273.228" y2="369.281"/>
				
					<line style="fill:#FFFFFF;stroke:#263238;stroke-width:2;stroke-linecap:round;stroke-linejoin:round;stroke-miterlimit:10;" x1="213.046" y1="369.281" x2="192.298" y2="369.281"/>
				<path style="fill:#FFFFFF;stroke:#263238;stroke-linecap:round;stroke-linejoin:round;stroke-miterlimit:10;" d="
					M624.84,340.268h-36.067c-3.404,0-6.516,1.923-8.039,4.968l-6.031,12.063c-1.207,2.413,0.548,5.253,3.247,5.253h46.89V340.268z"
					/>
				<polygon style="fill:#263238;stroke:#263238;stroke-linecap:round;stroke-linejoin:round;stroke-miterlimit:10;" points="
					624.84,340.268 595.773,340.268 598.952,362.553 624.84,362.553 				"/>
				<polygon style="fill:#263238;stroke:#263238;stroke-linecap:round;stroke-linejoin:round;stroke-miterlimit:10;" points="
					683.628,340.268 674.826,340.268 674.711,362.553 686.807,362.553 				"/>
				<path style="fill:#263238;stroke:#263238;stroke-linecap:round;stroke-linejoin:round;stroke-miterlimit:10;" d="M291.42,326.89
					h-19.151c-1.104,0-2-0.895-2-2v-15.589c0-1.105,0.896-2,2-2h19.151c1.105,0,2,0.895,2,2v15.589
					C293.42,325.994,292.525,326.89,291.42,326.89z"/>
				
					<rect x="381.572" y="326.89" style="fill:#263238;stroke:#263238;stroke-linecap:round;stroke-linejoin:round;stroke-miterlimit:10;" width="22.261" height="8.904"/>
				
					<line style="fill:none;stroke:#263238;stroke-linecap:round;stroke-linejoin:round;stroke-miterlimit:10;" x1="409.176" y1="323.328" x2="409.176" y2="391"/>
				<path style="fill:none;stroke:#263238;stroke-linecap:round;stroke-linejoin:round;stroke-miterlimit:10;" d="M258.694,353.603
					c0,0,16.304,9.201,18.392,40.663h173.049"/>
				<path style="fill:none;stroke:#263238;stroke-linecap:round;stroke-linejoin:round;stroke-miterlimit:10;" d="M532.054,366.959
					c0,0-8.524-22.261-37.065-22.261c-19.892,0-29.406,10.448-34.169,18.699"/>
			</g>
		</g>
	</g>
</g>
<g id="Text">
	<g>
		<path style="fill:#263238;" d="M285.408,360.012v-14.234h3.357c1.16,0,2.065,0.158,2.715,0.475
			c0.65,0.316,1.113,0.803,1.388,1.459c0.275,0.656,0.413,1.487,0.413,2.495v5.201c0,1.031-0.138,1.89-0.413,2.574
			c-0.275,0.686-0.732,1.195-1.371,1.529c-0.639,0.334-1.514,0.501-2.627,0.501H285.408z M288.009,358.201h0.79
			c0.598,0,1.025-0.105,1.283-0.316c0.258-0.21,0.416-0.518,0.475-0.922c0.059-0.404,0.088-0.899,0.088-1.485v-5.447
			c0-0.574-0.041-1.037-0.123-1.389c-0.082-0.351-0.252-0.608-0.51-0.772c-0.258-0.164-0.674-0.246-1.247-0.246h-0.755V358.201z"/>
		<path style="fill:#263238;" d="M295.195,360.012v-14.234h3.409c0.96,0,1.772,0.114,2.434,0.343
			c0.662,0.229,1.166,0.618,1.512,1.169c0.345,0.551,0.518,1.3,0.518,2.249c0,0.574-0.053,1.09-0.158,1.547
			c-0.105,0.457-0.284,0.846-0.536,1.168c-0.252,0.322-0.601,0.571-1.046,0.747l1.986,7.012h-2.601l-1.722-6.52h-1.195v6.52H295.195
			z M297.796,351.858h0.808c0.503,0,0.905-0.072,1.204-0.22c0.299-0.146,0.513-0.38,0.642-0.702
			c0.129-0.322,0.193-0.735,0.193-1.239c0-0.714-0.132-1.25-0.395-1.607c-0.264-0.357-0.764-0.536-1.503-0.536h-0.949V351.858z"/>
		<path style="fill:#263238;" d="M305.089,360.012v-14.234h2.566v14.234H305.089z"/>
		<path style="fill:#263238;" d="M312.03,360.012l-2.864-14.234h2.302l1.88,10.069l1.757-10.069h2.354l-2.864,14.234H312.03z"/>
		<path style="fill:#263238;" d="M318.988,360.012v-14.234h2.566v14.234H318.988z"/>
		<path style="fill:#263238;" d="M323.75,360.012v-14.234h1.81l3.462,8.119v-8.119h2.143v14.234h-1.722l-3.479-8.505v8.505H323.75z"
			/>
		<path style="fill:#263238;" d="M336.894,360.205c-0.938,0-1.681-0.199-2.232-0.598c-0.551-0.398-0.946-0.964-1.186-1.696
			c-0.24-0.732-0.36-1.596-0.36-2.592v-4.779c0-1.02,0.117-1.898,0.352-2.636c0.234-0.738,0.647-1.304,1.239-1.696
			c0.592-0.393,1.409-0.589,2.452-0.589c0.972,0,1.745,0.165,2.319,0.492c0.574,0.328,0.987,0.8,1.239,1.415
			c0.252,0.615,0.378,1.361,0.378,2.24v0.738h-2.478v-0.809c0-0.457-0.032-0.85-0.097-1.178c-0.064-0.327-0.193-0.576-0.387-0.746
			c-0.193-0.17-0.507-0.255-0.94-0.255c-0.457,0-0.788,0.111-0.993,0.334c-0.205,0.223-0.334,0.516-0.386,0.878
			c-0.053,0.363-0.079,0.762-0.079,1.195v5.957c0,0.492,0.041,0.92,0.123,1.283c0.082,0.363,0.234,0.641,0.457,0.834
			c0.223,0.193,0.539,0.29,0.949,0.29c0.421,0,0.744-0.105,0.966-0.316c0.223-0.211,0.378-0.503,0.466-0.878
			c0.088-0.375,0.132-0.82,0.132-1.336v-1.335h-1.529v-1.635h3.866v7.223h-1.669l-0.193-1.406c-0.188,0.469-0.472,0.852-0.852,1.151
			C338.069,360.056,337.55,360.205,336.894,360.205z"/>
		<path style="fill:#263238;" d="M351.005,360.205c-0.855,0-1.57-0.167-2.144-0.501c-0.574-0.334-1.007-0.823-1.3-1.468
			c-0.293-0.644-0.456-1.435-0.492-2.372l2.232-0.44c0.023,0.551,0.091,1.037,0.202,1.459c0.111,0.422,0.281,0.747,0.51,0.975
			c0.228,0.228,0.53,0.343,0.905,0.343c0.422,0,0.721-0.125,0.896-0.378c0.176-0.251,0.264-0.57,0.264-0.957
			c0-0.621-0.141-1.131-0.421-1.529c-0.281-0.397-0.656-0.796-1.125-1.194l-1.793-1.582c-0.503-0.433-0.905-0.916-1.204-1.449
			c-0.299-0.533-0.448-1.192-0.448-1.978c0-1.124,0.328-1.991,0.984-2.601c0.656-0.608,1.552-0.914,2.689-0.914
			c0.668,0,1.224,0.104,1.669,0.308c0.445,0.205,0.8,0.489,1.063,0.853c0.264,0.363,0.46,0.776,0.589,1.239
			c0.129,0.463,0.211,0.951,0.246,1.467l-2.214,0.387c-0.023-0.445-0.073-0.844-0.149-1.195c-0.076-0.351-0.211-0.626-0.404-0.825
			c-0.193-0.199-0.478-0.299-0.853-0.299c-0.387,0-0.683,0.126-0.887,0.378c-0.205,0.252-0.308,0.565-0.308,0.939
			c0,0.48,0.1,0.876,0.299,1.187c0.199,0.311,0.486,0.63,0.861,0.958l1.775,1.563c0.585,0.492,1.086,1.069,1.502,1.732
			c0.416,0.661,0.624,1.461,0.624,2.398c0,0.68-0.15,1.282-0.448,1.81c-0.299,0.527-0.715,0.94-1.247,1.239
			C352.344,360.056,351.719,360.205,351.005,360.205z"/>
		<path style="fill:#263238;" d="M359.932,360.205c-1.043,0-1.86-0.205-2.452-0.615c-0.591-0.41-1.004-0.97-1.239-1.679
			c-0.234-0.708-0.352-1.525-0.352-2.451v-5.078c0-0.973,0.117-1.816,0.352-2.53c0.234-0.715,0.648-1.266,1.239-1.652
			c0.592-0.387,1.409-0.58,2.452-0.58c0.984,0,1.754,0.167,2.311,0.501c0.557,0.334,0.952,0.812,1.186,1.433
			c0.234,0.621,0.351,1.342,0.351,2.161v1.195h-2.495v-1.23c0-0.398-0.021-0.762-0.062-1.09c-0.041-0.327-0.152-0.588-0.334-0.781
			c-0.182-0.193-0.495-0.29-0.94-0.29c-0.445,0-0.771,0.103-0.976,0.308c-0.205,0.205-0.337,0.48-0.395,0.825
			c-0.059,0.346-0.088,0.735-0.088,1.169v6.185c0,0.516,0.041,0.94,0.123,1.274c0.081,0.334,0.231,0.586,0.448,0.755
			c0.217,0.17,0.513,0.255,0.888,0.255c0.433,0,0.741-0.103,0.922-0.308c0.182-0.204,0.296-0.477,0.343-0.816
			c0.047-0.34,0.07-0.721,0.07-1.143v-1.283h2.495v1.143c0,0.844-0.111,1.591-0.333,2.24c-0.223,0.65-0.612,1.16-1.169,1.529
			C361.721,360.021,360.939,360.205,359.932,360.205z"/>
		<path style="fill:#263238;" d="M365.625,360.012v-14.234h2.583v5.957h2.899v-5.957h2.601v14.234h-2.601v-6.432h-2.899v6.432
			H365.625z"/>
		<path style="fill:#263238;" d="M379.753,360.205c-1.008,0-1.81-0.188-2.408-0.563c-0.597-0.375-1.025-0.914-1.283-1.617
			c-0.258-0.702-0.387-1.534-0.387-2.495v-5.324c0-0.961,0.129-1.783,0.387-2.469c0.258-0.685,0.685-1.21,1.283-1.573
			c0.598-0.362,1.4-0.545,2.408-0.545c1.031,0,1.842,0.183,2.434,0.545c0.591,0.363,1.02,0.888,1.283,1.573
			c0.264,0.686,0.396,1.508,0.396,2.469v5.342c0,0.949-0.132,1.772-0.396,2.469c-0.263,0.697-0.691,1.236-1.283,1.617
			C381.595,360.015,380.784,360.205,379.753,360.205z M379.753,358.289c0.433,0,0.753-0.094,0.957-0.281
			c0.205-0.186,0.343-0.444,0.413-0.772c0.07-0.328,0.105-0.686,0.105-1.072v-6.555c0-0.398-0.035-0.756-0.105-1.072
			c-0.07-0.316-0.208-0.565-0.413-0.746c-0.205-0.182-0.524-0.273-0.957-0.273c-0.41,0-0.721,0.091-0.932,0.273
			c-0.211,0.182-0.351,0.431-0.421,0.746c-0.07,0.316-0.105,0.674-0.105,1.072v6.555c0,0.387,0.032,0.744,0.097,1.072
			c0.064,0.328,0.202,0.586,0.413,0.772C379.015,358.195,379.331,358.289,379.753,358.289z"/>
		<path style="fill:#263238;" d="M389.646,360.205c-1.008,0-1.81-0.188-2.408-0.563c-0.597-0.375-1.025-0.914-1.283-1.617
			c-0.258-0.702-0.387-1.534-0.387-2.495v-5.324c0-0.961,0.129-1.783,0.387-2.469c0.258-0.685,0.685-1.21,1.283-1.573
			c0.598-0.362,1.4-0.545,2.408-0.545c1.031,0,1.842,0.183,2.434,0.545c0.591,0.363,1.02,0.888,1.283,1.573
			c0.264,0.686,0.396,1.508,0.396,2.469v5.342c0,0.949-0.132,1.772-0.396,2.469c-0.263,0.697-0.691,1.236-1.283,1.617
			C391.488,360.015,390.677,360.205,389.646,360.205z M389.646,358.289c0.433,0,0.752-0.094,0.957-0.281
			c0.205-0.186,0.343-0.444,0.413-0.772c0.07-0.328,0.105-0.686,0.105-1.072v-6.555c0-0.398-0.035-0.756-0.105-1.072
			c-0.07-0.316-0.208-0.565-0.413-0.746c-0.205-0.182-0.524-0.273-0.957-0.273c-0.41,0-0.721,0.091-0.932,0.273
			c-0.211,0.182-0.351,0.431-0.421,0.746c-0.07,0.316-0.105,0.674-0.105,1.072v6.555c0,0.387,0.032,0.744,0.097,1.072
			c0.064,0.328,0.202,0.586,0.413,0.772C388.908,358.195,389.224,358.289,389.646,358.289z"/>
		<path style="fill:#263238;" d="M395.674,360.012v-14.234h2.601v12.441h3.444v1.793H395.674z"/>
	</g>
</g>
<g id="Traffic_Cones_1">
	<g>
		<path style="fill:#92E3A9;stroke:#263238;stroke-linecap:round;stroke-linejoin:round;stroke-miterlimit:10;" d="M446.034,366.922
			l-14.411,57.336h33.358l-14.411-57.336C449.977,364.564,446.626,364.564,446.034,366.922z"/>
		
			<rect x="427.335" y="422.936" style="fill:#92E3A9;stroke:#263238;stroke-linecap:round;stroke-linejoin:round;stroke-miterlimit:10;" width="41.933" height="3.681"/>
		<g>
			<polygon style="fill:#FFFFFF;stroke:#263238;stroke-linecap:round;stroke-linejoin:round;stroke-miterlimit:10;" points="
				444.573,372.735 440.619,388.464 455.984,388.464 452.03,372.735 			"/>
			<polygon style="fill:#FFFFFF;stroke:#263238;stroke-linecap:round;stroke-linejoin:round;stroke-miterlimit:10;" points="
				462.04,412.561 458.087,396.831 438.516,396.831 434.563,412.561 			"/>
		</g>
	</g>
	<g>
		<path style="fill:#92E3A9;stroke:#263238;stroke-linecap:round;stroke-linejoin:round;stroke-miterlimit:10;" d="M154.073,366.922
			l-14.411,57.336h33.358l-14.411-57.336C158.016,364.564,154.666,364.564,154.073,366.922z"/>
		
			<rect x="135.374" y="422.936" style="fill:#92E3A9;stroke:#263238;stroke-linecap:round;stroke-linejoin:round;stroke-miterlimit:10;" width="41.933" height="3.681"/>
		<g>
			<polygon style="fill:#FFFFFF;stroke:#263238;stroke-linecap:round;stroke-linejoin:round;stroke-miterlimit:10;" points="
				152.612,372.735 148.659,388.464 164.023,388.464 160.07,372.735 			"/>
			<polygon style="fill:#FFFFFF;stroke:#263238;stroke-linecap:round;stroke-linejoin:round;stroke-miterlimit:10;" points="
				170.08,412.561 166.126,396.831 146.556,396.831 142.602,412.561 			"/>
		</g>
	</g>
</g>
<g id="Floor">
	
		<line style="fill:none;stroke:#263238;stroke-linecap:round;stroke-linejoin:round;stroke-miterlimit:10;" x1="20.821" y1="426.617" x2="723.494" y2="426.617"/>
</g>
<g id="Speech_Bubble">
	<g>
		<path style="fill:#263238;stroke:#263238;stroke-linecap:round;stroke-linejoin:round;stroke-miterlimit:10;" d="M137.848,149.964
			c-16.27,0-29.46,13.19-29.46,29.46c0,8.654,3.732,16.436,9.674,21.826l-5.54,11.079l10.864-7.242
			c4.273,2.413,9.204,3.797,14.462,3.797c16.27,0,29.46-13.19,29.46-29.46C167.308,163.154,154.118,149.964,137.848,149.964z"/>
		<path style="fill:#FFFFFF;stroke:#263238;stroke-linecap:round;stroke-linejoin:round;stroke-miterlimit:10;" d="M137.337,146.897
			c-16.27,0-29.46,13.19-29.46,29.46c0,8.654,3.732,16.437,9.674,21.826l-5.54,11.079l10.864-7.242
			c4.273,2.413,9.204,3.797,14.462,3.797c16.27,0,29.46-13.19,29.46-29.46C166.796,160.086,153.607,146.897,137.337,146.897z"/>
		<g>
			<path style="fill:#92E3A9;stroke:#263238;stroke-linecap:round;stroke-linejoin:round;stroke-miterlimit:10;" d="
				M133.319,189.539c-0.079,0-0.158-0.004-0.237-0.011c-0.733-0.07-1.399-0.46-1.818-1.066l-11.126-16.071
				c-0.786-1.135-0.502-2.692,0.633-3.479c1.136-0.785,2.693-0.502,3.479,0.633l9.438,13.633l28.17-27.595
				c0.985-0.966,2.568-0.951,3.536,0.037c0.966,0.986,0.95,2.569-0.037,3.536l-30.288,29.669
				C134.599,189.285,133.97,189.539,133.319,189.539z"/>
		</g>
	</g>
</g>
<g id="Character_1">
	<g>
		<g>
			<g>
				<path style="fill:#FFFFFF;stroke:#263238;stroke-linecap:round;stroke-linejoin:round;stroke-miterlimit:10;" d="
					M92.025,211.312c0,0,2.19,2.296,3.189,7.678c0.2,1.074,0.151,3.35,0.152,3.714c0.001,0.364,1.834,4.973,1.727,6.102
					c-0.106,1.129-2.533,1.267-2.533,1.267s-2.716,9.617-3.517,9.765c-0.801,0.148-4.154-0.426-4.154-0.426l-0.353,4.372
					l-18.582-1.409l2.197-9.732c0,0,0.763-14.719,4.172-20.483C77.733,206.395,88.481,207.277,92.025,211.312z"/>
				<polygon style="fill:#263238;stroke:#263238;stroke-linecap:round;stroke-linejoin:round;stroke-miterlimit:10;" points="
					91.043,239.837 85.43,236.79 86.889,239.411 				"/>
				<path style="fill:none;stroke:#263238;stroke-linecap:round;stroke-linejoin:round;stroke-miterlimit:10;" d="M92.948,232.951
					c0,0-1.895-0.214-1.937-2.508"/>
				<path style="fill:none;stroke:#263238;stroke-linecap:round;stroke-linejoin:round;stroke-miterlimit:10;" d="M94.306,219.902
					c0,0-0.477-1.419-1.895-0.214"/>
			</g>
			<path style="fill:#263238;stroke:#263238;stroke-linecap:round;stroke-linejoin:round;stroke-miterlimit:10;" d="M67.388,206.713
				c3.014-3.687,11.844-4.982,15.198-4.044c3.138,0.878,6.167,2.042,6.908,2.418c-0.005-0.006,1.962,0.468,1.957,0.46
				c0.032,0.019,3.307,0.444,3.339,0.461c0,0-2.555,4.119-2.766,5.303c-1.129,0.258-5.357-0.751-4.698,0.486
				c0.659,1.237,3.7,3.843,2.973,4.574c-0.727,0.73-3.044,2.597-3.044,2.597s1.089,2.708-0.295,2.93
				c-1.384,0.222-3.839-2.002-4.381-0.362c-0.542,1.641-4.739,11.959-5.176,12.106c-0.437,0.147-7.254-0.999-7.254-0.999
				s-2.713-6.623-4.546-10.989C63.773,217.286,64.374,210.4,67.388,206.713z"/>
			<path style="fill:#FFFFFF;stroke:#263238;stroke-linecap:round;stroke-linejoin:round;stroke-miterlimit:10;" d="M86.229,223.712
				c0,0-1.219-6.517-3.036-4.691c-1.817,1.826-1.618,8.2-0.631,9.327c0.987,1.127,2.003-0.187,2.003-0.187"/>
			
				<line style="fill:none;stroke:#263238;stroke-linecap:round;stroke-linejoin:round;stroke-miterlimit:10;" x1="85.905" y1="222.408" x2="98.41" y2="222.287"/>
			<path style="fill:none;stroke:#263238;stroke-linecap:round;stroke-linejoin:round;stroke-miterlimit:10;" d="M95.739,220.952
				h2.914c0,0,0.486,2.428-0.486,3.521c-0.971,1.093-1.821,0.729-1.821,0.729"/>
		</g>
		<path style="fill:#FFFFFF;stroke:#263238;stroke-linecap:round;stroke-linejoin:round;stroke-miterlimit:10;" d="M88.229,244.963
			l2.526,7.156c0,0-7.718-4.21-15.155-6.736c-7.437-2.526-12.348-3.227-12.348-3.227l3.789-5.613
			C67.04,236.544,82.616,238.087,88.229,244.963z"/>
		<path style="fill:#263238;stroke:#263238;stroke-linecap:round;stroke-linejoin:round;stroke-miterlimit:10;" d="M127.772,256.586
			l-15.91,26.696c-0.119,0.2-0.354,0.298-0.58,0.243l-14.934-3.668c-0.342-0.084-0.508-0.472-0.332-0.777l13.799-23.946
			c0.1-0.173,0.287-0.275,0.486-0.264l17.044,0.918C127.744,255.809,127.976,256.244,127.772,256.586z"/>
		<polygon style="fill:#FFFFFF;stroke:#263238;stroke-linecap:round;stroke-linejoin:round;stroke-miterlimit:10;" points="
			126.507,256.154 112.191,280.177 98.359,276.78 110.735,255.305 		"/>
		<polygon style="fill:#FFFFFF;stroke:#263238;stroke-linecap:round;stroke-linejoin:round;stroke-miterlimit:10;" points="
			112.324,262.72 108.984,262.469 110.643,259.467 113.983,259.718 		"/>
		<polygon style="fill:#FFFFFF;stroke:#263238;stroke-linecap:round;stroke-linejoin:round;stroke-miterlimit:10;" points="
			109.389,267.374 106.049,267.122 107.708,264.12 111.048,264.372 		"/>
		<polygon style="fill:#FFFFFF;stroke:#263238;stroke-linecap:round;stroke-linejoin:round;stroke-miterlimit:10;" points="
			119.162,263.221 115.822,262.969 117.481,259.967 120.821,260.219 		"/>
		<path style="fill:#FFFFFF;stroke:#263238;stroke-linecap:round;stroke-linejoin:round;stroke-miterlimit:10;" d="M123.14,254.268
			l-2.48-0.125c0.184-0.191,0.292-0.42,0.292-0.667c0-0.661-0.768-1.196-1.716-1.196c-0.947,0-1.715,0.536-1.715,1.196
			c0,0.186,0.066,0.361,0.175,0.518l-2.622-0.132c-0.402-0.02-0.785,0.172-1.008,0.507l-1.25,1.871l9.831,0.496l0.989-1.48
			C123.909,254.845,123.632,254.293,123.14,254.268z"/>
		<polyline style="fill:none;stroke:#92E3A9;stroke-linecap:round;stroke-linejoin:round;stroke-miterlimit:10;" points="
			110.915,258.03 111.483,261.094 116.574,258.133 		"/>
		<g>
			<path style="fill:#FFFFFF;stroke:#263238;stroke-linecap:round;stroke-linejoin:round;stroke-miterlimit:10;" d="M65.645,418.032
				l-0.952,7.296c0,0,0.952,1.586,3.965,1.903c3.014,0.317,5.234,0.793,5.234,0.793l-0.828-7.095L65.645,418.032z"/>
			<path style="fill:#FFFFFF;stroke:#263238;stroke-linecap:round;stroke-linejoin:round;stroke-miterlimit:10;" d="M64.694,425.328
				l0.138-1.057c2.838,1.104,6.272,1.459,8.805,1.554l0.257,2.2c0,0-2.221-0.476-5.234-0.793
				C65.645,426.914,64.694,425.328,64.694,425.328z"/>
		</g>
		<g>
			<path style="fill:#FFFFFF;stroke:#263238;stroke-linecap:round;stroke-linejoin:round;stroke-miterlimit:10;" d="M87.217,415.019
				l8.248,5.076c0,0,3.648,0.952,5.71,1.11c2.062,0.159,2.062,2.379,1.11,3.172c-0.952,0.793-4.107,2.138-8.089,3.014
				c-7.931,1.745-19.351,1.11-20.303,0.634c-0.952-0.476-1.745-1.269-1.903-1.903c-0.159-0.635,0-6.821,0-6.821
				S84.045,417.874,87.217,415.019z"/>
			<path style="fill:#FFFFFF;stroke:#263238;stroke-linecap:round;stroke-linejoin:round;stroke-miterlimit:10;" d="M95.306,425.328
				c4.65-1.412,6.559-2.562,7.325-3.338c0.483,0.763,0.27,1.873-0.346,2.386c-0.952,0.793-4.107,2.137-8.089,3.014
				c-7.931,1.745-19.351,1.11-20.303,0.634c-0.89-0.445-1.634-1.166-1.858-1.777C77.34,426.701,88.669,427.343,95.306,425.328z"/>
		</g>
		<path style="fill:#919191;stroke:#263238;stroke-linecap:round;stroke-linejoin:round;stroke-miterlimit:10;" d="M61.334,314.475
			c0,0,0,7.821,2.607,12.021c2.607,4.2,6.228,7.966,6.228,8.545c0,0.579,3.476,27.663,3.476,29.112c0,1.448,0.145,5.648-0.724,7.821
			c-0.869,2.173-4.2,15.932-6.228,28.243c-2.028,12.311-1.159,15.353-1.159,15.353s-0.869,2.172-0.869,2.752
			c0,0.579,0.435,2.172,0.435,2.172s2.317,0.724,4.49,0.724s3.476-0.29,3.476-0.29s0.145-2.317-0.29-3.476
			c-0.434-1.159-0.145-4.345-0.145-5.069c0-0.724,5.504-38.237,5.504-41.133c0-2.897,0.145-33.602,0.145-33.602l1.303-21.291
			C79.583,316.358,72.051,316.069,61.334,314.475z"/>
		<g>
			<path style="fill:#919191;stroke:#263238;stroke-linecap:round;stroke-linejoin:round;stroke-miterlimit:10;" d="M71.617,330.842
				c0,0,3.476,6.373,3.766,6.952c0.29,0.579,0.29,5.649,0.29,6.807c0,1.159,0.724,23.174,0.579,26.215
				c-0.145,3.042-2.462,12.456-3.186,18.104c-0.724,5.649-2.028,22.16-2.173,22.594c-0.145,0.434-0.724,2.462-0.435,3.766
				c0.29,1.304,1.014,2.752,1.014,2.752s-0.435,2.462-0.145,3.186c0.29,0.724,4.2,1.448,9.704-0.145
				c5.504-1.593,7.821-5.069,7.821-5.069s-0.29-0.724-0.29-2.172c0-1.448-1.448-1.738-1.448-1.738l2.752-19.408
				c0,0,2.607-6.083,2.752-7.097c0.145-1.014-0.579-3.476-0.435-4.49c0.145-1.014,1.883-3.187,2.028-4.2
				c0.145-1.014,4.924-17.236,5.214-31.574c0.29-14.339-1.22-31.167-1.22-31.167s-2.691,5.386-13.988,4.662
				c-11.297-0.724-15.787-0.869-21.146-3.186"/>
			<g>
				<path style="fill:none;stroke:#263238;stroke-linecap:round;stroke-linejoin:round;stroke-miterlimit:10;" d="M83.544,403.147
					l-0.927,9.651c0,0,1.269,0.793,0.793,2.379c-0.476,1.586-0.793,2.538-0.793,2.538"/>
				<path style="fill:none;stroke:#263238;stroke-linecap:round;stroke-linejoin:round;stroke-miterlimit:10;" d="M91.856,354.767
					c-0.109,0.701-0.228,1.382-0.357,2.04c-2.538,13.006-5.393,22.84-5.551,23.316c-0.159,0.476,1.903,2.221,1.11,3.172
					c-0.793,0.952-1.745,1.428-1.745,1.428l-1.457,15.176"/>
				<path style="fill:none;stroke:#263238;stroke-linecap:round;stroke-linejoin:round;stroke-miterlimit:10;" d="M92.768,321.595
					c0,0,0.923,16.143-0.379,28.963"/>
				<path style="fill:none;stroke:#263238;stroke-linecap:round;stroke-linejoin:round;stroke-miterlimit:10;" d="M96.416,321.277
					c0,0,0.476,5.71-2.696,8.565"/>
				<path style="fill:none;stroke:#263238;stroke-linecap:round;stroke-linejoin:round;stroke-miterlimit:10;" d="M72.148,322.07
					c3.648,1.586,11.579,1.745,11.579,1.745l-0.952,2.379c0,0-5.551-0.317-7.772-1.11"/>
			</g>
		</g>
		<g>
			<path style="fill:#FFFFFF;stroke:#263238;stroke-linecap:round;stroke-linejoin:round;stroke-miterlimit:10;" d="
				M104.618,272.414l-2.454,1.55l-3.1-1.033c0,0,2.583-1.808,2.712-2.712C101.906,269.315,104.618,271.123,104.618,272.414z"/>
			<path style="fill:#FFFFFF;stroke:#263238;stroke-linecap:round;stroke-linejoin:round;stroke-miterlimit:10;" d="M96.353,266.086
				c0,0,6.587,0,6.974,0c0.387,0,2.841,5.037,3.229,5.553c0.388,0.517,1.55,0.904,0.517,1.421c-1.033,0.517-2.454-0.646-2.454-0.646
				l-2.841-2.195l-5.037,1.033"/>
			
				<line style="fill:#FFFFFF;stroke:#263238;stroke-width:2;stroke-linecap:round;stroke-linejoin:round;stroke-miterlimit:10;" x1="96.353" y1="258.983" x2="105.393" y2="274.171"/>
			<path style="fill:#FFFFFF;stroke:#263238;stroke-linecap:round;stroke-linejoin:round;stroke-miterlimit:10;" d="M97.386,273.447
				c0,0,1.679,0.258,2.841-0.517c1.162-0.775,1.55-2.712,1.55-2.712s1.033-0.388,2.066-0.775c1.033-0.387,1.421-0.775,1.421-1.937
				c0-1.162-0.904-1.292-2.066-0.387c-1.162,0.904-5.037,1.162-5.037,1.162"/>
		</g>
		<g>
			<g>
				<path style="fill:#FFFFFF;stroke:#263238;stroke-linecap:round;stroke-linejoin:round;stroke-miterlimit:10;" d="
					M98.206,314.159c0,0-0.997,7.139-16.291,6.297c-15.295-0.842-21.188-3.368-21.329-4.63c-0.14-1.263,0.281-4.21,0.281-4.21
					S88.804,310.23,98.206,314.159z"/>
				<path style="fill:#92E3A9;stroke:#263238;stroke-linecap:round;stroke-linejoin:round;stroke-miterlimit:10;" d="M90.755,252.12
					c0,0,3.673,0.814,6.8,3.718c3.521,3.27,6.2,28.221,6.2,28.221l7.065-4.51c0,0-0.14-2.806,0.281-3.929
					c0.421-1.122,0.561-1.964,1.544-2.385c0.982-0.421,4.21-1.263,5.052-1.965c0.842-0.702,3.227-2.947,3.789-2.105
					c0.561,0.842,1.684,2.245,1.403,3.227c-0.281,0.982-1.403,2.947-1.403,3.508c0,0.561,0,4.771-1.824,6.735
					c-1.824,1.965-4.49,2.806-4.49,2.806s-4.35,11.506-5.894,13.751c-1.544,2.245-8.452,5.941-8.452,5.941s1.03,6.779,0.609,7.06
					c-0.421,0.281-2.885,2.669-2.947,3.227c-0.151,1.372-22.946,2.904-24.765,0.905c-0.855-0.94-6.821-0.361-7.804-0.782
					c-0.982-0.421-4.21-1.824-4.911-2.385c-0.702-0.561-1.824-1.544-1.263-3.789c0.561-2.245,1.123-18.101,1.123-19.505
					s-3.464-12.349-4.069-16.838c-2.18-16.173-2.592-14.619-2.639-16.728c-0.111-4.978,3.836-7.557,4.397-7.838
					c0.561-0.281,4.697-6.305,4.697-6.305S75.74,243.139,90.755,252.12z"/>
				
					<line style="fill:none;stroke:#263238;stroke-linecap:round;stroke-linejoin:round;stroke-miterlimit:10;" x1="68.427" y1="269.505" x2="76.22" y2="279.896"/>
				
					<line style="fill:none;stroke:#263238;stroke-linecap:round;stroke-linejoin:round;stroke-miterlimit:10;" x1="68.686" y1="274.7" x2="75.701" y2="282.234"/>
				<path style="fill:none;stroke:#263238;stroke-linecap:round;stroke-linejoin:round;stroke-miterlimit:10;" d="M100.825,305.134
					c0,0-5.22-2.326-6.062-3.028c-0.842-0.702-7.516-19.471-7.796-20.734c-0.281-1.263-2.318-5.594-2.318-5.594"/>
				<path style="fill:none;stroke:#263238;stroke-linecap:round;stroke-linejoin:round;stroke-miterlimit:10;" d="M104.316,292.478
					c0.421-2.385-0.561-8.419-0.561-8.419s-0.982,5.894-2.806,8.279"/>
				<g>
					<path style="fill:#FFFFFF;stroke:#263238;stroke-linecap:round;stroke-linejoin:round;stroke-miterlimit:10;" d="
						M121.485,269.165c-0.561-0.842-2.947,1.403-3.789,2.105c-0.177,0.148-0.464,0.301-0.809,0.456
						c0.65-0.893,1.236-1.706,1.369-2.631c0.154-1.08-1.08-1.697-2.005-0.617c-0.926,1.08-0.926,1.697-1.543,2.314
						c-0.617,0.617-2.063,2.443-2.063,2.443c-0.982,0.421-1.123,1.263-1.544,2.385c-0.421,1.123-0.281,3.929-0.281,3.929
						l-2.437,1.887c3.39,0.298,5.299,3.592,6.154,5.657c0.39-1.007,0.633-1.651,0.633-1.651s2.666-0.842,4.49-2.806
						c1.824-1.965,1.824-6.174,1.824-6.735c0-0.561,1.123-2.526,1.403-3.508C123.169,271.41,122.046,270.007,121.485,269.165z"/>
					<path style="fill:none;stroke:#263238;stroke-linecap:round;stroke-linejoin:round;stroke-miterlimit:10;" d="M116.887,271.726
						c0,0-1.1,1.071-2.025,1.842"/>
				</g>
				<path style="fill:none;stroke:#263238;stroke-linecap:round;stroke-linejoin:round;stroke-miterlimit:10;" d="M113.065,289.792
					c0,0-1.539-4.793-5.608-6.197"/>
				
					<line style="fill:none;stroke:#263238;stroke-linecap:round;stroke-linejoin:round;stroke-miterlimit:10;" x1="73.721" y1="316.327" x2="66.619" y2="311.756"/>
			</g>
		</g>
		<path style="fill:#263238;" d="M94.215,223.74c0,0.763-0.206,1.382-0.461,1.382c-0.254,0-0.461-0.619-0.461-1.382
			c0-0.763,0.206-1.382,0.461-1.382C94.009,222.358,94.215,222.977,94.215,223.74z"/>
	</g>
</g>
</svg>
