<?xml version="1.0" encoding="utf-8"?>
<!-- Generator: Adobe Illustrator 27.5.0, SVG Export Plug-In . SVG Version: 6.00 Build 0)  -->
<svg version="1.1" xmlns="http://www.w3.org/2000/svg" xmlns:xlink="http://www.w3.org/1999/xlink" x="0px" y="0px"
	 viewBox="0 0 750 500" style="enable-background:new 0 0 750 500;" xml:space="preserve">
<g id="Background_Complete">
	<g>
		<g>
			<path style="fill:#F5F5F5;" d="M15.314,297.095c0,0-7.642,2.896,0.73,19.169c8.372,16.273,14.161,24.323,14.161,24.323
				s1.488,3.779-1.695,4.378c-3.183,0.599-10.202-0.496-11.608,3.407c-1.458,4.048,1.491,7.852,7.457,11.177
				c5.965,3.326,18.768,11.091,19.922,11.797c1.134,0.693,2.275,2.451,0.171,3.206c-2.103,0.755-17.875,2.456-16.621,9.891
				c1.255,7.436,19.396,13.969,21.365,14.721c1.969,0.752,2.443,1.584,2.286,2.665c-0.157,1.08-5.512,1.152-9.978,1.819
				c-4.466,0.667-9.528,2.224-8.444,6.453c1.083,4.229,11.846,13.086,37.915,15.552l12.154,0.352l6.579-10.29
				c12.737-22.879,11.536-36.765,8.665-40.054c-2.871-3.289-7.021,0-10.102,3.302c-3.08,3.302-6.173,7.674-7.152,7.191
				c-0.979-0.483-1.397-1.344-0.9-3.393c0.496-2.049,5.39-20.699-0.027-25.945c-5.416-5.246-15.753,6.787-17.567,8.092
				c-1.814,1.305-2.616-0.63-2.545-1.958c0.072-1.352,0.926-16.301,1.566-23.1c0.639-6.8-0.824-11.385-4.986-12.477
				c-4.013-1.053-7.087,5.351-9.384,7.635c-2.297,2.284-4.568-1.083-4.568-1.083s-3.354-9.332-12.021-25.449
				c-8.666-16.118-15.527-11.311-15.527-11.311"/>
		</g>
		<g>
			<g>
				<path style="fill:#E0E0E0;" d="M83.77,428.862C77.452,417,66.577,395.728,57.145,377.514
					c-9.428-18.208-17.98-34.686-24.237-46.579c-3.129-5.933-5.664-10.739-7.425-14.077c-0.87-1.652-1.548-2.939-2.016-3.829
					c-0.221-0.429-0.393-0.762-0.516-1c-0.114-0.226-0.164-0.347-0.164-0.347s0.073,0.108,0.198,0.329
					c0.131,0.234,0.313,0.561,0.549,0.983c0.483,0.882,1.182,2.158,2.079,3.796c1.802,3.298,4.375,8.089,7.531,14.022
					c6.318,11.862,14.908,28.322,24.336,46.53c9.432,18.215,20.268,39.504,26.526,51.397"/>
			</g>
		</g>
		<g>
			<g>
				<path style="fill:#E0E0E0;" d="M26.659,350.299c0.009-0.025,0.31,0.06,0.848,0.233c0.539,0.171,1.31,0.441,2.261,0.784
					c1.899,0.69,4.498,1.709,7.346,2.885c2.804,1.17,5.339,2.229,7.279,3.038c0.876,0.359,1.616,0.663,2.21,0.906
					c0.523,0.212,0.808,0.34,0.8,0.365c-0.009,0.025-0.311-0.057-0.85-0.227c-0.539-0.173-1.311-0.443-2.258-0.796
					c-1.893-0.709-4.478-1.761-7.324-2.938c-2.811-1.15-5.353-2.189-7.297-2.985c-0.879-0.355-1.62-0.655-2.216-0.896
					C26.934,350.455,26.65,350.324,26.659,350.299z"/>
			</g>
		</g>
		<g>
			<g>
				<path style="fill:#E0E0E0;" d="M48.23,357.732c-0.098-0.035,1.767-5.486,4.165-12.172c2.399-6.689,4.423-12.082,4.521-12.046
					c0.098,0.035-1.767,5.485-4.166,12.174C50.353,352.373,48.328,357.767,48.23,357.732z"/>
			</g>
		</g>
		<g>
			<g>
				<path style="fill:#E0E0E0;" d="M61.45,386.351c-0.021-0.016,0.155-0.283,0.491-0.752c0.384-0.529,0.864-1.19,1.433-1.975
					c1.207-1.669,2.865-3.98,4.601-6.598c1.742-2.615,3.236-5.036,4.304-6.797c0.503-0.829,0.927-1.527,1.267-2.086
					c0.302-0.491,0.48-0.757,0.502-0.744c0.023,0.013-0.111,0.302-0.374,0.816c-0.263,0.514-0.657,1.25-1.164,2.148
					c-1.01,1.799-2.473,4.249-4.22,6.871c-1.741,2.625-3.437,4.919-4.702,6.549c-0.635,0.813-1.157,1.465-1.531,1.905
					C61.686,386.131,61.471,386.367,61.45,386.351z"/>
			</g>
		</g>
		<g>
			<g>
				<path style="fill:#E0E0E0;" d="M40.459,383.923c0.002-0.026,0.298-0.021,0.83,0.011c0.612,0.047,1.363,0.104,2.25,0.171
					c1.898,0.16,4.517,0.408,7.408,0.706c2.892,0.297,5.507,0.587,7.398,0.815c0.882,0.114,1.629,0.211,2.237,0.29
					c0.527,0.077,0.818,0.132,0.815,0.158c-0.003,0.026-0.298,0.021-0.83-0.011c-0.612-0.047-1.363-0.103-2.25-0.171
					c-1.898-0.16-4.518-0.408-7.409-0.705c-2.891-0.297-5.505-0.587-7.397-0.815c-0.882-0.114-1.629-0.211-2.237-0.29
					C40.747,384.004,40.456,383.949,40.459,383.923z"/>
			</g>
		</g>
		<g>
			<g>
				<path style="fill:#E0E0E0;" d="M48.92,410.671c0.002-0.026,0.381-0.016,1.062,0.025c0.751,0.054,1.721,0.124,2.884,0.208
					c2.434,0.192,5.793,0.484,9.502,0.829c3.71,0.345,7.066,0.679,9.493,0.939c1.159,0.132,2.124,0.242,2.873,0.328
					c0.678,0.086,1.051,0.145,1.048,0.171c-0.003,0.026-0.38,0.016-1.062-0.025c-0.751-0.054-1.72-0.124-2.884-0.208
					c-2.434-0.192-5.794-0.484-9.503-0.829c-3.708-0.345-7.064-0.679-9.491-0.939c-1.159-0.132-2.124-0.242-2.873-0.328
					C49.291,410.757,48.917,410.697,48.92,410.671z"/>
			</g>
		</g>
		<g>
			<g>
				<path style="fill:#E0E0E0;" d="M75.156,412.931c-0.021-0.015,0.193-0.359,0.598-0.968c0.445-0.663,1.027-1.527,1.727-2.569
					c1.455-2.171,3.454-5.177,5.567-8.557c2.118-3.378,3.955-6.487,5.269-8.746c0.632-1.085,1.156-1.985,1.558-2.675
					c0.371-0.63,0.586-0.973,0.609-0.961c0.023,0.013-0.149,0.379-0.48,1.032c-0.331,0.652-0.825,1.589-1.455,2.736
					c-1.256,2.295-3.059,5.431-5.181,8.815c-2.116,3.386-4.154,6.375-5.667,8.509c-0.759,1.065-1.383,1.921-1.827,2.503
					C75.432,412.631,75.177,412.946,75.156,412.931z"/>
			</g>
		</g>
	</g>
	<g>
		<path style="fill:#EBEBEB;" d="M289.672,156.321c0.806-5.858-7.461-10.677-13.673-11.178c-2.962-0.239-6.04,0.214-8.846-0.764
			c-6.081-2.119-8.51-9.975-14.443-12.478c-4.436-1.871-9.543-0.205-13.843,1.959c-4.3,2.164-8.55,4.888-13.354,5.196
			c-4.179,0.267-8.717-1.282-12.373,0.759c-2.724,1.521-4.152,4.661-6.663,6.513c-2.457,1.812-5.661,2.196-8.71,2.362
			c-3.048,0.166-6.204,0.197-8.98,1.467c-2.776,1.271-5.072,4.206-4.496,7.204L289.672,156.321z"/>
	</g>
	<g>
		<path style="fill:#F5F5F5;" d="M467.871,85.055c1.072-7.787-9.918-14.193-18.176-14.858c-3.938-0.317-8.029,0.285-11.759-1.015
			c-8.083-2.817-11.312-13.26-19.199-16.587c-5.896-2.487-12.685-0.273-18.401,2.604c-5.716,2.877-11.365,6.498-17.752,6.907
			c-5.555,0.355-11.588-1.705-16.448,1.009c-3.622,2.022-5.519,6.195-8.857,8.657c-3.266,2.409-7.526,2.919-11.578,3.139
			c-4.052,0.22-8.247,0.261-11.937,1.951c-3.69,1.689-6.742,5.591-5.976,9.576L467.871,85.055z"/>
	</g>
	<g>
		<path style="fill:#F5F5F5;" d="M550.219,159.873c0.781-5.671-7.222-10.335-13.236-10.82c-2.868-0.231-5.846,0.207-8.563-0.74
			c-5.886-2.051-8.237-9.656-13.981-12.079c-4.294-1.811-9.237-0.199-13.4,1.896c-4.163,2.095-8.276,4.732-12.927,5.029
			c-4.045,0.259-8.438-1.241-11.978,0.735c-2.637,1.473-4.019,4.512-6.45,6.304c-2.378,1.754-5.48,2.126-8.431,2.286
			c-2.951,0.16-6.006,0.19-8.692,1.421c-2.687,1.23-4.91,4.071-4.352,6.973L550.219,159.873z"/>
	</g>
	<g>
		<path style="fill:#EBEBEB;" d="M692.229,97.461c0.735-5.339-6.8-9.731-12.461-10.187c-2.7-0.218-5.504,0.195-8.062-0.696
			c-5.542-1.931-7.756-9.091-13.163-11.372c-4.043-1.705-8.697-0.187-12.616,1.785c-3.919,1.972-7.792,4.455-12.171,4.735
			c-3.809,0.244-7.945-1.169-11.277,0.692c-2.483,1.386-3.784,4.248-6.073,5.936c-2.239,1.652-5.16,2.001-7.938,2.152
			c-2.778,0.151-5.654,0.179-8.184,1.337c-2.53,1.158-4.622,3.833-4.097,6.565L692.229,97.461z"/>
	</g>
</g>
<g id="Background_Simple" style="display:none;">
	<g style="display:inline;">
		<path style="fill:#EBEBEB;" d="M638.389,165.215c-28.98-26.679-68.921-40.409-108.303-39.576s-77.952,15.743-109.208,39.715
			c-25.127,19.271-46.465,44.632-75.795,56.571c-47.422,19.303-101.115-1.53-152.223,1.546
			c-54.985,3.31-108.112,38.048-128.955,89.036c-20.843,50.989-3.132,120.637,41.224,153.3l543.493-0.468
			c19.138-23.137,42.929-86.456,45.068-114.663C698.741,284.069,687.534,210.458,638.389,165.215z"/>
	</g>
</g>
<g id="Plants">
	<g>
		<g>
			<g>
				<path style="fill:#E8505B;" d="M606.606,424.689c1.915,0.789,3.345,2.52,4.083,4.456c0.737,1.936,0.84,4.064,0.645,6.126
					c-0.378,3.99-2.566,8.052-4.943,11.279c-3.407-2.864-4.273-7.955-4.55-10.565C601.402,431.859,603.116,424.138,606.606,424.689"
					/>
			</g>
		</g>
		<g>
			<g>
				<path style="fill:#E8505B;" d="M610.409,453.05c-0.578-2.241,0.312-4.727,2.012-6.298c1.699-1.571,4.101-2.267,6.411-2.133
					c1.068,0.062,2.227,0.352,2.854,1.219c0.586,0.811,0.543,1.958,0.096,2.853c-0.447,0.895-1.237,1.572-2.074,2.12
					C616.836,452.686,613.712,453.975,610.409,453.05"/>
			</g>
		</g>
		<g>
			<g>
				<g>
					<path style="fill:#263238;" d="M606.335,465.339c-0.02-0.004,0.02-0.296,0.104-0.82c0.095-0.577,0.217-1.323,0.365-2.219
						c0.336-1.855,0.763-4.511,2.152-7.107c1.369-2.589,3.318-4.513,4.97-5.481c0.82-0.495,1.541-0.794,2.05-0.953
						c0.251-0.09,0.457-0.126,0.593-0.162c0.137-0.031,0.209-0.043,0.212-0.034c0.025,0.064-1.156,0.3-2.746,1.322
						c-1.594,0.994-3.476,2.898-4.823,5.444c-1.361,2.542-1.819,5.162-2.206,7.008c-0.186,0.93-0.337,1.684-0.456,2.202
						C606.432,465.059,606.354,465.343,606.335,465.339z"/>
				</g>
			</g>
		</g>
		<g>
			<g>
				<g>
					<path style="fill:#263238;" d="M605.82,430.685c0.01,0,0.026,0.122,0.048,0.356c0.021,0.265,0.047,0.605,0.08,1.025
						c0.064,0.891,0.14,2.18,0.221,3.775c0.162,3.189,0.325,7.597,0.395,12.469c0.068,4.873,0.031,9.285-0.042,12.477
						c-0.036,1.596-0.075,2.887-0.114,3.779c-0.021,0.421-0.038,0.762-0.051,1.027c-0.015,0.235-0.028,0.358-0.038,0.358
						c-0.01,0-0.017-0.124-0.021-0.359c-0.001-0.266-0.002-0.606-0.004-1.028c0.005-0.929,0.013-2.211,0.022-3.78
						c0.019-3.191,0.025-7.6-0.044-12.47c-0.07-4.868-0.2-9.275-0.309-12.464c-0.053-1.568-0.097-2.849-0.129-3.778
						c-0.01-0.422-0.019-0.762-0.025-1.028C605.807,430.809,605.81,430.685,605.82,430.685z"/>
				</g>
			</g>
		</g>
		<g>
			<g>
				<path style="fill:#E8505B;" d="M604.652,455.581c-0.852-4.804-4.179-9.1-8.618-11.126c-1.13-0.516-2.6-0.84-3.506,0.011
					c-0.907,0.852-0.673,2.346-0.2,3.498c1.967,4.79,7.074,8.103,12.25,7.946"/>
			</g>
		</g>
		<g>
			<g>
				<g>
					<path style="fill:#263238;" d="M596.648,448.222c0.008-0.018,0.263,0.088,0.717,0.297c0.228,0.103,0.507,0.23,0.812,0.414
						c0.305,0.183,0.672,0.359,1.035,0.623c0.371,0.252,0.784,0.519,1.187,0.86c0.423,0.317,0.835,0.702,1.267,1.109
						c0.842,0.836,1.692,1.837,2.424,2.999c0.721,1.169,1.25,2.372,1.625,3.498c0.17,0.569,0.334,1.11,0.424,1.631
						c0.123,0.514,0.174,1.004,0.228,1.449c0.07,0.444,0.057,0.852,0.078,1.206c0.023,0.355,0.005,0.661-0.01,0.911
						c-0.027,0.5-0.052,0.774-0.072,0.773c-0.066-0.001,0.028-1.108-0.2-2.866c-0.066-0.438-0.128-0.919-0.26-1.423
						c-0.099-0.511-0.269-1.04-0.443-1.598c-0.383-1.103-0.909-2.28-1.617-3.429c-0.719-1.141-1.548-2.129-2.366-2.962
						c-0.42-0.406-0.82-0.792-1.231-1.113c-0.391-0.344-0.792-0.617-1.151-0.877C597.638,448.72,596.62,448.279,596.648,448.222z"/>
				</g>
			</g>
		</g>
	</g>
	<g>
		<g>
			<path style="fill:#E8505B;" d="M49.324,390.901c-1.49,2.481-4.764,1.924-6.357,0.585c-1.594-1.339-2.371-3.387-3.085-5.342
				c-1.632-4.467-3.29-9.157-2.64-13.868c0.194-1.408,0.616-2.829,1.519-3.927c0.903-1.098,2.36-1.816,3.757-1.55
				c1.653,0.315,2.773,1.834,3.608,3.295c2.454,4.294,3.935,9.142,4.297,14.075C50.593,386.472,50.491,388.907,49.324,390.901"/>
		</g>
		<g style="opacity:0.2;">
			<path d="M49.324,390.901c-1.49,2.481-4.764,1.924-6.357,0.585c-1.594-1.339-2.371-3.387-3.085-5.342
				c-1.632-4.467-3.29-9.157-2.64-13.868c0.194-1.408,0.616-2.829,1.519-3.927c0.903-1.098,2.36-1.816,3.757-1.55
				c1.653,0.315,2.773,1.834,3.608,3.295c2.454,4.294,3.935,9.142,4.297,14.075C50.593,386.472,50.491,388.907,49.324,390.901"/>
		</g>
		<g>
			<path style="fill:#E8505B;" d="M43.959,403.314c-2.806-1.207-6.008-1.165-8.98-0.458c-1.596,0.38-3.247,0.982-4.261,2.272
				c-1.014,1.29-1.073,3.44,0.263,4.394c0.795,0.568,1.849,0.589,2.823,0.509c2.352-0.192,4.934-0.79,6.914,0.494
				c1.129,0.733,1.938,2.026,3.248,2.333c1.282,0.301,2.646-0.539,3.232-1.718c0.586-1.179,0.509-2.597,0.109-3.851
				C47.308,407.289,46.786,404.53,43.959,403.314z"/>
		</g>
		<g>
			<path style="fill:#E8505B;" d="M54.11,393.976c-1.948-2.008-2.507-5.096-1.895-7.826c0.613-2.729,2.261-5.13,4.214-7.133
				c2.29-2.348,5.042-4.243,8.052-5.545c1.185-0.512,2.442-0.939,3.733-0.907c1.29,0.033,2.627,0.597,3.305,1.696
				c1.002,1.624,0.298,3.728-0.502,5.461c-1.409,3.053-3.058,5.994-4.928,8.788c-1.504,2.248-3.251,4.484-5.703,5.624
				c-2.453,1.14-5.078,1.21-6.537-0.444"/>
		</g>
		<g>
			<g>
				<path style="fill:#263238;" d="M51.938,426.572c-0.031,0.004-0.108-0.376-0.225-1.064c-0.131-0.777-0.295-1.752-0.491-2.913
					c-0.223-1.225-0.506-2.681-0.961-4.256c-0.454-1.571-1.11-3.263-1.92-4.968c-0.834-1.693-1.812-3.217-2.915-4.413
					c-1.096-1.202-2.332-2.041-3.469-2.495c-1.135-0.465-2.134-0.616-2.821-0.666c-0.691-0.022-1.079-0.049-1.081-0.08
					c-0.002-0.031,0.382-0.062,1.088-0.093c0.701-0.002,1.738,0.103,2.931,0.547c1.196,0.433,2.504,1.281,3.651,2.506
					c1.155,1.219,2.168,2.775,3.016,4.498c0.824,1.735,1.474,3.445,1.915,5.052c0.44,1.604,0.693,3.079,0.877,4.316
					c0.181,1.239,0.286,2.245,0.352,2.941C51.949,426.181,51.969,426.568,51.938,426.572z"/>
			</g>
		</g>
		<g>
			<g>
				<path style="fill:#263238;" d="M51.578,424.329c-0.015,0-0.037-0.171-0.064-0.497c-0.025-0.375-0.057-0.847-0.096-1.426
					c-0.083-1.238-0.21-3.029-0.431-5.236c-0.42-4.415-1.229-10.494-2.435-17.154c-1.212-6.661-2.617-12.631-3.816-16.901
					c-0.288-1.071-0.569-2.034-0.83-2.875c-0.252-0.844-0.467-1.572-0.666-2.159c-0.175-0.554-0.317-1.005-0.431-1.363
					c-0.094-0.314-0.136-0.481-0.122-0.486c0.014-0.005,0.085,0.151,0.206,0.455c0.134,0.351,0.303,0.794,0.51,1.337
					c0.225,0.58,0.465,1.301,0.74,2.14c0.284,0.836,0.587,1.795,0.895,2.863c1.28,4.258,2.737,10.233,3.952,16.908
					c1.209,6.674,1.97,12.774,2.31,17.206c0.182,2.215,0.261,4.013,0.291,5.256c0.005,0.582,0.009,1.055,0.013,1.431
					C51.602,424.157,51.593,424.329,51.578,424.329z"/>
			</g>
		</g>
		<g>
			<g>
				<path style="fill:#263238;" d="M50.72,412.521c-0.031,0.001-0.063-0.529-0.094-1.491c-0.012-0.961,0.022-2.354,0.173-4.068
					c0.167-1.711,0.426-3.747,0.9-5.973c0.443-2.231,1.097-4.653,1.971-7.13c1.7-4.982,4.194-9.132,6.433-11.751
					c0.52-0.69,1.117-1.203,1.588-1.698c0.245-0.239,0.46-0.474,0.683-0.665c0.225-0.179,0.434-0.346,0.627-0.5
					c0.755-0.598,1.18-0.915,1.198-0.891c0.078,0.092-1.694,1.309-3.854,3.956c-2.151,2.641-4.569,6.758-6.255,11.698
					c-0.866,2.456-1.527,4.856-1.989,7.067c-0.493,2.206-0.782,4.223-0.988,5.92c-0.19,1.699-0.272,3.082-0.313,4.038
					C50.777,411.988,50.751,412.52,50.72,412.521z"/>
			</g>
		</g>
	</g>
</g>
<g id="Speech_Bubble">
	<g>
		<g>
			<g>
				<g>
					<g>
						<path style="fill:#FFFFFF;" d="M624.236,197.038l-8.044-14.177c3.559-5.776,5.616-12.577,5.616-19.859
							c0-20.943-16.978-37.921-37.92-37.921c-20.943,0-37.921,16.977-37.921,37.921c0,20.943,16.978,37.921,37.921,37.921
							c8.745,0,16.792-2.968,23.207-7.941l-0.013,0.017L624.236,197.038z"/>
					</g>
					<g>
						<g>
							<path style="fill:#263238;" d="M624.236,197.038c-0.903-0.206-6.28-1.43-17.185-3.913l-0.195-0.045l0.122-0.161l0.013-0.017
								l0.182,0.182c-4.288,3.359-10.461,6.629-18.208,7.681c-1.927,0.247-3.94,0.406-6.009,0.305
								c-1.034-0.058-2.086-0.083-3.147-0.172c-1.054-0.159-2.124-0.32-3.207-0.484c-4.297-0.847-8.692-2.478-12.791-5.021
								c-4.096-2.534-7.89-5.975-10.93-10.203c-3.036-4.22-5.338-9.225-6.416-14.664c-1.068-5.431-0.979-11.252,0.447-16.887
								c1.436-5.614,4.12-11.1,8.136-15.612l1.55-1.706c0.51-0.574,1.117-1.046,1.669-1.573c0.578-0.498,1.1-1.061,1.721-1.501
								l1.822-1.362c0.59-0.477,1.24-0.861,1.886-1.248l1.926-1.169c0.674-0.327,1.346-0.654,2.016-0.979
								c0.676-0.312,1.326-0.681,2.035-0.905c5.514-2.189,11.395-3.022,17.016-2.614c5.622,0.405,11.002,2.019,15.617,4.617
								c4.629,2.577,8.533,6.019,11.545,9.862c3.022,3.845,5.15,8.086,6.468,12.309c1.309,4.243,1.662,8.45,1.647,12.345
								c-0.223,7.845-2.852,14.286-5.67,18.821l0.002-0.127C621.352,191.864,623.805,196.264,624.236,197.038
								c-0.443-0.766-2.962-5.129-8.153-14.115l-0.037-0.064l0.039-0.064c2.766-4.527,5.335-10.929,5.522-18.7
								c-0.002-3.859-0.367-8.022-1.675-12.215c-1.317-4.173-3.434-8.36-6.43-12.153c-2.987-3.792-6.85-7.183-11.426-9.72
								c-4.561-2.558-9.873-4.142-15.423-4.535c-5.549-0.396-11.349,0.431-16.787,2.593c-0.699,0.221-1.34,0.586-2.007,0.894
								c-0.661,0.321-1.324,0.643-1.988,0.966l-1.899,1.154c-0.638,0.382-1.279,0.76-1.86,1.231l-1.797,1.344
								c-0.613,0.433-1.127,0.99-1.697,1.481c-0.544,0.52-1.145,0.985-1.647,1.551l-1.529,1.683
								c-3.963,4.451-6.609,9.86-8.03,15.397c-1.41,5.556-1.503,11.301-0.455,16.662c1.057,5.368,3.323,10.31,6.313,14.483
								c2.996,4.18,6.735,7.587,10.778,10.101c4.044,2.523,8.384,4.147,12.632,4.999c1.071,0.165,2.129,0.328,3.171,0.489
								c1.05,0.091,2.091,0.119,3.115,0.181c2.048,0.107,4.042-0.043,5.951-0.279c7.675-1.01,13.814-4.217,18.097-7.523l0.798-0.616
								l-0.615,0.797l-0.013,0.017l-0.073-0.205C617.977,195.515,623.337,196.819,624.236,197.038z"/>
						</g>
					</g>
				</g>
			</g>
		</g>
	</g>
	<g>
		<g>
			<g>
				
					<ellipse transform="matrix(0.9888 -0.1493 0.1493 0.9888 -17.7789 89.1793)" style="fill:#E8505B;" cx="584.989" cy="162.986" rx="20.821" ry="20.821"/>
			</g>
		</g>
		<rect x="574.148" y="160.383" style="fill:#EAEAEA;" width="21.681" height="4.523"/>
	</g>
</g>
<g id="Car">
	<g>
		<g>
			<g>
				<path style="fill:#263238;" d="M590.453,281.578c0,0-1.418,6.028-8.687,6.471c-7.268,0.443-19.324,0.532-19.324,0.532
					l-10.011-4.633l-3.755-13.725l11.195,5.085L590.453,281.578z"/>
			</g>
			<g>
				<path style="fill:#E8505B;" d="M590.453,281.578c0,0,5.398-8.881-4.809-14.531c-10.207-5.65-26.611-1.276-26.611-1.276
					l1.458,16.586L590.453,281.578z"/>
			</g>
		</g>
		<g>
			<path style="fill:#263238;" d="M561.425,465.807h-4.304c-10.912,0-19.758-8.846-19.758-19.758v-63.614
				c0-10.912,8.846-19.758,19.758-19.758h4.304c10.912,0,19.758,8.846,19.758,19.758v63.614
				C581.182,456.961,572.337,465.807,561.425,465.807z"/>
		</g>
		<g>
			<path style="fill:#263238;" d="M292.315,465.807h-4.304c-10.912,0-19.758-8.846-19.758-19.758v-63.614
				c0-10.912,8.846-19.758,19.758-19.758h4.304c10.912,0,19.757,8.846,19.757,19.758v63.614
				C312.073,456.961,303.227,465.807,292.315,465.807z"/>
		</g>
		<g>
			<path style="fill:#E8505B;" d="M281.09,427.3c0,0-15.049-28.77-15.491-62.851s3.983-47.802,11.951-54.442
				c7.967-6.639,16.819-21.246,16.819-21.246s9.091-36.091,21.688-59.31c11.499-21.195,32.753-19.032,32.753-19.032
				s93.392-8.371,151.817-0.202c0,0,15.934-1.126,27.442,16.579c11.508,17.705,24.344,48.688,27.442,64.622
				c0,0,13.721,13.278,17.705,19.475c3.984,6.197,11.065,17.262,10.18,27.885c-0.885,10.623-0.443,70.376-15.049,90.293
				L281.09,427.3z"/>
		</g>
		<g>
			<path style="fill:#263238;" d="M307.441,272.415c0,0,8.632-41.501,20.321-48.353c11.689-6.852,95.708-6.556,95.708-6.556
				l81.443,2.315c0,0,14.31,0.412,18.945,8.07c4.635,7.658,18.138,43.935,16.526,46.555l-125.357,1.411
				c0,0-88.274,1.612-91.901,0.806C319.499,275.857,308.213,276.888,307.441,272.415z"/>
		</g>
		<g>
			<path style="fill:#455A64;" d="M321.893,272.415c0,0-7.639-1.123-6.653-9.501c0.766-6.507,8.539-24.675,11.973-32.463
				c1.001-2.27,3.105-3.845,5.565-4.161c10.566-1.359,37.279-5.825,84.833-5.408c60.6,0.531,97.627,1.637,100.959,5.95
				c2.683,3.472,13.068,31.209,14.281,35.283c1.4,4.704-4.968,9.946-14.085,10.193C509.648,272.552,321.893,272.415,321.893,272.415
				z"/>
		</g>
		<g style="opacity:0.4;">
			<path d="M505.739,364.512c-6.931-12.884-25.873-11.005-25.873-11.005s-97.62-0.332-107.911,0
				c-10.291,0.332-12.947,0.382-19.254,7.021s-25.59,46.07-25.59,46.07h198.546C525.657,406.598,513.592,379.109,505.739,364.512z"
				/>
		</g>
		<g>
			<rect x="370.846" y="372.147" style="fill:none;" width="1.328" height="1.328"/>
		</g>
		<g>
			<path style="fill:#263238;" d="M350.033,314.599l5.063,11.689c0,0,2.15,4.546,11.046,5.258
				c6.916,0.554,119.618,0.528,119.618,0.528s7.504,0.653,10.44-4.568c2.936-5.22,5.873-12.907,5.873-12.907H350.033z"/>
		</g>
		<g>
			<g>
				<path style="fill:#EAEAEA;" d="M280.819,329.6c0,0,0-9.719,0.842-15.491c0.318-2.178,4.487-10.01,16.753-11.324
					c3.185-0.341,5.912-0.505,8.204-0.561c8.005-0.195,15.828,2.957,21.179,8.914c1.704,1.897,3.251,4.131,4.346,6.716
					c4.38,10.338,6.571,23.041,6.571,23.041L280.819,329.6z"/>
			</g>
			<g style="opacity:0.3;">
				<path d="M281.744,329.6h-0.924c0,0-3.135,9.473,4.211,13.533c4.85,2.68,21.154,5.314,31.675,6.794
					c5.87,0.826,11.815-0.812,16.429-4.533l5.579-4.5L281.744,329.6z"/>
			</g>
		</g>
		<g>
			<path style="fill:#E0E0E0;" d="M331.627,221.752c0,0,2.773-12.057,6.675-16.08c3.902-4.024,8.489-3.926,11.067-2.535
				c2.304,1.243,5.631,6.777,5.631,6.777l-6.406,0.472c0,0-1.36-2.286-3.825-1.586c-2.315,0.657-3.918,4.929-3.918,4.929
				l-2.767,6.995L331.627,221.752z"/>
		</g>
		<g>
			<path style="fill:#E0E0E0;" d="M510.884,220.853c0,0-2.773-12.057-6.675-16.08c-3.902-4.024-8.489-3.926-11.067-2.535
				c-2.304,1.243-5.631,6.777-5.631,6.777l6.406,0.472c0,0,1.36-2.286,3.825-1.586c2.315,0.657,3.918,4.929,3.918,4.929l2.767,6.995
				L510.884,220.853z"/>
		</g>
		<g>
			<g>
				<path style="fill:#263238;" d="M495.662,309.273c0,0.144-32.804,0.26-73.26,0.26c-40.47,0-73.267-0.116-73.267-0.26
					c0-0.144,32.797-0.26,73.267-0.26C462.858,309.012,495.662,309.129,495.662,309.273z"/>
			</g>
		</g>
		<g style="opacity:0.3;">
			<path d="M280.154,368.518c0,0-0.648,23.297,12.313,24.455l8.808,0.826c4.075,0.382,8.02-1.548,10.22-5l8.002-12.558
				L280.154,368.518z"/>
		</g>
		<g style="opacity:0.3;">
			<path d="M272.84,406.598l304.315-0.188c-1.731,8.415-4.496,16.09-8.809,22.66L281.09,427.3
				C277.683,420.374,275.038,413.477,272.84,406.598z"/>
		</g>
		<g>
			<g>
				<path style="fill:#263238;" d="M257.485,281.578c0,0,1.418,6.028,8.687,6.471c7.269,0.443,19.324,0.532,19.324,0.532
					l10.068-4.303l4.156-14.055l-11.653,5.085L257.485,281.578z"/>
			</g>
			<g>
				<path style="fill:#E8505B;" d="M257.485,281.578c0,0-5.398-8.881,4.809-14.531c10.207-5.65,26.611-1.276,26.611-1.276
					l-1.458,16.586L257.485,281.578z"/>
			</g>
		</g>
		<g>
			<path style="fill:#EAEAEA;" d="M465.356,388.746h-79.8c-5.373,0-9.729-4.356-9.729-9.729v-2.119c0-5.373,4.356-9.729,9.729-9.729
				h79.8c5.373,0,9.729,4.356,9.729,9.729v2.119C475.085,384.39,470.729,388.746,465.356,388.746z"/>
		</g>
		<g>
			<g>
				<path style="fill:#263238;" d="M308.646,272.65c0.061,0.101-1.777,1.06-4.314,3.183c-0.631,0.535-1.316,1.125-1.987,1.829
					c-0.711,0.663-1.374,1.463-2.094,2.282c-1.374,1.694-2.744,3.672-3.924,5.898c-1.152,2.242-1.992,4.497-2.596,6.593
					c-0.26,1.06-0.537,2.061-0.675,3.023c-0.194,0.953-0.287,1.853-0.365,2.676c-0.291,3.296-0.028,5.352-0.145,5.359
					c-0.036,0.004-0.102-0.506-0.192-1.436c-0.053-0.465-0.098-1.034-0.085-1.698c0.004-0.663-0.035-1.422,0.055-2.254
					c0.055-0.835,0.128-1.749,0.306-2.718c0.121-0.979,0.386-1.998,0.637-3.077c0.587-2.135,1.427-4.432,2.598-6.709
					c1.199-2.261,2.603-4.264,4.018-5.965c0.741-0.823,1.426-1.623,2.16-2.282c0.693-0.7,1.402-1.283,2.055-1.805
					c0.631-0.55,1.276-0.951,1.818-1.334c0.538-0.39,1.031-0.679,1.442-0.901C308.172,272.856,308.629,272.619,308.646,272.65z"/>
			</g>
		</g>
		<g>
			<g>
				<path style="fill:#263238;" d="M508.082,340.895c0,0.144-37.758,0.334-84.325,0.425c-46.583,0.091-84.333,0.048-84.334-0.096
					c0-0.144,37.75-0.334,84.333-0.425C470.323,340.708,508.082,340.751,508.082,340.895z"/>
			</g>
		</g>
		<g>
			<g>
				<path style="fill:#E0E0E0;" d="M438.915,228.45c0.073,0.124-13.523,8.287-30.364,18.23
					c-16.847,9.947-30.559,17.908-30.632,17.784c-0.073-0.124,13.52-8.285,30.367-18.232
					C425.127,236.289,438.842,228.326,438.915,228.45z"/>
			</g>
		</g>
		<g>
			<g>
				<path style="fill:#E0E0E0;" d="M410.633,231.33c0.077,0.121-9.994,6.702-22.492,14.697
					c-12.503,7.998-22.697,14.381-22.775,14.26c-0.077-0.121,9.992-6.701,22.494-14.698
					C400.358,237.593,410.555,231.209,410.633,231.33z"/>
			</g>
		</g>
		<g>
			<g>
				<path style="fill:#E0E0E0;" d="M453.837,229.831c0.08,0.12-8.906,6.245-20.069,13.68c-11.166,7.437-20.28,13.368-20.359,13.248
					c-0.08-0.12,8.904-6.244,20.071-13.681C444.642,235.643,453.757,229.711,453.837,229.831z"/>
			</g>
		</g>
		<g>
			<g>
				<path style="fill:#263238;" d="M577.156,406.41c0,0.144-68.129,0.302-152.15,0.354c-84.051,0.052-152.165-0.022-152.165-0.166
					s68.114-0.303,152.165-0.354C509.027,406.192,577.156,406.266,577.156,406.41z"/>
			</g>
		</g>
		<g>
			<g>
				<path style="fill:#263238;" d="M554.363,309.293c-0.04-0.013,0.131-0.585,0.409-1.625c0.279-1.038,0.667-2.548,0.96-4.443
					c0.295-1.892,0.489-4.178,0.313-6.7c-0.205-2.507-0.581-5.319-1.863-7.928c-1.252-2.629-2.855-4.937-4.463-6.888
					c-1.611-1.954-3.253-3.553-4.765-4.721c-1.505-1.176-2.895-1.902-3.919-2.184c-0.5-0.199-0.915-0.216-1.193-0.265
					c-0.279-0.044-0.427-0.076-0.427-0.094c0-0.018,0.148-0.021,0.434-0.01c0.285,0.015,0.719,0.002,1.24,0.175
					c1.072,0.231,2.526,0.926,4.086,2.085c1.568,1.151,3.261,2.746,4.913,4.708c1.65,1.961,3.285,4.285,4.566,6.973
					c0.635,1.337,1.114,2.752,1.36,4.122c0.273,1.372,0.438,2.714,0.51,3.997c0.152,2.568-0.083,4.886-0.429,6.791
					c-0.343,1.909-0.789,3.415-1.129,4.44c-0.164,0.515-0.317,0.906-0.42,1.172C554.443,309.163,554.38,309.299,554.363,309.293z"/>
			</g>
		</g>
		<g>
			<g>
				<path style="fill:#EAEAEA;" d="M565.975,329.6c0,0,0-9.719-0.842-15.491c-0.318-2.178-4.487-10.01-16.753-11.324
					c-3.185-0.341-5.912-0.505-8.204-0.561c-8.005-0.195-15.828,2.957-21.179,8.914c-1.704,1.897-3.251,4.131-4.346,6.716
					c-4.38,10.338-6.57,23.041-6.57,23.041L565.975,329.6z"/>
			</g>
			<g style="opacity:0.3;">
				<path d="M565.051,329.6h0.924c0,0,3.135,9.473-4.211,13.533c-4.85,2.68-21.154,5.314-31.675,6.794
					c-5.87,0.826-11.815-0.812-16.429-4.533l-5.579-4.5L565.051,329.6z"/>
			</g>
		</g>
		<g style="opacity:0.3;">
			<path d="M566.64,368.518c0,0,0.648,23.297-12.313,24.455l-8.808,0.826c-4.075,0.382-8.02-1.548-10.22-5l-8.002-12.558
				L566.64,368.518z"/>
		</g>
	</g>
</g>
<g id="Border">
	<g>
		<g>
			<rect x="137.495" y="113.92" style="fill:#263238;" width="9.744" height="21.109"/>
		</g>
		<g>
			<g>
				<rect x="71.156" y="71.99" style="fill:#F5F5F5;" width="142.817" height="42.987"/>
			</g>
			<g>
				<g>
					<path style="fill:#263238;" d="M213.973,114.977c0,0-0.011-0.259-0.017-0.752c-0.004-0.503-0.01-1.231-0.017-2.185
						c-0.009-1.93-0.023-4.765-0.04-8.444c-0.021-7.36-0.052-18.086-0.091-31.607l0.165,0.165
						c-33.447,0.022-85.051,0.057-142.808,0.095h-0.009l0.26-0.26c-0.002,14.866-0.005,29.323-0.007,42.987l-0.253-0.253
						c40.955,0.047,76.625,0.087,102.069,0.116c12.732,0.03,22.902,0.055,29.905,0.072c3.495,0.014,6.196,0.025,8.038,0.033
						c0.909,0.007,1.604,0.012,2.086,0.016C213.725,114.966,213.973,114.977,213.973,114.977s-0.227,0.011-0.687,0.016
						c-0.475,0.004-1.159,0.009-2.055,0.016c-1.83,0.008-4.513,0.019-7.984,0.033c-6.989,0.017-17.14,0.041-29.847,0.072
						c-25.488,0.029-61.219,0.07-102.244,0.116l-0.253,0l0-0.254c-0.002-13.665-0.005-28.122-0.007-42.987l0-0.26h0.261h0.009
						c57.757,0.038,109.362,0.073,142.808,0.095l0.166,0l0,0.165c-0.039,13.563-0.07,24.322-0.091,31.706
						c-0.018,3.663-0.031,6.485-0.04,8.407c-0.008,0.941-0.013,1.659-0.017,2.156C213.985,114.74,213.973,114.977,213.973,114.977z"
						/>
				</g>
			</g>
		</g>
		<g>
			<g>
				<rect x="18.356" y="425.338" style="fill:#263238;" width="218.608" height="40.469"/>
			</g>
			<g>
				<g>
					<rect x="82.988" y="128.029" style="fill:#455A64;" width="120.421" height="297.309"/>
				</g>
				<g>
					<rect x="82.988" y="190.377" style="fill:#263238;" width="120.421" height="105.835"/>
				</g>
				<g>
					<path style="fill:#263238;" d="M180.478,425.338h-61.719v-84.228c0-17.043,13.816-30.859,30.86-30.859h0
						c17.043,0,30.859,13.816,30.859,30.859V425.338z"/>
				</g>
				<g>
					<g>
						<path style="fill:#E8505B;" d="M405.156,353.668H146.543c-6.659,0-12.057-5.398-12.057-12.057l0,0
							c0-6.659,5.398-12.056,12.057-12.056h258.613c6.659,0,12.057,5.398,12.057,12.056l0,0
							C417.212,348.27,411.814,353.668,405.156,353.668z"/>
					</g>
					<g style="opacity:0.5;">
						<circle style="fill:#FFFFFF;" cx="146.726" cy="341.611" r="8.125"/>
					</g>
					<g>
						<polygon style="fill:#FFFFFF;" points="166.699,353.668 184.853,329.555 214.398,329.555 195.176,353.668 						"/>
					</g>
					<g>
						<polygon style="fill:#FFFFFF;" points="230.259,353.668 248.413,329.555 277.959,329.555 258.737,353.668 						"/>
					</g>
					<g>
						<polygon style="fill:#FFFFFF;" points="293.82,353.668 311.974,329.555 341.519,329.555 322.297,353.668 						"/>
					</g>
					<g>
						<polygon style="fill:#FFFFFF;" points="357.38,353.668 375.534,329.555 405.08,329.555 385.857,353.668 						"/>
					</g>
					<g>
						<g>
							<path style="fill:#263238;" d="M405.156,353.668c0,0,0.129-0.016,0.385-0.033c0.254-0.031,0.64-0.011,1.138-0.101
								c0.997-0.12,2.494-0.456,4.23-1.387c0.846-0.499,1.767-1.112,2.629-1.969c0.855-0.858,1.675-1.918,2.317-3.202
								c1.293-2.533,1.804-6.095,0.47-9.599c-1.254-3.475-4.62-6.744-9.12-7.511c-1.11-0.227-2.273-0.17-3.464-0.183
								c-1.19,0.002-2.404,0.004-3.642,0.005c-2.476,0.003-5.048,0.007-7.712,0.011c-10.657,0.011-22.791,0.024-36.203,0.038
								c-53.659,0.02-127.77,0.047-209.626,0.076c-2.504,0.02-4.998,0.801-6.992,2.301c-2.028,1.454-3.504,3.597-4.271,5.941
								c-0.359,1.184-0.535,2.415-0.542,3.648c0.013,1.234,0.229,2.457,0.603,3.625c0.781,2.323,2.281,4.408,4.271,5.823
								c1.966,1.451,4.387,2.218,6.807,2.251c2.473,0.002,4.936,0.004,7.389,0.007c4.908,0.001,9.777,0.002,14.602,0.002
								c19.303,0.005,37.921,0.01,55.658,0.015c35.472,0.021,67.415,0.04,94.243,0.056c26.821,0.035,48.526,0.063,63.535,0.083
								c7.495,0.021,13.317,0.038,17.274,0.049c1.969,0.011,3.472,0.02,4.492,0.026C404.637,353.65,405.156,353.668,405.156,353.668
								s-0.518,0.018-1.53,0.027c-1.02,0.006-2.523,0.014-4.492,0.026c-3.957,0.011-9.779,0.028-17.274,0.049
								c-15.009,0.02-36.714,0.048-63.535,0.083c-26.828,0.016-58.771,0.035-94.243,0.056c-17.737,0.005-36.356,0.01-55.658,0.015
								c-4.826,0.001-9.694,0.001-14.602,0.002c-2.455-0.002-4.919-0.003-7.394-0.005c-2.524-0.033-5.055-0.834-7.107-2.348
								c-2.076-1.476-3.644-3.651-4.459-6.078c-0.391-1.22-0.616-2.497-0.63-3.784c0.007-1.286,0.19-2.572,0.566-3.809
								c0.8-2.449,2.343-4.685,4.459-6.204c2.082-1.566,4.69-2.384,7.301-2.402c81.856,0.03,155.968,0.057,209.626,0.076
								c13.412,0.014,25.546,0.027,36.203,0.039c2.664,0.004,5.236,0.007,7.712,0.01c1.238,0.002,2.452,0.004,3.642,0.005
								c1.182,0.016,2.372-0.038,3.507,0.197c4.593,0.799,8.007,4.144,9.267,7.683c1.341,3.571,0.802,7.182-0.522,9.741
								c-0.658,1.297-1.495,2.364-2.364,3.225c-0.878,0.86-1.813,1.473-2.67,1.968c-1.76,0.924-3.27,1.244-4.274,1.347
								C405.677,353.689,405.156,353.668,405.156,353.668z"/>
						</g>
					</g>
				</g>
				<g>
					<g>
						<path style="fill:#263238;" d="M192.112,161.367c0,0.144-20.733,0.26-46.302,0.26c-25.578,0-46.307-0.117-46.307-0.26
							c0-0.144,20.728-0.26,46.307-0.26C171.379,161.107,192.112,161.223,192.112,161.367z"/>
					</g>
				</g>
				<g>
					<g>
						<path style="fill:#263238;" d="M192.112,152.828c0,0.144-20.733,0.26-46.302,0.26c-25.578,0-46.307-0.117-46.307-0.26
							c0-0.144,20.728-0.26,46.307-0.26C171.379,152.568,192.112,152.685,192.112,152.828z"/>
					</g>
				</g>
				<g>
					<g>
						<path style="fill:#263238;" d="M192.112,169.577c0,0.144-20.733,0.26-46.302,0.26c-25.578,0-46.307-0.117-46.307-0.26
							c0-0.144,20.728-0.26,46.307-0.26C171.379,169.316,192.112,169.433,192.112,169.577z"/>
					</g>
				</g>
			</g>
			<g>
				<g>
					<path style="fill:#455A64;" d="M236.964,425.338c0,0.144-48.941,0.26-109.299,0.26c-60.379,0-109.309-0.117-109.309-0.26
						c0-0.144,48.931-0.26,109.309-0.26C188.023,425.078,236.964,425.194,236.964,425.338z"/>
				</g>
			</g>
			<g>
				<g>
					<path style="fill:#455A64;" d="M64.088,466.418c-0.144,0-0.26-9.241-0.26-20.639c0-11.401,0.117-20.641,0.26-20.641
						c0.144,0,0.26,9.24,0.26,20.641C64.348,457.177,64.231,466.418,64.088,466.418z"/>
				</g>
			</g>
			<g>
				<g>
					<path style="fill:#455A64;" d="M88.766,466.418c-0.144,0-0.26-9.241-0.26-20.639c0-11.401,0.117-20.641,0.26-20.641
						c0.144,0,0.26,9.24,0.26,20.641C89.027,457.177,88.91,466.418,88.766,466.418z"/>
				</g>
			</g>
			<g>
				<g>
					<path style="fill:#455A64;" d="M113.445,466.418c-0.144,0-0.26-9.241-0.26-20.639c0-11.401,0.117-20.641,0.26-20.641
						s0.26,9.24,0.26,20.641C113.705,457.177,113.589,466.418,113.445,466.418z"/>
				</g>
			</g>
			<g>
				<g>
					<path style="fill:#455A64;" d="M138.124,466.418c-0.144,0-0.26-9.241-0.26-20.639c0-11.401,0.117-20.641,0.26-20.641
						c0.144,0,0.26,9.24,0.26,20.641C138.384,457.177,138.268,466.418,138.124,466.418z"/>
				</g>
			</g>
			<g>
				<g>
					<path style="fill:#455A64;" d="M162.803,466.418c-0.144,0-0.26-9.241-0.26-20.639c0-11.401,0.117-20.641,0.26-20.641
						s0.26,9.24,0.26,20.641C163.063,457.177,162.946,466.418,162.803,466.418z"/>
				</g>
			</g>
			<g>
				<g>
					<path style="fill:#455A64;" d="M187.481,466.418c-0.144,0-0.26-9.241-0.26-20.639c0-11.401,0.117-20.641,0.26-20.641
						c0.144,0,0.26,9.24,0.26,20.641C187.742,457.177,187.625,466.418,187.481,466.418z"/>
				</g>
			</g>
			<g>
				<g>
					<path style="fill:#455A64;" d="M212.16,466.418c-0.144,0-0.26-9.241-0.26-20.639c0-11.401,0.117-20.641,0.26-20.641
						c0.144,0,0.26,9.24,0.26,20.641C212.42,457.177,212.304,466.418,212.16,466.418z"/>
				</g>
			</g>
		</g>
		<g>
			<path style="fill:#263238;" d="M116.223,95.209c0,2.021-1.584,3.2-4.616,3.2h-5.862V86.617h5.525c2.83,0,4.346,1.196,4.346,3.066
				c0,1.213-0.606,2.105-1.516,2.594C115.364,92.682,116.223,93.676,116.223,95.209z M107.935,88.336v3.251h3.1
				c1.516,0,2.375-0.539,2.375-1.617c0-1.095-0.859-1.634-2.375-1.634H107.935z M114.016,94.989c0-1.179-0.893-1.701-2.544-1.701
				h-3.538v3.403h3.538C113.123,96.691,114.016,96.169,114.016,94.989z"/>
			<path style="fill:#263238;" d="M117.718,92.513c0-3.487,2.695-6.064,6.351-6.064c3.655,0,6.351,2.561,6.351,6.064
				c0,3.504-2.695,6.064-6.351,6.064C120.413,98.578,117.718,96,117.718,92.513z M128.212,92.513c0-2.409-1.768-4.144-4.143-4.144
				c-2.376,0-4.145,1.735-4.145,4.144c0,2.408,1.769,4.144,4.145,4.144C126.444,96.657,128.212,94.922,128.212,92.513z"/>
			<path style="fill:#263238;" d="M140.455,98.409l-2.409-3.453c-0.151,0.017-0.303,0.017-0.454,0.017h-2.662v3.436h-2.19V86.617
				h4.852c3.1,0,5.02,1.584,5.02,4.194c0,1.786-0.91,3.1-2.51,3.724l2.712,3.874H140.455z M137.49,88.47h-2.561v4.699h2.561
				c1.92,0,2.914-0.876,2.914-2.358C140.404,89.329,139.41,88.47,137.49,88.47z"/>
			<path style="fill:#263238;" d="M145.049,86.617h5.155c3.824,0,6.435,2.358,6.435,5.896c0,3.537-2.611,5.896-6.435,5.896h-5.155
				V86.617z M150.103,96.557c2.628,0,4.329-1.601,4.329-4.043c0-2.443-1.701-4.043-4.329-4.043h-2.864v8.086H150.103z"/>
			<path style="fill:#263238;" d="M167.803,96.573v1.836h-8.844V86.617h8.608v1.836h-6.418v3.066h5.694v1.803h-5.694v3.251H167.803z
				"/>
			<path style="fill:#263238;" d="M177.958,98.409l-2.409-3.453c-0.151,0.017-0.303,0.017-0.455,0.017h-2.662v3.436h-2.19V86.617
				h4.852c3.1,0,5.02,1.584,5.02,4.194c0,1.786-0.91,3.1-2.51,3.724l2.712,3.874H177.958z M174.993,88.47h-2.561v4.699h2.561
				c1.92,0,2.914-0.876,2.914-2.358C177.907,89.329,176.913,88.47,174.993,88.47z"/>
		</g>
		<g>
			<g>
				<path style="fill:#455A64;" d="M41.058,466.212c-0.144,0-0.26-9.241-0.26-20.639c0-11.401,0.117-20.641,0.26-20.641
					c0.144,0,0.26,9.239,0.26,20.641C41.318,456.971,41.201,466.212,41.058,466.212z"/>
			</g>
		</g>
	</g>
	<g>
		<g>
			<rect x="108.023" y="203.477" style="fill:#FFFFFF;" width="74.174" height="77.055"/>
			<g>
				<g>
					<path style="fill:#E8505B;" d="M158.327,248.054c0.771-1.741,1.208-3.643,1.251-5.624c1.268-0.979,5.834-1.849,5.834-1.849
						l-0.264-1.712c-1.834,0.277-5.495-0.332-6.014-0.422c-0.382-1.506-0.994-2.903-1.786-4.169
						c0.547-1.457,2.619-3.095,2.619-3.095l-1.094-1.343c-1.444,1.169-3.209,1.887-3.454,1.984c-0.791-0.814-1.667-1.538-2.621-2.15
						c-0.239-1.554,1.333-6.015,1.333-6.015l-1.612-0.633c-0.734,1.853-3.381,4.933-3.397,4.952
						c-1.37-0.418-2.814-0.637-4.299-0.635c-0.953-1.232-1.353-3.862-1.353-3.862l-1.711,0.27c0.301,1.942,0.003,3.852-0.007,3.917
						c-1.277,0.271-2.482,0.702-3.601,1.27c-1.516-0.657-4.549-4.141-4.549-4.141l-1.363,1.103c1.124,1.397,2.345,4.604,2.61,5.32
						c-1.206,1.109-2.213,2.415-2.993,3.854c-1.548,0.123-3.699-0.725-3.699-0.725l-0.617,1.641
						c1.426,0.541,2.663,1.384,3.187,1.768c-0.384,1.244-0.604,2.549-0.644,3.892c-1.627,0.891-5.533,1.638-5.533,1.638l0.268,1.733
						c1.601-0.243,4.52,0.19,5.624,0.372c0.372,1.634,1.01,3.148,1.859,4.508c-0.683,1.39-2.474,2.803-2.474,2.803l1.108,1.359
						c1.188-0.963,2.542-1.608,3.134-1.866c1.438,1.529,3.189,2.738,5.137,3.544c0.479,1.706,0.085,5.964,0.085,5.964l1.739,0.223
						c0.205-1.564,1.364-4.133,1.87-5.201c1.28,0.168,2.6,0.186,3.941,0.002c0.674-0.093,1.323-0.244,1.96-0.422
						c1,1.172,1.611,3.294,1.611,3.294l1.677-0.513c-0.513-1.694-0.547-3.438-0.548-3.848c1.869-0.955,3.49-2.286,4.779-3.887
						c1.807,0.38,5.278,2.392,5.278,2.392l0.933-1.485C160.983,251.281,158.745,248.568,158.327,248.054z M142.204,227.582
						c-0.019,0.004-0.037,0.007-0.056,0.011C142.167,227.589,142.184,227.585,142.204,227.582z"/>
					<g>
						<g style="opacity:0.2;">
							<path style="fill:#FFFFFF;" d="M155.166,246.233c-0.717-0.267-0.772-1.765-1.242-3.738c-0.045-0.247-0.133-0.503-0.193-0.764
								c-0.069-0.262-0.161-0.529-0.239-0.802c-0.192-0.542-0.391-1.11-0.663-1.673c-0.523-1.132-1.252-2.256-2.176-3.236
								c-0.943-0.963-2.038-1.736-3.148-2.304c-0.551-0.294-1.111-0.515-1.645-0.729c-0.27-0.089-0.534-0.192-0.792-0.271
								c-0.259-0.071-0.511-0.169-0.756-0.223c-1.953-0.548-3.447-0.663-3.686-1.39c-0.055-0.175-0.02-0.37,0.107-0.584
								c0.129-0.207,0.345-0.462,0.665-0.68c0.632-0.468,1.668-0.903,3.034-1.106c0.342-0.063,0.7-0.073,1.079-0.098
								c0.378-0.017,0.771,0.001,1.181,0.02c0.813,0.073,1.689,0.208,2.58,0.488c0.887,0.282,1.811,0.652,2.693,1.194
								c0.885,0.533,1.747,1.197,2.525,1.997c0.768,0.81,1.398,1.697,1.894,2.602c0.506,0.903,0.838,1.84,1.085,2.738
								c0.245,0.901,0.345,1.781,0.385,2.597c0.003,0.41,0.005,0.804-0.027,1.181c-0.04,0.378-0.065,0.735-0.141,1.074
								c-0.258,1.357-0.734,2.375-1.226,2.987c-0.23,0.311-0.493,0.517-0.706,0.637
								C155.535,246.268,155.339,246.295,155.166,246.233z"/>
						</g>
						<g>
							<g>
								<path style="fill:#E8505B;" d="M133.939,223.878c0.203,0.244-0.242,0.949-0.994,1.574c-0.254,0.212-0.511,0.387-0.747,0.517
									c-0.463,0.254-0.847,0.335-0.982,0.174c-0.203-0.244,0.242-0.949,0.994-1.574
									C132.961,223.943,133.735,223.634,133.939,223.878z"/>
								<path style="opacity:0.3;" d="M132.264,225.932c0,0,0.874-0.527,1.337-1.136c0.215,0.243,0.462,0.52,0.717,0.793
									c0,0-1.225,0.658-1.826,0.652L132.264,225.932z"/>
							</g>
							<g>
								<path style="fill:#E8505B;" d="M127.982,233.386c0.299,0.108,0.272,0.941-0.06,1.861c-0.112,0.311-0.245,0.592-0.383,0.824
									c-0.27,0.454-0.561,0.718-0.759,0.647c-0.299-0.108-0.272-0.941,0.06-1.861
									C127.172,233.937,127.683,233.278,127.982,233.386z"/>
								<path style="opacity:0.3;" d="M127.578,236.005c0,0,0.549-0.85,0.578-1.656c0.305,0.119,0.642,0.231,1.001,0.338
									c0,0-0.703,1.162-1.225,1.462L127.578,236.005z"/>
							</g>
							<g>
								<path style="fill:#E8505B;" d="M123.925,242.534c0.313-0.053,0.699,0.687,0.861,1.651c0.055,0.326,0.077,0.636,0.07,0.906
									c-0.013,0.528-0.137,0.901-0.344,0.936c-0.313,0.053-0.699-0.686-0.861-1.651
									C123.49,243.411,123.612,242.587,123.925,242.534z"/>
								<path style="opacity:0.3;" d="M124.858,245.014c0,0-0.016-1.021-0.309-1.727c0.318-0.064,0.681-0.137,1.046-0.22
									c0,0-0.047,1.389-0.355,1.906L124.858,245.014z"/>
							</g>
							<g>
								<path style="fill:#E8505B;" d="M128.907,252.37c0.243-0.204,0.95,0.238,1.578,0.988c0.212,0.253,0.389,0.51,0.519,0.745
									c0.256,0.462,0.338,0.846,0.177,0.981c-0.243,0.204-0.95-0.238-1.578-0.988C128.976,253.347,128.664,252.574,128.907,252.37
									z"/>
								<path style="opacity:0.3;" d="M130.967,254.036c0,0-0.459-0.902-1.141-1.332c0.257-0.203,0.523-0.439,0.796-0.695
									c0,0,0.651,1.193,0.647,1.794L130.967,254.036z"/>
							</g>
						</g>
						<g>
							<g>
								<path style="fill:#E8505B;" d="M138.394,262.094c0.036-0.315,0.853-0.481,1.825-0.369c0.329,0.038,0.633,0.102,0.89,0.183
									c0.504,0.159,0.828,0.381,0.804,0.59c-0.036,0.315-0.853,0.481-1.825,0.369C139.116,262.756,138.357,262.41,138.394,262.094
									z"/>
								<path style="opacity:0.3;" d="M141.035,261.885c0,0-0.985-0.268-1.745-0.182c0.027-0.323,0.057-0.693,0.078-1.066
									c0,0,1.322,0.431,1.733,0.87L141.035,261.885z"/>
							</g>
							<g>
								<path style="fill:#E8505B;" d="M149.755,260.326c-0.097-0.302,0.58-0.789,1.511-1.088c0.315-0.101,0.619-0.168,0.887-0.2
									c0.524-0.063,0.911,0.006,0.975,0.207c0.097,0.302-0.579,0.789-1.511,1.088
									C150.686,260.631,149.852,260.628,149.755,260.326z"/>
								<path style="opacity:0.3;" d="M152.077,259.047c0,0-1.008,0.084-1.665,0.553c-0.092-0.314-0.209-0.65-0.343-0.999
									c0,0,1.35-0.152,1.905,0.078L152.077,259.047z"/>
							</g>
							<g>
								<path style="fill:#E8505B;" d="M161.575,254.722c-0.271-0.165-0.078-0.976,0.431-1.811c0.172-0.282,0.359-0.531,0.54-0.731
									c0.355-0.39,0.693-0.591,0.873-0.482c0.271,0.165,0.078,0.976-0.431,1.811C162.479,254.344,161.846,254.887,161.575,254.722
									z"/>
								<path style="opacity:0.3;" d="M162.495,252.237c0,0-0.657,0.782-0.897,1.507c-0.282-0.16-0.605-0.342-0.935-0.519
									c0,0,0.946-1.019,1.517-1.208L162.495,252.237z"/>
							</g>
						</g>
						<g>
							<path style="opacity:0.3;" d="M138.848,245.06c0.156,1.133-0.336,2.136-1.098,2.241c-0.762,0.105-1.506-0.729-1.662-1.861
								c-0.156-1.133,0.336-2.136,1.098-2.241C137.948,243.093,138.692,243.927,138.848,245.06z"/>
							<path style="fill:#E8505B;" d="M138.171,243.97c0.156,1.133-0.336,2.136-1.098,2.241c-0.762,0.105-1.506-0.729-1.662-1.861
								c-0.156-1.133,0.336-2.136,1.098-2.241C137.271,242.003,138.015,242.837,138.171,243.97z"/>
							<path style="opacity:0.2;fill:#FFFFFF;" d="M138.171,243.97c0.156,1.133-0.336,2.136-1.098,2.241
								c-0.762,0.105-1.506-0.729-1.662-1.861c-0.156-1.133,0.336-2.136,1.098-2.241
								C137.271,242.003,138.015,242.837,138.171,243.97z"/>
						</g>
						<g>
							<path style="opacity:0.3;" d="M136.67,233.35c0.928-0.668,2.045-0.704,2.494-0.079c0.449,0.624,0.061,1.672-0.867,2.34
								c-0.928,0.668-2.045,0.703-2.494,0.079C135.354,235.066,135.742,234.018,136.67,233.35z"/>
							<path style="fill:#E8505B;" d="M135.915,232.356c0.928-0.668,2.045-0.704,2.494-0.079c0.45,0.624,0.062,1.672-0.867,2.34
								c-0.928,0.668-2.045,0.703-2.494,0.079C134.599,234.072,134.987,233.024,135.915,232.356z"/>
							<path style="opacity:0.2;fill:#FFFFFF;" d="M135.915,232.356c0.928-0.668,2.045-0.704,2.494-0.079
								c0.45,0.624,0.062,1.672-0.867,2.34c-0.928,0.668-2.045,0.703-2.494,0.079C134.599,234.072,134.987,233.024,135.915,232.356z
								"/>
						</g>
						<g>
							<path style="opacity:0.3;" d="M143.754,250.665c0.103,0.746-0.419,1.433-1.165,1.536c-0.746,0.103-1.433-0.419-1.536-1.165
								c-0.102-0.746,0.419-1.433,1.165-1.536C142.964,249.398,143.652,249.919,143.754,250.665z"/>
							<path style="fill:#E8505B;" d="M143.655,249.942c0.103,0.746-0.419,1.433-1.165,1.536c-0.746,0.103-1.433-0.419-1.536-1.165
								c-0.103-0.746,0.419-1.433,1.165-1.536C142.865,248.675,143.552,249.196,143.655,249.942z"/>
							<path style="opacity:0.3;fill:#FFFFFF;" d="M143.655,249.942c0.103,0.746-0.419,1.433-1.165,1.536
								c-0.746,0.103-1.433-0.419-1.536-1.165c-0.103-0.746,0.419-1.433,1.165-1.536
								C142.865,248.675,143.552,249.196,143.655,249.942z"/>
						</g>
						<g>
							<path style="opacity:0.3;" d="M151.069,237.431c-0.529,0.76-1.573,0.948-2.333,0.419c-0.76-0.529-0.947-1.573-0.419-2.333
								c0.529-0.76,1.573-0.948,2.333-0.419C151.41,235.626,151.598,236.671,151.069,237.431z"/>
							<path style="fill:#E8505B;" d="M151.582,236.694c-0.529,0.76-1.573,0.947-2.333,0.419c-0.76-0.529-0.947-1.573-0.419-2.333
								c0.529-0.76,1.573-0.947,2.333-0.419C151.923,234.889,152.11,235.934,151.582,236.694z"/>
							<path style="opacity:0.3;fill:#FFFFFF;" d="M151.582,236.694c-0.529,0.76-1.573,0.947-2.333,0.419
								c-0.76-0.529-0.947-1.573-0.419-2.333c0.529-0.76,1.573-0.947,2.333-0.419C151.923,234.889,152.11,235.934,151.582,236.694z"
								/>
						</g>
						<g>
							<path style="opacity:0.3;" d="M150.813,251.052c0.075,0.547-0.307,1.051-0.854,1.126c-0.547,0.075-1.051-0.307-1.126-0.854
								c-0.075-0.547,0.307-1.051,0.854-1.126C150.234,250.123,150.738,250.505,150.813,251.052z"/>
							<path style="fill:#E8505B;" d="M150.74,250.521c0.075,0.547-0.307,1.051-0.854,1.126c-0.547,0.075-1.051-0.307-1.126-0.854
								c-0.075-0.547,0.307-1.051,0.854-1.126C150.161,249.592,150.665,249.975,150.74,250.521z"/>
							<path style="opacity:0.3;fill:#FFFFFF;" d="M150.74,250.521c0.075,0.547-0.307,1.051-0.854,1.126
								c-0.547,0.075-1.051-0.307-1.126-0.854c-0.075-0.547,0.307-1.051,0.854-1.126
								C150.161,249.592,150.665,249.975,150.74,250.521z"/>
						</g>
						<g>
							<g>
								<path style="fill:#E8505B;" d="M166.028,241.326c-0.309,0.052-0.69-0.678-0.85-1.631c-0.054-0.322-0.076-0.629-0.069-0.895
									c0.013-0.521,0.135-0.89,0.34-0.924c0.309-0.052,0.69,0.678,0.849,1.631C166.458,240.459,166.337,241.274,166.028,241.326z"
									/>
								<path style="opacity:0.3;" d="M165.107,238.875c0,0,0.015,1.008,0.305,1.706c-0.314,0.063-0.673,0.135-1.034,0.217
									c0,0,0.047-1.373,0.351-1.883L165.107,238.875z"/>
							</g>
							<g>
								<path style="fill:#E8505B;" d="M160.875,231.513c-0.24,0.201-0.938-0.236-1.558-0.977c-0.21-0.251-0.384-0.504-0.513-0.737
									c-0.253-0.456-0.334-0.836-0.175-0.969c0.24-0.201,0.938,0.236,1.558,0.977
									C160.808,230.548,161.115,231.312,160.875,231.513z"/>
								<path style="opacity:0.3;" d="M158.84,229.866c0,0,0.453,0.891,1.127,1.317c-0.253,0.201-0.517,0.433-0.786,0.686
									c0,0-0.642-1.178-0.638-1.773L158.84,229.866z"/>
							</g>
							<g>
								<path style="fill:#E8505B;" d="M155.084,223.501c-0.111,0.293-0.933,0.255-1.837-0.086c-0.306-0.115-0.581-0.251-0.808-0.39
									c-0.444-0.274-0.701-0.565-0.628-0.759c0.111-0.293,0.933-0.255,1.837,0.086
									C154.552,222.693,155.195,223.208,155.084,223.501z"/>
								<path style="opacity:0.3;" d="M152.503,223.064c0,0,0.879,0.494,1.627,0.595c-0.104,0.303-0.221,0.65-0.332,1.003
									c0,0-1.163-0.731-1.451-1.251L152.503,223.064z"/>
							</g>
							<g>
								<g>
									<path style="fill:#E8505B;" d="M144.211,222.862c0.053,0.309-0.676,0.692-1.628,0.856
										c-0.322,0.055-0.628,0.078-0.895,0.073c-0.521-0.011-0.89-0.132-0.925-0.337c-0.053-0.309,0.676-0.692,1.628-0.856
										C143.343,222.435,144.158,222.553,144.211,222.862z"/>
								</g>
								<path style="opacity:0.3;" d="M141.764,223.792c0,0,0.998,0.057,1.705-0.311c0.046,0.32,0.115,0.665,0.198,1.025
									c0,0-1.342-0.038-1.853-0.34L141.764,223.792z"/>
							</g>
						</g>
						<g>
							<path style="opacity:0.3;" d="M153.948,247.058c-0.393,1.074-1.296,1.731-2.019,1.467c-0.723-0.264-0.99-1.349-0.598-2.423
								c0.393-1.074,1.296-1.731,2.019-1.467C154.073,244.9,154.34,245.984,153.948,247.058z"/>
							<path style="fill:#E8505B;" d="M154.462,246.422c-0.392,1.074-1.296,1.731-2.019,1.467c-0.723-0.264-0.99-1.349-0.598-2.423
								s1.296-1.731,2.019-1.467C154.587,244.263,154.855,245.348,154.462,246.422z"/>
							<path style="opacity:0.3;fill:#FFFFFF;" d="M154.462,246.422c-0.392,1.074-1.296,1.731-2.019,1.467
								c-0.723-0.264-0.99-1.349-0.598-2.423s1.296-1.731,2.019-1.467C154.587,244.263,154.855,245.348,154.462,246.422z"/>
						</g>
						<g>
							<path style="opacity:0.3;" d="M146.82,241.378c0.156,1.133-0.636,2.177-1.769,2.333c-1.133,0.156-2.177-0.636-2.333-1.769
								c-0.156-1.133,0.636-2.177,1.769-2.333C145.62,239.453,146.664,240.245,146.82,241.378z"/>
							<path style="fill:#E8505B;" d="M146.656,240.186c0.156,1.133-0.636,2.178-1.769,2.333c-1.133,0.156-2.177-0.636-2.333-1.769
								c-0.156-1.133,0.636-2.178,1.769-2.333C145.456,238.261,146.501,239.053,146.656,240.186z"/>
							<path style="opacity:0.2;fill:#FFFFFF;" d="M146.656,240.186c0.156,1.133-0.636,2.178-1.769,2.333
								c-1.133,0.156-2.177-0.636-2.333-1.769c-0.156-1.133,0.636-2.178,1.769-2.333
								C145.456,238.261,146.501,239.053,146.656,240.186z"/>
						</g>
						<g style="opacity:0.2;">
							<path d="M153.679,251.871c0.111,0.141-0.041,0.489-0.463,0.974c-0.421,0.485-1.132,1.083-2.123,1.662
								c-0.495,0.291-1.065,0.561-1.695,0.814c-0.635,0.237-1.329,0.464-2.082,0.617c-1.5,0.322-3.224,0.409-4.999,0.137
								c-1.773-0.288-3.386-0.902-4.714-1.671c-0.669-0.378-1.26-0.808-1.79-1.229c-0.522-0.435-0.981-0.868-1.361-1.297
								c-0.765-0.856-1.257-1.644-1.508-2.235c-0.253-0.591-0.289-0.969-0.141-1.069c0.326-0.219,1.258,0.74,2.906,1.906
								c0.41,0.294,0.874,0.59,1.374,0.892c0.509,0.289,1.052,0.592,1.648,0.856c1.183,0.541,2.542,0.981,4.001,1.219
								c1.461,0.222,2.889,0.223,4.181,0.073c0.648-0.068,1.258-0.188,1.831-0.306c0.569-0.134,1.101-0.272,1.582-0.425
								C152.253,252.187,153.436,251.563,153.679,251.871z"/>
						</g>
						<g style="opacity:0.2;">
							<path d="M131.897,243.43c0.722-0.134,1.411,0.314,1.538,0.999c0.127,0.686-0.356,1.35-1.078,1.484
								c-0.722,0.134-1.411-0.314-1.537-0.999C130.692,244.228,131.175,243.563,131.897,243.43z"/>
						</g>
					</g>
				</g>
				<g>
					<path style="fill:#263238;" d="M144.975,272.282c-16.374,0-29.696-13.321-29.696-29.696c0-16.374,13.321-29.696,29.696-29.696
						c16.375,0,29.696,13.321,29.696,29.696C174.671,258.96,161.349,272.282,144.975,272.282z M144.975,214.889
						c-15.271,0-27.696,12.424-27.696,27.696s12.424,27.696,27.696,27.696c15.271,0,27.696-12.425,27.696-27.696
						S160.246,214.889,144.975,214.889z"/>
				</g>
				<g>
					<polygon style="fill:#263238;" points="164.378,221.448 123.826,261.927 125.072,263.248 165.838,222.884 					"/>
				</g>
			</g>
		</g>
		<rect x="111.54" y="200.228" style="fill:#E0E0E0;" width="2.519" height="5.598"/>
		<rect x="177.173" y="200.228" style="fill:#E0E0E0;" width="2.519" height="5.598"/>
		<rect x="110.001" y="276.916" style="fill:#E0E0E0;" width="2.519" height="5.598"/>
		<rect x="177.173" y="276.916" style="fill:#E0E0E0;" width="2.519" height="5.598"/>
	</g>
</g>
<g id="Character_1_">
	<g>
		<g>
			<g>
				<g>
					<path style="fill:#263238;" d="M689.32,321.288c-0.225,0.661-0.508,1.431-0.885,2.321c-0.323,0.764-0.78,1.464-1.34,2.077
						c-0.679,0.742-1.622,1.692-2.299,2.051c-0.838,0.445-0.699,1.677,0.154,1.801c0.853,0.124,3.193-1.046,5.045-3.477
						c1.852-2.43,2.005,2.376,2.092,4.126c0.087,1.751,0.61,7.154,1.17,7.554c0.82,0.586,1.599-0.185,1.472-1.931
						c-0.129-1.767-0.141-7.01,0.786-7.011c0.913-0.001,1.234,8.916,1.234,8.916s-0.24,1.917,0.831,1.951
						c1.932,0.062,0.892-9.393,0.771-10.29c-0.084-0.624,0.923-0.661,0.977,0.013c0.056,0.694,0.113,8.902,2.08,8.984
						c1.509,0.063-0.783-7.785,0.151-9.494c0.934-1.709,1.133,6.127,2.576,6.128c0.538,0,0.939-0.074,0.175-4.558
						c-0.371-2.177-1.558-12.286-1.558-12.286l2.713-7.733l-11.63-4.876L689.32,321.288z"/>
				</g>
			</g>
			<g>
				<path style="fill:#455A64;" d="M695.453,228.676c0,0,7.783,5.44,9.289,13.222c1.076,5.559,3.528,41.293,3.528,41.293
					s2.125,10.5,2.33,13.888c0.206,3.389-3.369,11.045-3.369,11.045l-1.643,7.965l-7.201,0.437l-6.874-18.714L695.453,228.676z"/>
			</g>
		</g>
		<g>
			<g>
				<g>
					<g>
						<g>
							<g>
								<g>
									<polygon style="fill:#E8505B;" points="714.786,446.284 719.675,464.362 703.785,465.812 700.446,448.602 									"/>
								</g>
							</g>
						</g>
					</g>
					<g>
						<g>
							<g>
								<g>
									<g>
										<path style="fill:#263238;" d="M703.324,464.339c0.005,0.059,0.895,0.038,2.327-0.079
											c1.432-0.115,3.404-0.334,5.575-0.612c2.092-0.281,3.984-0.535,5.554-0.746c1.42-0.199,2.297-0.334,2.292-0.396
											c-0.005-0.059-0.895-0.034-2.327,0.086c-1.432,0.118-3.403,0.339-5.575,0.618c-2.091,0.279-3.983,0.531-5.553,0.74
											C704.197,464.145,703.318,464.276,703.324,464.339z"/>
									</g>
								</g>
							</g>
						</g>
					</g>
					<g style="opacity:0.6;">
						<g>
							<g>
								<g>
									<polyline style="fill:#FFFFFF;" points="719.675,464.362 703.785,465.812 703.528,464.486 719.216,462.492 
										719.659,464.182 									"/>
								</g>
							</g>
						</g>
					</g>
				</g>
			</g>
			<g>
				<g>
					<g>
						<g>
							<path style="fill:#263238;" d="M711.781,463.557c0.1-0.025-0.576-3.126-1.511-6.926c-0.935-3.801-1.773-6.862-1.873-6.837
								c-0.1,0.025,0.576,3.125,1.511,6.926C710.842,460.52,711.681,463.582,711.781,463.557z"/>
						</g>
					</g>
				</g>
			</g>
			<g>
				<g>
					<g>
						<g>
							<path style="fill:#263238;" d="M704.202,464.222c0.097-0.004-0.507-1.297-0.036-3.36c0.243-1.006,0.77-2.176,1.739-3.146
								c0.954-0.975,2.384-1.656,3.954-1.817c1.573-0.151,3.106,0.228,4.256,0.967c1.164,0.729,1.964,1.725,2.474,2.629
								c1.011,1.853,0.913,3.247,1.003,3.224c0.013,0,0.021-0.082,0.023-0.24c0.008-0.158-0.006-0.389-0.037-0.688
								c-0.067-0.594-0.267-1.456-0.757-2.421c-0.497-0.952-1.308-2.01-2.523-2.794c-1.202-0.796-2.821-1.209-4.477-1.048
								c-1.653,0.168-3.165,0.899-4.162,1.946c-1.01,1.039-1.533,2.278-1.752,3.331c-0.209,1.065-0.136,1.953-0.005,2.537
								c0.068,0.293,0.133,0.516,0.196,0.662C704.155,464.151,704.19,464.226,704.202,464.222z"/>
						</g>
					</g>
				</g>
			</g>
		</g>
		<g>
			<g>
				<g>
					<g>
						<g>
							<path style="fill:#E8505B;" d="M649.178,441.434l1.064,16.06c0,0-15.985,5.305-16.077,8.292l31.232,0.226l-0.631-25.092
								L649.178,441.434z"/>
						</g>
					</g>
				</g>
				<g style="opacity:0.6;">
					<g>
						<g>
							<g>
								<path style="fill:#FFFFFF;" d="M659.853,455.85c0.609,0.147,1.047,0.814,0.925,1.428c-0.122,0.615-0.796,1.066-1.407,0.93
									c-0.612-0.136-1.162-0.92-0.972-1.517c0.19-0.597,1.01-1.084,1.571-0.805"/>
							</g>
						</g>
					</g>
				</g>
				<g style="opacity:0.6;">
					<g>
						<g>
							<path style="fill:#FFFFFF;" d="M665.396,466.012l-0.064-2.529l-30.165,0.833c0,0-1.003,0.433-1.162,1.696L665.396,466.012z"
								/>
						</g>
					</g>
				</g>
				<g>
					<g>
						<g>
							<g>
								<path style="fill:#263238;" d="M649.731,457.351c0.01,0.152,0.774,0.198,1.539,0.666c0.777,0.448,1.184,1.096,1.322,1.031
									c0.14-0.034-0.115-0.938-1.051-1.488C650.61,457.002,649.694,457.212,649.731,457.351z"/>
							</g>
						</g>
					</g>
				</g>
				<g>
					<g>
						<g>
							<g>
								<path style="fill:#263238;" d="M646.498,458.804c-0.031,0.149,0.637,0.388,1.175,1.017c0.556,0.613,0.708,1.306,0.859,1.295
									c0.144,0.02,0.223-0.876-0.46-1.646C647.396,458.695,646.497,458.658,646.498,458.804z"/>
							</g>
						</g>
					</g>
				</g>
				<g>
					<g>
						<g>
							<g>
								<path style="fill:#263238;" d="M644.757,462.779c0.139,0.028,0.328-0.74-0.088-1.563c-0.411-0.826-1.139-1.133-1.2-1.005
									c-0.082,0.128,0.394,0.562,0.726,1.243C644.542,462.127,644.605,462.768,644.757,462.779z"/>
							</g>
						</g>
					</g>
				</g>
				<g>
					<g>
						<g>
							<g>
								<path style="fill:#263238;" d="M649.895,453.664c0.068,0.137,0.761-0.094,1.624-0.062c0.864,0.015,1.543,0.284,1.618,0.151
									c0.085-0.113-0.586-0.657-1.604-0.681C650.517,453.039,649.816,453.546,649.895,453.664z"/>
							</g>
						</g>
					</g>
				</g>
			</g>
			<g style="opacity:0.3;">
				<g>
					<g>
						<polygon points="649.392,444.614 649.578,447.477 664.915,446.873 664.857,444.29 						"/>
					</g>
				</g>
			</g>
			<g>
				<g>
					<g>
						<g>
							<path style="fill:#263238;" d="M649.74,450.419c0,0.063,0.606,0.139,1.563-0.055c0.477-0.097,1.036-0.271,1.62-0.552
								c0.292-0.141,0.589-0.308,0.883-0.504c0.141-0.097,0.309-0.195,0.461-0.382c0.164-0.164,0.248-0.571,0.045-0.813
								c-0.167-0.235-0.453-0.33-0.678-0.328c-0.23-0.001-0.415,0.052-0.584,0.099c-0.345,0.095-0.667,0.22-0.962,0.363
								c-0.588,0.289-1.062,0.647-1.413,0.99c-0.704,0.693-0.934,1.269-0.881,1.297c0.071,0.048,0.409-0.44,1.129-1.015
								c0.359-0.287,0.82-0.586,1.37-0.828c0.276-0.12,0.574-0.224,0.889-0.304c0.328-0.097,0.609-0.108,0.699,0.037
								c0.032,0.055,0.037,0.077-0.029,0.176c-0.069,0.091-0.2,0.183-0.339,0.279c-0.27,0.188-0.544,0.353-0.812,0.497
								c-0.536,0.287-1.051,0.487-1.494,0.625C650.322,450.277,649.735,450.337,649.74,450.419z"/>
						</g>
					</g>
				</g>
			</g>
			<g>
				<g>
					<g>
						<g>
							<path style="fill:#263238;" d="M649.945,450.632c0.055,0.022,0.341-0.533,0.367-1.522c0.011-0.49-0.057-1.082-0.265-1.705
								c-0.105-0.311-0.246-0.628-0.427-0.937c-0.192-0.303-0.428-0.709-1.021-0.759c-0.309-0.002-0.559,0.247-0.64,0.456
								c-0.097,0.214-0.112,0.396-0.143,0.578c-0.047,0.366-0.029,0.724,0.031,1.053c0.118,0.661,0.407,1.206,0.716,1.594
								c0.635,0.79,1.276,0.953,1.287,0.901c0.048-0.078-0.492-0.356-0.982-1.119c-0.242-0.376-0.462-0.875-0.539-1.454
								c-0.039-0.288-0.044-0.595,0.002-0.904c0.039-0.333,0.155-0.604,0.28-0.574c0.155-0.007,0.427,0.235,0.562,0.496
								c0.169,0.275,0.305,0.557,0.413,0.835c0.213,0.558,0.314,1.096,0.35,1.551C650.007,450.036,649.861,450.611,649.945,450.632z
								"/>
						</g>
					</g>
				</g>
			</g>
		</g>
		<g>
			<g>
				<g>
					<polygon style="fill:#263238;" points="649.177,301.906 696.764,301.548 719.76,452.581 700.01,455.087 674.699,330.902 
						667.124,455.529 667.104,455.9 645.745,455.526 					"/>
				</g>
			</g>
			<g>
				<g>
					<path style="fill:#455A64;" d="M670.822,314.145c-0.017,0.017-0.39,0.026-1.071,0.031c-0.738,0.001-1.71,0.002-2.91,0.003
						c-2.534-0.02-6.023-0.049-10.157-0.082l0.224-0.219c0.008,2.987,0.018,6.323,0.028,9.864l-0.08-0.182
						c0.571,0.524,1.179,1.082,1.793,1.645c1.828,1.683,3.596,3.312,5.268,4.852l-0.32-0.003c2.636-2.306,5.043-4.411,7.097-6.209
						l-0.065,0.144c0.042-2.943,0.076-5.365,0.102-7.127c0.02-0.814,0.036-1.474,0.049-1.99
						C670.794,314.41,670.808,314.159,670.822,314.145c0.014-0.014,0.027,0.211,0.042,0.652c0.013,0.505,0.029,1.151,0.049,1.947
						c0.025,1.791,0.06,4.253,0.102,7.245l0.001,0.085l-0.066,0.059c-2.037,1.818-4.423,3.947-7.036,6.279l-0.16,0.143l-0.159-0.146
						c-1.676-1.536-3.449-3.16-5.281-4.838c-0.614-0.564-1.22-1.122-1.791-1.647l-0.08-0.074l0-0.108
						c0.01-3.541,0.019-6.878,0.028-9.864l0.001-0.226l0.223,0.007c4.189,0.124,7.725,0.229,10.292,0.305
						c1.18,0.046,2.135,0.084,2.859,0.112C670.498,314.106,670.839,314.129,670.822,314.145z"/>
				</g>
			</g>
			<g>
				<g>
					<path style="fill:#455A64;" d="M693.218,313.491c-0.014,0.018-0.346,0.067-0.951,0.146c-0.664,0.082-1.529,0.188-2.595,0.319
						c-2.272,0.257-5.393,0.61-9.107,1.03l0.192-0.24c0.366,2.919,0.784,6.243,1.229,9.787l-0.091-0.163
						c0.655,0.522,1.35,1.076,2.053,1.636c1.747,1.397,3.441,2.752,5.051,4.04l-0.337,0.038c2.066-2.564,3.963-4.916,5.597-6.944
						l-0.041,0.146c-0.314-2.913-0.573-5.321-0.762-7.078c-0.079-0.81-0.143-1.469-0.193-1.987
						C693.222,313.759,693.205,313.507,693.218,313.491c0.013-0.016,0.054,0.207,0.122,0.644c0.075,0.503,0.17,1.144,0.286,1.932
						c0.244,1.78,0.577,4.22,0.981,7.172l0.011,0.08l-0.052,0.066c-1.614,2.043-3.487,4.414-5.529,6.998l-0.148,0.188l-0.189-0.15
						c-1.614-1.284-3.311-2.634-5.062-4.027c-0.703-0.561-1.397-1.115-2.051-1.638l-0.079-0.063l-0.012-0.1
						c-0.422-3.547-0.818-6.874-1.166-9.795l-0.026-0.221l0.218-0.02c3.779-0.337,6.953-0.62,9.264-0.826
						c1.051-0.083,1.903-0.15,2.558-0.202C692.929,313.488,693.232,313.473,693.218,313.491z"/>
				</g>
			</g>
			<g>
				<g>
					<path style="fill:#455A64;" d="M664.103,336.415c-0.034-0.057,0.724-0.576,1.997-1.336c1.272-0.76,3.064-1.755,5.088-2.765
						c2.025-1.01,3.898-1.842,5.27-2.401c1.373-0.559,2.243-0.853,2.268-0.792c0.027,0.065-0.794,0.473-2.126,1.112
						c-1.333,0.639-3.174,1.519-5.191,2.525c-2.016,1.006-3.826,1.948-5.139,2.628C664.958,336.066,664.139,336.476,664.103,336.415
						z"/>
				</g>
			</g>
			<g>
				<g>
					<path style="fill:#455A64;" d="M664.716,340.083c-0.072-0.143,2.414-1.128,4.69-3.399c2.306-2.243,3.327-4.713,3.469-4.639
						c0.118,0.014-0.73,2.661-3.121,4.992C667.387,339.393,664.728,340.201,664.716,340.083z"/>
				</g>
			</g>
			<g>
				<g>
					<path style="fill:#455A64;" d="M651.282,383.724c0.086-0.035,0.437,1.084,1.483,2.606c1.025,1.513,2.873,3.397,5.46,4.492
						c2.59,1.09,5.229,1.099,7.028,0.778c1.82-0.313,2.866-0.842,2.902-0.756c0.013,0.027-0.233,0.185-0.711,0.407
						c-0.477,0.224-1.199,0.488-2.124,0.693c-1.831,0.42-4.583,0.473-7.287-0.665c-2.702-1.143-4.583-3.151-5.56-4.756
						c-0.499-0.806-0.813-1.507-0.986-2.005C651.312,384.02,651.253,383.733,651.282,383.724z"/>
				</g>
			</g>
			<g>
				<g>
					<path style="fill:#455A64;" d="M654.41,382.437c0.031-0.072,0.737,0.197,1.909,0.486c1.17,0.295,2.82,0.567,4.661,0.633
						c3.69,0.137,6.673-0.427,6.697-0.262c0.011,0.062-0.719,0.269-1.93,0.468c-1.21,0.19-2.906,0.37-4.787,0.29
						c-1.879-0.067-3.568-0.402-4.737-0.791C655.049,382.876,654.386,382.489,654.41,382.437z"/>
				</g>
			</g>
			<g>
				<g>
					<path style="fill:#455A64;" d="M689.792,383.335c0.097-0.135,2.644,2.204,6.56,3.637c3.901,1.479,7.356,1.375,7.341,1.54
						c0.002,0.057-0.851,0.16-2.235,0.073c-1.381-0.084-3.289-0.41-5.28-1.148c-1.988-0.743-3.644-1.745-4.744-2.585
						C690.331,384.013,689.753,383.377,689.792,383.335z"/>
				</g>
			</g>
			<g>
				<g>
					<path style="fill:#455A64;" d="M693.963,383.152c0.022-0.147,1.956,0.092,4.327-0.106c2.373-0.18,4.245-0.723,4.289-0.581
						c0.048,0.116-1.805,0.888-4.25,1.075C695.886,383.743,693.934,383.274,693.963,383.152z"/>
				</g>
			</g>
			<g>
				<g>
					<path style="fill:#455A64;" d="M674.982,331.944c0.056-0.149,3.366,1.256,7.704,1.934c4.334,0.711,7.916,0.409,7.923,0.568
						c0.005,0.06-0.882,0.213-2.335,0.274c-1.451,0.062-3.47-0.002-5.667-0.352c-2.195-0.354-4.133-0.923-5.492-1.435
						C675.754,332.422,674.958,332,674.982,331.944z"/>
				</g>
			</g>
			<g>
				<g>
					<g>
						<path style="fill:#455A64;" d="M676.282,326.835c0.137,0.001,0.243,0.429,0.236,0.956c-0.007,0.527-0.123,0.953-0.26,0.95
							c-0.137-0.003-0.243-0.431-0.236-0.956C676.029,327.26,676.146,326.834,676.282,326.835z"/>
					</g>
				</g>
				<g>
					<g>
						<path style="fill:#455A64;" d="M676.268,323.023c0.137-0.002,0.252,0.423,0.257,0.951c0.005,0.527-0.102,0.955-0.239,0.955
							c-0.137,0-0.252-0.425-0.257-0.951C676.024,323.453,676.131,323.025,676.268,323.023z"/>
					</g>
				</g>
				<g>
					<g>
						<path style="fill:#455A64;" d="M676.169,319.212c0.137-0.005,0.261,0.418,0.278,0.945c0.016,0.527-0.081,0.957-0.218,0.96
							c-0.137,0.004-0.261-0.419-0.278-0.945C675.934,319.647,676.032,319.217,676.169,319.212z"/>
					</g>
				</g>
				<g>
					<g>
						<path style="fill:#455A64;" d="M675.986,315.404c0.137-0.008,0.271,0.412,0.299,0.938c0.028,0.527-0.06,0.959-0.197,0.965
							s-0.271-0.414-0.299-0.939C675.761,315.844,675.849,315.412,675.986,315.404z"/>
					</g>
				</g>
				<g>
					<g>
						<path style="fill:#455A64;" d="M675.719,311.601c0.137-0.011,0.28,0.406,0.32,0.932c0.04,0.526-0.039,0.96-0.175,0.969
							c-0.137,0.009-0.28-0.408-0.32-0.932C675.503,312.046,675.582,311.612,675.719,311.601z"/>
					</g>
				</g>
				<g>
					<g>
						<path style="fill:#455A64;" d="M675.367,307.806c0.136-0.014,0.289,0.4,0.34,0.924c0.052,0.525-0.017,0.96-0.154,0.973
							c-0.136,0.013-0.289-0.401-0.34-0.924C675.162,308.255,675.231,307.82,675.367,307.806z"/>
					</g>
				</g>
			</g>
			<g>
				<g>
					<g>
						<path style="fill:#455A64;" d="M702.205,451.545c0.134-0.027,0.327,0.37,0.43,0.886c0.103,0.516,0.078,0.956-0.056,0.983
							c-0.134,0.027-0.327-0.37-0.43-0.886C702.046,452.012,702.071,451.572,702.205,451.545z"/>
					</g>
				</g>
				<g>
					<g>
						<path style="fill:#455A64;" d="M701.458,447.807c0.134-0.027,0.327,0.37,0.43,0.886c0.103,0.516,0.078,0.956-0.056,0.983
							c-0.134,0.027-0.327-0.37-0.43-0.886C701.298,448.275,701.323,447.834,701.458,447.807z"/>
					</g>
				</g>
				<g>
					<g>
						<path style="fill:#455A64;" d="M700.71,444.07c0.134-0.027,0.327,0.37,0.43,0.886c0.103,0.516,0.078,0.956-0.056,0.983
							c-0.134,0.027-0.327-0.37-0.43-0.886C700.55,444.537,700.576,444.096,700.71,444.07z"/>
					</g>
				</g>
				<g>
					<g>
						<path style="fill:#455A64;" d="M699.962,440.332c0.134-0.027,0.327,0.37,0.43,0.886c0.103,0.516,0.078,0.956-0.056,0.983
							c-0.134,0.027-0.327-0.37-0.43-0.886C699.802,440.799,699.828,440.359,699.962,440.332z"/>
					</g>
				</g>
				<g>
					<g>
						<path style="fill:#455A64;" d="M699.214,436.594c0.134-0.027,0.327,0.37,0.43,0.886c0.103,0.516,0.078,0.956-0.056,0.983
							c-0.134,0.027-0.327-0.37-0.43-0.886C699.055,437.061,699.08,436.621,699.214,436.594z"/>
					</g>
				</g>
				<g>
					<g>
						<path style="fill:#455A64;" d="M698.467,432.856c0.134-0.027,0.327,0.37,0.43,0.886c0.103,0.516,0.078,0.956-0.056,0.983
							c-0.134,0.027-0.327-0.37-0.43-0.886C698.307,433.323,698.332,432.883,698.467,432.856z"/>
					</g>
				</g>
				<g>
					<g>
						<path style="fill:#455A64;" d="M697.719,429.118c0.134-0.027,0.327,0.37,0.43,0.886c0.103,0.516,0.078,0.956-0.056,0.983
							c-0.134,0.027-0.327-0.37-0.43-0.886C697.559,429.585,697.585,429.145,697.719,429.118z"/>
					</g>
				</g>
				<g>
					<g>
						<path style="fill:#455A64;" d="M696.971,425.38c0.135-0.027,0.327,0.37,0.43,0.886c0.103,0.516,0.078,0.956-0.056,0.983
							c-0.134,0.027-0.327-0.37-0.43-0.886C696.812,425.847,696.837,425.407,696.971,425.38z"/>
					</g>
				</g>
				<g>
					<g>
						<path style="fill:#455A64;" d="M696.223,421.642c0.135-0.027,0.327,0.37,0.43,0.886c0.103,0.516,0.078,0.956-0.056,0.983
							c-0.134,0.027-0.327-0.37-0.43-0.886C696.064,422.109,696.089,421.669,696.223,421.642z"/>
					</g>
				</g>
				<g>
					<g>
						<path style="fill:#455A64;" d="M695.476,417.905c0.134-0.027,0.327,0.37,0.43,0.886c0.103,0.516,0.078,0.956-0.056,0.983
							c-0.134,0.027-0.327-0.37-0.43-0.886C695.316,418.372,695.341,417.931,695.476,417.905z"/>
					</g>
				</g>
				<g>
					<g>
						<path style="fill:#455A64;" d="M694.728,414.167c0.134-0.027,0.327,0.37,0.43,0.886c0.103,0.516,0.078,0.956-0.056,0.983
							c-0.134,0.027-0.327-0.37-0.43-0.886C694.568,414.634,694.594,414.194,694.728,414.167z"/>
					</g>
				</g>
				<g>
					<g>
						<path style="fill:#455A64;" d="M693.98,410.429c0.134-0.027,0.327,0.37,0.43,0.886c0.103,0.516,0.078,0.956-0.056,0.983
							c-0.134,0.027-0.327-0.37-0.43-0.886C693.821,410.896,693.846,410.456,693.98,410.429z"/>
					</g>
				</g>
				<g>
					<g>
						<path style="fill:#455A64;" d="M693.232,406.691c0.134-0.027,0.327,0.37,0.43,0.886c0.103,0.516,0.078,0.956-0.057,0.983
							c-0.134,0.027-0.327-0.37-0.43-0.886C693.073,407.158,693.098,406.718,693.232,406.691z"/>
					</g>
				</g>
				<g>
					<g>
						<path style="fill:#455A64;" d="M692.485,402.953c0.134-0.027,0.327,0.37,0.43,0.886c0.103,0.516,0.078,0.956-0.056,0.983
							c-0.134,0.027-0.327-0.37-0.43-0.886C692.325,403.42,692.35,402.98,692.485,402.953z"/>
					</g>
				</g>
				<g>
					<g>
						<path style="fill:#455A64;" d="M691.737,399.215c0.134-0.027,0.327,0.37,0.43,0.886c0.103,0.516,0.078,0.956-0.056,0.983
							c-0.134,0.027-0.327-0.37-0.43-0.886C691.577,399.682,691.603,399.242,691.737,399.215z"/>
					</g>
				</g>
				<g>
					<g>
						<path style="fill:#455A64;" d="M690.989,395.477c0.134-0.027,0.327,0.37,0.43,0.886c0.103,0.516,0.078,0.956-0.056,0.983
							c-0.134,0.027-0.327-0.37-0.43-0.886C690.83,395.944,690.855,395.504,690.989,395.477z"/>
					</g>
				</g>
				<g>
					<g>
						<path style="fill:#455A64;" d="M690.241,391.74c0.134-0.027,0.327,0.37,0.43,0.886c0.103,0.516,0.078,0.956-0.056,0.983
							c-0.134,0.027-0.327-0.37-0.43-0.886C690.082,392.207,690.107,391.766,690.241,391.74z"/>
					</g>
				</g>
				<g>
					<g>
						<path style="fill:#455A64;" d="M689.494,388.002c0.135-0.027,0.327,0.37,0.43,0.886c0.103,0.516,0.078,0.956-0.056,0.983
							c-0.134,0.027-0.327-0.37-0.43-0.886C689.334,388.469,689.359,388.029,689.494,388.002z"/>
					</g>
				</g>
				<g>
					<g>
						<path style="fill:#455A64;" d="M688.746,384.264c0.134-0.027,0.327,0.37,0.43,0.886c0.103,0.516,0.078,0.956-0.056,0.983
							c-0.134,0.027-0.327-0.37-0.43-0.886C688.586,384.731,688.612,384.291,688.746,384.264z"/>
					</g>
				</g>
				<g>
					<g>
						<path style="fill:#455A64;" d="M687.998,380.526c0.134-0.027,0.327,0.37,0.43,0.886c0.103,0.516,0.078,0.956-0.056,0.983
							c-0.134,0.027-0.327-0.37-0.43-0.886C687.839,380.993,687.864,380.553,687.998,380.526z"/>
					</g>
				</g>
				<g>
					<g>
						<path style="fill:#455A64;" d="M687.25,376.788c0.135-0.027,0.327,0.37,0.43,0.886c0.103,0.516,0.078,0.956-0.056,0.983
							c-0.134,0.027-0.327-0.37-0.43-0.886C687.091,377.255,687.116,376.815,687.25,376.788z"/>
					</g>
				</g>
				<g>
					<g>
						<path style="fill:#455A64;" d="M686.503,373.05c0.134-0.027,0.327,0.37,0.43,0.886c0.103,0.516,0.078,0.956-0.056,0.983
							c-0.134,0.027-0.327-0.37-0.43-0.886C686.343,373.517,686.368,373.077,686.503,373.05z"/>
					</g>
				</g>
				<g>
					<g>
						<path style="fill:#455A64;" d="M685.755,369.312c0.135-0.027,0.327,0.37,0.43,0.886c0.103,0.516,0.078,0.956-0.057,0.983
							c-0.134,0.027-0.327-0.369-0.43-0.886C685.595,369.779,685.621,369.339,685.755,369.312z"/>
					</g>
				</g>
				<g>
					<g>
						<path style="fill:#455A64;" d="M685.007,365.574c0.134-0.027,0.327,0.37,0.43,0.886c0.103,0.516,0.078,0.956-0.056,0.983
							c-0.134,0.027-0.327-0.37-0.43-0.886C684.848,366.041,684.873,365.601,685.007,365.574z"/>
					</g>
				</g>
				<g>
					<g>
						<path style="fill:#455A64;" d="M684.259,361.837c0.134-0.027,0.327,0.37,0.43,0.886c0.103,0.516,0.078,0.956-0.056,0.983
							c-0.134,0.027-0.327-0.37-0.43-0.886C684.1,362.304,684.125,361.863,684.259,361.837z"/>
					</g>
				</g>
				<g>
					<g>
						<path style="fill:#455A64;" d="M683.512,358.099c0.135-0.027,0.327,0.37,0.43,0.886c0.103,0.516,0.078,0.956-0.057,0.983
							c-0.134,0.027-0.327-0.37-0.43-0.886C683.352,358.566,683.377,358.126,683.512,358.099z"/>
					</g>
				</g>
				<g>
					<g>
						<path style="fill:#455A64;" d="M682.764,354.361c0.134-0.027,0.327,0.37,0.43,0.886c0.103,0.516,0.078,0.956-0.057,0.983
							c-0.134,0.027-0.327-0.37-0.43-0.886C682.604,354.828,682.63,354.388,682.764,354.361z"/>
					</g>
				</g>
				<g>
					<g>
						<path style="fill:#455A64;" d="M682.016,350.623c0.134-0.027,0.327,0.37,0.43,0.886c0.103,0.516,0.078,0.956-0.056,0.983
							c-0.134,0.027-0.327-0.37-0.43-0.886C681.857,351.09,681.882,350.65,682.016,350.623z"/>
					</g>
				</g>
				<g>
					<g>
						<path style="fill:#455A64;" d="M681.268,346.885c0.134-0.027,0.327,0.37,0.43,0.886c0.103,0.516,0.078,0.956-0.056,0.983
							c-0.134,0.027-0.327-0.37-0.43-0.886C681.109,347.352,681.134,346.912,681.268,346.885z"/>
					</g>
				</g>
				<g>
					<g>
						<path style="fill:#455A64;" d="M680.521,343.147c0.134-0.027,0.327,0.37,0.43,0.886c0.103,0.516,0.078,0.956-0.056,0.983
							c-0.134,0.027-0.327-0.37-0.43-0.886C680.361,343.614,680.386,343.174,680.521,343.147z"/>
					</g>
				</g>
				<g>
					<g>
						<path style="fill:#455A64;" d="M679.773,339.409c0.134-0.027,0.327,0.37,0.43,0.886c0.103,0.516,0.078,0.956-0.056,0.983
							c-0.134,0.027-0.327-0.37-0.43-0.886C679.613,339.876,679.639,339.436,679.773,339.409z"/>
					</g>
				</g>
				<g>
					<g>
						<path style="fill:#455A64;" d="M679.025,335.672c0.134-0.027,0.327,0.37,0.43,0.886c0.103,0.516,0.078,0.956-0.056,0.983
							c-0.134,0.027-0.327-0.37-0.43-0.886C678.866,336.139,678.891,335.698,679.025,335.672z"/>
					</g>
				</g>
				<g>
					<g>
						<path style="fill:#455A64;" d="M678.376,332.424c0.134-0.027,0.305,0.26,0.381,0.64c0.076,0.381,0.029,0.711-0.105,0.738
							c-0.134,0.027-0.305-0.26-0.381-0.641C678.194,332.781,678.241,332.451,678.376,332.424z"/>
					</g>
				</g>
			</g>
		</g>
		<g>
			<g>
				<g>
					<g>
						<g>
							<path style="fill:#FFBE9D;" d="M677.982,184.539l0.123,40.072l-17.192,0.82l-0.497-9.747c0,0-6.106,1.212-7.682-4.459
								c-1.006-3.622-0.755-31.619-0.755-31.619L677.982,184.539z"/>
						</g>
					</g>
					<g>
						<g>
							<path style="fill:#263238;" d="M649.716,182.429c2.708,0.775,3.296,5.201,3.296,5.201l4.247,9.381
								c2.164-1.694,5.069-1.597,5.619,2.205c0.398,2.748-3.019,3.303-3.019,3.303c1.989,3.384,3.338,6.122,6.233,9.341
								c3.134,3.484,4.89,3.835,8.288,3.892h3.748c0,0,1.834-5.955,5.232-20.848c3.769-16.522-15.768-14.394-19.39-18.611
								C658.072,169.425,641.18,179.985,649.716,182.429z"/>
						</g>
					</g>
				</g>
			</g>
			<g>
				<path style="fill:#263238;" d="M683.004,196.462c3.167-2.127,3.453-8.079,1.605-11.649c-1.848-3.569-5.736-5.987-9.754-6.066
					c-0.537-0.011-1.092,0.015-1.593-0.179c-0.744-0.287-1.225-0.992-1.711-1.623c-2.83-3.68-5.612-7.296-10.887-7.295
					c-0.857,0-1.805,0-3.317,0.823c-0.753,0.41-1.814,1.798-1.992,2.637c-0.991-0.47-2.001-0.946-3.085-1.11
					c-1.085-0.164-2.276,0.025-3.096,0.755c-0.82,0.73-1.123,2.072-0.486,2.966c-1.778-0.112-3.463,1.359-3.743,3.119
					c-0.28,1.759,2.241,2.996,2.504,3.133c0,0-1.384,2.897,1.916,4.633c1.329,0.7,3.057-0.143,3.252-0.245"/>
			</g>
			<g>
				<g>
					<path style="fill:#455A64;" d="M670.452,200.316c0.145,0.004,0.187,1.346,0.553,2.94c0.353,1.597,0.89,2.828,0.76,2.894
						c-0.11,0.066-0.874-1.113-1.245-2.785C670.14,201.696,670.324,200.303,670.452,200.316z"/>
				</g>
			</g>
			<g>
				<g>
					<path style="fill:#455A64;" d="M668.372,198.349c0.141-0.008,0.323,1.278,0.618,2.844c0.29,1.567,0.584,2.833,0.449,2.876
						c-0.126,0.042-0.641-1.182-0.937-2.785C668.201,199.683,668.24,198.355,668.372,198.349z"/>
				</g>
			</g>
			<g>
				<g>
					<path style="fill:#455A64;" d="M662.418,191.736c0.029-0.049,0.595,0.215,1.306,0.913c0.714,0.689,1.507,1.843,2.045,3.254
						c0.539,1.41,0.777,2.749,0.916,3.71c0.134,0.964,0.168,1.565,0.102,1.577c-0.069,0.012-0.225-0.571-0.447-1.512
						c-0.226-0.939-0.516-2.24-1.035-3.597c-0.518-1.356-1.222-2.475-1.84-3.194C662.854,192.161,662.372,191.8,662.418,191.736z"/>
				</g>
			</g>
			<g>
				<g>
					<path style="fill:#455A64;" d="M660.01,187.233c0.149,0.027-0.25,1.713,0.268,3.707c0.484,2.003,1.632,3.3,1.513,3.395
						c-0.067,0.108-1.469-1.126-1.994-3.275C659.247,188.919,659.901,187.169,660.01,187.233z"/>
				</g>
			</g>
			<g>
				<g>
					<path style="fill:#455A64;" d="M680.529,197.241c-0.067-0.12,0.358-0.484,0.949-0.814c0.591-0.33,1.124-0.501,1.191-0.381
						c0.067,0.12-0.358,0.484-0.949,0.814C681.129,197.19,680.596,197.361,680.529,197.241z"/>
				</g>
			</g>
			<g>
				<g>
					<path style="fill:#455A64;" d="M672.223,192.963c0.139-0.031,0.401,0.703,0.89,1.502c0.48,0.805,1.008,1.378,0.916,1.487
						c-0.078,0.106-0.809-0.344-1.341-1.23C672.151,193.839,672.093,192.982,672.223,192.963z"/>
				</g>
			</g>
			<g>
				<g>
					<path style="fill:#455A64;" d="M669.669,191.591c0.138-0.041,0.502,0.854,1.153,1.825c0.642,0.978,1.326,1.661,1.234,1.772
						c-0.076,0.106-0.955-0.447-1.647-1.498C669.71,192.646,669.542,191.62,669.669,191.591z"/>
				</g>
			</g>
			<g>
				<g>
					<path style="fill:#455A64;" d="M656.974,174.809c-0.012-0.012,0.054-0.089,0.192-0.224c0.131-0.144,0.357-0.316,0.658-0.529
						c0.611-0.401,1.631-0.842,2.959-0.918c1.316-0.083,2.942,0.192,4.462,1.097c1.517,0.902,2.842,2.387,3.788,4.156
						c0.689,1.285,1.154,2.617,1.482,3.864l-0.341-0.149c1.357-0.697,2.782-0.98,4.041-0.969c1.264-0.006,2.363,0.261,3.221,0.589
						c0.86,0.332,1.487,0.722,1.885,1.021c0.396,0.306,0.585,0.5,0.57,0.518c-0.049,0.074-0.858-0.684-2.555-1.258
						c-1.649-0.569-4.359-0.841-6.938,0.518l-0.263,0.139l-0.079-0.287c-0.333-1.216-0.794-2.509-1.46-3.751
						c-0.913-1.708-2.169-3.128-3.587-4c-1.418-0.873-2.957-1.174-4.211-1.138c-1.266,0.029-2.255,0.397-2.875,0.734
						C657.302,174.57,657.007,174.846,656.974,174.809z"/>
				</g>
			</g>
			<g>
				<g>
					<path style="fill:#455A64;" d="M647.933,176.989c0.022,0.052-0.442,0.014-0.844,0.559c-0.187,0.261-0.346,0.664-0.279,1.111
						c0.065,0.439,0.395,0.903,0.905,1.174c0.507,0.284,1.166,0.367,1.839,0.197c0.675-0.163,1.341-0.54,1.992-1.018
						c0.656-0.471,1.321-1.049,2.137-1.495c0.807-0.446,1.717-0.769,2.673-0.951c1.921-0.358,3.815-0.127,5.402,0.405
						c1.593,0.536,2.892,1.333,3.893,2.089c1.004,0.76,1.72,1.485,2.193,1.999c0.468,0.52,0.695,0.835,0.671,0.855
						c-0.067,0.068-1.064-1.134-3.071-2.571c-1.006-0.705-2.287-1.446-3.828-1.938c-1.532-0.488-3.345-0.692-5.169-0.352
						c-0.908,0.173-1.768,0.475-2.531,0.889c-0.764,0.408-1.42,0.963-2.106,1.441c-0.68,0.482-1.407,0.883-2.165,1.047
						c-0.753,0.175-1.536,0.057-2.105-0.293c-0.579-0.337-0.954-0.898-1.005-1.444c-0.049-0.546,0.168-0.986,0.403-1.264
						C647.453,176.851,647.965,176.978,647.933,176.989z"/>
				</g>
			</g>
		</g>
		<g>
			<g>
				<path style="fill:#455A64;" d="M702.932,340.808c-0.141,0.027-1.271-5.229-2.522-11.738c-1.252-6.512-2.152-11.811-2.011-11.838
					c0.141-0.027,1.27,5.228,2.522,11.74C702.173,335.48,703.073,340.78,702.932,340.808z"/>
			</g>
		</g>
		<g>
			<path style="fill:#263238;" d="M576.018,249.418c0,0-4.704-2.377-6.77-3.693c-0.703-0.448-3.117-2.611-4.376-3.753
				c-0.328-0.298-0.857-0.071-0.864,0.372c-0.012,0.776,0.078,1.81,0.548,2.535c0.846,1.308,1.308,2.231,1.308,2.231
				s-8.842-3.859-10.001-3.385c-1.269,0.519-0.846,1.462,0,1.923c0.846,0.462,5.539,2.846,5.539,2.846s-6.891-1.282-7.445-1.319
				c-1.67-0.114-1.017,1.781-0.171,1.935c0.846,0.154,7.155,2.385,7.155,2.385s-7.833-0.598-8.144,0.122
				c-0.479,1.109,0.528,1.571,1.143,1.648c0.615,0.077,6.912,1.204,6.912,1.204s1.242,0.591,0.396,0.745
				c-0.846,0.154-4.975-0.33-5.904,0.09c-0.313,0.142-0.959,1.229,0.981,1.423c1.096,0.11,11.078,2.385,18.233,2.231
				L576.018,249.418z"/>
		</g>
		<g>
			<g>
				<path style="fill:#455A64;" d="M575.453,248.39l-0.897,12.104l3.502,0.969c0,0,1.067,2.654,5.128,3.858
					c4.06,1.204,30.614,5.125,53.862-5.441c15.619-7.099,18.318-11.26,18.318-11.26s2.3-19.351-7.659-22.191l-11.967,2.901
					l-7.869,7.727l-5.553-1.892L590.175,246.1l-10.113,2.707L575.453,248.39z"/>
			</g>
			<g>
				<g>
					<path style="fill:#263238;" d="M635.739,229.329c0.05,0.048-0.679,0.919-1.93,2.263c-1.252,1.341-3.031,3.156-5.149,5.002
						c-2.12,1.844-4.194,3.332-5.756,4.304c-1.562,0.975-2.588,1.471-2.619,1.416c-0.041-0.07,0.917-0.677,2.415-1.723
						c1.499-1.045,3.515-2.561,5.618-4.391c2.1-1.831,3.911-3.594,5.228-4.867C634.861,230.059,635.685,229.277,635.739,229.329z"/>
				</g>
			</g>
			<g>
				<g>
					<path style="fill:#263238;" d="M620.411,260.302c0.004,0.036-0.329,0.096-0.935,0.174c-0.605,0.085-1.488,0.152-2.581,0.185
						c-2.185,0.071-5.226-0.09-8.503-0.77c-3.276-0.688-6.128-1.757-8.102-2.696c-0.988-0.468-1.771-0.883-2.292-1.203
						c-0.524-0.314-0.805-0.502-0.787-0.534c0.042-0.076,1.232,0.557,3.229,1.4c1.994,0.845,4.825,1.844,8.059,2.523
						c3.234,0.671,6.228,0.888,8.394,0.911C619.059,260.32,620.403,260.216,620.411,260.302z"/>
				</g>
			</g>
		</g>
		<g>
			<g>
				<path style="fill:#455A64;" d="M645.948,299.75c0,0-0.531,3.785-1.161,8.056c-0.502,3.404-0.655,8.051,2.954,9.666
					c0,0,44-1.022,50.355-0.584c4.982,0.344,1.6-13.844,1.6-13.844L645.948,299.75z"/>
			</g>
			<g>
				<g>
					<path style="fill:#263238;" d="M683.164,314.132c-0.131,0.043-0.771-1.647-1.097-3.841c-0.334-2.193-0.218-3.996-0.08-3.994
						c0.15-0.001,0.268,1.766,0.595,3.916C682.901,312.365,683.308,314.089,683.164,314.132z"/>
				</g>
			</g>
			<g>
				<g>
					<path style="fill:#263238;" d="M686.163,311.901c-0.137,0.044-0.68-1.277-1.212-2.95c-0.533-1.673-0.853-3.064-0.716-3.108
						c0.137-0.044,0.68,1.277,1.212,2.95C685.979,310.466,686.3,311.858,686.163,311.901z"/>
				</g>
			</g>
			<g>
				<g>
					<path style="fill:#263238;" d="M700.289,304.87c0.086-0.002,0.089,0.756,0.374,1.913c0.284,1.149,0.884,2.778,0.891,4.695
						c0.002,0.952-0.152,1.87-0.473,2.646c-0.314,0.776-0.769,1.395-1.224,1.83c-0.928,0.884-1.765,0.984-1.763,0.934
						c-0.039-0.086,0.713-0.31,1.498-1.19c0.803-0.853,1.482-2.407,1.44-4.218c-0.004-1.81-0.525-3.406-0.731-4.621
						C700.102,305.631,700.233,304.866,700.289,304.87z"/>
				</g>
			</g>
		</g>
		<g>
			<g>
				<path style="fill:#E8505B;" d="M645.782,256.268c0,0-3.263,45.898-0.995,51.538c0,0,30.493-1.643,41.386-2.127
					c10.686-0.474,14.333-0.828,14.333-0.828l-2.161-49.63l-2.512-26.984l-13.035-7.088l-23.452-0.841
					c-7.357,3.169-14.519,5.446-17.153,7.456L645.782,256.268z"/>
			</g>
			<g>
				<g>
					<path style="fill:#263238;" d="M688.348,277.377c0.029,0.022-0.301,0.495-0.923,1.335c-0.612,0.846-1.57,2.02-2.813,3.415
						c-1.237,1.402-2.808,2.984-4.64,4.647c-1.85,1.641-3.972,3.35-6.32,4.977c-2.36,1.61-4.717,2.979-6.912,4.119
						c-2.209,1.115-4.249,2.015-6.001,2.668c-1.748,0.661-3.186,1.134-4.196,1.403c-1.006,0.28-1.567,0.418-1.577,0.383
						c-0.01-0.034,0.531-0.238,1.516-0.577c0.988-0.327,2.401-0.852,4.122-1.552c1.725-0.692,3.735-1.621,5.916-2.751
						c2.167-1.155,4.496-2.525,6.838-4.122c2.329-1.614,4.442-3.297,6.296-4.906c1.835-1.631,3.423-3.175,4.687-4.537
						c1.27-1.356,2.266-2.487,2.925-3.292C687.935,277.788,688.319,277.356,688.348,277.377z"/>
				</g>
			</g>
			<g>
				<polygon style="fill:#F5F5F5;" points="644.886,249.154 697.455,245.665 698.429,257.162 645.471,260.929 645.782,256.268 				
					"/>
			</g>
			<g style="opacity:0.2;">
				<g>
					<path d="M659.346,220.309c4.619,4.445,12.785,9.443,19.275,7.949c1.676-0.386,2.66-0.607,3.87-1.829
						c1.21-1.223,0.963-3.689,0.307-5.279L659.346,220.309z"/>
				</g>
			</g>
			<g style="opacity:0.2;">
				<g>
					<path d="M687.017,279.663c0.95-1.173-2.589-1.65-4.046-1.256c-1.457,0.393-2.659,1.415-3.697,2.51
						c-1.038,1.095-1.977,2.299-3.17,3.223c-2.067,1.6-4.722,2.221-7.315,2.555c-2.593,0.334-5.236,0.427-7.746,1.155
						c-2.511,0.728-4.951,2.216-6.088,4.57c-1.136,2.354-0.522,5.632,1.776,6.878C656.73,299.297,672.056,298.138,687.017,279.663z"
						/>
				</g>
			</g>
		</g>
		<g>
			<g>
				<path style="fill:#455A64;" d="M653.763,222.595c0,0,2.125-11.814,13.748-13.26c11.623-1.446,15.832,4.404,16.315,5.028
					c0.482,0.624,3.013,4.337-1.599,6.766l-22.881-0.82L653.763,222.595z"/>
			</g>
			<g>
				<g>
					<path style="fill:#263238;" d="M681.161,215.073c0.003,0.033-0.416,0.098-1.182,0.156c-0.765,0.048-1.878,0.06-3.246-0.015
						c-1.368-0.071-2.989-0.234-4.782-0.379c-1.791-0.131-3.769-0.256-5.813-0.029c-4.125,0.387-7.455,2.448-9.409,4.269
						c-1.993,1.838-2.783,3.373-2.878,3.306c-0.024-0.014,0.149-0.404,0.562-1.052c0.41-0.649,1.072-1.556,2.061-2.521
						c1.927-1.93,5.346-4.12,9.607-4.52c2.103-0.233,4.11-0.089,5.91,0.069c1.764,0.181,3.371,0.346,4.768,0.49
						c1.355,0.122,2.454,0.165,3.215,0.18C680.734,215.031,681.158,215.034,681.161,215.073z"/>
				</g>
			</g>
			<g>
				<g>
					<path style="fill:#263238;" d="M681.098,219.198c0.014,0.061-0.917,0.347-2.469,0.595c-1.55,0.249-3.728,0.419-6.126,0.271
						c-2.399-0.154-4.539-0.596-6.045-1.037c-1.509-0.44-2.396-0.841-2.375-0.9c0.026-0.077,0.952,0.199,2.466,0.543
						c1.513,0.346,3.626,0.723,5.986,0.874c2.359,0.146,4.503,0.037,6.047-0.117C680.128,219.276,681.082,219.119,681.098,219.198z"
						/>
				</g>
			</g>
		</g>
	</g>
</g>
<g id="Floor">
	<g>
		<g>
			<path style="fill:#263238;" d="M730.257,466.012c0,0.144-159.377,0.26-355.934,0.26c-196.625,0-355.968-0.117-355.968-0.26
				s159.343-0.26,355.968-0.26C570.88,465.752,730.257,465.868,730.257,466.012z"/>
		</g>
	</g>
</g>
</svg>
