<?xml version="1.0" encoding="utf-8"?>
<!-- Generator: Adobe Illustrator 27.5.0, SVG Export Plug-In . SVG Version: 6.00 Build 0)  -->
<svg version="1.1" xmlns="http://www.w3.org/2000/svg" xmlns:xlink="http://www.w3.org/1999/xlink" x="0px" y="0px"
	 viewBox="0 0 500 500" style="enable-background:new 0 0 500 500;" xml:space="preserve">
<g id="City">
	<polygon id="City_00000049185492051154302710000017179312760990792335_" style="fill:#F0F0F0;" points="26.355,339.691 
		26.355,133.623 60.104,114.133 85.423,128.751 85.423,179.313 98.082,172.004 98.082,152.514 110.741,145.205 110.741,71.031 
		148.719,49.104 165.598,58.849 165.598,81.616 182.478,71.871 199.357,81.616 199.357,123.848 216.236,133.568 216.236,93.071 
		233.115,83.326 254.215,95.508 254.215,144.233 275.314,132.052 275.314,54.09 300.632,39.472 330.171,56.527 330.171,119.777 
		342.83,127.086 342.83,152.699 359.71,162.444 359.71,74.836 380.808,62.654 406.127,77.272 406.127,98.078 418.787,105.387 
		418.787,161.597 435.666,171.342 435.666,133.309 460.984,118.691 473.643,126 473.645,339.691 	"/>
</g>
<g id="Clouds">
	<path id="Cloud_00000102522353034939034390000002133565873598418333_" style="fill:#F5F5F5;" d="M28.655,76.759
		c0.781-0.354,1.709-0.386,2.38-0.439c0.771-0.061,1.015-0.214,1.163-0.38c1.874-2.682,4.972-2.784,6.821-2.016
		c0.453-1.845,2.685-3.447,5.144-2.907c-0.084-2.398,2.977-4.974,5.728-5.559c2.638-0.561,4.938-0.326,6.443,1.409
		c1.611-3.146,7.927-4.033,11.345-2.368c1.965,0.957,3.633,1.939,4.448,3.741c0.538,1.189,0.73,1.981,0.74,3.581
		c1.332-1.174,3.999-1.492,5.778-0.803c1.918,0.742,2.064,2.188,2.158,3.658c1.88-0.474,3.139-0.167,3.492-0.063
		c1.208,0.358,1.905,1.307,1.739,2.073c0.956-0.053,3.234,0.72,2.972,1.729c-0.294,1.133-2.895,1.019-3.867,0.983
		c-0.804-0.03-1.846-0.245-2.72-0.427c-0.266,0.131-0.971,0.272-1.414,0.269c-1.656-0.012-2.357-0.722-2.624-1.338
		c-0.808,1.702-3.685,2.999-5.719,3.519c-3.829,0.98-9.248,0.383-11.606-2.479c-0.247,0.515-0.661,0.994-1.141,1.39
		c-0.936,0.771-2.199,1.31-3.543,1.436c-1.573,0.147-5.793,0.349-6.983-2.152c-0.842,1.663-4.599,2.42-7.457,2.014
		c-1.069-0.152-2.268-0.523-3.199-0.966c-0.751-0.357-1.177-0.705-1.839-1.103c-0.563-0.338-0.817-0.334-1.568-0.108
		c-1.961,0.591-4.237,0.833-6.239-0.007C27.49,78.775,27.157,77.438,28.655,76.759z"/>
	<path id="Cloud_00000180344017267521423760000004255296702254854531_" style="fill:#F5F5F5;" d="M190.673,46.647
		c0.812-0.368,1.778-0.402,2.475-0.457c0.801-0.063,1.055-0.222,1.21-0.396c1.949-2.789,5.171-2.896,7.094-2.096
		c0.471-1.919,2.793-3.585,5.349-3.024c-0.088-2.493,3.096-5.173,5.957-5.782c2.743-0.584,5.135-0.339,6.701,1.465
		c1.676-3.272,8.244-4.194,11.799-2.463c2.044,0.996,3.778,2.017,4.626,3.891c0.559,1.236,0.76,2.06,0.77,3.724
		c1.385-1.221,4.159-1.551,6.009-0.836c1.995,0.772,2.146,2.275,2.245,3.805c1.956-0.493,3.264-0.174,3.632-0.065
		c1.257,0.373,1.981,1.359,1.809,2.157c0.994-0.056,3.363,0.748,3.091,1.798c-0.306,1.178-3.011,1.059-4.021,1.022
		c-0.836-0.031-1.92-0.255-2.829-0.444c-0.276,0.137-1.01,0.283-1.471,0.279c-1.723-0.012-2.452-0.75-2.729-1.391
		c-0.841,1.77-3.833,3.119-5.948,3.66c-3.983,1.02-9.618,0.398-12.071-2.579c-0.257,0.536-0.688,1.034-1.187,1.445
		c-0.973,0.802-2.287,1.363-3.685,1.493c-1.635,0.153-6.025,0.363-7.262-2.238c-0.876,1.729-4.784,2.517-7.755,2.095
		c-1.112-0.158-2.359-0.544-3.327-1.005c-0.781-0.372-1.224-0.734-1.913-1.147c-0.586-0.351-0.85-0.347-1.631-0.112
		c-2.04,0.615-4.407,0.866-6.488-0.007C189.462,48.744,189.115,47.353,190.673,46.647z"/>
	<path id="Cloud_00000087382069562298139050000012724377950445036690_" style="fill:#F5F5F5;" d="M417.787,87.191
		c0.689-0.312,1.509-0.341,2.101-0.388c0.68-0.054,0.895-0.188,1.026-0.336c1.654-2.367,4.388-2.458,6.021-1.779
		c0.4-1.629,2.37-3.043,4.54-2.566c-0.074-2.116,2.628-4.39,5.056-4.907c2.328-0.495,4.358-0.287,5.687,1.244
		c1.422-2.777,6.997-3.56,10.014-2.09c1.735,0.845,3.206,1.712,3.926,3.302c0.475,1.049,0.645,1.748,0.653,3.16
		c1.176-1.036,3.53-1.317,5.1-0.709c1.693,0.655,1.822,1.931,1.905,3.229c1.66-0.418,2.77-0.148,3.082-0.055
		c1.067,0.316,1.681,1.153,1.535,1.83c0.844-0.047,2.854,0.635,2.623,1.526c-0.259,1-2.555,0.899-3.413,0.867
		c-0.71-0.026-1.629-0.216-2.401-0.377c-0.234,0.116-0.857,0.24-1.248,0.237c-1.462-0.01-2.081-0.637-2.316-1.181
		c-0.713,1.502-3.253,2.647-5.048,3.106c-3.38,0.865-8.163,0.338-10.245-2.188c-0.218,0.455-0.583,0.878-1.007,1.227
		c-0.826,0.68-1.941,1.156-3.127,1.267c-1.388,0.13-5.113,0.308-6.163-1.899c-0.743,1.467-4.06,2.136-6.582,1.778
		c-0.943-0.134-2.002-0.461-2.824-0.853c-0.662-0.315-1.039-0.623-1.623-0.974c-0.497-0.298-0.721-0.295-1.384-0.095
		c-1.731,0.522-3.74,0.735-5.507-0.006C416.759,88.97,416.465,87.79,417.787,87.191z"/>
	<path id="Cloud_00000157310686881176098840000007759779375077863057_" style="fill:#F5F5F5;" d="M362.505,47.45
		c0.689-0.312,1.509-0.341,2.101-0.388c0.68-0.054,0.895-0.188,1.026-0.336c1.654-2.367,4.388-2.458,6.02-1.779
		c0.4-1.629,2.37-3.042,4.54-2.566c-0.074-2.116,2.628-4.39,5.056-4.907c2.328-0.496,4.358-0.287,5.687,1.244
		c1.422-2.777,6.997-3.56,10.014-2.09c1.735,0.845,3.206,1.712,3.926,3.302c0.475,1.049,0.645,1.748,0.653,3.16
		c1.176-1.036,3.53-1.317,5.1-0.709c1.693,0.655,1.822,1.931,1.905,3.229c1.66-0.418,2.77-0.148,3.082-0.056
		c1.067,0.316,1.681,1.153,1.535,1.83c0.844-0.047,2.854,0.635,2.623,1.526c-0.259,1-2.555,0.899-3.413,0.867
		c-0.71-0.026-1.629-0.216-2.401-0.377c-0.234,0.116-0.857,0.24-1.248,0.237c-1.462-0.01-2.081-0.637-2.316-1.181
		c-0.714,1.502-3.253,2.647-5.048,3.106c-3.38,0.865-8.163,0.338-10.245-2.188c-0.218,0.455-0.583,0.878-1.007,1.227
		c-0.826,0.68-1.941,1.156-3.127,1.267c-1.388,0.13-5.113,0.308-6.163-1.899c-0.743,1.467-4.06,2.136-6.582,1.778
		c-0.943-0.134-2.002-0.461-2.824-0.852c-0.662-0.315-1.039-0.623-1.623-0.974c-0.497-0.298-0.721-0.295-1.384-0.095
		c-1.731,0.522-3.74,0.735-5.507-0.006C361.477,49.229,361.183,48.049,362.505,47.45z"/>
</g>
<g id="Floor">
	<g id="Floor_00000078015517371486404910000012014321363599282843_">
		
			<ellipse id="Floor_00000088820790230335682660000018319358197307385767_" style="fill:#455A64;" cx="250.026" cy="352.772" rx="230.527" ry="133.096"/>
		<g>
			<polygon style="fill:#FAFAFA;" points="465.697,358.621 444.784,370.641 447.771,372.358 468.685,360.338 			"/>
			<polygon style="fill:#FAFAFA;" points="420.883,384.343 399.97,396.363 402.957,398.08 423.871,386.06 			"/>
			<polygon style="fill:#FAFAFA;" points="376.069,410.065 355.156,422.085 358.143,423.802 379.057,411.782 			"/>
			<polygon style="fill:#FAFAFA;" points="331.256,435.787 310.342,447.807 313.33,449.524 334.244,437.504 			"/>
			<polygon style="fill:#FAFAFA;" points="286.442,461.509 265.529,473.529 268.516,475.246 289.43,463.226 			"/>
		</g>
		<g>
			<path style="fill:#E0E0E0;" d="M348.892,223.677c-85.595-23.453-191.042-14.74-261.872,26.154
				c-45.032,25.999-67.524,60.078-67.5,94.153c0.001,1.438-0.006,7.296-0.006,8.789c0.002,19.535,7.404,39.07,22.21,57.083
				l307.168-177.348V223.677z"/>
			<path style="fill:#FAFAFA;" d="M87.02,249.831C16.189,290.725,1.1,351.606,41.723,401.025l307.168-177.348
				C263.297,200.225,157.849,208.937,87.02,249.831z"/>
			<g>
				<path style="fill:#EBEBEB;" d="M58.545,269.796c-1.267,1.088-2.503,2.184-3.708,3.289l104.242,60.184l4.702-2.715
					L58.545,269.796z"/>
				<path style="fill:#EBEBEB;" d="M87.036,374.864l4.702-2.715l-71.146-41.076c-0.281,1.678-0.506,3.357-0.676,5.039
					L87.036,374.864z"/>
				<path style="fill:#EBEBEB;" d="M244.724,210.906c-3.009,0.04-6.015,0.115-9.02,0.222l67.463,38.949l4.702-2.715L244.724,210.906
					z"/>
				<path style="fill:#EBEBEB;" d="M132.64,229.385c-1.957,0.669-3.897,1.36-5.827,2.065l104.309,60.223l4.702-2.715L132.64,229.385
					z"/>
			</g>
			<polygon style="opacity:0.1;" points="41.723,401.025 41.723,409.855 348.892,232.507 348.892,223.677 			"/>
		</g>
	</g>
</g>
<g id="No_Parking_Signal">
	<g id="Signal_00000180367529671787975240000007269861222937197996_">
		<g id="XMLID_6062_">
			<polygon id="XMLID_6065_" style="fill:#263238;" points="292.04,61.683 292.04,251.332 294.072,250.16 294.072,60.488 			"/>
			<polygon id="XMLID_6064_" style="fill:#37474F;" points="288.791,59.786 288.791,249.456 292.04,251.332 292.04,61.683 			"/>
			<polygon id="XMLID_6063_" style="fill:#455A64;" points="288.791,59.786 292.04,61.683 294.072,60.488 290.822,58.614 			"/>
		</g>
		<g id="XMLID_5633_">
			<g>
				<path style="fill:#BA68C8;" d="M302.546,117.347c-3.529,2.037-8.404,1.743-13.789-1.366c-10.77-6.218-19.501-21.341-19.5-33.776
					c0-6.218,2.182-10.587,5.711-12.625c2.143-1.237-0.862,0.498,1.28-0.739c3.529-2.037,8.405-1.742,13.789,1.366
					c10.77,6.219,19.501,21.341,19.501,33.777c0,6.218-2.183,10.587-5.712,12.624C301.684,117.845,304.689,116.11,302.546,117.347z"
					/>
				<path style="opacity:0.2;fill:#FFFFFF;" d="M302.546,117.347c-3.529,2.037-8.404,1.743-13.789-1.366
					c-10.77-6.218-19.501-21.341-19.5-33.776c0-6.218,2.182-10.587,5.711-12.625c2.143-1.237-0.862,0.498,1.28-0.739
					c3.529-2.037,8.405-1.742,13.789,1.366c10.77,6.219,19.501,21.341,19.501,33.777c0,6.218-2.183,10.587-5.712,12.624
					C301.684,117.845,304.689,116.11,302.546,117.347z"/>
				<path style="fill:#BA68C8;" d="M269.256,82.205c0-6.218,2.183-10.587,5.712-12.624c3.529-2.037,8.404-1.743,13.789,1.366
					c10.77,6.218,19.501,21.341,19.501,33.777c0,6.218-2.183,10.587-5.712,12.624c-3.529,2.037-8.404,1.743-13.789-1.367
					C277.987,109.763,269.256,94.641,269.256,82.205z"/>
				<path style="fill:#FFFFFF;" d="M271.431,83.078c-0.091-5.577,1.765-9.464,4.84-11.239c3.075-1.775,7.37-1.439,12.154,1.429
					c9.569,5.736,17.474,19.429,17.657,30.583c0.091,5.577-1.765,9.464-4.84,11.239s-7.37,1.439-12.154-1.429
					C279.52,107.925,271.614,94.232,271.431,83.078z"/>
			</g>
			<g>
				<path style="fill:#455A64;" d="M295.108,85.088c1.337,2.622,2.004,5.531,2.004,8.729c0,1.834-0.232,3.415-0.691,4.749
					c-0.458,1.334-1.211,2.216-2.248,2.645c-1.038,0.429-2.378,0.171-4.024-0.782l-2.815-1.622v9.716l-3.927-2.269V75.559
					l6.04,3.492C291.884,80.456,293.771,82.472,295.108,85.088z M291.913,94.798c0.45-0.259,0.776-0.676,0.973-1.252
					c0.2-0.582,0.297-1.193,0.297-1.828c0-1.087-0.206-2.257-0.62-3.509c-0.417-1.258-1.22-2.228-2.413-2.916l-2.815-1.628v9.258
					l2.789,1.611C290.864,94.963,291.461,95.051,291.913,94.798z"/>
			</g>
		</g>
		<path style="fill:#BA68C8;" d="M275.579,69.261l23.288,49.299c0.959-0.119,1.86-0.369,2.701-0.73l-23.333-49.394
			C277.292,68.59,276.402,68.864,275.579,69.261z"/>
	</g>
</g>
<g id="Shadows">
	<path id="Shadow_00000026854321945336807610000004783719460814693809_" style="opacity:0.15;" d="M354.685,265.288l97.948,56.307
		c13.82,7.946,12.175,21.799-3.676,30.941l-156.756,90.28c-79.272,45.889-211.586-49.412-148.216-84.943l164.141-94.925
		C323.975,253.803,340.864,257.342,354.685,265.288z"/>
	
		<ellipse id="Shadow_00000008150566461772643460000002760645458977457330_" style="opacity:0.15;" cx="82.53" cy="319.782" rx="42.376" ry="24.466"/>
	
		<ellipse id="Shadow_00000123430527127016693810000017999588163106052758_" style="opacity:0.15;" cx="199.29" cy="274.609" rx="42.376" ry="24.466"/>
</g>
<g id="Character_2">
	<g id="Character_00000152966536477857979790000006594963865273508996_">
		<g id="Chartacter_00000132772981124576067620000007869839598691815562_">
			<g id="Bottom_00000183225284681893115590000009528786667197687959_">
				<g>
					<path style="fill:#FFA8A7;" d="M193.005,257.349l1.048-10.72l-12.67-1.342c0,0,0.553,8.46,0.504,12.342
						c-0.023,1.829-1.236,5.277-1.236,5.277s5.005,2.694,7.589,1.572c2.583-1.122,4.271-5.412,4.205-6.197L193.005,257.349z"/>
					<path style="fill:#263238;" d="M166.231,275.957c-0.176,0.01-0.248,1.72,0.754,2.522c1.157,0.926,4.789,2.645,9.044,1.844
						c4.255-0.801,6.503-2.294,8.139-3.869c1.636-1.574,3.928-3.793,5.843-4.338c1.779-0.506,4.139-2.144,4.685-2.749
						c0.546-0.606,0.33-3.158,0.33-3.158L166.231,275.957z"/>
					<path id="XMLID_00000090989878814307712970000000696283200499202189_" style="fill:#455A64;" d="M193.1,256.325
						c0,0,0.235,0.113,0.377,0.699c0.169,0.698,0.421,2.738,0.765,3.88c0.479,1.586,0.917,4.866,0.751,6.188
						c-0.167,1.322-3.504,3.079-5.34,3.917c-1.876,0.856-4.01,2.528-5.867,4.289c-1.922,1.823-6.064,3.833-8.858,3.961
						c-3.306,0.151-7.085-0.756-8.022-2.293c-1.159-1.903-2.048-4.137,2.727-6.744c0.904-0.493,4.056-2.659,5.128-3.44
						c2.901-2.114,4.919-4.019,6.118-7.55c0.14-0.413,0.286-0.869,0.648-1.095c0.278-0.173,0.624-0.169,0.948-0.14
						c0.823,0.075,4.103,0.365,4.867,0.692c0.675,0.289,1.628,0.616,1.66,1.487c0.011,0.303-0.058,0.603-0.138,0.894
						c-0.049,0.181-0.083,0.42,0.073,0.517c0.147,0.091,0.33-0.031,0.451-0.156c0.488-0.502,0.831-1.131,1.234-1.708
						c0.216-0.309,0.903-1.297,1.182-1.548c0.254-0.227,0.587-0.352,0.809-0.606C192.895,257.246,193.107,256.734,193.1,256.325z"/>
					<path style="fill:#37474F;" d="M183.786,275.299c0.816-0.774,1.686-1.526,2.564-2.203l0-0.005c0,0-5.57,3.926-7.986,2.408
						c-1.556-0.978-0.911-2.302-0.897-2.715c0.014-0.413-5.436-3.031-6.902-3.132l0,0c-0.393,0.253-0.719,0.47-0.932,0.572
						c-3.742,1.784-4.143,3.849-3.371,6.377c0.936,1.537,4.342,2.995,8.613,2.767C177.667,279.219,181.863,277.121,183.786,275.299z
						"/>
					<path style="fill:#37474F;" d="M177.805,271.564c-2.98,1.421-1.649,1.94-0.789,2.02c0.86,0.08,5.824-3.287,8.816-6.01
						c3.121-2.841,5.473-6.555,6.634-7.599c0.432-0.389,0.895-0.864,1.305-1.306c-0.117-0.689-0.215-1.316-0.295-1.644
						c-0.142-0.586-0.377-0.699-0.377-0.699s-0.204,0.921-0.486,1.243c-0.223,0.255-0.555,0.379-0.809,0.606
						c-0.28,0.25-0.967,1.238-1.182,1.548c-0.402,0.578-0.746,1.206-1.234,1.708C186.912,265.061,180.786,270.143,177.805,271.564z"
						/>
					<g>
						<g>
							<path style="fill:#263238;" d="M177.208,273.11c0.067-0.004,0.134-0.03,0.187-0.081c0.123-0.115,0.132-0.313,0.019-0.44
								c-0.918-1.042-5.13-3.406-7.359-3.032c-0.165,0.027-0.277,0.188-0.249,0.357c0.026,0.169,0.165,0.282,0.346,0.258
								c2.081-0.344,6.088,2.01,6.816,2.836C177.032,273.08,177.121,273.114,177.208,273.11z"/>
						</g>
						<g>
							<path style="fill:#263238;" d="M179.776,271.278c0.067-0.003,0.133-0.03,0.187-0.081c0.123-0.116,0.132-0.313,0.019-0.44
								c-0.917-1.041-5.128-3.403-7.359-3.031c-0.165,0.027-0.277,0.188-0.249,0.357c0.027,0.17,0.178,0.286,0.346,0.259
								c2.082-0.341,6.088,2.009,6.816,2.835C179.6,271.249,179.689,271.283,179.776,271.278z"/>
						</g>
						<g>
							<path style="fill:#263238;" d="M182.35,269.536c0.067-0.004,0.133-0.03,0.187-0.081c0.123-0.115,0.131-0.313,0.019-0.44
								c-0.918-1.042-5.13-3.408-7.359-3.032c-0.165,0.027-0.277,0.188-0.249,0.357c0.027,0.169,0.175,0.286,0.347,0.259
								c2.082-0.344,6.088,2.009,6.816,2.835C182.174,269.507,182.262,269.541,182.35,269.536z"/>
						</g>
						<g>
							<path style="fill:#263238;" d="M184.716,267.577c0.067-0.003,0.133-0.03,0.187-0.081c0.124-0.115,0.131-0.313,0.019-0.44
								c-0.917-1.042-5.139-3.405-7.359-3.031c-0.165,0.027-0.277,0.188-0.249,0.357c0.027,0.17,0.176,0.285,0.347,0.259
								c2.079-0.342,6.088,2.009,6.815,2.835C184.54,267.547,184.629,267.582,184.716,267.577z"/>
						</g>
						<g>
							<path style="fill:#263238;" d="M187.033,265.621c0.065-0.003,0.131-0.029,0.184-0.078c0.125-0.113,0.136-0.311,0.026-0.44
								c-1.264-1.479-5.646-3.408-7.874-3.035c-0.165,0.027-0.277,0.188-0.249,0.357c0.027,0.17,0.177,0.281,0.347,0.259
								c2.006-0.334,6.203,1.521,7.325,2.832C186.853,265.59,186.944,265.625,187.033,265.621z"/>
						</g>
					</g>
				</g>
				<g>
					<path style="fill:#FFA8A7;" d="M214.832,261.773l-2.912-13.172l12.387-2.084l0.275,13.015c0,0,0.967,3.496,0.276,4.703
						c-0.691,1.207-8.134,2.506-8.821,1.707C215.349,265.143,214.832,261.773,214.832,261.773z"/>
					<path style="fill:#263238;" d="M216.19,282.545c0.343,2.956,0.945,4.866,2.175,6.462c1.23,1.597,3.404,1.86,5.551,1.059
						c2.147-0.801,4.858-2.539,5.346-5.193c0.487-2.654,0.269-4.399-0.37-7.098L216.19,282.545z"/>
					<path id="XMLID_00000070114582640332931780000001206266715698512780_" style="fill:#455A64;" d="M224.582,259.532
						c0.899-0.054,0.669,2.275,1.116,6.261c0.484,4.312,2.357,7.685,3.037,11.14c0.777,3.948,0.644,5.776-0.745,8.411
						c-1.388,2.635-6.631,5.734-9.46,2.602c-2.306-2.554-2.561-5.692-2.576-9.735c-0.015-4.18,0.01-7.125-0.338-10.253
						c-0.333-2.989-1.545-5.747-0.785-6.185c0.083,0.434,0.865,3.46,1.367,3.409c0.026-0.391-0.001-0.748-0.05-1.136
						c-0.042-0.337-0.031-0.713,0.194-1.004c0.227-0.294,1.082-0.662,1.441-0.777c0.873-0.279,2.433-0.629,3.324-0.823
						c0.444-0.097,0.89-0.176,1.338-0.231c0.363-0.044,0.792-0.073,1.143,0c0.215,0.045,0.418,0.158,0.506,0.344
						c0.065,0.137,0.063,0.298,0.071,0.453c0.014,0.278,0.067,0.551,0.155,0.811c0.039,0.114,0.135,0.248,0.262,0.202
						c0.103-0.037,0.138-0.163,0.133-0.263C224.696,262.271,224.614,259.786,224.582,259.532z"/>
					<path style="fill:#37474F;" d="M228.472,275.816c0.117,0.569,0.848,4.341-0.241,5.183c-1.179,0.912-2.006-2.02-2.006-2.02
						s-2.901-0.434-6.971,1.812c0.246,0.595-0.287,2.736-1.451,2.454c-1.156-0.28-1.836-4.628-1.844-4.685
						c0.03,3.875,0.334,6.908,2.573,9.387c2.829,3.132,8.072,0.032,9.46-2.602c1.389-2.635,1.521-4.462,0.745-8.411
						C228.657,276.538,228.568,276.169,228.472,275.816z"/>
					<path style="fill:#37474F;" d="M225.912,279.28c0.095,1.452,1.613,0.756,1.572-1.307c-0.041-2.063-1.101-7.067-1.512-10.438
						c-0.289-4.851-0.492-8.057-1.391-8.003c0.006,0.049,0.007,0.098,0.012,0.147c0,0,0.109,2.764,0.123,3.078
						c0.178,2.963,0.248,8.723,0.666,11.399C225.801,276.832,225.817,277.828,225.912,279.28z"/>
					<path style="fill:#37474F;" d="M219.734,280.686c-0.369-1.39-0.667-2.322-1.121-4.99c-0.451-2.648-1.993-7.946-2.759-10.795
						c-0.245-0.467-1.022-3.129-1.022-3.129c-0.621,0.187,0.016,2.726,0.314,3.914c0.298,1.188,0.661,2.461,1.035,4.166
						c0.95,3.359,1.068,8.406,1.679,10.339C218.47,282.125,220.103,282.076,219.734,280.686z"/>
					<g>
						<g>
							<path style="fill:#263238;" d="M219.172,280.92c0.041-0.009,0.081-0.026,0.119-0.049c0.031-0.02,3.2-1.998,6.863-1.582
								c0.18,0.02,0.356-0.103,0.394-0.273c0.039-0.171-0.076-0.325-0.256-0.346c-3.919-0.445-7.2,1.607-7.339,1.695
								c-0.158,0.1-0.212,0.295-0.118,0.435C218.907,280.906,219.042,280.95,219.172,280.92z"/>
						</g>
						<g>
							<path style="fill:#263238;" d="M218.258,277.863c0.037-0.008,0.074-0.023,0.109-0.043c0.035-0.02,3.606-2.099,7.685-1.768
								c0.18,0.012,0.353-0.113,0.386-0.285c0.033-0.171-0.088-0.323-0.269-0.337c-4.314-0.348-7.965,1.781-8.119,1.871
								c-0.161,0.096-0.222,0.289-0.135,0.433C217.984,277.845,218.123,277.893,218.258,277.863z"/>
						</g>
						<g>
							<path style="fill:#263238;" d="M225.677,273.082c0.125-0.029,0.234-0.121,0.271-0.245c0.049-0.17-0.052-0.333-0.229-0.365
								c-4.081-0.73-7.948,1.695-8.112,1.799c-0.159,0.1-0.211,0.295-0.118,0.435c0.094,0.139,0.299,0.167,0.455,0.07
								c0.037-0.023,3.794-2.375,7.591-1.69C225.583,273.094,225.631,273.092,225.677,273.082z"/>
						</g>
						<g>
							<path style="fill:#263238;" d="M225.298,270.285c0.123-0.028,0.23-0.119,0.269-0.24c0.054-0.17-0.045-0.335-0.221-0.369
								c-4.493-0.883-8.125,1.688-8.277,1.797c-0.152,0.11-0.192,0.306-0.089,0.439c0.103,0.133,0.314,0.152,0.462,0.043
								c0.033-0.025,3.528-2.489,7.71-1.668C225.201,270.297,225.251,270.295,225.298,270.285z"/>
						</g>
						<g>
							<path style="fill:#263238;" d="M224.859,267.144c0.121-0.028,0.227-0.116,0.267-0.236c0.056-0.168-0.04-0.335-0.215-0.372
								c-4.214-0.89-8.165,1.776-8.331,1.891c-0.155,0.105-0.199,0.302-0.1,0.438c0.099,0.136,0.304,0.162,0.459,0.053
								c0.038-0.026,3.856-2.6,7.769-1.773C224.758,267.156,224.809,267.155,224.859,267.144z"/>
						</g>
					</g>
				</g>
				<g>
					<path id="XMLID_00000054257880853389798430000014136601695239243143_" style="fill:#455A64;" d="M220.943,152.566
						c1.318,12.567,2.17,19.548,1.868,36.007c-0.114,6.24,0.1,13.17,0.161,19.411c0.017,1.77-0.186,3.859,0.098,5.611
						c0.525,3.24,0.842,5.256,1.38,9.227c0.326,2.405,0.485,5.458,0.648,7.881c0.244,3.635-0.102,7.328,0.635,10.894
						c0.277,1.339,0.705,2.652,0.825,4.014c0.065,0.733,0.033,1.492-0.159,2.204c-0.195,0.72-1.45,2.437-1.669,3.087
						c-0.319,0.948-0.026,2.373-0.022,3.393c0,0-6.521,3.354-11.496,1.527c-0.233-0.905-0.304-2.404-0.799-3.15
						c-0.353-0.533-1.941-1.815-2.382-2.343c-0.464-0.557-0.81-1.22-0.987-1.929c-0.247-0.99-0.18-2.029-0.269-3.047
						c-0.208-2.4-1.271-4.623-2.023-6.909c-2.024-6.161-1.671-12.706-2.923-19.01c-1.69-8.511-2.499-13.895-3.455-19.957
						c-0.956-6.062-3.385,12.077-3.385,12.08c-0.139,1.031,0.112,2.265,0.152,3.302c0.083,2.153,0.033,4.269,0.302,6.395
						c0.599,4.718,0.474,9.529-0.374,14.203c-0.446,2.459-0.835,4.151-0.706,6.656c0.076,1.47,0.325,2.77-0.229,4.128
						c-0.398,0.977-1.427,2.596-1.927,3.502c-0.206,0.373-0.213,3.322-0.436,3.463c0,0-6.892,4.101-12.081-0.32
						c-0.071-0.858,0.003-2.559-0.341-3.318c-0.896-0.975-2.27-2.828-2.373-4.303c-0.097-1.385,0.312-2.396,0.319-3.785
						c0.008-1.703-0.272-3.393-0.452-5.087c-0.257-2.416-0.31-4.849-0.271-7.277c0.034-2.111,0.375-4.349,0.059-6.418
						c-0.525-3.445-0.595-7.09-0.699-10.581c-0.408-13.729,1.028-41.59,1.309-59.31L220.943,152.566z"/>
					<path style="fill:#263238;" d="M196.765,174.971l4.007,27.021c-0.131-0.832-0.262-1.667-0.396-2.516
						c-0.956-6.062-3.385,12.08-3.385,12.08l0.616-11.852c0.162-3.705-0.084-7.418-0.734-11.069l-2.355-11.605
						c-5.682-1.57-8.02-6.384-8.02-6.384C189.605,173.752,196.765,174.971,196.765,174.971z"/>
				</g>
				<path style="fill:#263238;" d="M224.848,254.779c-2.22,1.845-7.262,3.179-11.717,1.512l-0.918-3.934
					c3.363,1.171,8.827,0.647,12.535-1.779L224.848,254.779z"/>
				<path style="fill:#263238;" d="M193.774,253.664c-1.496,1.608-7.962,2.37-12.098-0.144l-0.327-3.951
					c3.135,1.812,9.809,2.062,12.859,0.174L193.774,253.664z"/>
				<g>
					<path style="fill:#37474F;" d="M222.734,191.357c0,0,0.385,17.878,0.344,19.163c-0.04,1.286-9.868,4.003-10.11,3.188
						c-0.403-1.358-0.322-4.393-1.196-19.01C219.35,193.635,222.734,191.357,222.734,191.357z"/>
					<path style="fill:#263238;" d="M213.228,199.722c0.275-0.098,0.576-0.07,0.863-0.079c0.335-0.01,0.671-0.027,1.005-0.058
						c0.708-0.065,1.411-0.182,2.104-0.348c0.783-0.188,1.555-0.441,2.305-0.746c0.611-0.249,1.19-0.584,1.802-0.828
						c0.058-0.023,0.068,0.094,0.031,0.123c-0.578,0.448-1.266,0.757-1.926,1.039c-0.621,0.266-1.257,0.481-1.906,0.654
						c-0.69,0.184-1.392,0.318-2.099,0.401c-0.353,0.041-0.708,0.07-1.063,0.086c-0.335,0.015-0.815,0.097-1.12-0.079
						C213.178,199.858,213.172,199.742,213.228,199.722z"/>
					<path style="fill:#263238;" d="M217.095,197.694c0.003,0.155,0.038,0.308,0.161,0.402c0.187,0.143,0.461,0.124,0.654,0.009
						c0.223-0.133,0.358-0.389,0.324-0.665c-0.02-0.161-0.104-0.304-0.23-0.399c-0.133-0.1-0.301-0.142-0.461-0.121
						c-0.197,0.025-0.264,0.138-0.35,0.32C217.128,197.378,217.093,197.539,217.095,197.694z M217.472,197.291
						c0.071-0.059,0.166-0.081,0.255-0.071c0.286,0.03,0.337,0.505,0.104,0.647c-0.14,0.086-0.359,0.055-0.461-0.088
						C217.267,197.634,217.351,197.391,217.472,197.291z"/>
				</g>
			</g>
			<g id="Top_00000101814385241201091530000002810046225415076770_">
				<g id="Arm_00000150806557588633352930000000271774044271730348_">
					<path style="fill:#455A64;" d="M186.117,109.922c-7.193,1.254-22.577,4.361-22.577,4.361s-4.35,7.411-3.509,14.702
						c4.236,1.394,12.16-0.321,23.539-2.173L186.117,109.922z"/>
					<g>
						<path style="fill:#FFA8A7;" d="M186.551,88.102c-0.154-1.569-0.543-3.114-0.968-4.636c-0.126-0.452-0.94-1.261-1.465-1.142
							c-0.56,0.127-0.467,0.867-0.536,1.288c-0.139,0.856-0.437,1.711-0.629,2.559c-0.387,1.712-0.711,3.438-0.971,5.173
							c-0.18,1.203-0.332,2.419-0.72,3.571c-0.93,2.763-3.167,5.781-5.372,7.604c-5.257,4.346-6.938,5.665-12.281,10.215
							c-2.583,2.199-4.43,5.628-5.293,9.408c-0.988,4.327,0.136,7.117,3.036,7.049c2.538-0.059,5.77-0.629,9.194-3.916
							c3.339-3.205,6.172-8.115,7.35-9.8c2.465-3.528,4.446-6.803,7.207-9.84c0.594-0.654,1.216-1.298,1.643-2.071
							c1.343-2.434-0.191-5.684-0.358-8.245c-0.135-2.067,0.285-4.135,0.227-6.205C186.606,88.775,186.584,88.438,186.551,88.102z"
							/>
						<path style="fill:#F28F8F;" d="M186.388,95.319c-0.135-2.067,0.285-4.135,0.227-6.205c-0.009-0.338-0.032-0.676-0.065-1.012
							c-0.154-1.569-0.543-3.114-0.968-4.636c-0.102-0.364-0.649-0.952-1.133-1.108c-0.497,1.428-0.713,2.953-0.613,4.462
							c0.051,0.767,0.18,1.527,0.221,2.294c0.077,1.43-0.149,2.856-0.254,4.285c-0.218,2.952,0.085,5.941,0.89,8.789
							c0.25,0.882,0.677,1.868,1.468,2.231c0.214-0.272,0.416-0.551,0.583-0.854C188.089,101.13,186.556,97.88,186.388,95.319z"/>
					</g>
				</g>
				<g id="XMLID_1352_">
					<path id="XMLID_1989_" style="fill:#BA68C8;" d="M217.911,111.026c0,0,5.134,4.174,4.855,13.776
						c-0.213,7.344-1.773,15.486-1.838,18.629c-0.099,4.822,0.762,16.313,0.762,16.313c-6.847,9.027-38.58,8.221-42.724,0.502
						c0,0-0.152-24.889,0.989-36.981c0.598-6.336,3.906-11.483,6.162-13.344c0,0,2.448-0.642,7.829-1.224
						c3.299-0.357,12.223-0.785,12.223-0.785L217.911,111.026z"/>
				</g>
				<g>
					<g>
						<g>
							<path style="fill:#455A64;" d="M217.911,111.026c7.931,2.183,8.432,4.359,10.724,11.273
								c1.177,3.551,3.803,12.249,4.643,15.036c2.609,8.66,2.258,13.259-0.405,14.853c-3.052,1.827-16.082-19.554-16.082-19.554
								S211.146,115.946,217.911,111.026z"/>
							<path style="fill:#263238;" d="M227.992,147.984c-0.568-0.757-1.208-1.653-1.878-2.616
								c-3.249-5.093-9.324-12.733-9.324-12.733s-0.685-1.994-1.302-4.805c2.372,1.69,11.876,8.028,14.531,10.74
								c2.882,2.945,2.943,5.277,3.472,8.013L227.992,147.984z"/>
						</g>
					</g>
					<g>
						<path style="fill:#FFA8A7;" d="M217.492,130.775c-2.881-1.962-3.897-2.543-5.846-5.064c-1.997-2.583-3.78-3.915-5.223-5.213
							c-1.443-1.298-2.233-3.291-2.994-4.189c-0.529-0.623-1.417,0.266-1.383,1.731c0.023,1.011,0.633,2.254,1.536,3.514
							c0.913,1.273,0.367,1.066-0.909,0.722c-1.276-0.344-5.794-0.951-7.127-0.925c-1.333,0.027-2.657,0.335-2.56,1.192
							c0,0-2.07-0.465-2.322,0.624c-0.252,1.089,1.237,2.09,1.237,2.09s-0.198,0.911,1.352,1.671
							c0.874,0.428,3.586,1.191,4.541,1.573c1.088,0.435,2.233,1.027,2.233,1.027s-3.641-0.63-4.827-0.627
							c-1.347,0.004-1.287,0.955,0.167,1.776c1.455,0.821,5.882,1.383,7.129,2.087c1.247,0.704,2.378,1.087,4.897,1.704
							c1.737,0.426,2.575,1.274,3.307,2.264c1.339,1.811,7.511,8.383,9.038,10.469c1.492,2.037,3.492,3.502,6.239,4.639
							c3.29,1.362,6.283,0.838,6.996,0.286c0.782-0.607,1.335-2.645,0.336-6.121c-1.316-4.58-2.15-5.525-4.987-7.88
							C225.189,135.523,219.038,131.827,217.492,130.775z"/>
						<path style="fill:#F28F8F;" d="M203.581,121.553c0.552,0.77,0.568,0.997,0.213,0.981l0,0c0.501,0.092,1.485,0.406,1.648,0.019
							c0.163-0.387-0.752-1.086-1.65-1.899c-0.898-0.812-1.559-2.01-1.748-2.615C202.068,119.051,202.678,120.294,203.581,121.553z"
							/>
						<path style="fill:#F28F8F;" d="M192.985,122.542c1.672-0.029,4.472,0.464,6.109,0.738c0.851,0.153,1.652,0.402,2.456,0.665
							c0.802,0.261,1.592,0.567,2.371,0.915c-0.832-0.128-1.655-0.287-2.47-0.473c-0.815-0.171-1.629-0.396-2.424-0.528
							c-0.826-0.151-2.782-0.521-3.598-0.711C194.612,122.968,193.804,122.747,192.985,122.542z"/>
						<path style="fill:#F28F8F;" d="M191.899,125.256c0.007-0.111,0.034-0.227,0.105-0.325c0.073-0.096,0.182-0.159,0.292-0.202
							c0.225-0.084,0.465-0.102,0.698-0.108c0.469,0.001,0.932,0.071,1.383,0.151c0.899,0.157,2.936,0.544,3.831,0.76
							c0.447,0.117,0.894,0.231,1.34,0.378c0.455,0.15,0.881,0.34,1.3,0.513c0.852,0.345,1.702,0.713,2.543,1.113
							c-0.902-0.186-1.794-0.41-2.675-0.685c-0.45-0.128-0.875-0.303-1.301-0.411c-0.432-0.121-0.873-0.233-1.315-0.337
							c-0.883-0.221-2.913-0.633-3.799-0.876c-0.44-0.117-0.874-0.243-1.311-0.31C192.579,124.843,192.049,124.787,191.899,125.256z
							"/>
						<path style="fill:#F28F8F;" d="M202.68,130.015c0,0-1.445-0.513-2.265-0.837c-0.82-0.324-3.558-0.968-3.558-0.968l0,0
							c0.225,0.069,0.753,0.217,0.935,0.29c1.088,0.435,2.233,1.027,2.233,1.027C200.933,129.602,202.68,130.015,202.68,130.015z"/>
					</g>
				</g>
				<g id="Head_00000028283233056500610210000008205768266202792883_">
					<path style="fill:#37474F;" d="M194.717,75.543c10.998-0.914,14.824,4.167,16.217,9.235c1.389,5.055-1.564,12.13-4.54,17.087
						l-20.928-12.677C183.18,84.051,186.301,76.243,194.717,75.543z"/>
					<g id="XMLID_317_">
						<path style="fill:#FFA8A7;" d="M184.792,95.297c0.236,4.671,1.174,9.081,5.544,10.227c1.335,0.35,3.562,0.337,3.562,0.337
							l0.047,2.838c-2.096,3.038-0.265,5.223,1.991,5.403c7.94,0.634,10.688-4.858,10.688-4.858L206.511,99
							c0,0,0.799,1.209,2.803,0.354c1.539-0.659,3.504-3.667,2.282-6.07c-1.204-2.354-3.837-1.843-4.515-1.092
							c-0.673,0.752-0.803,1.932-1.896,1.801c-0.579-0.065-1.181-0.956-1.085-2.973c-1.384-1.706-1.895-3.271-1.58-6.201
							c-5.439-3.209-14.557-2.352-17.031-0.302C185.003,86.675,184.698,93.428,184.792,95.297z"/>
						<path style="fill:#F28F8F;" d="M193.9,105.858c5.094-0.101,8.255-2.106,9.357-3.798c1.102-1.691,1.405-3.313,1.405-3.313
							s0.208,2.589-0.739,3.994c-1.935,2.871-4.343,3.975-9.99,4.539L193.9,105.858z"/>
					</g>
					<g>
						<g id="XMLID_00000118376774343001936000000013547851408294221491_">
							<path id="XMLID_00000047774175654590054080000003880092261011117496_" style="fill:#263238;" d="M195.687,91.42
								c-0.112,0.641,0.362,0.791,0.979,0.897c0.618,0.106,1.144,0.128,1.256-0.513c0.112-0.641-0.297-1.247-0.915-1.353
								C196.39,90.346,195.798,90.779,195.687,91.42z"/>
							<path id="XMLID_00000144297916317519668670000013982820894333636263_" style="fill:#263238;" d="M199.139,88.973
								l-2.207-1.675c-0.455,0.638-0.329,1.53,0.281,1.993C197.822,89.753,198.684,89.611,199.139,88.973z"/>
							<path id="XMLID_00000059285144362820690860000006460788054305984693_" style="fill:#263238;" d="M188.511,86.883
								l-2.152,1.779c0.473,0.617,1.338,0.72,1.932,0.228C188.885,88.4,188.984,87.501,188.511,86.883z"/>
							<path id="XMLID_00000085955872992772627960000004665688519169026712_" style="fill:#263238;" d="M187.293,91.55
								c0.093,0.644,0.607,0.637,1.227,0.545c0.619-0.091,1.11-0.232,1.017-0.876c-0.093-0.644-0.671-1.092-1.29-1.001
								C187.626,90.31,187.2,90.906,187.293,91.55z"/>
							<path style="fill:#F28F8F;" d="M189.046,95.031l3.594,1.574l1.071-7.038C192.377,89.098,190.677,92.339,189.046,95.031z"/>
							<path style="fill:#B16668;" d="M189.732,86.274c-0.073-0.135-0.168-0.257-0.282-0.36c-0.215-0.194-0.507-0.333-0.801-0.306
								c-0.135,0.012-0.052,0.206,0.044,0.22c0.068,0.01,0.133,0.028,0.199,0.047c0.008,0.002,0.009,0.002,0.011,0.003
								c0.002,0.001,0.003,0.002,0.011,0.005c0.015,0.006,0.029,0.011,0.044,0.017c0.012,0.005,0.024,0.01,0.036,0.016
								c0.004,0.002,0.01,0.005,0.015,0.007c0.048,0.026,0.094,0.054,0.139,0.084c0.005,0.003,0.005,0.003,0.007,0.004
								c0.001,0.001,0.001,0.002,0.006,0.005c0.012,0.01,0.024,0.019,0.035,0.029c0.021,0.018,0.042,0.037,0.062,0.057
								c0.006,0.006,0.013,0.013,0.019,0.019c0.001,0.001,0.018,0.02,0.019,0.022c0.018,0.021,0.035,0.043,0.052,0.066
								c0.015,0.021,0.029,0.042,0.043,0.064c0.002,0.004,0.011,0.019,0.013,0.023c0.006,0.011,0.012,0.022,0.018,0.034
								c0.012,0.025,0.024,0.05,0.034,0.076c0.006,0.014,0.011,0.028,0.016,0.042c0.001,0.003,0.014,0.039,0.008,0.024
								c-0.005-0.016,0.006,0.021,0.007,0.024c0.004,0.014,0.008,0.029,0.011,0.043c0.015,0.063,0.026,0.127,0.052,0.187
								c0.016,0.037,0.046,0.069,0.081,0.093c0.028,0.032,0.086,0.073,0.125,0.037C189.922,86.701,189.82,86.437,189.732,86.274z"/>
							<path style="fill:#B16668;" d="M195.852,86.064c-0.148,0.046-0.272,0.162-0.376,0.274c-0.094,0.101-0.178,0.211-0.249,0.328
								c-0.073,0.118-0.135,0.242-0.181,0.373c-0.024,0.069-0.049,0.141-0.059,0.214c-0.004,0.033-0.003,0.068-0.004,0.101
								c0,0.022-0.003,0.047-0.001,0.069c0.004,0.044,0.029,0.083,0.04,0.126c0.017,0.063,0.134,0.165,0.185,0.076
								c0.026-0.046,0.059-0.083,0.078-0.133c0.015-0.038,0.03-0.076,0.045-0.115c0.025-0.061,0.041-0.124,0.064-0.186
								c0.044-0.116,0.096-0.232,0.158-0.339c0.06-0.103,0.131-0.199,0.209-0.289c0.089-0.103,0.219-0.195,0.279-0.317
								C196.092,86.14,195.946,86.035,195.852,86.064z"/>
						</g>
						<path style="fill:#B16668;" d="M192.585,100.462c0.588,0.388,0.945-0.202,1.971-0.631c1.026-0.429,1.996,0.076,1.857-0.777
							c-0.147-0.901-1.735-1.418-2.76-0.989C192.627,98.494,191.917,100.022,192.585,100.462z"/>
						<path style="fill:#F28F8F;" d="M194.477,99.747c-0.1,0.042-0.189,0.093-0.277,0.145c-0.068-0.677,0.403-1.295,1.083-1.395
							c0.359-0.053,0.616,0.001,0.882,0.207c0.054,0.075,0.11,0.191,0.133,0.277C196.515,99.818,195.502,99.318,194.477,99.747z"/>
					</g>
				</g>
			</g>
		</g>
	</g>
	<g id="Bolts_00000140706401325056241480000004604789431390188961_">
		<polygon style="fill:#BA68C8;" points="174.613,81.986 172.262,81.899 169.136,76.79 171.254,83.9 173.612,84.04 176.411,89.393 
					"/>
		<polygon style="fill:#BA68C8;" points="166.299,86.616 163.94,88.326 156.988,85.731 164.485,91.048 166.892,89.384 
			173.711,92.467 		"/>
		<polygon style="fill:#BA68C8;" points="166.295,98.886 165.309,97.314 160.587,97.189 166.28,95.837 167.304,97.393 
			172.064,97.198 		"/>
	</g>
</g>
<g id="Character_1">
	<g id="Chartacter_00000084532021661885363560000005884965094351700877_">
		<g id="Bottom_00000041278200360555756350000003824176448148649099_">
			<g>
				<polygon points="89,312.594 92.676,311.356 91.605,308.769 89.287,310.806 				"/>
				<path style="fill:#263238;" d="M85.559,305.671c0,0-0.25,2.428-0.316,3.194c-0.066,0.766,2.99,3.299,3.757,3.729l0.287-1.787
					c0.645,0.734,1.012,1.645,1.683,2.991c0.56,1.123,1.245,3.228,2.856,4.717c2.391,2.21,6.214,3.454,10.155,3.788
					c3.941,0.334,6.245-0.564,7.406-1.397c1.161-0.833,1.562-1.853,1.327-2.904C112.479,316.951,85.559,305.671,85.559,305.671z"/>
				<path style="fill:#37474F;" d="M112.075,315.773c0,0-6.862-7.057-9.141-9.892c-1.742-2.167-2.622-4.65-2.808-6.995H85.683
					c-0.072,0.937-0.172,1.825-0.276,2.51c-0.226,1.488-0.415,3.514,0.481,4.886c0.362,0.554,0.838,1.026,1.318,1.469
					c0.981,0.905,2.115,1.679,2.971,2.721c1.216,1.481,2.064,4.574,3.574,6.605c1.51,2.031,7.118,3.961,10.307,4.296
					c6.426,0.675,10.783-2.742,8.493-5.128C112.406,316.095,112.244,315.936,112.075,315.773z"/>
			</g>
			<g>
				<path style="fill:#263238;" d="M68.079,320.667c-0.645,5.906-2.991,10.146-5.012,10.985c-2.021,0.839-6.058,0.189-7.673-3.253
					c-1.615-3.442-1.737-6.937-1.581-10.474L68.079,320.667z"/>
				<path style="fill:#37474F;" d="M57.01,298.886c-0.179,2.12-0.328,3.69-0.421,4.305c-0.777,5.105-2.003,8.598-2.567,12.34
					c-0.357,2.367-0.45,6.274,1.157,10.437c1.369,3.545,4.5,4.884,6.05,4.913c1.55,0.029,3.166-0.61,5.172-4.786
					c2.503-5.211,2.224-10.967,2.478-15.414c0.254-4.447,0.339-6.642,1.343-10.48c0.095-0.361,0.208-0.805,0.337-1.315H57.01z"/>
			</g>
			<g>
				<g>
					<path style="fill:#263238;" d="M102.668,202.615c-0.131-0.335-0.502-0.574-1.085-0.636c-1.164-0.124-2.72,0.5-3.475,1.395
						c-0.378,0.448-0.481,0.877-0.344,1.21c0.111,0.269,13.637,33.969,14.089,35.088c0.001,0.002,0.001,0.005,0.002,0.007
						c0.001,0.003,0.003,0.004,0.004,0.007c0.002,0.005,0.006,0.015,0.007,0.017c0.003,0.008,0.01,0.014,0.014,0.021
						c0.519,1.213,1.998,1.764,3.335,1.227c1.343-0.539,2.032-1.97,1.555-3.209c-0.003-0.007-0.002-0.014-0.004-0.02
						c0-0.001-0.003-0.008-0.004-0.011c0,0,0,0,0-0.001c0,0,0,0,0,0C116.513,237.102,102.775,202.888,102.668,202.615z"/>
					<g>
						<path style="fill:#455A64;" d="M98.108,203.374c-0.755,0.895-0.423,1.721,0.741,1.846c1.164,0.124,2.72-0.5,3.475-1.395
							c0.755-0.895,0.423-1.722-0.741-1.846C100.419,201.855,98.863,202.479,98.108,203.374z"/>
					</g>
				</g>
				<path id="XMLID_00000161618446561004051710000001390289615349975452_" style="fill:#455A64;" d="M63.163,206.106
					c-2.148,22.415-3.129,51.497-3.129,51.497c-0.31,1.764-1.827,6.853-2.35,15.511c-0.564,9.32-0.96,29.588-0.96,29.588
					s6.637,4.588,12.979,1.76c0,0,3.6-19.107,6.358-32.518c2.205-10.722,6.739-26.697,6.739-26.697l1.77,14.482
					c0,0-0.904,6.596-0.576,12.732c0.292,5.452,1.707,26.706,1.707,26.706s8.456,5.7,14.581-0.02c0,0,2.663-33.678,3.051-40.231
					c0.944-15.925,0.486-36.485,0.035-52.219L63.163,206.106z"/>
				<path id="XMLID_00000016069318659197669340000008094425618781365139_" style="fill:#37474F;" d="M82.799,245.247l3.803-20.015
					c0,0,5.791-0.667,9.112-3.307c0,0-1.889,4.495-7.666,5.483L83.84,244.16l0.728,15.569L82.799,245.247z"/>
				<path style="fill:#37474F;" d="M101.393,243.68l-0.708-14.71c0.007,0.062,0,0,0,0l0.25,14.727
					c0.139,5.254,0.249,10.507-0.109,15.741l-1.018,15.738l-0.463,7.874l-0.399,7.879l0.693-7.857l0.63-7.861l1.154-15.734
					C101.733,254.211,101.632,248.933,101.393,243.68z M70.338,266.365l-2.402,16.127l-1.155,8.072l-1.09,8.083l1.388-8.034
					l1.324-8.045c0.855-5.368,1.72-10.734,2.521-16.112c0.762-5.384,1.497-10.776,2.031-16.192
					c0.549-5.414,0.961-10.84,1.262-16.272c-0.538,5.413-1.068,10.824-1.708,16.22C71.865,255.607,71.151,260.992,70.338,266.365z"
					/>
				<path style="fill:#263238;" d="M85.242,295.887c3.78,1.956,11.117,2.784,15.478,0l-0.242,4.187
					c-3.757,3.186-10.657,3.547-15.237-0.084V295.887z"/>
				<path style="fill:#263238;" d="M56.526,299.807c3.506,2.443,9.285,4.182,13.956,2.001l-0.759,4.12
					c-4.121,2.66-9.309,2.34-13.4-1.87L56.526,299.807z"/>
			</g>
		</g>
		<g id="Top">
			<g>
				<path style="fill:#B16668;" d="M95.471,170.656c0,0,10.565,13.749,13.432,17.476c2.867,3.727,4.587,4.229,7.67,3.369
					c3.082-0.86,13.631-3.899,13.631-3.899l4.46-12.026l-17.231,1.951c0,0-9.597-13.363-12.404-16.848
					c-2.808-3.484-4.685-4.995-6.473-5.979L95.471,170.656z"/>
				<path style="fill:#455A64;" d="M98.277,154.298c2.331,0.959,4.334,1.927,11.074,11.333c2.189,3.056,4.141,5.781,4.141,5.781
					c0,4.669-5.096,8.916-9.47,10.648l-9.202-11.41L98.277,154.298z"/>
			</g>
			<g id="Head_00000081616254269766918830000012115048859281250747_">
				<g id="Head_00000051365441601913279550000010663101701065581734_">
					<g id="Head_00000077284439280200359960000006882243457176671650_">
						<g>
							<g>
								<g id="XMLID_00000062907069643048250930000005422961376248415388_">
									<g id="XMLID_00000066514286945515618070000009224376351213840028_">
										<path style="fill:#37474F;" d="M67.2,124.15c1.055-2.762,3.365-3.666,3.365-3.666c0.65-2.943,4.065-6.137,12.101-5.796
											c5.956,0.252,7.991,2.519,9.903,6.081c1.913,3.562,1.162,9.374,1.162,9.374c-8.022,6.787-17.16,14.193-20.6,13.698
											c-1.19-2.846-2.957-4.458-3.809-6.356c-1.58-3.522-2.062-5.24-2.297-6.088C66.185,128.37,66.424,126.182,67.2,124.15z"/>
										<path style="fill:#B16668;" d="M70.723,140.184c1.817,1.327,2.971-0.02,2.971-0.02c-0.093,2.359-0.073,3.431-0.562,3.677
											l0.019,4.952c0,0,2.201,2.168,4.943,3.97c4.578,3.011,7.09,4.227,9.579,6.61c0.366-4.01-0.239-8.841-0.877-10.941
											l-0.02-1.382c0,0,0.284,0.016,1.746-0.151c2.438-0.272,4.231-1.134,5.154-3.695c1.388-3.848,1.246-11.146-0.003-17.592
											c-0.254-1.31-0.458-2.037-1.136-2.821c-2.021-2.335-3.419,1.465-5.961,1.678c-3.844,0.322-11.484-3.891-10.243,2.462
											c0.733,4.432,0.186,5.916,0.196,6.576c0.01,0.66-0.275,1.264-0.667,1.304c-1.108,0.113-0.785-1.397-1.494-2.21
											c-0.716-0.807-4.003-1.667-5.261,0.869C67.987,135.729,69.102,139,70.723,140.184z"/>
										<path id="XMLID_00000085957474146666879520000013877670877610425233_" style="fill:#263238;" d="M92.466,128.333
											l-2.373-0.675c0.163-0.668,0.826-1.058,1.482-0.871C92.23,126.974,92.629,127.666,92.466,128.333z"/>
										<path id="XMLID_00000092440092237025087080000002177009759760128185_" style="fill:#263238;" d="M82.81,128.118
											l-2.191,1.133c-0.339-0.598-0.122-1.336,0.483-1.65C81.707,127.289,82.472,127.52,82.81,128.118z"/>
										<path id="XMLID_00000037672352951145598600000007191405381860924068_" style="fill:#9A4A4D;" d="M85.527,139.058
											l2.403,0.558c-0.13,0.675-0.774,1.097-1.438,0.943C85.829,140.405,85.397,139.733,85.527,139.058z"/>
										<path style="fill:#9A4A4D;" d="M90.33,144.074c-0.017-0.086-0.046-0.163-0.075-0.246c-0.029-0.084-0.086-0.17-0.182-0.185
											c-0.084-0.013-0.14,0.04-0.143,0.125c-0.002,0.045-0.016,0.091-0.019,0.137c-0.001,0.027-0.003,0.055-0.005,0.082
											c-0.005,0.06-0.013,0.119-0.017,0.179c-0.007,0.109-0.015,0.216-0.036,0.323c-0.042,0.219-0.106,0.434-0.101,0.66
											c0.002,0.076,0.049,0.153,0.11,0.195c0.046,0.032,0.134,0.066,0.183,0.017c0.218-0.216,0.278-0.503,0.304-0.796
											c0.01-0.117,0.016-0.238,0.002-0.355C90.346,144.165,90.339,144.119,90.33,144.074z"/>
										<path style="fill:#263238;" d="M81.557,132.021c0.012,0.634,0.536,1.138,1.17,1.126c0.634-0.012,1.139-0.536,1.126-1.17
											c-0.012-0.634-0.536-1.139-1.17-1.127C82.049,130.863,81.545,131.387,81.557,132.021z"/>
										<path style="fill:#263238;" d="M90.201,131.43c0.012,0.634,0.536,1.139,1.17,1.126c0.634-0.012,1.138-0.536,1.126-1.17
											c-0.012-0.634-0.536-1.139-1.17-1.126C90.694,130.272,90.189,130.796,90.201,131.43z"/>
									</g>
									<g id="XMLID_00000018239019130800763960000001431834396011761331_">
										<g>
											<path style="fill:#9A4A4D;" d="M93.75,130.389c-0.002,0.001-0.005,0.002-0.008,0.003
												c0.017-0.011,0.034-0.022,0.051-0.033C93.781,130.372,93.767,130.382,93.75,130.389z"/>
											<polygon style="fill:#9A4A4D;" points="93.735,130.396 93.74,130.392 93.742,130.391 											"/>
										</g>
									</g>
								</g>
							</g>
						</g>
					</g>
					<path style="fill:#9A4A4D;" d="M75.025,141.341c0.526,1.779,4.737,4.898,11.75,5.71l0.02,1.382c0,0-5.071-0.426-8.024-2.086
						C75.595,144.561,75.053,143.27,75.025,141.341z"/>
				</g>
				<g>
					<g>
						<path style="fill:#9A4A4D;" d="M85.805,129.656c2.84,0.003,5.362,6.197,5.362,6.197l-4.316,1.375L85.805,129.656z"/>
					</g>
				</g>
			</g>
			<g>
				<path style="fill:#37474F;" d="M68.975,150.706c-3.128,1.309-7.759,3.578-10.616,5.344c0,0,1.276,20.224,2.078,26.91
					c1.83,15.247,1.703,20.787,1.703,20.787s9.235,7.193,30.497,4.873c11.672-1.274,10.633-7.195,10.633-7.195
					s0.67-11.292,0.047-25.724c-0.565-13.079-1.768-18.312-3.771-20.897c-3.27-1.249-11.31-3.939-11.31-3.939
					s-0.593,6.477-0.564,8.51C84.835,155.486,68.975,150.706,68.975,150.706z"/>
				<path style="fill:#263238;" d="M93.689,197.4c-0.049-3.059-0.188-6.117-0.417-9.169c-0.455-6.071-1.25-12.13-2.447-18.101
					c-0.668-3.331-1.383-6.663-2.445-9.893c-0.041-0.123-0.261-0.174-0.227,0.004c0.574,3.015,1.329,5.993,1.917,9.006
					c0.583,2.988,1.099,5.988,1.52,9.002c0.834,5.975,1.332,11.997,1.474,18.029c0.04,1.687,0.052,3.374,0.037,5.061
					c-0.015,1.712-0.087,3.423-0.039,5.135c0.006,0.211,0.382,0.353,0.41,0.091C93.793,203.533,93.737,200.445,93.689,197.4z"/>
				<path style="fill:#455A64;" d="M73.144,146.253l0.055,1.64c0.2,0.93,1.836,1.906,7.845,5.791
					c4.329,2.799,6.629,5.689,6.629,5.689s-3.154-2.755-5.057-2.042c-2.092,0.784-4.201,2.482-5.2,2.472
					c-0.971-0.01-2.413-2.747-5.071-5.455c-2.233-2.275-3.371-3.643-3.371-3.643S71.653,147.252,73.144,146.253z"/>
				<path style="fill:#455A64;" d="M87.673,159.374c1.772-4.603,3.771-3.466,5.243-3.488c0.738-0.011-3.467-5.791-6.12-7.453
					L87.673,159.374z"/>
				<polygon style="fill:#263238;" points="85.73,168.347 74.411,169.745 74.621,171.957 85.94,170.559 				"/>
			</g>
			<g id="Shield_00000111909941023679602900000012796547050220586369_">
				<g>
					<path style="fill:#EBEBEB;" d="M101.462,161.662c-0.003-0.081-0.028-0.134-0.068-0.159c0-0.001,0.001-0.001,0.001-0.001
						l-0.006-0.004c-0.042-0.023-0.322-0.214-0.361-0.24c0-0.001,0.001-0.001,0.001-0.001l-0.006-0.004
						c-0.042-0.023-0.1-0.016-0.167,0.025c-0.669,0.413-1.64,0.393-2.413-0.031c-0.109-0.088-0.211-0.185-0.304-0.292
						c-0.005-0.005-0.009-0.011-0.014-0.016l-0.001,0c-0.026-0.029-0.052-0.051-0.077-0.067c0,0-0.341-0.229-0.366-0.244
						l-0.013-0.008c-0.083-0.048-0.153-0.022-0.192,0.084c-0.543,1.5-1.849,2.906-2.777,3.168c-0.069,0.02-0.131,0.056-0.178,0.106
						c-0.062,0.064-0.096,0.15-0.085,0.246c0.172,2.058,1.632,5.524,3.968,6.958c0.14,0.102,0.284,0.198,0.43,0.285
						C101.67,168.897,101.666,164.101,101.462,161.662z"/>
					<path style="fill:#E0E0E0;" d="M98.401,171.179c-2.333-1.435-3.791-4.898-3.964-6.955c-0.006-0.056,0.004-0.107,0.024-0.154
						l0.365,0.244c-0.021,0.046-0.029,0.098-0.023,0.154C94.966,166.416,96.281,169.624,98.401,171.179z"/>
				</g>
				<path id="XMLID_00000101070743158562837580000000001956365547168671_" style="fill:#FAFAFA;" d="M101.462,161.662
					c0.204,2.439,0.208,7.235-2.626,9.805c-2.374-1.409-3.858-4.922-4.032-6.999c-0.011-0.096,0.023-0.182,0.085-0.246
					c0.047-0.05,0.109-0.086,0.178-0.106c0.928-0.262,2.234-1.669,2.777-3.168c0.039-0.106,0.109-0.132,0.192-0.084l0,0l0.013,0.008
					c0.025,0.016,0.051,0.038,0.077,0.067l0.001,0c0.005,0.005,0.009,0.01,0.014,0.016c0.785,0.903,2.197,1.114,3.082,0.568
					c0.067-0.041,0.125-0.049,0.167-0.025l0.006,0.004c0,0-0.001,0-0.001,0.001C101.434,161.528,101.459,161.581,101.462,161.662z"
					/>
				<path style="fill:#F0F0F0;" d="M98.036,160.864c-0.083-0.048-0.153-0.022-0.192,0.084c-0.543,1.499-1.85,2.906-2.777,3.168
					c-0.069,0.02-0.131,0.056-0.178,0.106c-0.062,0.064-0.096,0.15-0.085,0.246c0.174,2.077,1.658,5.59,4.032,6.999
					C99.898,166.046,98.036,160.864,98.036,160.864z"/>
			</g>
			<g>
				<path style="fill:#263238;" d="M91.303,207.461c-7.848,0.701-16.425,0.157-29.176-5.024l-0.238,4.271
					c12.751,5.181,21.566,5.975,29.414,5.274s11.268-3.379,12.069-4.964l-0.158-4.724C102.324,203.825,99.152,206.76,91.303,207.461
					z"/>
				<path style="fill:#BA68C8;" d="M96.57,210.038c-0.222,1.676-2.572,3.04-5.247,3.048c-2.676,0.007-4.665-1.345-4.442-3.021
					c0.222-1.676,2.572-3.04,5.247-3.048C94.803,207.01,96.792,208.363,96.57,210.038z"/>
				<g>
					<path style="fill:#455A64;" d="M57.9,205.644c0.398-2.575,0.799-3.782,2.172-3.35c1.373,0.432,5.436,2.134,7.267,2.943
						c1.831,0.808,2.117,1.257,1.659,4.781L57.9,205.644z"/>
					<path style="fill:#37474F;" d="M69.191,208.669c-0.43,0.292-2.122,0.142-6.215-1.422c-3.387-1.295-4.992-2.163-4.992-2.163
						s-1.827,9.3-0.827,11.382c1.427,2.969,1.422,6.055,1.238,8.178c-0.184,2.124,0.9,3.092,2.08,4.07
						c1.18,0.977,3.06,0.266,5.113-0.694c2.052-0.96,2.439-3.419,3.006-9.983C69.162,211.474,69.191,208.669,69.191,208.669z"/>
					<path d="M65.298,210.185c0.004-0.088-0.149-0.259-0.179-0.108c-0.52,2.591-0.817,5.242-1.136,7.865
						c-0.312,2.564-0.583,5.128-0.85,7.697c-0.125,1.198-0.37,2.425-1.272,3.296c-0.038,0.037-0.018,0.186,0.052,0.148
						c0.844-0.458,1.236-1.372,1.452-2.265c0.299-1.231,0.431-2.523,0.588-3.778c0.341-2.733,0.678-5.467,0.949-8.207
						C65.054,213.284,65.226,211.739,65.298,210.185z"/>
				</g>
			</g>
			<g>
				<g>
					<g id="Writting_Hand_2_">
						<g id="XMLID_00000152233250630491421820000013201266319335012797_">
							<g id="XMLID_00000173144799813624036860000000093882761497236666_">
								<path id="XMLID_00000134234011446379951930000018207586027699047298_" style="fill:#FFA8A7;" d="M109.183,176.137l4.5,2.363
									c0.131,0.069,0.1,0.264-0.046,0.289l-5.038,0.867L109.183,176.137z"/>
								<path id="XMLID_00000039853011442358644200000009442130737027200927_" style="fill:#263238;" d="M113.637,178.789
									c0.146-0.025,0.177-0.221,0.046-0.289l-0.879-0.461l0,0c0.107,0.303,0.035,0.639-0.185,0.873l-0.06,0.063L113.637,178.789z"
									/>
								<path id="XMLID_00000113352065097740160120000017609984353799657859_" style="fill:#BA68C8;" d="M84.615,175.874
									l0.465,0.073l0.561,0.09l22.959,3.619c0.484-0.307,0.785-0.825,0.928-1.377c0.22-0.839,0.076-1.756-0.344-2.141
									l-22.947-3.616l-1.072-0.169C85.852,172.502,85.307,176.013,84.615,175.874z"/>
								<path id="XMLID_00000164477561073445319620000000392556218492254354_" style="fill:#EBEBEB;" d="M86.383,176.158
									l1.038,0.161c0.299,0.057,0.593-0.554,0.775-1.284c0.245-0.968,0.157-2.167-0.239-2.243l-0.765-0.12l-0.274-0.038
									c0.397,0.076,0.485,1.274,0.24,2.243c-0.176,0.699-0.456,1.291-0.742,1.283l-0.003,0
									C86.403,176.162,86.394,176.161,86.383,176.158z"/>
								<path id="XMLID_00000039127142354708097890000011109964690943887790_" style="fill:#BA68C8;" d="M86.643,176.197
									c0.695,0.133,1.23-3.391,0.535-3.524l-1.038-0.165c0.695,0.133,0.159,3.657-0.535,3.524L86.643,176.197z"/>
								<path id="XMLID_00000158741329733885758330000004585766245389449127_" style="fill:#EBEBEB;" d="M84.615,175.874
									l1.025,0.163c0.681,0.136,1.227-3.26,0.596-3.515c-0.01-0.006-0.024-0.009-0.038-0.012l-1.034-0.156
									C85.852,172.502,85.307,176.013,84.615,175.874z"/>
								<path id="XMLID_00000037686518815161353340000002528882686180204963_" style="opacity:0.15;" d="M113.76,178.672
									l-0.077-0.173l-4.061-0.724l-24.119-3.798c0.008-0.066-0.012-0.086-0.055-0.071c-0.105,0.979-0.446,2.045-0.833,1.968
									l0.465,0.073l0.561,0.09l22.959,3.619l0.001-0.001l5.038-0.867C113.705,178.777,113.747,178.728,113.76,178.672z"/>
								<path id="XMLID_00000101820708159716444060000004324975083111447185_" style="fill:#FFA8A7;" d="M82.402,175.508
									l2.213,0.367c0.296,0.06,0.59-0.544,0.775-1.266c0.248-0.968,0.168-2.17-0.226-2.254c-0.001-0.002-0.001-0.002-0.005-0.002
									l-2.228-0.367c-0.869-0.134-1.359,1.594-1.16,2.702C81.844,175.102,82.042,175.42,82.402,175.508z"/>
							</g>
							<path id="XMLID_00000086656167902941740760000008025566539813804672_" style="fill:#F28F8F;" d="M83.323,174.726
								c0.369-0.809,0.354-1.905-0.033-2.448c-0.142-0.199-0.315-0.296-0.494-0.299c-0.783,0.056-1.212,1.658-1.023,2.707
								c0.07,0.407,0.263,0.719,0.61,0.814C82.71,175.55,83.073,175.275,83.323,174.726z"/>
						</g>
						<path style="fill:#9A4A4D;" d="M95.725,174.02c1.043-0.779,1.9-0.733,3.041-0.55c1.141,0.183,2.494-0.283,2.79,0.123
							c0.296,0.406-0.055,1.336-0.055,1.336L95.725,174.02z"/>
					</g>
					<g>
						<path style="fill:#B16668;" d="M63.741,193.592c-1.492-3.285-4.159-8.699-7.352-17.641c-2.69-7.534-4.566-15.885,1.978-19.373
							c5.901,2.152,8.782,6.507,11.171,13.466l4.811,14.719c4.446-1.409,9.766-1.991,14.952-4.588
							c0.802-0.402,1.149-1.064,1.69-1.994c0.26-0.447,0.768-1.006,0.993-1.141l1.026,0.161c0.586-0.172,1.194-0.304,1.743-0.495
							c1.277-0.444,3.016-1.183,4.308-1.601c2.8-0.906,4.943-1.552,7.883-1.436c0.559,0.022,1.293,0.161,2.03,0.266
							c0.549,0.078,0.277,0.779,0.085,1.056c-0.253,0.363-0.616,0.646-0.989,0.877c-0.502,0.311-1.102,0.432-1.667,0.605
							c-0.153,0.047-0.315,0.1-0.414,0.226c-0.094,0.12-0.111,0.285-0.087,0.435c0.024,0.15,0.083,0.292,0.129,0.437
							c0.226,0.718,0.09,1.54-0.356,2.146c-0.184,0.251-0.416,0.464-0.61,0.706c-0.269,0.336-0.321,0.683-0.44,1.079
							c-0.14,0.466-0.255,0.939-0.404,1.402c-0.509,1.582-0.915,1.818-2.751,3.117c-1.836,1.299-3.583,1.165-6.397,2.47
							c-2.815,1.305-12.535,7.073-17.174,9.037C69.269,201.182,66.418,199.486,63.741,193.592z"/>
					</g>
				</g>
				<path style="fill:#455A64;" d="M58.359,156.05c0,0-4.326,2.141-4.855,6.802c-0.544,4.783,1.086,8.864,1.795,11.172
					c0.942,3.067,4.741,12.754,4.741,12.754s5.202,2.802,13.79-5.178c0,0-2.926-9.925-4.279-13.334
					C66.376,160.269,62.094,156.561,58.359,156.05z"/>
				<g>
					<polygon style="fill:#BA68C8;" points="62.84,180.8 59.684,181.733 57.9,175.76 61.056,174.827 					"/>
					<polygon style="fill:#FAFAFA;" points="65.996,179.867 62.84,180.8 61.056,174.827 64.212,173.894 					"/>
					<polygon style="fill:#BA68C8;" points="69.152,178.934 65.996,179.867 64.212,173.894 67.368,172.961 					"/>
				</g>
			</g>
			<g>
				<g id="XMLID_4708_">
					<polygon style="fill:#BA68C8;" points="141.261,159.275 115.369,166.312 106.205,195.825 106.724,196.466 131.376,189.28 
						141.78,159.916 					"/>
					<polygon style="opacity:0.35;" points="115.888,166.954 106.723,196.466 106.205,195.825 115.369,166.312 					"/>
					<polygon id="XMLID_00000160908498560914486270000015641410147288788415_" style="opacity:0.25;" points="141.779,159.916 
						115.888,166.954 106.723,196.466 131.376,189.28 					"/>
					<g id="XMLID_4872_" style="opacity:0.1;">
						<path id="XMLID_5072_" d="M133.724,165.505c0,0,0.126-0.444,0.282-0.991c0.156-0.547-1.346-0.365-3.356,0.408l-4.656,1.042
							c-2.009,0.773-3.895,1.32-4.051,1.867l-0.282,0.991L133.724,165.505z"/>
					</g>
					<g id="XMLID_4746_">
						<path id="XMLID_4749_" style="fill:#37474F;" d="M135.56,161.062c0.099-0.342-0.482-0.314-1.304-0.159l-1.49,0.387
							c0,0,0.7-1.416-2.808-0.739c-3.86,0.745-4.081,2.628-4.081,2.628s-0.448,0.181-1.867,0.528
							c-1.286,0.315-1.444,0.551-1.572,0.896l-0.233,0.625l13.196-3.579C135.402,161.65,135.461,161.404,135.56,161.062z"/>
					</g>
					<g id="XMLID_4739_">
						<path id="XMLID_4743_" style="fill:#37474F;" d="M134.066,162.893c-1.231,0.452-1.745,0.679-1.987,1.523
							c-0.276,0.964-0.349,1.369-0.349,1.369l-6.893,2.148c0,0,0.469-1.414,0.594-1.888c0.124-0.474-0.761-0.544-1.961-0.093
							l0.365-1.181l10.702-3.103L134.066,162.893z"/>
					</g>
					<g id="XMLID_4722_">
						<path id="XMLID_4737_" style="fill:#37474F;" d="M134.068,165.547c0,0,0.127-0.444,0.283-0.991
							c0.156-0.548-1.346-0.365-3.356,0.408l-4.656,1.042c-2.009,0.773-3.895,1.32-4.051,1.867l-0.282,0.991L134.068,165.547z"/>
					</g>
				</g>
				<path style="fill:#B16668;" d="M135.387,177.949c-0.343,0.956-1.223,2.163-1.738,2.942c-0.494,0.748-0.49,1.658,0.017,1.916
					l-1.708,4.827c0,0,0.658,0.14,2.207-1.44c1.549-1.58,2.741-4.643,3.127-6.317c0.386-1.674,0.759-4.705-0.628-5.522
					L135.387,177.949z"/>
			</g>
			<g id="Hat">
				<g id="Hat_00000089566353492854836530000009423591341394684069_">
					<path style="fill:#37474F;" d="M94.629,125.202c-0.219,0.503-0.491,1.008-0.759,1.492c-0.1-0.412-0.184-0.846-0.297-1.268
						c0,0-0.004-0.035-0.022-0.103c-0.03-0.067-0.053-0.171-0.088-0.284c-0.021-0.092-0.056-0.205-0.09-0.307
						c-0.038-0.149-0.088-0.296-0.126-0.433c-0.019-0.068-0.036-0.125-0.054-0.182c-0.05-0.03-0.111-0.059-0.173-0.088
						c-1.269-0.61-4.102-1.402-7.628-0.916c-3.362,0.469-6.72,1.91-9.827,3.981c-2.657,1.768-4.755,3.738-5.506,5.232
						c-0.451,0.292-0.85,0.754-1.097,1.435c-0.333,0.877-0.333,2.06-0.258,2.577c-4.493-2.37-6.109-7.488-3.624-13.165
						c3.285-7.492,12.561-13.104,20.727-12.547C93.962,111.184,97.914,117.71,94.629,125.202z"/>
					<path style="fill:#BA68C8;" d="M69.17,130.458l-0.812-1.955c0,0,2.614-7.128,11.568-10.339
						c8.777-3.147,12.189,0.529,12.189,0.529l0.731,3.337c0,0-4.453-1.829-12.115,0.892C73.07,125.644,69.17,130.458,69.17,130.458z
						"/>
					<path d="M93.551,125.322c-0.03-0.067-0.053-0.171-0.088-0.284c-0.021-0.092-0.056-0.205-0.09-0.307
						c-0.038-0.149-0.088-0.296-0.126-0.433c-0.019-0.068-0.036-0.125-0.054-0.182c-0.05-0.03-0.111-0.059-0.173-0.088
						c-1.269-0.61-4.102-1.402-7.628-0.916c-3.362,0.469-6.72,1.91-9.827,3.981c-2.657,1.768-4.755,3.738-5.506,5.232l-0.892-1.867
						c0.807-1.289,2.769-3.561,5.717-5.464c9.9-6.391,16.643-3.674,17.957-2.963C93.216,122.931,93.493,124.86,93.551,125.322z"/>
					<path style="fill:#455A64;" d="M74.301,127.982c2.532-2.491,6.315-5.339,11.583-5.775c5.268-0.436,8.199,0.925,9.276,1.605
						c1.076,0.68,0.595,1.508-1.136,1.276c-2.147-0.288-4.082-0.868-8.441-0.475C81.224,125.005,78.087,126.016,74.301,127.982z"/>
				</g>
				<g id="Shield_00000135671178210025986170000009083659172861393280_">
					<g>
						<path style="fill:#EBEBEB;" d="M88.969,115.323c-0.003-0.058-0.023-0.101-0.055-0.126c0-0.001,0.001,0,0.001,0l-0.004-0.004
							c-0.034-0.024-0.263-0.211-0.295-0.237c0-0.001,0.001,0,0.001,0l-0.004-0.004c-0.034-0.024-0.082-0.029-0.137-0.012
							c-0.548,0.173-1.341-0.018-1.971-0.461c-0.089-0.082-0.172-0.17-0.248-0.263c-0.004-0.005-0.008-0.009-0.011-0.014l-0.001,0
							c-0.021-0.025-0.042-0.046-0.063-0.062c0,0-0.278-0.225-0.299-0.241l-0.01-0.008c-0.068-0.049-0.125-0.044-0.157,0.025
							c-0.446,0.971-1.516,1.736-2.274,1.754c-0.056,0.002-0.107,0.016-0.146,0.043c-0.051,0.035-0.079,0.089-0.07,0.16
							c0.138,1.499,1.325,4.236,3.232,5.684c0.114,0.099,0.231,0.193,0.351,0.281C89.128,120.52,89.132,117.099,88.969,115.323z"/>
						<path style="fill:#E0E0E0;" d="M86.453,121.552c-1.905-1.448-3.091-4.183-3.229-5.681c-0.005-0.041,0.003-0.076,0.02-0.105
							l0.298,0.24c-0.017,0.029-0.024,0.064-0.019,0.105C83.654,117.531,84.723,120.058,86.453,121.552z"/>
					</g>
					<path id="XMLID_00000148632600847106492330000010486882651457547937_" style="fill:#FAFAFA;" d="M88.969,115.323
						c0.163,1.776,0.159,5.197-2.161,6.514c-1.938-1.437-3.146-4.212-3.285-5.725c-0.009-0.071,0.019-0.125,0.07-0.16
						c0.038-0.027,0.089-0.042,0.146-0.043c0.759-0.018,1.828-0.783,2.274-1.754c0.032-0.068,0.089-0.074,0.157-0.025l0,0
						l0.01,0.008c0.021,0.016,0.041,0.037,0.063,0.062l0.001,0c0.004,0.004,0.008,0.009,0.011,0.014
						c0.64,0.787,1.794,1.194,2.518,0.965c0.055-0.017,0.102-0.012,0.137,0.012l0.004,0.004c0,0-0.001,0-0.001,0
						C88.946,115.222,88.966,115.264,88.969,115.323z"/>
					<path style="fill:#F0F0F0;" d="M86.17,114.13c-0.068-0.049-0.125-0.044-0.157,0.025c-0.446,0.971-1.516,1.736-2.274,1.754
						c-0.056,0.001-0.107,0.016-0.146,0.043c-0.051,0.035-0.079,0.089-0.07,0.16c0.139,1.513,1.347,4.288,3.285,5.725
						C87.685,118.164,86.17,114.13,86.17,114.13z"/>
				</g>
			</g>
		</g>
	</g>
</g>
<g id="Vehicle_00000149364575852697133110000016370377418694870452_">
	<g id="Vehicle">
		<g>
			<polygon id="XMLID_00000059303173731993182230000003832149686412881305_" style="fill:#263238;" points="441.128,325.066 
				409.025,306.978 426.835,296.696 441.082,304.953 			"/>
			<path style="fill:#263238;" d="M310.582,400.401V380.29l-14.247-8.257l-17.809,10.282l12.205,11.433l19.903,11.493v-4.81
				L310.582,400.401z"/>
			<g id="XMLID_1068_">
				<path id="XMLID_00000124878299921512668960000000928171046417564313_" style="fill:#37474F;" d="M297.384,396.224l4.603-9.145
					l-10.954-6.341l-0.001,0.002c-3.484-2.004-8.123-1.777-13.218,1.165c-10.818,6.247-19.589,22.358-19.59,35.987
					c-0.001,7.137,2.407,12.172,6.252,14.457l-0.003,0.006l0.155,0.089c0.007,0.004,0.015,0.009,0.022,0.013l11.23,6.484
					l4.856-9.646C289.928,422.256,297.028,408.381,297.384,396.224z"/>
				<path id="XMLID_1074_" style="fill:#263238;" d="M297.384,396.224l4.603-9.145l-10.954-6.341l-0.001,0.002
					c-3.484-2.004-8.123-1.777-13.218,1.165c-10.818,6.247-19.589,22.358-19.59,35.987c-0.001,7.137,2.407,12.172,6.252,14.457
					l-0.003,0.006l0.155,0.089c0.007,0.004,0.015,0.009,0.022,0.013l11.23,6.484l4.856-9.646
					C289.928,422.256,297.028,408.381,297.384,396.224z"/>
				<path id="XMLID_1073_" style="fill:#37474F;" d="M308.803,401.85c0,11.75-6.524,25.35-15.257,32.874
					c-0.018,0.009-0.026,0.026-0.035,0.035c-1.385,1.184-2.823,2.227-4.297,3.078c-10.82,6.252-19.598,0.263-19.589-13.364
					c0-10.294,5.007-22.018,12.118-29.822c0.017-0.017,0.044-0.035,0.061-0.061c2.289-2.499,4.788-4.595,7.41-6.103
					C300.034,382.242,308.803,388.223,308.803,401.85z"/>
				<path id="XMLID_1072_" style="fill:#455A64;" d="M289.214,396.711c6.885-3.976,12.466,0.167,12.466,9.253
					c0,9.086-5.581,19.674-12.466,23.649c-6.885,3.975-12.467-0.168-12.467-9.253C276.747,411.275,282.328,400.686,289.214,396.711z
					"/>
				<path id="XMLID_1071_" style="fill:#FAFAFA;" d="M294.846,410.648c-0.473,4.517-3.382,9.309-6.49,10.694
					c-1.368,0.606-2.543,0.456-3.391-0.285c-1.092-0.934-1.65-2.844-1.385-5.382c0.473-4.517,3.374-9.31,6.49-10.694
					c0.842-0.379,1.618-0.465,2.28-0.299c0,0,0.01-0.008,0.009,0.001C294.146,405.126,295.191,407.36,294.846,410.648z"/>
				<path id="XMLID_00000117667763265870715050000017565305777530786489_" style="fill:#E0E0E0;" d="M293.735,410.064
					c-0.473,4.517-3.382,9.309-6.49,10.694c-0.841,0.37-1.61,0.466-2.28,0.299c-1.092-0.934-1.65-2.844-1.385-5.382
					c0.473-4.517,3.374-9.31,6.49-10.694c0.842-0.379,1.618-0.465,2.28-0.299c0,0,0.01-0.008,0.009,0.001
					C293.442,405.625,294,407.535,293.735,410.064z"/>
				<path id="XMLID_1069_" style="fill:#455A64;" d="M308.803,401.85c0,11.75-6.524,25.35-15.257,32.874
					c5.173-5.629,10.531-15.056,12.425-24.044c1.657-7.857,1.035-19.133-5.708-21.983c-6.691-2.832-15.643,3.157-18.458,5.892
					c2.289-2.499,4.788-4.595,7.41-6.103C300.034,382.242,308.803,388.223,308.803,401.85z"/>
			</g>
			<g id="XMLID_00000108277408895100502180000009158093056166712706_">
				<path id="XMLID_00000052826668993195114920000016761792389413196936_" style="fill:#37474F;" d="M427.884,320.888l4.603-9.145
					l-10.954-6.341l-0.001,0.002c-3.484-2.004-8.123-1.777-13.218,1.165c-10.818,6.246-19.589,22.358-19.59,35.987
					c-0.001,7.137,2.407,12.172,6.252,14.457l11.404,6.592l4.856-9.646C420.428,346.919,427.527,333.045,427.884,320.888z"/>
				<path id="XMLID_00000085951123176871251160000006158191764054636200_" style="fill:#263238;" d="M427.884,320.888l4.603-9.145
					l-10.954-6.341l-0.001,0.002c-3.484-2.004-8.123-1.777-13.218,1.165c-10.818,6.246-19.589,22.358-19.59,35.987
					c-0.001,7.137,2.407,12.172,6.252,14.457l11.404,6.592l4.856-9.646C420.428,346.919,427.527,333.045,427.884,320.888z"/>
				<path id="XMLID_00000081607840285405170320000016734853743333544614_" style="fill:#37474F;" d="M439.302,326.513
					c0,11.75-6.524,25.35-15.257,32.874c-0.018,0.009-0.026,0.026-0.035,0.035c-1.385,1.184-2.823,2.227-4.297,3.078
					c-10.82,6.252-19.598,0.263-19.589-13.363c0-10.294,5.007-22.018,12.118-29.822c0.017-0.018,0.044-0.035,0.061-0.062
					c2.289-2.499,4.788-4.595,7.409-6.103C430.534,306.906,439.302,312.887,439.302,326.513z"/>
				<path id="XMLID_00000066507535495731036410000005202395057760991648_" style="fill:#455A64;" d="M419.713,321.374
					c6.885-3.976,12.466,0.167,12.466,9.253c0,9.086-5.581,19.674-12.466,23.649c-6.885,3.975-12.467-0.167-12.467-9.253
					C407.246,335.938,412.828,325.35,419.713,321.374z"/>
				<path id="XMLID_00000055708003457363141390000004449919379065310338_" style="fill:#FAFAFA;" d="M425.346,335.311
					c-0.473,4.517-3.382,9.309-6.49,10.693c-1.368,0.606-2.543,0.457-3.391-0.285c-1.092-0.934-1.651-2.844-1.385-5.382
					c0.473-4.517,3.374-9.31,6.49-10.693c0.842-0.379,1.618-0.465,2.28-0.299c0,0,0.01-0.008,0.009,0.001
					C424.646,329.789,425.69,332.024,425.346,335.311z"/>
				<path id="XMLID_00000070078519483090623480000017939916291384303748_" style="fill:#E0E0E0;" d="M424.234,334.728
					c-0.473,4.517-3.383,9.309-6.49,10.693c-0.841,0.37-1.609,0.466-2.28,0.299c-1.092-0.934-1.651-2.844-1.385-5.382
					c0.473-4.517,3.374-9.31,6.49-10.693c0.842-0.379,1.618-0.465,2.28-0.299c0,0,0.01-0.008,0.009,0.001
					C423.941,330.289,424.499,332.198,424.234,334.728z"/>
				<path id="XMLID_00000031903845087617666690000011380774947680339072_" style="fill:#455A64;" d="M439.302,326.513
					c0,11.75-6.524,25.35-15.257,32.874c5.174-5.63,10.531-15.056,12.425-24.044c1.657-7.857,1.035-19.133-5.708-21.983
					c-6.691-2.832-15.643,3.157-18.458,5.892c2.289-2.499,4.788-4.595,7.409-6.103C430.534,306.906,439.302,312.887,439.302,326.513
					z"/>
			</g>
		</g>
		<g>
			<g>
				<path style="fill:#BA68C8;" d="M179.468,365.874c50.271,29.011,73.124,15.824,115.935-8.902
					c41.498-23.962,87.714-59.391,91.471-62.104l-51.485,32.502c-5.482,3.417-12.309-1.667-10.605-7.898l9.556-34.944
					c2.067-7.072,5.458-8.644,10.259-11.41c9.236-5.285,25.071-13.717,49.453-27.797c21.077-12.153,31.11-17.762,33.478-23.144
					v-0.258c0-0.215,0.011-0.431,0.011-0.646c0-0.484-0.022-0.958-0.054-1.475c-0.377-4.295-2.939-9.484-29.818-25.717
					c-15.189-9.171-28.44-13.639-40.507-13.639c-12.11,0-22.455,4.295-34.264,10.743c-14.845,8.084-65.107,34.272-73.256,41.312
					c-24.974,22.251-41.033,38.985-51.421,51.687l-0.689,0.829c0,0-0.108-0.28-0.108-0.28c0.307,0.797-15.585,11.265-17.132,12.345
					c-8.596,6-17.474,12.906-22.765,22.188c-4.473,7.846-7.901,20.728-1.37,28.168C162.797,354.998,170.766,360.847,179.468,365.874
					z"/>
				<path style="opacity:0.7;fill:#FFFFFF;" d="M179.468,365.874c50.271,29.011,73.124,15.824,115.935-8.902
					c41.498-23.962,87.714-59.391,91.471-62.104l-51.485,32.502c-5.482,3.417-12.309-1.667-10.605-7.898l9.556-34.944
					c2.067-7.072,5.458-8.644,10.259-11.41c9.236-5.285,25.071-13.717,49.453-27.797c21.077-12.153,31.11-17.762,33.478-23.144
					v-0.258c0-0.215,0.011-0.431,0.011-0.646c0-0.484-0.022-0.958-0.054-1.475c-0.377-4.295-2.939-9.484-29.818-25.717
					c-15.189-9.171-28.44-13.639-40.507-13.639c-12.11,0-22.455,4.295-34.264,10.743c-14.845,8.084-65.107,34.272-73.256,41.312
					c-24.974,22.251-41.033,38.985-51.421,51.687l-0.689,0.829c0,0-0.108-0.28-0.108-0.28c0.307,0.797-15.585,11.265-17.132,12.345
					c-8.596,6-17.474,12.906-22.765,22.188c-4.473,7.846-7.901,20.728-1.37,28.168C162.797,354.998,170.766,360.847,179.468,365.874
					z"/>
				<path style="fill:#BA68C8;" d="M152.109,321.724c0.544-0.674,1.11-1.337,1.697-1.99c4.048-4.5,9.149-9.117,13.918-12.843
					c-2.965,4.193-4.903,10.038-6.174,15.013c-1.588,6.22-2.678,12.672-1.96,19.052c0.607,5.393,2.608,10.734,6.249,14.818
					c3.841,4.308,8.616,7.206,13.623,10.098c50.28,29.019,73.127,15.825,115.937-8.895c41.5-23.962,87.716-59.391,91.474-62.104
					l-66.871,42.087l14.331-52.429c2.069-7.079,5.459-8.643,10.263-11.412c9.24-5.286,25.074-13.718,49.45-27.797
					c24.284-14.009,33.313-19.308,33.462-25.595c0.081,0.954,0.058,1.873,0.058,2.839c0,5.804,0.586,8.183-8.528,14.492
					c-5.321,3.701-8.908,6.397-14.838,10.304c-2.046,1.345-1.954,4.379,0.161,5.608l14.929,8.619
					c6.39,3.689,14.412,3.091,20.192-1.506l4.413-5.415l1.712-1.505c0.322-0.253,0.62-0.517,0.908-0.805l0.046-0.035l-2.701-2.54
					c0.184,0.069,1.77,0.69,3.528,1.62c0.643,0.345,1.31,0.724,1.942,1.149c0.885,0.586,1.77,1.115,2.609,2.011
					c1.482,1.574,2.815,4.287,3.678,10.539c0.218,1.609,0.402,3.344,0.563,5.16c0.062,0.711,0.117,1.436,0.171,2.167
					c0.118,1.612,0.212,3.225,0.295,4.844c0.237,4.687,0.359,9.445,0.473,13.559c0.007,0.239,0.014,0.469,0.02,0.703
					c0.052,1.773,0.105,3.424,0.167,4.872v0.035c0.103,8.132-0.092,19.321-11.435,25.872c-2.057,1.184-0.931,0.552-4.746,2.747
					c0-0.919-0.034-1.804-0.126-2.655c-1.253-13.676-11.079-19.215-23.008-12.32c-0.736,0.414-1.471,0.873-2.195,1.379
					c-5.516,3.838-10.47,9.746-14.182,16.492c-2.425,4.425-4.298,9.194-5.482,13.986c-0.46,1.931-0.781,3.85-1.023,5.735
					c-0.391,3.16-0.391,4.183-0.391,4.183c-5.172,2.988-73.256,42.314-84.082,48.566c0-0.931-0.057-1.816-0.126-2.678
					c-1.264-13.676-11.091-19.239-23.02-12.343c-0.736,0.425-1.471,0.896-2.195,1.402c-5.505,3.816-10.47,9.746-14.17,16.492
					c-2.161,3.914-3.877,8.079-5.069,12.39c-1.059,3.832-1.218,5.357-4.561,7.604c-6.935,4.662-15.142,6.572-23.373,7.291
					c-22.346,1.952-43.277-6.779-62.594-17.718c-12.786-7.241-24.516-18.462-29.962-32.17
					C137.533,360.474,138.009,339.178,152.109,321.724z"/>
				<path style="opacity:0.5;fill:#FFFFFF;" d="M152.109,321.724c0.544-0.674,1.11-1.337,1.697-1.99
					c4.048-4.5,9.149-9.117,13.918-12.843c-2.965,4.193-4.903,10.038-6.174,15.013c-1.588,6.22-2.678,12.672-1.96,19.052
					c0.607,5.393,2.608,10.734,6.249,14.818c3.841,4.308,8.616,7.206,13.623,10.098c50.28,29.019,73.127,15.825,115.937-8.895
					c41.5-23.962,87.716-59.391,91.474-62.104l-66.871,42.087l14.331-52.429c2.069-7.079,5.459-8.643,10.263-11.412
					c9.24-5.286,25.074-13.718,49.45-27.797c24.284-14.009,33.313-19.308,33.462-25.595c0.081,0.954,0.058,1.873,0.058,2.839
					c0,5.804,0.586,8.183-8.528,14.492c-5.321,3.701-8.908,6.397-14.838,10.304c-2.046,1.345-1.954,4.379,0.161,5.608l14.929,8.619
					c6.39,3.689,14.412,3.091,20.192-1.506l4.413-5.415l1.712-1.505c0.322-0.253,0.62-0.517,0.908-0.805l0.046-0.035l-2.701-2.54
					c0.184,0.069,1.77,0.69,3.528,1.62c0.643,0.345,1.31,0.724,1.942,1.149c0.885,0.586,1.77,1.115,2.609,2.011
					c1.482,1.574,2.815,4.287,3.678,10.539c0.218,1.609,0.402,3.344,0.563,5.16c0.062,0.711,0.117,1.436,0.171,2.167
					c0.118,1.612,0.212,3.225,0.295,4.844c0.237,4.687,0.359,9.445,0.473,13.559c0.007,0.239,0.014,0.469,0.02,0.703
					c0.052,1.773,0.105,3.424,0.167,4.872v0.035c0.103,8.132-0.092,19.321-11.435,25.872c-2.057,1.184-0.931,0.552-4.746,2.747
					c0-0.919-0.034-1.804-0.126-2.655c-1.253-13.676-11.079-19.215-23.008-12.32c-0.736,0.414-1.471,0.873-2.195,1.379
					c-5.516,3.838-10.47,9.746-14.182,16.492c-2.425,4.425-4.298,9.194-5.482,13.986c-0.46,1.931-0.781,3.85-1.023,5.735
					c-0.391,3.16-0.391,4.183-0.391,4.183c-5.172,2.988-73.256,42.314-84.082,48.566c0-0.931-0.057-1.816-0.126-2.678
					c-1.264-13.676-11.091-19.239-23.02-12.343c-0.736,0.425-1.471,0.896-2.195,1.402c-5.505,3.816-10.47,9.746-14.17,16.492
					c-2.161,3.914-3.877,8.079-5.069,12.39c-1.059,3.832-1.218,5.357-4.561,7.604c-6.935,4.662-15.142,6.572-23.373,7.291
					c-22.346,1.952-43.277-6.779-62.594-17.718c-12.786-7.241-24.516-18.462-29.962-32.17
					C137.533,360.474,138.009,339.178,152.109,321.724z"/>
				<path style="opacity:0.5;fill:#BA68C8;" d="M332.129,202.834l8.709-5.228c2.88-1.782,5.782-3.527,8.644-5.341
					c-3.002,1.571-5.964,3.212-8.947,4.816l-8.882,4.929c-5.913,3.3-9.129,5.154-14.942,8.628
					c-5.814,3.471-11.618,6.96-17.354,10.567c5.991-3.164,11.915-6.446,17.828-9.746C323.1,208.16,326.315,206.305,332.129,202.834z
					 M390.797,226.099l-8.882,4.929c-5.913,3.3-9.129,5.154-14.942,8.628c-5.814,3.471-11.618,6.96-17.354,10.567
					c5.991-3.164,11.915-6.447,17.828-9.746c5.915-3.297,9.13-5.153,14.944-8.624l8.71-5.228c2.88-1.782,5.782-3.527,8.644-5.341
					C396.742,222.854,393.78,224.495,390.797,226.099z M347.208,211.54l8.709-5.228c2.881-1.782,5.782-3.526,8.644-5.341
					c-3.002,1.571-5.964,3.212-8.947,4.815l-8.882,4.929c-5.913,3.3-9.129,5.154-14.942,8.627
					c-5.814,3.471-11.618,6.96-17.354,10.566c5.991-3.164,11.915-6.446,17.828-9.746C338.179,216.866,341.394,215.01,347.208,211.54
					z M367.313,223.146l8.709-5.228c2.881-1.782,5.782-3.527,8.644-5.341c-3.002,1.571-5.964,3.212-8.947,4.816l-8.882,4.929
					c-5.913,3.3-9.129,5.154-14.942,8.628c-5.814,3.471-11.618,6.96-17.354,10.566c5.991-3.164,11.915-6.446,17.828-9.746
					C358.283,228.473,361.498,226.617,367.313,223.146z"/>
			</g>
			<path style="opacity:0.5;fill:#BA68C8;" d="M248.004,338.716c-2.383,1.04-4.747,2.13-7.07,3.301
				c-4.645,2.346-9.145,4.984-13.492,7.852c-4.301,2.93-5.293,3.555-9.222,6.971c-2.001,1.664-3.889,3.457-5.78,5.241
				c-0.955,0.882-1.837,1.84-2.734,2.78l-2.67,2.837c3.833-3.507,7.641-7.018,11.723-10.203c4.021-3.255,4.97-3.869,9.294-6.703
				c4.269-2.92,8.74-5.531,13.276-8.019c4.542-2.478,9.189-4.777,13.985-6.763C252.827,336.762,250.414,337.739,248.004,338.716z
				 M209.089,316.286c-2.099,1.419-4.176,2.872-6.217,4.376c-4.077,3.014-7.998,6.238-11.799,9.595
				c-3.747,3.416-4.381,3.839-7.811,7.575c-1.742,1.842-3.397,3.762-5.049,5.683c-1.636,1.934-3.175,3.95-4.725,5.948
				c3.417-3.738,6.79-7.496,10.384-11.044c3.545-3.592,4.146-4.008,7.936-7.337c3.724-3.405,7.63-6.604,11.58-9.744
				c3.957-3.134,8.003-6.16,12.183-9.014C213.349,313.538,211.221,314.917,209.089,316.286z"/>
		</g>
		<g id="XMLID_1080_">
			<path id="XMLID_1084_" style="fill:#263238;" d="M212.064,268.876L212.064,268.876l-0.813,3.391
				c-1.874,3.51-6.018,7.941-7.505,7.575c-1.328-0.327-2.141-2.261-2.558-4.65v-0.03c-0.198-1.09-0.307-2.28-0.347-3.46
				c-0.129-3.757,1.546-12.522,6.761-14.851c1.189-0.526,2.26-0.109,3.093,0.694c0.694,0.674,1.229,1.606,1.507,2.488
				C213.075,262.67,212.183,268.738,212.064,268.876z"/>
			<path id="XMLID_00000158748667673970719010000006177216099936431548_" style="fill:#455A64;" d="M211.251,272.267
				c-1.874,3.51-6.018,7.941-7.505,7.575c-1.328-0.327-2.141-2.261-2.558-4.65v-0.03c-0.198-1.09-0.307-2.28-0.347-3.46
				c-0.129-3.757,1.546-12.522,6.761-14.851c1.189-0.526,2.26-0.109,3.093,0.694l-0.714,1.616c-3.648,1.556-4.63,7.188-4.293,11.471
				C206.016,274.914,209.159,274.478,211.251,272.267z"/>
			<path id="XMLID_00000072270980535148737790000013661929897054321312_" style="fill:#37474F;" d="M212.195,260.037
				c-1.318-1.398-4.59-1.467-7.346,2.32c-2.756,3.787-3.656,10.284-3.666,12.802c-0.199-1.091-0.307-2.28-0.347-3.46
				c-0.129-3.758,1.542-12.521,6.756-14.851C209.773,255.876,211.57,258.103,212.195,260.037z"/>
		</g>
		<path style="fill:#37474F;" d="M404.363,252.969l14.929,8.619c6.39,3.689,14.856,3.528,20.192-1.506
			c5.336-5.034,7.654-7.22,7.654-7.22c-2.118-3.653-12.369-20.846-19.598-27.374c0,2.937-1.299,5.807-4.636,8.41
			c-5.11,3.987-12.773,9.554-18.703,13.461C402.156,248.706,402.248,251.74,404.363,252.969z"/>
		<g>
			<path style="fill:#BA68C8;" d="M303.489,357.102c-3.192,2.017-6.01,3.805-7.112,4.504c-0.313,0.199-0.503,0.533-0.519,0.903
				l-0.16,3.521c-0.025,0.558,0.586,0.916,1.06,0.62l7.088-4.425c0.316-0.197,0.515-0.536,0.533-0.908l0.175-3.596
				C304.581,357.16,303.964,356.802,303.489,357.102z"/>
			<path style="fill:#37474F;" d="M310.634,400.431v4.81l84.083-48.565v-4.81L310.634,400.431z"/>
			<g style="opacity:0.2;">
				<path d="M369.045,364.387c-0.009,0-0.017,0-0.025-0.001c-0.256-0.013-0.452-0.232-0.437-0.488
					c0.017-0.31,1.677-31.298,0.776-53.277c-0.01-0.255,0.188-0.472,0.445-0.482c0.007-0.001,0.013-0.001,0.019-0.001
					c0.248,0,0.453,0.195,0.464,0.445c0.903,22.024-0.761,53.055-0.778,53.365C369.494,364.196,369.29,364.387,369.045,364.387z"/>
			</g>
			<path style="opacity:0.2;" d="M416.152,300.768c-6.433,2.423-11.978,6.936-16.438,12.11c-4.578,5.309-8.037,11.516-10.388,18.11
				c-1.323,3.709-2.623,7.743-2.708,11.707c-0.008,0.363,0.598,0.692,0.744,0.256c0.58-1.734,0.954-3.521,1.419-5.288
				c0.451-1.715,0.965-3.415,1.539-5.094c1.154-3.379,2.597-6.666,4.323-9.793c3.232-5.854,7.511-11.094,12.676-15.349
				c2.808-2.313,5.915-4.296,9.056-6.123C416.603,301.17,416.411,300.67,416.152,300.768z"/>
		</g>
		<g>
			<path style="fill:#37474F;" d="M334.332,284.525l-14.328,52.437l-9.342,5.395c-10.072,5.803-22.309,6.446-32.913,1.683
				c-12.385-5.568-29.324-13.586-43.195-21.591c-17.521-10.109-30.958-20.688-37.491-26.169c-2.611-2.202-3.465-5.865-2.116-8.995
				c11.742-15.256,31.737-34.336,54.689-54.788c-8.055,6.954,15.924,20.812,32.678,30.475c16.741,9.676,37.132,21.443,47.736,21.752
				C331.511,284.772,332.922,284.698,334.332,284.525z"/>
			<g>
				<path style="fill:#263238;" d="M406.829,281.48l-86.825,55.482l14.328-52.437c8.797-1.076,7.435-0.725,21.318-8.742
					c12.237-7.065,14.641-8.457,24.824-14.334c3.229-1.856,7.189-1.856,10.406,0.012l15.763,9.094
					C410.801,272.955,410.912,278.932,406.829,281.48z"/>
				<g>
					<path d="M330.051,284.723c-1.051-0.03-2.221-0.203-3.451-0.445c0.672,2.422-0.119,5.595-1.574,11.348
						c-2.433,9.618-9.587,33.015-11.551,39.298c-1.952,6.244-7.88,9.658-12.196,11.203c3.25-0.808,6.412-2.058,9.383-3.77
						l9.342-5.395l14.328-52.437C332.922,284.698,331.511,284.772,330.051,284.723z"/>
					<path d="M363.463,309.453l8.413-5.246l-4.597-35.14c-2.053,1.185-4.035,2.33-5.903,3.408L363.463,309.453z"/>
				</g>
			</g>
			<path style="fill:#455A64;" d="M249.684,239.908c-7.913,4.996-22.456,19.617-30.205,28.312
				c-8.997,10.095-12.996,19.411-0.521,11.607c9.715-6.077,34.445-21.476,44.913-27.992
				C257.637,247.722,252.271,243.566,249.684,239.908z"/>
		</g>
		<g>
			<path style="fill:#BA68C8;" d="M453.321,270.275c0.942,0.103,1.931,0.126,2.862-0.012c-0.161-1.816-0.345-3.551-0.563-5.16
				c-0.862-6.252-2.195-8.964-3.678-10.539c-0.069,0.08-0.138,0.138-0.207,0.195c-2.252,1.988-5.309,5.355-6.666,8.275
				c-0.253,0.529-0.425,1.103-0.517,1.701C443.978,268.987,450.39,269.93,453.321,270.275z"/>
			<g>
				<path style="fill:#FFFFFF;" d="M166.545,352.058c12.704,9.335,27.491,17.894,44.523,25.617c2.318,1.051,3.482,3.835,1.981,5.889
					c-2.229,3.049-5.442,5.811-8.426,7.441c-2.233,1.22-6.274,0.841-8.653-0.063c-13.369-5.079-24.519-11.446-33.438-19.106
					c-1.931-1.658-4.187-5.035-4.268-7.579c-0.116-3.629,0.426-8.505,1.672-11.694C160.862,350.192,164.494,350.551,166.545,352.058
					z"/>
				<g>
					<path style="fill:#BA68C8;" d="M200.834,389.013c-1.329,0-2.816-0.251-3.882-0.656c-13.016-4.946-23.992-11.21-32.619-18.619
						c-1.654-1.419-3.26-4.126-3.306-5.569c-0.116-3.655,0.476-7.949,1.446-10.5c0.439-0.9,1.894,0.219,2.436,0.616
						c12.959,9.522,28.105,18.238,45.017,25.907c0.49,0.223,0.882,0.653,0.999,1.098c0.085,0.321-0.014,0.511-0.108,0.641
						c-1.905,2.606-4.786,5.154-7.519,6.647C202.799,388.851,201.878,389.013,200.834,389.013z"/>
					<path style="opacity:0.35;" d="M200.834,389.013c-1.329,0-2.816-0.251-3.882-0.656c-13.016-4.946-23.992-11.21-32.619-18.619
						c-1.654-1.419-3.26-4.126-3.306-5.569c-0.116-3.655,0.476-7.949,1.446-10.5c0.439-0.9,1.894,0.219,2.436,0.616
						c12.959,9.522,28.105,18.238,45.017,25.907c0.49,0.223,0.882,0.653,0.999,1.098c0.085,0.321-0.014,0.511-0.108,0.641
						c-1.905,2.606-4.786,5.154-7.519,6.647C202.799,388.851,201.878,389.013,200.834,389.013z"/>
				</g>
				<g>
					<path style="fill:#FFFFFF;" d="M179.355,381.495l-2.689-0.643c1.969-8.242,6.207-15.741,6.386-16.056l2.403,1.368
						C185.412,366.238,181.229,373.647,179.355,381.495z"/>
				</g>
				<path style="fill:#FFFFFF;" d="M161.135,359.491l-0.277,0.367c0.083,0.063,8.445,6.359,19.12,12.901
					c10.756,6.592,25.147,12.796,27.614,13.631l0.147-0.436c-2.456-0.833-16.795-7.015-27.52-13.588
					C169.563,365.836,161.218,359.553,161.135,359.491z M160.944,361.485l-0.281,0.365c0.076,0.058,7.701,5.918,18.376,12.461
					c11.073,6.787,25.146,12.689,27.174,13.376l0.147-0.436c-2.02-0.684-16.039-6.565-27.08-13.332
					C168.626,367.39,161.019,361.544,160.944,361.485z M160.562,365.476l-0.292,0.356c0.061,0.05,6.215,5.039,16.893,11.584
					c10.676,6.544,23.883,12.05,26.294,12.866l0.147-0.436c-2.401-0.814-15.557-6.299-26.2-12.823
					C166.754,370.497,160.622,365.525,160.562,365.476z M160.753,363.481l-0.286,0.362c0.068,0.054,6.957,5.477,17.635,12.021
					c10.963,6.719,24.632,12.41,26.734,13.122l0.148-0.436c-2.094-0.71-15.711-6.38-26.64-13.079
					C167.69,368.942,160.82,363.534,160.753,363.481z M161.327,357.496l-0.275,0.371c0.091,0.066,9.188,6.798,19.863,13.34
					c10.664,6.536,25.751,13.106,28.053,13.885l0.148-0.436c-2.293-0.777-17.326-7.324-27.96-13.842
					C170.499,364.284,161.417,357.564,161.327,357.496z M183.031,367.711c-10.658-6.532-21.214-14.127-21.32-14.204l-0.27,0.374
					c0.106,0.076,10.676,7.68,21.348,14.222c10.469,6.416,26.415,13.542,28.934,14.395l0.148-0.436
					C209.363,381.213,193.471,374.109,183.031,367.711z M161.519,355.502l-0.272,0.373c0.098,0.071,9.932,7.239,20.605,13.781
					c10.87,6.661,26.445,13.447,28.494,14.141l0.147-0.436c-2.04-0.692-17.56-7.454-28.4-14.097
					C171.436,362.731,161.617,355.574,161.519,355.502z"/>
			</g>
			<g>
				<path id="XMLID_00000005958455274827399740000016160238141914982052_" style="fill:#BA68C8;" d="M254.771,390.89
					c1.861-2.227,3.159-4.943,1.593-7.32c-1.579-2.397-5.262-3.736-7.87-4.491c-8.012-2.318-16.934-1.3-24.217,2.765
					c-1.678,0.936-3.295,2.049-4.494,3.551c-1.199,1.502-1.945,3.441-1.702,5.347c1.133,8.899,14.341,10.063,21.114,8.883
					c4.39-0.765,8.573-2.654,12.078-5.402C252.303,393.417,253.64,392.244,254.771,390.89z"/>
				<path id="XMLID_00000140009522653717874850000014260045729250247072_" style="opacity:0.85;fill:#FFFFFF;" d="M254.771,390.89
					c1.861-2.227,3.159-4.943,1.593-7.32c-1.579-2.397-5.262-3.736-7.87-4.491c-8.012-2.318-16.934-1.3-24.217,2.765
					c-1.678,0.936-3.295,2.049-4.494,3.551c-1.199,1.502-1.945,3.441-1.702,5.347c1.133,8.899,14.341,10.063,21.114,8.883
					c4.39-0.765,8.573-2.654,12.078-5.402C252.303,393.417,253.64,392.244,254.771,390.89z"/>
				<path style="fill:#FFFFFF;" d="M243.276,382.033c2.914,0.007,9.37-0.013,8.831,4.419c-0.479,3.943-6.515,7.157-10.036,7.725
					c-4.419,0.713-6.27-4.866-4.98-8.417C238.041,383.144,241.206,381.796,243.276,382.033z"/>
				<path style="fill:#FFFFFF;" d="M229.853,389.728c2.257-0.099,5.663,0.8,5.804,3.662c0.111,2.269-3.508,2.307-5.155,1.788
					C226.541,393.931,226.801,389.661,229.853,389.728z"/>
				<path style="fill:#FFFFFF;" d="M226.104,384.863c-0.67,0.165-1.205,0.473-1.585,1.139c-0.574,1.005-0.488,2.486,0.801,2.82
					c0.961,0.249,4.753-1.423,5.211-2.179c1.089-1.798-2.825-2.018-3.722-1.906C226.56,384.77,226.325,384.809,226.104,384.863z"/>
				<path id="XMLID_00000006695911331373791890000007315463191559462829_" style="fill:#BA68C8;" d="M147.969,352.818
					c0.504,0.241,1.053,0.402,1.65,0.463c1.52,0.157,3.029-0.554,4.152-1.591c1.122-1.036,1.915-2.374,2.652-3.713
					c3.399-6.172,11.503-22.846-0.026-25.579c-3.675-0.871-7.667,2.632-9.72,5.404c-2.966,4.006-4.333,9.229-3.903,14.179
					C143.069,345.388,144.41,351.115,147.969,352.818z"/>
				<path id="XMLID_00000016792793419221004280000013210879160214248860_" style="opacity:0.85;fill:#FFFFFF;" d="M147.969,352.818
					c0.504,0.241,1.053,0.402,1.65,0.463c1.52,0.157,3.029-0.554,4.152-1.591c1.122-1.036,1.915-2.374,2.652-3.713
					c3.399-6.172,11.503-22.846-0.026-25.579c-3.675-0.871-7.667,2.632-9.72,5.404c-2.966,4.006-4.333,9.229-3.903,14.179
					C143.069,345.388,144.41,351.115,147.969,352.818z"/>
				<path style="fill:#FFFFFF;" d="M151.812,325.658c1.739-0.824,4.697-1.476,6.335-0.153c3.957,3.197-4.164,9.403-6.708,10.604
					c-4.094,1.931-5.963-0.936-4.183-4.758c0.986-2.117,2.302-4.596,4.484-5.658C151.764,325.681,151.788,325.669,151.812,325.658z"
					/>
				<path style="fill:#FFFFFF;" d="M146.19,341.216c0.744-0.506,1.721-0.083,2.677,2.167c0.636,1.497,1.561,5.357-1.236,5.117
					C144.025,348.187,144.517,342.353,146.19,341.216z"/>
				<path style="fill:#FFFFFF;" d="M156.544,339.808c-0.269,1.56-1.548,3.155-2.931,3.309c-3.518,0.391-1.059-8.362,2.169-5.732
					C156.511,337.979,156.703,338.887,156.544,339.808z"/>
			</g>
			<path style="opacity:0.5;fill:#BA68C8;" d="M145.568,359.491c2.169,9.614,15.234,25.64,30.477,33.867
				c14.664,7.915,29.943,17.776,53.869,16.04c23.925-1.735,38.952-16.677,38.952-16.677s-18.669,13.51-39.093,13.873
				c-20.423,0.363-38.954-9.945-53.23-17.386C162.268,381.768,148.602,366.966,145.568,359.491z"/>
			<g>
				<path style="fill:#455A64;" d="M203.18,419.22c-13.101-3.934-22.481-9.607-31.624-15.595
					c-9.151-5.997-15.022-11.467-18.316-16.033c-3.112-4.313-4.868-9.806-2.816-8.95c3.33,3.158,10.535,9.866,15.183,12.99
					c13.91,9.362,28.601,20.841,51.969,22.349c2.027,0.089,3.711,0.287,4.483,0.559C227.685,416.516,212.088,421.895,203.18,419.22z
					"/>
				<path style="fill:#37474F;" d="M252.478,409.222c-1.303-0.216-4.58,0.573-10.151,2.019c-5.571,1.447-6.915,1.557-8.999,2.917
					c-1.767,1.154-6.499,4.805-8.766,5.903c-3.591,1.739-0.046,3.148,9.838,3.415c9.885,0.266,13.349-2.618,15.709-5.601
					C252.469,414.894,255.439,409.714,252.478,409.222z"/>
				<path style="fill:#37474F;" d="M143.492,374.836c0.717,0.695,2.853,1.941,3.293,1.923c1.694-0.069,0.32-3.021-0.775-7.4
					c-1.083-4.331-4.578-9.004-5.64-12.254C140.576,362.987,141.654,368.936,143.492,374.836z"/>
			</g>
		</g>
		<g id="XMLID_280_">
			<path id="XMLID_392_" style="fill:#263238;" d="M341.826,334.712c-1.675,7.981-10.519,9.666-17.141,9.468
				c-3.51-0.099-6.395-0.743-7.277-1.249c-2.558-1.477-1.378-4.541-0.01-6.315c2.32-3.004,12.73-9.032,19.263-9.24
				C340.488,327.247,342.996,329.111,341.826,334.712z"/>
			<path id="XMLID_00000034785515591890038090000013787013525836267418_" style="fill:#455A64;" d="M341.826,334.712
				c-1.675,7.981-10.519,9.666-17.141,9.468c-3.51-0.099-6.395-0.743-7.277-1.249c-2.558-1.477-1.378-4.541-0.01-6.315
				c-1.289,2.439,5.532,3.946,11.61,1.765c6.077-2.191,10.608-6.88,7.654-11.005C340.488,327.247,342.996,329.111,341.826,334.712z"
				/>
			<path id="XMLID_385_" style="fill:#37474F;" d="M341.826,334.712c-1.675,7.981-10.519,9.666-17.141,9.468
				c6.593-0.188,11.847-3.985,13.83-8.13c1.973-4.134,0.476-8.149-1.854-8.675C340.488,327.247,342.996,329.111,341.826,334.712z"/>
		</g>
		<g>
			<path style="fill:#263238;" d="M458.8,301.141c0,0.09-0.148,1.975-1.769,4.209c-2.603,3.588-1.276,2.27-11.14,7.966l0,13.35
				l6.826-3.936C458.14,319.599,458.8,313.107,458.8,301.141z"/>
			<path style="fill:#455A64;" d="M457.309,296.428c0,0,0.063,0.624-0.222,2.264c-0.381,2.198-1.749,4.74-7.602,8.095
				c-5.853,3.356-7.364,4.301-7.364,4.301l3.768,2.227c9.864-5.695,8.538-4.378,11.14-7.966c1.621-2.234,1.769-4.118,1.769-4.209
				C458.8,298.828,458.561,297.443,457.309,296.428z"/>
			<polygon style="fill:#37474F;" points="442.122,311.088 442.122,324.49 445.891,326.666 445.89,313.315 			"/>
		</g>
		<g style="opacity:0.3;">
			<path style="fill:#BA68C8;" d="M190.001,349.008c-3.506,1.176-3.841,7.824-1.644,10.2c0.138,0.119,0.229,0.152,0.396,0.204
				c1.743,0.517,3.631-0.033,5.353-0.653c1.734-0.667,3.447-1.561,4.652-2.954c0.152-0.197,0.2-0.438,0.15-0.736
				C198.07,352.3,192.922,348.836,190.001,349.008c0.764-0.215,1.589-0.091,2.35,0.108c2.321,0.637,4.409,1.895,6.145,3.591
				c0.557,0.593,1.123,1.24,1.339,2.186c0.442,2.853-5.421,5.111-7.682,5.542c-1.402,0.261-3.138,0.438-4.375-0.463
				C185.158,357.421,185.967,349.797,190.001,349.008L190.001,349.008z"/>
		</g>
	</g>
</g>
</svg>
