<?xml version="1.0" encoding="utf-8"?>
<!-- Generator: Adobe Illustrator 27.5.0, SVG Export Plug-In . SVG Version: 6.00 Build 0)  -->
<svg version="1.1" xmlns="http://www.w3.org/2000/svg" xmlns:xlink="http://www.w3.org/1999/xlink" x="0px" y="0px"
	 viewBox="0 0 750 500" style="enable-background:new 0 0 750 500;" xml:space="preserve">
<g id="Background_Complete">
	<g>
		<g>
			<path style="fill:#E0E0E0;" d="M693.934,447.732c0,0.144-149.747,0.26-334.427,0.26c-184.744,0-334.459-0.117-334.459-0.26
				c0-0.144,149.715-0.26,334.459-0.26C544.187,447.471,693.934,447.588,693.934,447.732z"/>
		</g>
	</g>
	<g>
		<rect x="464.386" y="377.69" style="fill:#E0E0E0;" width="4.601" height="69.643"/>
	</g>
	<g>
		<g>
			<g>
				<rect x="553.708" y="293.556" style="fill:#E0E0E0;" width="81.048" height="153.817"/>
			</g>
			<g>
				<rect x="596.754" y="293.556" style="fill:#EBEBEB;" width="38.002" height="153.817"/>
			</g>
		</g>
		<g>
			<g>
				<rect x="570.702" y="308.029" style="fill:#F5F5F5;" width="7.287" height="17.705"/>
			</g>
			<g>
				<rect x="570.702" y="377.323" style="fill:#F5F5F5;" width="7.287" height="17.705"/>
			</g>
			<g>
				<g>
					<path style="fill:#F5F5F5;" d="M596.754,332.683c0,0.152-9.637,0.276-21.522,0.276c-11.889,0-21.524-0.124-21.524-0.276
						s9.635-0.276,21.524-0.276C587.117,332.407,596.754,332.53,596.754,332.683z"/>
				</g>
			</g>
		</g>
		<g>
			<g>
				<rect x="570.702" y="342.939" style="fill:#F5F5F5;" width="7.287" height="17.705"/>
			</g>
			<g>
				<g>
					<path style="fill:#F5F5F5;" d="M596.754,367.592c0,0.152-9.637,0.276-21.522,0.276c-11.889,0-21.524-0.124-21.524-0.276
						c0-0.153,9.635-0.276,21.524-0.276C587.117,367.316,596.754,367.44,596.754,367.592z"/>
				</g>
			</g>
		</g>
		<g>
			<rect x="604.824" y="308.029" style="fill:#E0E0E0;" width="7.287" height="17.705"/>
		</g>
		<g>
			<rect x="620.633" y="308.029" style="fill:#E0E0E0;" width="7.287" height="17.705"/>
		</g>
		<g>
			<rect x="604.824" y="341.625" style="fill:#E0E0E0;" width="7.287" height="17.705"/>
		</g>
		<g>
			<rect x="620.633" y="341.625" style="fill:#E0E0E0;" width="7.287" height="17.705"/>
		</g>
		<g>
			<rect x="604.824" y="375.22" style="fill:#E0E0E0;" width="7.287" height="17.705"/>
		</g>
		<g>
			<rect x="620.633" y="375.22" style="fill:#E0E0E0;" width="7.287" height="17.705"/>
		</g>
		<g>
			<rect x="547.615" y="289.835" style="fill:#E0E0E0;" width="93.233" height="3.855"/>
		</g>
		<g>
			<g>
				<path style="fill:#EBEBEB;" d="M635.321,294.053c0,0.152-18.115,0.276-40.455,0.276c-22.349,0-40.46-0.124-40.46-0.276
					s18.111-0.276,40.46-0.276C617.207,293.777,635.321,293.901,635.321,294.053z"/>
			</g>
		</g>
	</g>
	<g>
		<g>
			<rect x="89.149" y="86.695" style="fill:#F5F5F5;" width="96.663" height="306.346"/>
		</g>
		<g>
			<rect x="137.481" y="86.695" style="fill:#EBEBEB;" width="48.331" height="305.503"/>
		</g>
		<g>
			<rect x="100.187" y="56.62" style="fill:#F5F5F5;" width="34.134" height="30.075"/>
		</g>
		<g>
			<rect x="126.186" y="56.62" style="fill:#EBEBEB;" width="8.135" height="30.075"/>
		</g>
		<g>
			<polyline style="fill:#E0E0E0;" points="81.094,86.695 81.094,84.941 188.641,84.941 188.641,86.695 			"/>
		</g>
		<g>
			<rect x="108.23" y="99.812" style="fill:#FAFAFA;" width="8.182" height="17.252"/>
		</g>
		<g>
			<g>
				<path style="fill:#E0E0E0;" d="M137.481,123.836c0,0.182-10.82,0.329-24.165,0.329c-13.349,0-24.167-0.147-24.167-0.329
					c0-0.182,10.818-0.329,24.167-0.329C126.66,123.506,137.481,123.654,137.481,123.836z"/>
			</g>
		</g>
		<g>
			<g>
				<rect x="156.982" y="99.812" style="fill:#E0E0E0;" width="8.182" height="17.252"/>
			</g>
			<g>
				<g>
					<path style="fill:#E0E0E0;" d="M186.233,123.836c0,0.182-10.82,0.329-24.164,0.329c-13.349,0-24.167-0.147-24.167-0.329
						c0-0.182,10.818-0.329,24.167-0.329C175.413,123.506,186.233,123.654,186.233,123.836z"/>
				</g>
			</g>
		</g>
		<g>
			<g>
				<rect x="156.982" y="134.065" style="fill:#E0E0E0;" width="8.182" height="17.253"/>
			</g>
			<g>
				<g>
					<path style="fill:#E0E0E0;" d="M186.233,158.089c0,0.182-10.82,0.329-24.164,0.329c-13.349,0-24.167-0.147-24.167-0.329
						c0-0.182,10.818-0.329,24.167-0.329C175.413,157.76,186.233,157.907,186.233,158.089z"/>
				</g>
			</g>
		</g>
		<g>
			<g>
				<rect x="156.982" y="169.352" style="fill:#E0E0E0;" width="8.182" height="17.253"/>
			</g>
			<g>
				<g>
					<path style="fill:#E0E0E0;" d="M186.233,193.376c0,0.182-10.82,0.329-24.164,0.329c-13.349,0-24.167-0.148-24.167-0.329
						c0-0.182,10.818-0.329,24.167-0.329C175.413,193.046,186.233,193.194,186.233,193.376z"/>
				</g>
			</g>
		</g>
		<g>
			<g>
				<rect x="156.982" y="204.639" style="fill:#E0E0E0;" width="8.182" height="17.253"/>
			</g>
			<g>
				<g>
					<path style="fill:#E0E0E0;" d="M186.233,228.663c0,0.182-10.82,0.33-24.164,0.33c-13.349,0-24.167-0.147-24.167-0.33
						c0-0.182,10.818-0.329,24.167-0.329C175.413,228.333,186.233,228.481,186.233,228.663z"/>
				</g>
			</g>
		</g>
		<g>
			<g>
				<rect x="156.982" y="238.917" style="fill:#E0E0E0;" width="8.182" height="17.253"/>
			</g>
			<g>
				<g>
					<path style="fill:#E0E0E0;" d="M186.233,262.94c0,0.182-10.82,0.33-24.164,0.33c-13.349,0-24.167-0.147-24.167-0.33
						c0-0.182,10.818-0.329,24.167-0.329C175.413,262.611,186.233,262.759,186.233,262.94z"/>
				</g>
			</g>
		</g>
		<g>
			<g>
				<rect x="156.982" y="273.332" style="fill:#E0E0E0;" width="8.182" height="17.253"/>
			</g>
			<g>
				<rect x="156.982" y="308.199" style="fill:#E0E0E0;" width="8.182" height="17.253"/>
			</g>
			<g>
				<g>
					<path style="fill:#E0E0E0;" d="M186.233,297.356c0,0.182-10.82,0.33-24.164,0.33c-13.349,0-24.167-0.148-24.167-0.33
						c0-0.182,10.818-0.329,24.167-0.329C175.413,297.027,186.233,297.174,186.233,297.356z"/>
				</g>
			</g>
		</g>
		<g>
			<rect x="108.23" y="134.588" style="fill:#FAFAFA;" width="8.182" height="17.253"/>
		</g>
		<g>
			<g>
				<path style="fill:#E0E0E0;" d="M137.481,158.612c0,0.182-10.82,0.329-24.165,0.329c-13.349,0-24.167-0.147-24.167-0.329
					c0-0.182,10.818-0.329,24.167-0.329C126.66,158.282,137.481,158.43,137.481,158.612z"/>
			</g>
		</g>
		<g>
			<rect x="108.23" y="169.364" style="fill:#FAFAFA;" width="8.182" height="17.253"/>
		</g>
		<g>
			<g>
				<path style="fill:#E0E0E0;" d="M137.481,193.388c0,0.182-10.82,0.329-24.165,0.329c-13.349,0-24.167-0.147-24.167-0.329
					c0-0.182,10.818-0.329,24.167-0.329C126.66,193.059,137.481,193.206,137.481,193.388z"/>
			</g>
		</g>
		<g>
			<rect x="108.23" y="204.14" style="fill:#FAFAFA;" width="8.182" height="17.253"/>
		</g>
		<g>
			<g>
				<path style="fill:#E0E0E0;" d="M137.481,228.164c0,0.182-10.82,0.329-24.165,0.329c-13.349,0-24.167-0.147-24.167-0.329
					c0-0.182,10.818-0.329,24.167-0.329C126.66,227.835,137.481,227.982,137.481,228.164z"/>
			</g>
		</g>
		<g>
			<rect x="108.23" y="238.917" style="fill:#FAFAFA;" width="8.182" height="17.253"/>
		</g>
		<g>
			<g>
				<path style="fill:#E0E0E0;" d="M137.481,262.94c0,0.182-10.82,0.33-24.165,0.33c-13.349,0-24.167-0.147-24.167-0.33
					c0-0.182,10.818-0.329,24.167-0.329C126.66,262.611,137.481,262.759,137.481,262.94z"/>
			</g>
		</g>
		<g>
			<rect x="108.23" y="273.693" style="fill:#FAFAFA;" width="8.182" height="17.253"/>
		</g>
		<g>
			<g>
				<path style="fill:#E0E0E0;" d="M137.481,297.716c0,0.182-10.82,0.329-24.165,0.329c-13.349,0-24.167-0.147-24.167-0.329
					c0-0.182,10.818-0.329,24.167-0.329C126.66,297.387,137.481,297.535,137.481,297.716z"/>
			</g>
		</g>
		<g>
			<g>
				<rect x="108.23" y="308.469" style="fill:#FAFAFA;" width="8.182" height="17.253"/>
			</g>
		</g>
	</g>
	<g>
		<g>
			<g>
				<rect x="174.063" y="263.799" style="fill:#EBEBEB;" width="141.117" height="186.129"/>
			</g>
			<g>
				<rect x="249.014" y="263.799" style="fill:#E0E0E0;" width="66.167" height="186.129"/>
			</g>
		</g>
		<g>
			<g>
				<rect x="203.653" y="288.999" style="fill:#F5F5F5;" width="12.688" height="30.827"/>
			</g>
			<g>
				<rect x="203.653" y="409.649" style="fill:#F5F5F5;" width="12.688" height="30.827"/>
			</g>
			<g>
				<g>
					<path style="fill:#F5F5F5;" d="M249.014,331.924c0,0.346-16.779,0.627-37.473,0.627c-20.701,0-37.477-0.281-37.477-0.627
						c0-0.346,16.776-0.627,37.477-0.627C232.234,331.297,249.014,331.578,249.014,331.924z"/>
				</g>
			</g>
		</g>
		<g>
			<g>
				<rect x="203.653" y="349.781" style="fill:#F5F5F5;" width="12.688" height="30.827"/>
			</g>
			<g>
				<g>
					<path style="fill:#F5F5F5;" d="M249.014,392.707c0,0.346-16.779,0.628-37.473,0.628c-20.701,0-37.477-0.281-37.477-0.628
						c0-0.346,16.776-0.627,37.477-0.627C232.234,392.08,249.014,392.361,249.014,392.707z"/>
				</g>
			</g>
		</g>
		<g>
			<rect x="263.065" y="288.999" style="fill:#F5F5F5;" width="12.688" height="30.827"/>
		</g>
		<g>
			<rect x="290.592" y="288.999" style="fill:#F5F5F5;" width="12.688" height="30.827"/>
		</g>
		<g>
			<rect x="263.065" y="347.494" style="fill:#F5F5F5;" width="12.688" height="30.827"/>
		</g>
		<g>
			<rect x="290.592" y="347.494" style="fill:#F5F5F5;" width="12.688" height="30.827"/>
		</g>
		<g>
			<rect x="263.065" y="405.989" style="fill:#F5F5F5;" width="12.688" height="30.827"/>
		</g>
		<g>
			<rect x="290.592" y="405.989" style="fill:#F5F5F5;" width="12.688" height="30.827"/>
		</g>
		<g>
			<rect x="163.455" y="257.32" style="fill:#E0E0E0;" width="162.334" height="6.712"/>
		</g>
		<g>
			<g>
				<path style="fill:#EBEBEB;" d="M316.167,264.663c0,0.347-31.541,0.628-70.44,0.628c-38.912,0-70.447-0.281-70.447-0.628
					c0-0.346,31.535-0.627,70.447-0.627C284.625,264.036,316.167,264.317,316.167,264.663z"/>
			</g>
		</g>
	</g>
	<g>
		<g>
			<g>
				<polygon style="fill:#EBEBEB;" points="176.384,449.958 34.142,449.958 33.522,225.154 175.764,225.154 				"/>
			</g>
			<g>
				<rect x="104.643" y="225.154" style="fill:#E0E0E0;" width="71.121" height="224.804"/>
			</g>
			<g>
				<rect x="49.765" y="180.898" style="fill:#EBEBEB;" width="50.229" height="44.256"/>
			</g>
			<g>
				<rect x="88.022" y="180.898" style="fill:#E0E0E0;" width="11.972" height="44.256"/>
			</g>
			<g>
				<rect x="21.668" y="222.573" style="fill:#E0E0E0;" width="158.259" height="2.581"/>
			</g>
			<g>
				<rect x="61.6" y="244.456" style="fill:#FFFFFF;" width="12.04" height="25.388"/>
			</g>
			<g>
				<g>
					<path style="fill:#E0E0E0;" d="M104.643,279.808c0,0.268-15.922,0.485-35.559,0.485c-19.643,0-35.562-0.217-35.562-0.485
						c0-0.268,15.919-0.485,35.562-0.485C88.721,279.323,104.643,279.54,104.643,279.808z"/>
				</g>
			</g>
			<g>
				<g>
					<rect x="133.34" y="244.456" style="fill:#F5F5F5;" width="12.04" height="25.388"/>
				</g>
				<g>
					<g>
						<path style="fill:#EBEBEB;" d="M176.383,279.808c0,0.268-15.922,0.485-35.558,0.485c-19.643,0-35.562-0.217-35.562-0.485
							c0-0.268,15.919-0.485,35.562-0.485C160.461,279.323,176.383,279.54,176.383,279.808z"/>
					</g>
				</g>
			</g>
			<g>
				<g>
					<rect x="133.34" y="294.861" style="fill:#F5F5F5;" width="12.04" height="25.388"/>
				</g>
				<g>
					<g>
						<path style="fill:#EBEBEB;" d="M176.383,330.212c0,0.268-15.922,0.485-35.558,0.485c-19.643,0-35.562-0.217-35.562-0.485
							c0-0.267,15.919-0.484,35.562-0.484C160.461,329.728,176.383,329.945,176.383,330.212z"/>
					</g>
				</g>
			</g>
			<g>
				<g>
					<rect x="133.34" y="346.786" style="fill:#F5F5F5;" width="12.04" height="25.388"/>
				</g>
				<g>
					<g>
						<path style="fill:#EBEBEB;" d="M176.383,382.138c0,0.268-15.922,0.485-35.558,0.485c-19.643,0-35.562-0.217-35.562-0.485
							c0-0.268,15.919-0.485,35.562-0.485C160.461,381.653,176.383,381.87,176.383,382.138z"/>
					</g>
				</g>
			</g>
			<g>
				<g>
					<rect x="133.34" y="398.712" style="fill:#F5F5F5;" width="12.04" height="25.388"/>
				</g>
				<g>
					<g>
						<path style="fill:#EBEBEB;" d="M176.383,434.063c0,0.268-15.922,0.485-35.558,0.485c-19.643,0-35.562-0.217-35.562-0.485
							c0-0.268,15.919-0.485,35.562-0.485C160.461,433.578,176.383,433.796,176.383,434.063z"/>
					</g>
				</g>
			</g>
			<g>
				<rect x="61.6" y="295.63" style="fill:#FFFFFF;" width="12.04" height="25.388"/>
			</g>
			<g>
				<g>
					<path style="fill:#E0E0E0;" d="M104.643,330.981c0,0.268-15.922,0.485-35.559,0.485c-19.643,0-35.562-0.217-35.562-0.485
						c0-0.267,15.919-0.484,35.562-0.484C88.721,330.497,104.643,330.714,104.643,330.981z"/>
				</g>
			</g>
			<g>
				<rect x="61.6" y="346.804" style="fill:#FFFFFF;" width="12.04" height="25.388"/>
			</g>
			<g>
				<g>
					<path style="fill:#E0E0E0;" d="M104.643,382.155c0,0.268-15.922,0.485-35.559,0.485c-19.643,0-35.562-0.217-35.562-0.485
						c0-0.268,15.919-0.484,35.562-0.484C88.721,381.671,104.643,381.888,104.643,382.155z"/>
				</g>
			</g>
			<g>
				<rect x="61.6" y="397.978" style="fill:#FFFFFF;" width="12.04" height="25.387"/>
			</g>
			<g>
				<g>
					<path style="fill:#E0E0E0;" d="M104.643,433.329c0,0.268-15.922,0.485-35.559,0.485c-19.643,0-35.562-0.217-35.562-0.485
						c0-0.267,15.919-0.484,35.562-0.484C88.721,432.845,104.643,433.062,104.643,433.329z"/>
				</g>
			</g>
		</g>
	</g>
	<g>
		<g>
			<g>
				<rect x="634.719" y="224.449" style="fill:#EBEBEB;" width="85.168" height="222.924"/>
			</g>
			<g>
				<rect x="677.303" y="224.449" style="fill:#E0E0E0;" width="42.584" height="222.924"/>
			</g>
			<g>
				<rect x="644.444" y="197.951" style="fill:#EBEBEB;" width="30.075" height="26.499"/>
			</g>
			<g>
				<rect x="667.351" y="197.951" style="fill:#E0E0E0;" width="7.168" height="26.499"/>
			</g>
			<g>
				<rect x="627.621" y="222.904" style="fill:#E0E0E0;" width="94.758" height="1.546"/>
			</g>
			<g>
				<rect x="651.53" y="236.007" style="fill:#FFFFFF;" width="7.209" height="15.201"/>
			</g>
			<g>
				<g>
					<path style="fill:#E0E0E0;" d="M677.303,257.173c0,0.16-9.534,0.29-21.291,0.29c-11.761,0-21.293-0.13-21.293-0.29
						s9.531-0.29,21.293-0.29C667.769,256.883,677.303,257.013,677.303,257.173z"/>
				</g>
			</g>
			<g>
				<g>
					<rect x="694.485" y="236.007" style="fill:#F5F5F5;" width="7.209" height="15.201"/>
				</g>
				<g>
					<g>
						<path style="fill:#EBEBEB;" d="M720.258,257.173c0,0.16-9.534,0.29-21.291,0.29c-11.762,0-21.293-0.13-21.293-0.29
							s9.531-0.29,21.293-0.29C710.724,256.883,720.258,257.013,720.258,257.173z"/>
					</g>
				</g>
			</g>
			<g>
				<g>
					<rect x="694.485" y="266.187" style="fill:#F5F5F5;" width="7.209" height="15.201"/>
				</g>
				<g>
					<g>
						<path style="fill:#EBEBEB;" d="M720.258,287.353c0,0.16-9.534,0.29-21.291,0.29c-11.762,0-21.293-0.13-21.293-0.29
							c0-0.16,9.531-0.29,21.293-0.29C710.724,287.063,720.258,287.193,720.258,287.353z"/>
					</g>
				</g>
			</g>
			<g>
				<g>
					<rect x="694.485" y="297.277" style="fill:#F5F5F5;" width="7.209" height="15.201"/>
				</g>
				<g>
					<g>
						<path style="fill:#EBEBEB;" d="M720.258,318.444c0,0.16-9.534,0.29-21.291,0.29c-11.762,0-21.293-0.13-21.293-0.29
							c0-0.16,9.531-0.29,21.293-0.29C710.724,318.154,720.258,318.284,720.258,318.444z"/>
					</g>
				</g>
			</g>
			<g>
				<g>
					<rect x="694.485" y="328.368" style="fill:#F5F5F5;" width="7.209" height="15.201"/>
				</g>
				<g>
					<g>
						<path style="fill:#EBEBEB;" d="M720.258,349.535c0,0.16-9.534,0.29-21.291,0.29c-11.762,0-21.293-0.13-21.293-0.29
							c0-0.16,9.531-0.29,21.293-0.29C710.724,349.245,720.258,349.375,720.258,349.535z"/>
					</g>
				</g>
			</g>
			<g>
				<g>
					<rect x="694.485" y="358.569" style="fill:#F5F5F5;" width="7.209" height="15.201"/>
				</g>
				<g>
					<g>
						<path style="fill:#EBEBEB;" d="M720.258,379.736c0,0.16-9.534,0.29-21.291,0.29c-11.762,0-21.293-0.13-21.293-0.29
							c0-0.16,9.531-0.29,21.293-0.29C710.724,379.446,720.258,379.576,720.258,379.736z"/>
					</g>
				</g>
			</g>
			<g>
				<g>
					<rect x="694.485" y="388.892" style="fill:#F5F5F5;" width="7.209" height="15.201"/>
				</g>
				<g>
					<rect x="694.485" y="419.613" style="fill:#F5F5F5;" width="7.209" height="15.201"/>
				</g>
				<g>
					<g>
						<path style="fill:#EBEBEB;" d="M720.258,410.06c0,0.16-9.534,0.29-21.291,0.29c-11.762,0-21.293-0.13-21.293-0.29
							c0-0.16,9.531-0.29,21.293-0.29C710.724,409.769,720.258,409.899,720.258,410.06z"/>
					</g>
				</g>
			</g>
			<g>
				<rect x="651.53" y="266.647" style="fill:#FFFFFF;" width="7.209" height="15.201"/>
			</g>
			<g>
				<g>
					<path style="fill:#E0E0E0;" d="M677.303,287.814c0,0.16-9.534,0.29-21.291,0.29c-11.761,0-21.293-0.13-21.293-0.29
						c0-0.16,9.531-0.29,21.293-0.29C667.769,287.524,677.303,287.654,677.303,287.814z"/>
				</g>
			</g>
			<g>
				<rect x="651.53" y="297.288" style="fill:#FFFFFF;" width="7.209" height="15.201"/>
			</g>
			<g>
				<g>
					<path style="fill:#E0E0E0;" d="M677.303,318.455c0,0.16-9.534,0.29-21.291,0.29c-11.761,0-21.293-0.13-21.293-0.29
						c0-0.16,9.531-0.29,21.293-0.29C667.769,318.165,677.303,318.294,677.303,318.455z"/>
				</g>
			</g>
			<g>
				<rect x="651.53" y="327.929" style="fill:#FFFFFF;" width="7.209" height="15.201"/>
			</g>
			<g>
				<g>
					<path style="fill:#E0E0E0;" d="M677.303,349.095c0,0.161-9.534,0.29-21.291,0.29c-11.761,0-21.293-0.13-21.293-0.29
						c0-0.16,9.531-0.29,21.293-0.29C667.769,348.805,677.303,348.935,677.303,349.095z"/>
				</g>
			</g>
			<g>
				<rect x="651.53" y="358.569" style="fill:#FFFFFF;" width="7.209" height="15.201"/>
			</g>
			<g>
				<g>
					<path style="fill:#E0E0E0;" d="M677.303,379.736c0,0.16-9.534,0.29-21.291,0.29c-11.761,0-21.293-0.13-21.293-0.29
						c0-0.16,9.531-0.29,21.293-0.29C667.769,379.446,677.303,379.576,677.303,379.736z"/>
				</g>
			</g>
			<g>
				<rect x="651.53" y="389.21" style="fill:#FFFFFF;" width="7.209" height="15.201"/>
			</g>
			<g>
				<g>
					<path style="fill:#E0E0E0;" d="M677.303,410.377c0,0.16-9.534,0.29-21.291,0.29c-11.761,0-21.293-0.13-21.293-0.29
						c0-0.16,9.531-0.29,21.293-0.29C667.769,410.087,677.303,410.217,677.303,410.377z"/>
				</g>
			</g>
			<g>
				<g>
					<rect x="651.53" y="419.851" style="fill:#FFFFFF;" width="7.209" height="15.201"/>
				</g>
			</g>
		</g>
	</g>
	<g>
		<g>
			<path style="fill:#E0E0E0;" d="M466.687,378.778h-20.343c-1.619,0-2.631-1.753-1.822-3.155l10.172-17.618l10.171-17.618
				c0.81-1.402,2.834-1.402,3.643,0l10.171,17.618l10.172,17.618c0.81,1.402-0.202,3.155-1.822,3.155H466.687z"/>
		</g>
		<g>
			<path style="fill:#FFFFFF;" d="M486.511,378.024h-39.836c-0.501,0-0.949-0.259-1.199-0.692c-0.251-0.434-0.251-0.952-0.001-1.386
				l19.918-34.5c0.251-0.434,0.699-0.692,1.2-0.692c0.001,0,0.001,0,0.001,0c0.501,0,0.949,0.259,1.199,0.692l19.918,34.5
				c0.25,0.434,0.251,0.951,0,1.385C487.462,377.765,487.012,378.024,486.511,378.024z M466.593,341.253
				c-0.32,0-0.606,0.165-0.767,0.442l-19.918,34.5c-0.16,0.277-0.16,0.608,0,0.886c0.16,0.277,0.446,0.442,0.767,0.442h39.836
				c0.32,0,0.607-0.166,0.768-0.442c0.16-0.277,0.159-0.608-0.001-0.886l-19.918-34.5c-0.159-0.277-0.446-0.442-0.766-0.442H466.593
				z"/>
		</g>
		<g>
			<g>
				<path style="fill:#FFFFFF;" d="M464.387,371.11c-0.009-1.237,0.962-2.221,2.314-2.231c1.323-0.009,2.279,0.962,2.288,2.199
					c0.009,1.237-0.933,2.25-2.256,2.26C465.38,373.348,464.395,372.347,464.387,371.11z M464.46,353.018l4.256-0.03l-0.624,13.465
					l-2.848,0.021L464.46,353.018z"/>
			</g>
		</g>
	</g>
	<g>
		<g>
			<path style="fill:#EBEBEB;" d="M407.436,215.705c0.738-5.359-6.826-9.768-12.509-10.226c-2.71-0.218-5.526,0.196-8.093-0.699
				c-5.563-1.939-7.785-9.126-13.214-11.416c-4.058-1.712-8.73-0.188-12.665,1.792s-7.822,4.472-12.218,4.753
				c-3.823,0.245-7.975-1.173-11.32,0.695c-2.493,1.392-3.798,4.264-6.096,5.959c-2.248,1.658-5.18,2.009-7.969,2.161
				c-2.789,0.152-5.676,0.18-8.215,1.342c-2.539,1.163-4.64,3.848-4.113,6.591L407.436,215.705z"/>
		</g>
	</g>
	<g>
		<g>
			<path style="fill:#EBEBEB;" d="M645.914,72.439c0.536-3.891-4.956-7.091-9.082-7.424c-1.968-0.159-4.011,0.142-5.876-0.507
				c-4.039-1.408-5.652-6.626-9.593-8.288c-2.946-1.243-6.338-0.136-9.194,1.301c-2.856,1.438-5.679,3.247-8.87,3.451
				c-2.776,0.178-5.79-0.852-8.218,0.504c-1.81,1.01-2.758,3.096-4.426,4.326c-1.632,1.204-3.76,1.459-5.785,1.569
				s-4.121,0.131-5.964,0.975c-1.844,0.844-3.369,2.794-2.986,4.785L645.914,72.439z"/>
		</g>
	</g>
	<g>
		<g>
			<path style="fill:#F5F5F5;" d="M307.011,69.534c0.923-6.709-8.545-12.228-15.659-12.801c-3.393-0.274-6.917,0.245-10.131-0.875
				c-6.964-2.427-9.746-11.424-16.541-14.29c-5.08-2.143-10.929-0.235-15.854,2.243c-4.925,2.479-9.792,5.598-15.294,5.95
				c-4.786,0.306-9.983-1.469-14.171,0.869c-3.12,1.742-4.755,5.338-7.631,7.459c-2.814,2.075-6.484,2.515-9.975,2.705
				c-3.491,0.19-7.105,0.225-10.284,1.681c-3.179,1.456-5.809,4.817-5.149,8.25L307.011,69.534z"/>
		</g>
	</g>
</g>
<g id="Background_Simple" style="display:none;">
	<g style="display:inline;">
		<path style="fill:#EBEBEB;" d="M578.555,117.846l-2.715-4.475c-22.89-37.721-64.276-60.46-107.91-57.7
			c-5.609,0.355-11.194,1.114-16.704,2.294c-39.672,8.492-74.192,38.493-88.501,76.915c-8.415,22.597-10.766,48.614-26.735,66.55
			c-20.783,23.343-56.067,24.076-87.089,23.109s-66.329-0.142-87.011,23.293c-12.953,14.677-17.069,35.549-16.025,55.205
			c2.765,52.039,39.027,98.57,85.143,121.698c46.116,23.128,100.412,25.2,150.883,15.026
			c70.704-14.253,137.942-53.394,178.358-113.848C600.663,265.458,610.891,183.096,578.555,117.846z"/>
	</g>
	<g style="display:inline;">
		<circle style="fill:#EBEBEB;" cx="237.87" cy="148.05" r="45.409"/>
	</g>
</g>
<g id="Traffic_Light">
	<g>
		<rect x="64.752" y="142.414" style="fill:#455A64;" width="237.213" height="3"/>
		<path style="fill:#263238;" d="M58.116,117.627L58.116,117.627c-3.665,0-6.636,2.971-6.636,6.636V457.79h13.272V124.263
			C64.752,120.598,61.781,117.627,58.116,117.627z"/>
		<path style="fill:#455A64;" d="M64.879,279.651c-0.124-2.516-2.637-62.017,30.949-97.291
			c15.688-16.477,36.758-24.831,62.626-24.831h144.555v4H158.453c-24.723,0-44.815,7.932-59.717,23.576
			c-32.402,34.016-29.892,93.751-29.863,94.351L64.879,279.651z"/>
		<g>
			<g>
				<path style="fill:#263238;" d="M233.863,202.596h-25.78c-1.453,0-2.632-1.178-2.632-2.632v-73.789
					c0-1.453,1.178-2.632,2.632-2.632h25.78c1.453,0,2.632,1.178,2.632,2.632v73.789
					C236.494,201.417,235.316,202.596,233.863,202.596z"/>
			</g>
			<g>
				
					<ellipse transform="matrix(0.2306 -0.973 0.973 0.2306 33.6093 322.8734)" style="fill:#FF725E;" cx="220.973" cy="140.184" rx="8.646" ry="8.646"/>
			</g>
			<g>
				
					<ellipse transform="matrix(0.7071 -0.7071 0.7071 0.7071 -50.9409 204.1602)" style="fill:#E0E0E0;" cx="220.973" cy="163.571" rx="8.646" ry="8.646"/>
			</g>
			<g>
				
					<ellipse transform="matrix(0.7071 -0.7071 0.7071 0.7071 -67.4782 211.0102)" style="fill:#455A64;" cx="220.973" cy="186.959" rx="8.646" ry="8.646"/>
			</g>
			<g>
				<g>
					<path style="fill:#FFFFFF;" d="M228.172,143.914c-0.096-0.033,0.385-1.006,0.448-2.681c0.081-1.639-0.408-4.063-2.137-5.93
						c-1.745-1.852-4.131-2.505-5.772-2.535c-1.676-0.05-2.679,0.363-2.705,0.265c-0.011-0.029,0.225-0.157,0.684-0.31
						c0.458-0.155,1.152-0.301,2.024-0.323c1.713-0.065,4.273,0.559,6.15,2.548c1.856,2.007,2.305,4.603,2.123,6.308
						c-0.082,0.868-0.275,1.551-0.46,1.997C228.344,143.701,228.2,143.927,228.172,143.914z"/>
				</g>
			</g>
			<g>
				<g>
					<path style="fill:#FFFFFF;" d="M228.174,166.975c-0.096-0.033,0.385-1.006,0.448-2.681c0.081-1.639-0.409-4.063-2.137-5.93
						c-1.745-1.852-4.131-2.505-5.772-2.535c-1.676-0.05-2.679,0.363-2.705,0.265c-0.011-0.029,0.225-0.157,0.684-0.31
						c0.458-0.155,1.152-0.301,2.024-0.323c1.713-0.065,4.273,0.559,6.15,2.548c1.856,2.007,2.305,4.604,2.124,6.308
						c-0.082,0.868-0.275,1.551-0.46,1.997C228.346,166.762,228.202,166.988,228.174,166.975z"/>
				</g>
			</g>
			<g>
				<g>
					<path style="fill:#FFFFFF;" d="M228.204,190.602c-0.096-0.033,0.385-1.006,0.448-2.681c0.081-1.639-0.409-4.063-2.137-5.93
						c-1.745-1.852-4.131-2.505-5.772-2.535c-1.676-0.05-2.678,0.363-2.705,0.265c-0.011-0.029,0.225-0.157,0.684-0.31
						c0.458-0.155,1.152-0.301,2.024-0.323c1.713-0.065,4.273,0.559,6.15,2.548c1.856,2.007,2.305,4.604,2.123,6.308
						c-0.082,0.868-0.275,1.551-0.46,1.997C228.376,190.389,228.232,190.615,228.204,190.602z"/>
				</g>
			</g>
			<g>
				<g>
					<path style="fill:#FFFFFF;" d="M233.945,197.447c-0.144,0-0.26-15.877-0.26-35.457c0-19.587,0.117-35.46,0.26-35.46
						s0.26,15.873,0.26,35.46C234.205,181.571,234.089,197.447,233.945,197.447z"/>
				</g>
			</g>
		</g>
		<g>
			<g>
				<path style="fill:#263238;" d="M301.374,202.596h-25.78c-1.453,0-2.632-1.178-2.632-2.632v-73.789
					c0-1.453,1.178-2.632,2.632-2.632h25.78c1.453,0,2.632,1.178,2.632,2.632v73.789
					C304.006,201.417,302.828,202.596,301.374,202.596z"/>
			</g>
			<g>
				
					<ellipse transform="matrix(0.2306 -0.973 0.973 0.2306 85.5521 388.5652)" style="fill:#FF725E;" cx="288.484" cy="140.184" rx="8.646" ry="8.646"/>
			</g>
			<g>
				
					<ellipse transform="matrix(0.7071 -0.7071 0.7071 0.7071 -31.1673 251.898)" style="fill:#E0E0E0;" cx="288.484" cy="163.571" rx="8.646" ry="8.646"/>
			</g>
			<g>
				
					<ellipse transform="matrix(0.7071 -0.7071 0.7071 0.7071 -47.7046 258.748)" style="fill:#455A64;" cx="288.484" cy="186.959" rx="8.646" ry="8.646"/>
			</g>
			<g>
				<g>
					<path style="fill:#FFFFFF;" d="M295.684,143.914c-0.096-0.033,0.385-1.006,0.448-2.681c0.082-1.639-0.409-4.063-2.137-5.93
						c-1.745-1.852-4.131-2.505-5.772-2.535c-1.676-0.05-2.678,0.363-2.705,0.265c-0.011-0.029,0.225-0.157,0.684-0.31
						c0.458-0.155,1.152-0.301,2.024-0.323c1.713-0.065,4.273,0.559,6.15,2.548c1.856,2.007,2.304,4.603,2.123,6.308
						c-0.082,0.868-0.275,1.551-0.46,1.997C295.856,143.701,295.711,143.927,295.684,143.914z"/>
				</g>
			</g>
			<g>
				<g>
					<path style="fill:#FFFFFF;" d="M295.685,166.975c-0.096-0.033,0.385-1.006,0.448-2.681c0.081-1.639-0.409-4.063-2.137-5.93
						c-1.745-1.852-4.131-2.505-5.772-2.535c-1.676-0.05-2.679,0.363-2.705,0.265c-0.011-0.029,0.225-0.157,0.684-0.31
						c0.458-0.155,1.152-0.301,2.024-0.323c1.713-0.065,4.273,0.559,6.15,2.548c1.856,2.007,2.305,4.604,2.124,6.308
						c-0.082,0.868-0.275,1.551-0.46,1.997C295.857,166.762,295.713,166.988,295.685,166.975z"/>
				</g>
			</g>
			<g>
				<g>
					<path style="fill:#FFFFFF;" d="M295.716,190.602c-0.096-0.033,0.385-1.006,0.448-2.681c0.081-1.639-0.409-4.063-2.137-5.93
						c-1.745-1.852-4.131-2.505-5.772-2.535c-1.676-0.05-2.678,0.363-2.705,0.265c-0.011-0.029,0.225-0.157,0.684-0.31
						c0.458-0.155,1.152-0.301,2.024-0.323c1.713-0.065,4.273,0.559,6.15,2.548c1.856,2.007,2.305,4.604,2.123,6.308
						c-0.082,0.868-0.275,1.551-0.46,1.997C295.888,190.389,295.744,190.615,295.716,190.602z"/>
				</g>
			</g>
			<g>
				<g>
					<path style="fill:#FFFFFF;" d="M301.456,197.447c-0.144,0-0.26-15.877-0.26-35.457c0-19.587,0.117-35.46,0.26-35.46
						s0.26,15.873,0.26,35.46C301.717,181.571,301.6,197.447,301.456,197.447z"/>
				</g>
			</g>
		</g>
	</g>
</g>
<g id="Floor">
	<g>
		<path style="fill:#FAFAFA;" d="M389.202,107.295c0.463-3.363-4.284-6.13-7.851-6.418c-1.701-0.137-3.468,0.123-5.079-0.439
			c-3.491-1.217-4.886-5.728-8.293-7.165c-2.547-1.074-5.479-0.118-7.948,1.125c-2.469,1.243-4.909,2.807-7.668,2.983
			c-2.4,0.154-5.005-0.736-7.105,0.436c-1.564,0.873-2.384,2.676-3.826,3.74c-1.411,1.04-3.251,1.261-5.001,1.356
			c-1.75,0.095-3.562,0.113-5.156,0.843c-1.594,0.73-2.912,2.415-2.582,4.136L389.202,107.295z"/>
	</g>
	<g>
		<path style="fill:#FAFAFA;" d="M707.996,137.564c0.463-3.363-4.284-6.13-7.851-6.418c-1.701-0.137-3.468,0.123-5.079-0.439
			c-3.492-1.217-4.886-5.728-8.293-7.165c-2.547-1.074-5.479-0.118-7.948,1.125c-2.469,1.243-4.909,2.807-7.668,2.983
			c-2.399,0.154-5.005-0.736-7.105,0.436c-1.564,0.873-2.384,2.676-3.826,3.74c-1.411,1.04-3.251,1.261-5.001,1.356
			c-1.75,0.095-3.562,0.113-5.156,0.843c-1.594,0.73-2.912,2.415-2.581,4.136L707.996,137.564z"/>
	</g>
	<g>
		<g>
			<g>
				<path style="fill:#263238;" d="M714.388,470.427c0,0.144-153.429,0.26-342.649,0.26c-189.286,0-342.681-0.117-342.681-0.26
					c0-0.144,153.396-0.26,342.681-0.26C560.96,470.167,714.388,470.284,714.388,470.427z"/>
			</g>
		</g>
		<g>
			<g>
				<path style="fill:#263238;" d="M18.875,470.427c0,0,0.275-0.017,0.813-0.026c0.552-0.006,1.349-0.014,2.389-0.025
					c2.115-0.011,5.209-0.027,9.195-0.048c8.004-0.019,19.573-0.047,33.9-0.082c28.683-0.02,68.396-0.048,112.576-0.079l-0.26,0.26
					c0-1.997,0-4.149,0-6.311c0-2.167,0-4.325,0-6.326l0.26,0.26c-44.191-0.031-83.904-0.059-112.584-0.079
					c-14.325-0.035-25.892-0.062-33.895-0.082c-3.984-0.021-7.078-0.037-9.192-0.048c-1.04-0.011-1.836-0.02-2.388-0.025
					c-0.538-0.008-0.813-0.026-0.813-0.026s0.275-0.017,0.813-0.026c0.552-0.006,1.348-0.014,2.388-0.025
					c2.114-0.011,5.208-0.027,9.192-0.048c8.002-0.019,19.569-0.047,33.895-0.082c28.68-0.02,68.393-0.048,112.584-0.079l0.26,0
					l0,0.26c0,2.002,0,4.159,0,6.326c0,2.162,0,4.314,0,6.311l0,0.26l-0.26,0c-44.18-0.031-83.893-0.059-112.576-0.08
					c-14.327-0.034-25.896-0.062-33.9-0.082c-3.985-0.021-7.08-0.037-9.195-0.048c-1.04-0.011-1.836-0.019-2.389-0.025
					C19.151,470.445,18.875,470.427,18.875,470.427z"/>
			</g>
		</g>
		<g>
			<g>
				<path style="fill:#263238;" d="M164.096,470.427c-0.144,0-0.26-2.829-0.26-6.318c0-3.49,0.117-6.319,0.26-6.319
					s0.26,2.829,0.26,6.319C164.357,467.598,164.24,470.427,164.096,470.427z"/>
			</g>
		</g>
		<g>
			<g>
				<path style="fill:#263238;" d="M91.213,470.427c-0.144,0-0.26-2.829-0.26-6.318c0-3.49,0.117-6.319,0.26-6.319
					c0.144,0,0.26,2.829,0.26,6.319C91.473,467.598,91.357,470.427,91.213,470.427z"/>
			</g>
		</g>
		<g>
			<g>
				<path style="fill:#263238;" d="M729.125,470.427c0,0-0.283,0.017-0.836,0.026c-0.567,0.006-1.386,0.014-2.456,0.025
					c-2.174,0.011-5.357,0.027-9.455,0.048c-8.23,0.019-20.127,0.047-34.859,0.082c-29.492,0.02-70.324,0.048-115.74,0.079l-0.26,0
					v-0.26c0-1.997,0-4.149,0-6.31c0-2.167,0-4.325,0-6.327v-0.261l0.26,0c45.428,0.031,86.259,0.059,115.748,0.079
					c14.73,0.034,26.625,0.062,34.853,0.082c4.098,0.021,7.279,0.037,9.453,0.048c1.07,0.011,1.889,0.02,2.456,0.025
					c0.553,0.009,0.836,0.026,0.836,0.026s-0.283,0.018-0.836,0.026c-0.567,0.006-1.386,0.014-2.456,0.025
					c-2.173,0.011-5.355,0.027-9.453,0.048c-8.229,0.019-20.123,0.047-34.853,0.082c-29.489,0.02-70.321,0.048-115.748,0.079
					l0.26-0.26c0,2.002,0,4.159,0,6.327c0,2.161,0,4.314,0,6.31l-0.26-0.26c45.416,0.031,86.247,0.059,115.74,0.079
					c14.732,0.034,26.629,0.062,34.859,0.082c4.099,0.021,7.281,0.037,9.455,0.048c1.07,0.011,1.889,0.019,2.456,0.025
					C728.841,470.41,729.125,470.427,729.125,470.427z"/>
			</g>
		</g>
		<g>
			<g>
				<path style="fill:#263238;" d="M646.133,470.427c-0.144,0-0.26-2.829-0.26-6.318c0-3.49,0.117-6.319,0.26-6.319
					s0.26,2.829,0.26,6.319C646.393,467.598,646.277,470.427,646.133,470.427z"/>
			</g>
		</g>
		<g>
			<g>
				<path style="fill:#263238;" d="M719.016,470.427c-0.144,0-0.26-2.829-0.26-6.318c0-3.49,0.117-6.319,0.26-6.319
					c0.144,0,0.26,2.829,0.26,6.319C719.277,467.598,719.16,470.427,719.016,470.427z"/>
			</g>
		</g>
		<g>
			<g>
				<path style="fill:#FFFFFF;" d="M571.813,456.147c0,0.144-87.486,0.26-195.381,0.26c-107.932,0-195.4-0.117-195.4-0.26
					c0-0.144,87.467-0.26,195.4-0.26C484.327,455.887,571.813,456.004,571.813,456.147z"/>
			</g>
		</g>
	</g>
</g>
<g id="Plants">
	<g>
		<g>
			<g>
				<path style="fill:#FF725E;" d="M578.182,417.461c1.858,0.806,3.224,2.524,3.91,4.43c0.686,1.906,0.748,3.988,0.519,6
					c-0.441,3.894-2.654,7.824-5.036,10.936c-3.279-2.861-4.033-7.853-4.257-10.41C572.966,424.376,574.781,416.859,578.182,417.461
					"/>
			</g>
		</g>
		<g>
			<g>
				<path style="fill:#FF725E;" d="M581.387,445.253c-0.525-2.201,0.391-4.615,2.08-6.12c1.689-1.505,4.049-2.142,6.305-1.97
					c1.043,0.08,2.17,0.384,2.768,1.243c0.558,0.803,0.496,1.923,0.043,2.79c-0.453,0.867-1.237,1.515-2.065,2.035
					C587.677,445.014,584.6,446.217,581.387,445.253"/>
			</g>
		</g>
		<g>
			<g>
				<g>
					<path style="fill:#263238;" d="M577.182,457.193c-0.02-0.005,0.025-0.289,0.117-0.799c0.103-0.563,0.236-1.289,0.396-2.162
						c0.362-1.807,0.828-4.395,2.232-6.908c1.385-2.506,3.324-4.352,4.957-5.268c0.811-0.469,1.52-0.749,2.021-0.894
						c0.247-0.083,0.449-0.115,0.582-0.148c0.134-0.028,0.206-0.038,0.208-0.029c0.023,0.063-1.136,0.272-2.708,1.243
						c-1.576,0.943-3.45,2.77-4.813,5.234c-1.377,2.461-1.871,5.013-2.283,6.81c-0.199,0.906-0.36,1.64-0.485,2.145
						C577.282,456.921,577.201,457.197,577.182,457.193z"/>
				</g>
			</g>
		</g>
		<g>
			<g>
				<g>
					<path style="fill:#263238;" d="M577.306,423.308c0.01,0,0.023,0.12,0.04,0.349c0.015,0.259,0.035,0.592,0.06,1.004
						c0.047,0.872,0.098,2.134,0.148,3.694c0.101,3.12,0.18,7.432,0.16,12.196c-0.021,4.765-0.138,9.077-0.266,12.196
						c-0.064,1.56-0.126,2.821-0.18,3.692c-0.028,0.411-0.051,0.744-0.068,1.003c-0.019,0.229-0.033,0.349-0.043,0.349
						c-0.01,0-0.014-0.121-0.014-0.351c0.004-0.26,0.009-0.593,0.015-1.005c0.022-0.908,0.053-2.161,0.09-3.694
						c0.077-3.119,0.161-7.429,0.183-12.191c0.02-4.76-0.028-9.07-0.077-12.19c-0.024-1.534-0.044-2.787-0.058-3.695
						c-0.003-0.412-0.005-0.746-0.006-1.005C577.291,423.429,577.296,423.308,577.306,423.308z"/>
				</g>
			</g>
		</g>
		<g>
			<g>
				<path style="fill:#FF725E;" d="M575.714,447.624c-0.746-4.711-3.921-8.971-8.223-11.031c-1.095-0.525-2.526-0.868-3.427-0.053
					c-0.902,0.816-0.7,2.281-0.259,3.415c1.837,4.718,6.769,8.048,11.831,7.989"/>
			</g>
		</g>
		<g>
			<g>
				<g>
					<path style="fill:#263238;" d="M568.023,440.286c0.008-0.018,0.255,0.091,0.696,0.303c0.221,0.105,0.491,0.234,0.786,0.419
						c0.294,0.184,0.651,0.364,1.001,0.628c0.358,0.253,0.757,0.521,1.145,0.862c0.408,0.317,0.804,0.701,1.219,1.107
						c0.808,0.832,1.621,1.826,2.316,2.975c0.684,1.156,1.179,2.341,1.526,3.449c0.156,0.56,0.306,1.091,0.385,1.602
						c0.111,0.505,0.152,0.984,0.197,1.42c0.06,0.435,0.04,0.833,0.055,1.18c0.016,0.348-0.006,0.647-0.026,0.891
						c-0.036,0.488-0.065,0.756-0.084,0.754c-0.064-0.003,0.047-1.083-0.144-2.805c-0.057-0.429-0.109-0.9-0.228-1.395
						c-0.088-0.501-0.244-1.022-0.404-1.57c-0.354-1.085-0.848-2.246-1.519-3.381c-0.682-1.128-1.475-2.109-2.26-2.939
						c-0.403-0.405-0.787-0.789-1.183-1.11c-0.376-0.344-0.763-0.618-1.109-0.878C568.981,440.79,567.994,440.341,568.023,440.286z"
						/>
				</g>
			</g>
		</g>
	</g>
	<g>
		<g>
			<path style="fill:#455A64;" d="M98.798,381.28c3.586,25.538,7.173,51.075,10.759,76.613l2.8,0.091
				C110.57,431.963,108.668,405.423,98.798,381.28z"/>
		</g>
		<g>
			<path style="fill:#455A64;" d="M128.677,377.693c-7.515,8.232-10.537,19.556-12.44,30.539
				c-2.699,15.576-2.945,33.965-2.135,49.752l3.927,0.087C116.437,430.804,120.123,403.633,128.677,377.693z"/>
		</g>
		<g>
			<path style="fill:#455A64;" d="M100.775,426.605c-0.864-3.795-1.851-7.656-4.018-10.889c-2.927-4.367-7.695-7.13-12.493-9.28
				c-4.798-2.15-9.845-3.87-14.179-6.846c4.836,7.931,15.815,10.041,21.406,17.459c2.782,3.691,3.936,8.321,5.026,12.812
				c2.377,9.793,3.84,18.268,6.217,28.061h3.181C104.865,447.281,103.148,437.032,100.775,426.605z"/>
		</g>
		<g>
			<path style="fill:#455A64;" d="M120.894,457.984c0,0,2.695-30.428,4.692-36.014c1.997-5.586,20.884-21.022,20.702-20.296
				c-0.182,0.727-14.165,17.615-16.162,21.065c-1.998,3.45-5.448,35.244-5.448,35.244H120.894z"/>
		</g>
	</g>
</g>
<g id="Road_Sign_3">
	<g>
		<g>
			<g>
				<rect x="668.528" y="344.98" style="fill:#E0E0E0;" width="4.849" height="90.335"/>
			</g>
			<g>
				<g>
					<path style="fill:#263238;" d="M673.377,435.315c0,0-0.012-0.168-0.018-0.479c-0.004-0.331-0.01-0.786-0.018-1.372
						c-0.009-1.222-0.021-2.985-0.037-5.247c-0.019-4.565-0.045-11.139-0.079-19.279c-0.027-16.283-0.066-38.824-0.108-63.958
						l0.26,0.26c-1.536,0-3.185,0-4.845,0c0.511-0.519,0.142-0.126,0.256-0.234v0.031v0.062v0.125v0.249v0.498l0,0.994
						c0,0.662,0,1.322,0,1.98c0,1.316,0,2.626-0.001,3.928c-0.001,2.604-0.002,5.178-0.003,7.718
						c-0.003,5.08-0.007,10.023-0.01,14.796c-0.014,9.542-0.026,18.401-0.038,26.302c-0.061,15.753-0.107,27.669-0.13,33.625
						l-0.079-0.079c1.621,0.02,2.821,0.035,3.639,0.045c0.387,0.008,0.683,0.014,0.903,0.018
						C673.271,435.305,673.372,435.31,673.377,435.315c0.005,0.005-0.087,0.01-0.28,0.015c-0.215,0.004-0.505,0.01-0.885,0.018
						c-0.828,0.01-2.043,0.025-3.685,0.046l-0.079,0.001l0-0.08c-0.023-5.956-0.069-17.872-0.13-33.625
						c-0.011-7.901-0.024-16.759-0.038-26.302c-0.003-4.773-0.007-9.716-0.01-14.796c-0.001-2.54-0.002-5.114-0.003-7.718
						c0-1.302,0-2.612-0.001-3.928c0-0.658,0-1.318,0-1.98l0-0.994v-0.498v-0.249v-0.125v-0.062v-0.031
						c0.118-0.125-0.264,0.235,0.265-0.287c1.66,0,3.309,0,4.845,0h0.261l0,0.26c-0.042,25.209-0.081,47.818-0.108,64.15
						c-0.033,8.114-0.06,14.668-0.078,19.218c-0.016,2.236-0.028,3.978-0.037,5.186c-0.008,0.571-0.014,1.015-0.018,1.337
						C673.39,435.171,673.377,435.315,673.377,435.315z"/>
				</g>
			</g>
		</g>
		<g>
			<g>
				<path style="fill:#E0E0E0;" d="M674.651,457.79h-7.396v-22.547c0-0.999,0.81-1.809,1.809-1.809h3.779
					c0.999,0,1.809,0.81,1.809,1.809V457.79z"/>
			</g>
			<g>
				<g>
					<path style="fill:#263238;" d="M674.651,457.79c-0.013-0.013-0.025-0.242-0.038-0.666c-0.01-0.475-0.023-1.083-0.039-1.834
						c-0.021-1.638-0.051-3.896-0.087-6.656c-0.021-2.807-0.047-6.121-0.074-9.79c-0.003-0.92-0.007-1.862-0.01-2.823l-0.002-0.725
						c0-0.225-0.033-0.428-0.113-0.628c-0.155-0.397-0.488-0.725-0.894-0.875c-0.383-0.159-0.901-0.082-1.42-0.1
						c-0.513,0.001-1.029,0.001-1.55,0.002c-0.507,0.006-1.076-0.011-1.542,0.013c-0.448,0.053-0.874,0.311-1.119,0.7
						c-0.135,0.215-0.225,0.459-0.24,0.712c-0.013,0.253-0.004,0.577-0.007,0.861c0,0.586-0.001,1.167-0.001,1.743
						c-0.002,1.153-0.003,2.286-0.005,3.396c-0.006,2.218-0.013,4.345-0.018,6.353c-0.026,3.987-0.049,7.498-0.068,10.317
						l-0.168-0.168c2.256,0.039,4.073,0.07,5.393,0.092c0.598,0.017,1.083,0.03,1.47,0.041
						C674.457,457.768,674.639,457.779,674.651,457.79c0.011,0.011-0.149,0.022-0.47,0.035c-0.377,0.011-0.849,0.024-1.432,0.041
						c-1.345,0.023-3.195,0.054-5.494,0.092l-0.167,0.003l-0.001-0.171c-0.018-2.819-0.041-6.331-0.068-10.317
						c-0.006-2.008-0.012-4.135-0.018-6.353c-0.002-1.111-0.003-2.244-0.005-3.396c0-0.576-0.001-1.158-0.001-1.743
						c0.003-0.302-0.008-0.566,0.008-0.902c0.022-0.337,0.141-0.666,0.322-0.953c0.327-0.518,0.896-0.866,1.496-0.935
						c0.587-0.03,1.069-0.008,1.602-0.014c0.521,0.001,1.037,0.001,1.55,0.002l0.766,0.001c0.26-0.005,0.573,0.032,0.835,0.137
						c0.54,0.203,0.977,0.638,1.182,1.165c0.105,0.259,0.149,0.551,0.146,0.816l-0.002,0.737c-0.004,0.977-0.007,1.934-0.01,2.868
						c-0.028,3.711-0.053,7.062-0.074,9.901c-0.036,2.745-0.065,4.991-0.087,6.62c-0.016,0.727-0.029,1.315-0.039,1.775
						C674.676,457.599,674.663,457.803,674.651,457.79z"/>
				</g>
			</g>
		</g>
		<g>
			<g>
				<path style="fill:#FF725E;" d="M667.352,351.058l-40.02-37.834c-1.326-1.253-1.385-3.344-0.131-4.67l37.834-40.02
					c1.253-1.326,3.344-1.384,4.67-0.131l40.02,37.834c1.326,1.253,1.385,3.344,0.131,4.67l-37.834,40.02
					C670.768,352.253,668.677,352.312,667.352,351.058z"/>
			</g>
			<g>
				<path style="fill:#FFFFFF;" d="M669.446,347.111c-1.144,0-2.292-0.42-3.188-1.267l-34.788-32.889
					c-1.237-1.17-1.293-3.128-0.123-4.365l32.889-34.789c0.851-0.901,2.003-1.416,3.242-1.451c1.236-0.02,2.418,0.415,3.319,1.268
					l33.66,31.821c1.859,1.759,1.941,4.701,0.184,6.56l-31.821,33.66C671.909,346.623,670.678,347.111,669.446,347.111z
					 M666.602,345.481c0.804,0.76,1.886,1.154,2.961,1.13c1.106-0.031,2.134-0.491,2.894-1.295l31.821-33.66
					c1.568-1.658,1.495-4.284-0.164-5.854l-33.66-31.821c-0.804-0.76-1.857-1.149-2.961-1.131c-1.106,0.031-2.134,0.491-2.893,1.295
					l-32.889,34.789c-0.98,1.037-0.934,2.678,0.104,3.658L666.602,345.481z"/>
			</g>
			<g>
				<g>
					<g>
						<path style="fill:#FFFFFF;" d="M676.55,329.307h-3.91v-18.082c0-4.117-3.35-7.467-7.467-7.467h-10.268v-3.91h10.268
							c6.274,0,11.377,5.103,11.377,11.377V329.307z"/>
					</g>
				</g>
				<g>
					<g>
						<polygon style="fill:#FFFFFF;" points="663.969,294.614 663.969,308.21 650.529,301.802 						"/>
					</g>
				</g>
			</g>
			<g style="opacity:0.3;">
				<path d="M664.506,269.093l-36.777,38.902c-1.545,1.635-1.473,4.212,0.162,5.758l38.902,36.777c0,0,1.253,1.302,2.66,1.107
					c1.407-0.195-1.827-83.812-1.827-83.812S665.981,267.532,664.506,269.093z"/>
			</g>
		</g>
	</g>
</g>
<g id="Road_Sign_2">
	<g>
		<g>
			<g>
				<path style="fill:#263238;" d="M580.285,267.252c0-0.144,4.383-0.26,9.789-0.26c5.407,0,9.79,0.117,9.79,0.26
					c0,0.144-4.382,0.26-9.79,0.26C584.668,267.512,580.285,267.396,580.285,267.252z"/>
			</g>
		</g>
		<g>
			<g>
				<path style="fill:#263238;" d="M582.006,279.731c0-0.144,4.287-0.26,9.574-0.26c5.289,0,9.575,0.117,9.575,0.26
					c0,0.144-4.286,0.26-9.575,0.26C586.293,279.991,582.006,279.875,582.006,279.731z"/>
			</g>
		</g>
		<g>
			<g>
				<path style="fill:#263238;" d="M581.036,229.676c0-0.144,4.287-0.26,9.574-0.26c5.289,0,9.575,0.117,9.575,0.26
					s-4.286,0.26-9.575,0.26C585.323,229.936,581.036,229.82,581.036,229.676z"/>
			</g>
		</g>
		<g>
			<g>
				<path style="fill:#263238;" d="M579.315,217.197c0-0.144,4.383-0.26,9.789-0.26c5.408,0,9.79,0.117,9.79,0.26
					c0,0.144-4.382,0.26-9.79,0.26C583.698,217.458,579.315,217.341,579.315,217.197z"/>
			</g>
		</g>
		<g>
			<g>
				<path style="fill:#263238;" d="M579.315,137.539c0-0.144,4.383-0.26,9.789-0.26c5.408,0,9.79,0.117,9.79,0.26
					c0,0.144-4.382,0.26-9.79,0.26C583.698,137.799,579.315,137.682,579.315,137.539z"/>
			</g>
		</g>
		<g>
			<g>
				<path style="fill:#263238;" d="M581.036,150.018c0-0.144,4.287-0.26,9.574-0.26c5.289,0,9.575,0.117,9.575,0.26
					c0,0.144-4.286,0.26-9.575,0.26C585.323,150.278,581.036,150.161,581.036,150.018z"/>
			</g>
		</g>
		<g>
			<g>
				<path style="fill:#263238;" d="M532.131,124.993c-0.144,0-0.26-1.561-0.26-3.486c0-1.926,0.117-3.487,0.26-3.487
					s0.26,1.561,0.26,3.487C532.391,123.432,532.275,124.993,532.131,124.993z"/>
			</g>
		</g>
		<g>
			<g>
				<path style="fill:#263238;" d="M572.829,124.993c-0.144,0-0.26-1.561-0.26-3.486c0-1.926,0.117-3.487,0.26-3.487
					s0.26,1.561,0.26,3.487C573.089,123.432,572.973,124.993,572.829,124.993z"/>
			</g>
		</g>
		<g>
			
				<rect x="600.079" y="265.1" transform="matrix(-1 -1.224647e-16 1.224647e-16 -1 1205.7186 546.9828)" style="fill:#E0E0E0;" width="5.56" height="16.782"/>
			<path style="fill:#263238;" d="M606.139,282.382h-6.56v-17.781h6.56V282.382z M600.579,281.382h4.56v-15.781h-4.56V281.382z"/>
		</g>
		<g>
			<path style="fill:#E0E0E0;" d="M604.669,457.79h12.473V128.602c0-2.794-2.265-5.059-5.059-5.059h-2.356
				c-2.794,0-5.058,2.265-5.058,5.059V457.79z"/>
			<path style="fill:#263238;" d="M617.642,458.29h-13.474V128.601c0-3.065,2.493-5.559,5.559-5.559h2.356
				c3.066,0,5.559,2.494,5.559,5.559V458.29z M605.169,457.29h11.474V128.601c0-2.514-2.045-4.559-4.559-4.559h-2.356
				c-2.514,0-4.559,2.045-4.559,4.559V457.29z"/>
		</g>
		<g>
			
				<rect x="599.108" y="135.387" transform="matrix(-1 -1.224647e-16 1.224647e-16 -1 1203.7775 287.5562)" style="fill:#E0E0E0;" width="5.561" height="16.782"/>
			<path style="fill:#263238;" d="M605.169,152.669h-6.561v-17.782h6.561V152.669z M599.608,151.669h4.561v-15.782h-4.561V151.669z"
				/>
		</g>
		<g>
			
				<rect x="599.108" y="215.046" transform="matrix(-1 -1.224647e-16 1.224647e-16 -1 1203.7775 446.873)" style="fill:#E0E0E0;" width="5.561" height="16.782"/>
			<path style="fill:#263238;" d="M605.169,232.327h-6.561v-17.782h6.561V232.327z M599.608,231.327h4.561v-15.782h-4.561V231.327z"
				/>
		</g>
		<g>
			<path style="fill:#455A64;" d="M440.073,239.226h139.692c5.158,0,9.339-4.181,9.339-9.339v-97.004
				c0-5.158-4.181-9.339-9.339-9.339H440.073c-5.158,0-9.339,4.181-9.339,9.339v97.004
				C430.733,235.044,434.915,239.226,440.073,239.226z"/>
		</g>
		<g>
			<path style="fill:#FFFFFF;" d="M574.98,235.889H443.733c-5.219,0-9.464-4.246-9.464-9.464V135.87
				c0-5.219,4.245-9.464,9.464-9.464H574.98c5.219,0,9.465,4.246,9.465,9.464v90.555
				C584.445,231.643,580.199,235.889,574.98,235.889z M443.733,126.655c-5.08,0-9.214,4.133-9.214,9.214v90.555
				c0,5.081,4.134,9.214,9.214,9.214H574.98c5.081,0,9.215-4.133,9.215-9.214V135.87c0-5.081-4.134-9.214-9.215-9.214H443.733z"/>
		</g>
		<g>
			<path style="fill:#455A64;" d="M582.16,300.075H438.786c-3.835,0-6.944-3.109-6.944-6.944v-33.552
				c0-3.835,3.109-6.944,6.944-6.944H582.16c3.835,0,6.944,3.109,6.944,6.944v33.552
				C589.104,296.966,585.995,300.075,582.16,300.075z"/>
		</g>
		<g>
			<path style="fill:#FFFFFF;" d="M581.518,298.265h-142.53c-2.749,0-4.985-2.236-4.985-4.985v-32.754
				c0-2.749,2.236-4.986,4.985-4.986h142.53c2.749,0,4.986,2.237,4.986,4.986v32.754
				C586.505,296.029,584.267,298.265,581.518,298.265z M438.988,255.789c-2.611,0-4.735,2.125-4.735,4.736v32.754
				c0,2.611,2.124,4.735,4.735,4.735h142.53c2.611,0,4.736-2.124,4.736-4.735v-32.754c0-2.611-2.125-4.736-4.736-4.736H438.988z"/>
		</g>
		<g>
			<g>
				<g>
					<polygon style="fill:#FFFFFF;" points="543.28,186.637 551.015,174.558 558.599,186.637 					"/>
				</g>
			</g>
			<g>
				<g>
					<polygon style="fill:#FFFFFF;" points="553.655,199.885 548.223,199.885 548.282,184.711 553.655,184.711 					"/>
				</g>
			</g>
		</g>
		<g>
			<g>
				<g>
					<polygon style="fill:#FFFFFF;" points="449.052,276.355 456.787,264.276 464.371,276.355 					"/>
				</g>
			</g>
			<g>
				<g>
					<polygon style="fill:#FFFFFF;" points="459.427,289.603 453.995,289.603 454.054,274.429 459.427,274.429 					"/>
				</g>
			</g>
		</g>
		<g>
			<g>
				<path style="fill:#FFFFFF;" d="M541.839,273.908c0,0.144-14.292,0.26-31.919,0.26c-17.633,0-31.922-0.116-31.922-0.26
					c0-0.144,14.289-0.26,31.922-0.26C527.547,273.647,541.839,273.764,541.839,273.908z"/>
			</g>
		</g>
		<g>
			<g>
				<path style="fill:#FFFFFF;" d="M541.839,284.723c0,0.144-14.292,0.26-31.919,0.26c-17.633,0-31.922-0.117-31.922-0.26
					s14.289-0.26,31.922-0.26C527.547,284.462,541.839,284.579,541.839,284.723z"/>
			</g>
		</g>
		<g>
			<g>
				<path style="fill:#FFFFFF;" d="M573.589,274.105c0,0.144-3.187,0.26-7.117,0.26c-3.932,0-7.118-0.117-7.118-0.26
					c0-0.144,3.186-0.26,7.118-0.26C570.402,273.844,573.589,273.961,573.589,274.105z"/>
			</g>
		</g>
		<g>
			<g>
				<path style="fill:#FFFFFF;" d="M570.857,283.423c0,0.144-2.157,0.26-4.817,0.26c-2.661,0-4.817-0.117-4.817-0.26
					c0-0.144,2.156-0.26,4.817-0.26C568.701,283.163,570.857,283.279,570.857,283.423z"/>
			</g>
		</g>
		<g>
			<polygon style="fill:#FFFFFF;" points="460.475,176.733 463.484,190.875 467.195,186.963 470.405,189.571 470.405,200.203 
				475.119,200.203 475.119,187.766 470.806,183.553 474.679,178.947 			"/>
		</g>
		<g>
			<g>
				<path style="fill:#FFFFFF;" d="M567.391,152.039c0,0.144-25.733,0.26-57.47,0.26c-31.748,0-57.475-0.117-57.475-0.26
					s25.728-0.26,57.475-0.26C541.658,151.778,567.391,151.895,567.391,152.039z"/>
			</g>
		</g>
		<g>
			<g>
				<path style="fill:#FFFFFF;" d="M531.956,162.224c0,0.144-9.631,0.26-21.509,0.26c-11.882,0-21.511-0.117-21.511-0.26
					c0-0.144,9.629-0.26,21.511-0.26C522.325,161.964,531.956,162.08,531.956,162.224z"/>
			</g>
		</g>
		<g>
			<g>
				<path style="fill:#FFFFFF;" d="M482.73,217.649c0,0.144-5.27,0.26-11.769,0.26c-6.501,0-11.77-0.117-11.77-0.26
					s5.269-0.26,11.77-0.26C477.46,217.389,482.73,217.505,482.73,217.649z"/>
			</g>
		</g>
		<g>
			<g>
				<path style="fill:#FFFFFF;" d="M566.222,214.339c0,0.144-6.834,0.26-15.263,0.26c-8.432,0-15.265-0.117-15.265-0.26
					c0-0.144,6.833-0.26,15.265-0.26C559.388,214.079,566.222,214.195,566.222,214.339z"/>
			</g>
		</g>
		<g>
			<path style="fill:#455A64;" d="M583.11,118.19h-58.971c-0.883,0-1.6-0.716-1.6-1.6v-14.64c0-0.883,0.716-1.6,1.6-1.6h58.971
				c0.883,0,1.6,0.716,1.6,1.6v14.64C584.71,117.474,583.994,118.19,583.11,118.19z"/>
		</g>
		<g>
			<path style="fill:#FFFFFF;" d="M581.441,116.915h-56.107c-0.951,0-1.725-0.773-1.725-1.725v-11.934
				c0-0.951,0.773-1.725,1.725-1.725h56.107c0.951,0,1.725,0.773,1.725,1.725v11.934
				C583.166,116.142,582.392,116.915,581.441,116.915z M525.335,101.782c-0.813,0-1.475,0.662-1.475,1.475v11.934
				c0,0.813,0.661,1.475,1.475,1.475h56.107c0.813,0,1.475-0.662,1.475-1.475v-11.934c0-0.813-0.661-1.475-1.475-1.475H525.335z"/>
		</g>
		<g>
			<g>
				<path style="fill:#FFFFFF;" d="M576.1,109.055c0,0.144-10.225,0.26-22.836,0.26c-12.615,0-22.838-0.117-22.838-0.26
					s10.223-0.26,22.838-0.26C565.875,108.794,576.1,108.911,576.1,109.055z"/>
			</g>
		</g>
	</g>
</g>
<g id="Road_Sign_1">
	<g>
		<g>
			<g>
				<rect x="135.521" y="344.98" style="fill:#E0E0E0;" width="4.849" height="90.335"/>
			</g>
			<g>
				<g>
					<path style="fill:#263238;" d="M140.37,435.315c0,0-0.012-0.168-0.018-0.479c-0.004-0.331-0.01-0.786-0.018-1.372
						c-0.009-1.222-0.021-2.985-0.037-5.247c-0.018-4.565-0.045-11.139-0.078-19.279c-0.027-16.283-0.066-38.824-0.108-63.958
						l0.26,0.26c-1.536,0-3.185,0-4.845,0c0.511-0.519,0.142-0.126,0.256-0.234v0.031v0.062v0.125v0.249v0.498l0,0.994
						c0,0.662,0,1.322,0,1.98c0,1.316-0.001,2.626-0.001,3.928c-0.001,2.604-0.002,5.178-0.003,7.718
						c-0.003,5.08-0.007,10.023-0.01,14.796c-0.014,9.542-0.026,18.401-0.038,26.302c-0.061,15.753-0.107,27.669-0.13,33.625
						l-0.079-0.079c1.621,0.02,2.821,0.035,3.639,0.045c0.387,0.008,0.683,0.014,0.903,0.018
						C140.264,435.305,140.365,435.31,140.37,435.315c0.005,0.005-0.087,0.01-0.28,0.015c-0.215,0.004-0.505,0.01-0.885,0.018
						c-0.828,0.01-2.043,0.025-3.685,0.046l-0.079,0.001l0-0.08c-0.023-5.956-0.069-17.872-0.13-33.625
						c-0.011-7.901-0.024-16.759-0.038-26.302c-0.003-4.773-0.007-9.716-0.01-14.796c-0.001-2.54-0.002-5.114-0.003-7.718
						c0-1.302,0-2.612-0.001-3.928c0-0.658,0-1.318,0-1.98l0-0.994v-0.498v-0.249v-0.125v-0.062v-0.031
						c0.118-0.125-0.264,0.235,0.265-0.287c1.659,0,3.309,0,4.845,0h0.261l0,0.26c-0.043,25.209-0.081,47.818-0.108,64.15
						c-0.033,8.114-0.06,14.668-0.078,19.218c-0.016,2.236-0.028,3.978-0.037,5.186c-0.008,0.571-0.014,1.015-0.018,1.337
						C140.382,435.171,140.37,435.315,140.37,435.315z"/>
				</g>
			</g>
		</g>
		<g>
			<g>
				<path style="fill:#E0E0E0;" d="M141.643,457.79h-7.396v-22.547c0-0.999,0.81-1.809,1.808-1.809h3.779
					c0.999,0,1.809,0.81,1.809,1.809V457.79z"/>
			</g>
			<g>
				<g>
					<path style="fill:#263238;" d="M141.643,457.79c-0.013-0.013-0.025-0.242-0.038-0.666c-0.01-0.475-0.023-1.083-0.039-1.834
						c-0.021-1.638-0.051-3.896-0.087-6.656c-0.021-2.807-0.046-6.121-0.074-9.79c-0.003-0.92-0.007-1.862-0.01-2.823l-0.002-0.725
						c0.001-0.225-0.033-0.428-0.113-0.628c-0.155-0.397-0.488-0.725-0.894-0.875c-0.382-0.159-0.901-0.082-1.42-0.1
						c-0.513,0.001-1.029,0.001-1.55,0.002c-0.507,0.006-1.076-0.011-1.542,0.013c-0.448,0.053-0.874,0.311-1.119,0.7
						c-0.135,0.215-0.225,0.459-0.24,0.712c-0.013,0.253-0.004,0.577-0.007,0.861c0,0.586-0.001,1.167-0.001,1.743
						c-0.002,1.153-0.003,2.286-0.005,3.396c-0.007,2.218-0.013,4.345-0.018,6.353c-0.026,3.987-0.049,7.498-0.068,10.317
						l-0.168-0.168c2.256,0.039,4.073,0.07,5.393,0.092c0.598,0.017,1.084,0.03,1.47,0.041
						C141.449,457.768,141.632,457.779,141.643,457.79c0.011,0.011-0.149,0.022-0.47,0.035c-0.377,0.011-0.849,0.024-1.432,0.041
						c-1.345,0.023-3.195,0.054-5.494,0.092l-0.167,0.003l-0.001-0.171c-0.018-2.819-0.041-6.331-0.068-10.317
						c-0.006-2.008-0.012-4.135-0.018-6.353c-0.002-1.111-0.003-2.244-0.005-3.396c0-0.576-0.001-1.158-0.001-1.743
						c0.003-0.302-0.008-0.566,0.008-0.902c0.022-0.337,0.141-0.666,0.322-0.953c0.327-0.518,0.896-0.866,1.496-0.935
						c0.587-0.03,1.069-0.008,1.603-0.014c0.521,0.001,1.037,0.001,1.55,0.002l0.766,0.001c0.26-0.005,0.573,0.032,0.835,0.137
						c0.54,0.203,0.977,0.638,1.182,1.165c0.105,0.259,0.149,0.551,0.146,0.816l-0.002,0.737c-0.004,0.977-0.007,1.934-0.01,2.868
						c-0.028,3.711-0.053,7.062-0.074,9.901c-0.036,2.745-0.065,4.991-0.087,6.62c-0.016,0.727-0.029,1.315-0.039,1.775
						C141.668,457.599,141.656,457.803,141.643,457.79z"/>
				</g>
			</g>
		</g>
		<g>
			<path style="fill:#FF725E;" d="M118.353,282.146l-17.347,28.735c-0.925,1.532-0.925,3.449,0,4.981l17.347,28.735
				c0.872,1.445,2.437,2.328,4.125,2.328h31.991c1.688,0,3.253-0.883,4.125-2.328l17.396-28.81c0.899-1.488,0.926-3.345,0.072-4.859
				l-16.17-28.66c-0.854-1.514-2.458-2.451-4.197-2.451h-33.218C120.79,279.818,119.225,280.701,118.353,282.146z"/>
		</g>
		<g>
			<path style="fill:#FFFFFF;" d="M152.866,344.714h-29.645c-1.642,0-3.188-0.873-4.037-2.278l-16.075-26.628
				c-0.908-1.503-0.908-3.37,0-4.873l16.075-26.628c0.848-1.405,2.395-2.278,4.037-2.278h30.782c1.698,0,3.272,0.919,4.106,2.398
				l14.984,26.558c0.835,1.479,0.808,3.302-0.07,4.755l-16.121,26.697C156.054,343.842,154.508,344.714,152.866,344.714z
				 M123.221,282.529c-1.468,0-2.851,0.78-3.609,2.036l-16.075,26.628c-0.812,1.344-0.812,3.014,0,4.357l16.075,26.628
				c0.758,1.256,2.141,2.036,3.609,2.036h29.645c1.468,0,2.85-0.78,3.609-2.035l16.121-26.697c0.785-1.3,0.809-2.929,0.063-4.251
				l-14.984-26.558c-0.746-1.323-2.153-2.145-3.671-2.145H123.221z"/>
		</g>
		<g>
			<g>
				<circle style="fill:#E0E0E0;" cx="137.945" cy="340.063" r="1.476"/>
			</g>
			<g>
				<g>
					<path style="fill:#263238;" d="M139.422,340.063c-0.087,0.024-0.067-0.585-0.695-1.027c-0.299-0.208-0.766-0.309-1.203-0.134
						c-0.434,0.162-0.799,0.625-0.795,1.161c-0.005,0.536,0.361,0.999,0.795,1.161c0.437,0.175,0.904,0.074,1.203-0.134
						C139.355,340.648,139.335,340.039,139.422,340.063c0.031-0.001,0.08,0.133,0.052,0.385c-0.028,0.246-0.16,0.626-0.523,0.935
						c-0.351,0.309-0.969,0.505-1.59,0.292c-0.615-0.192-1.16-0.844-1.152-1.612c-0.007-0.768,0.538-1.419,1.152-1.612
						c0.62-0.213,1.239-0.017,1.59,0.292c0.364,0.309,0.496,0.688,0.524,0.935C139.502,339.93,139.453,340.064,139.422,340.063z"/>
				</g>
			</g>
		</g>
		<g>
			<g>
				<g>
					<path style="fill:#E0E0E0;" d="M127.759,308.166l-1.345,2.457c-0.06,0.11-0.155,0.197-0.268,0.246l-3.585,1.556
						c-0.442,0.192-0.657,0.706-0.489,1.166l0,0c0.175,0.479,0.7,0.718,1.165,0.532l3.785-1.515
						c0.083-0.033,0.157-0.087,0.216-0.155l1.358-1.589v4.329c0,0.077-0.015,0.152-0.044,0.223l-2.177,5.239
						c-0.156,0.376,0.113,0.793,0.512,0.793h0.675l-1.081,5.704c-0.119,0.627,0.351,1.21,0.975,1.21l0,0
						c0.432,0,0.815-0.286,0.947-0.708l1.738-5.572c0.067-0.214,0.251-0.368,0.469-0.393l0.882-0.1l1.789,5.858
						c0.162,0.53,0.671,0.866,1.21,0.797l0,0c0.675-0.086,1.12-0.762,0.945-1.435l-1.324-5.078l1.268-0.09
						c0.368-0.026,0.61-0.404,0.486-0.759l-0.513-1.48l3.232-0.721c0.307-0.069,0.498-0.383,0.421-0.695l-0.708-2.9
						c-0.067-0.276-0.323-0.459-0.6-0.428l-1.449,0.159l0.054-1.671c0.008-0.259,0.186-0.48,0.433-0.536
						c0.885-0.202,2.909-0.719,3.443-1.32c0.689-0.776,1.517-2.187,1.517-2.187v6.857c0,0.084-0.018,0.166-0.053,0.242
						c-0.317,0.686-1.953,4.258-2.016,4.895c-0.049,0.497,0.04,3.617,0.096,5.42c0.022,0.716,0.596,1.283,1.296,1.283l0,0
						c0.716,0,1.297-0.594,1.297-1.327v-5.293c0-0.101,0.026-0.199,0.075-0.286l1.369-2.412c0.286-0.503,1.038-0.296,1.038,0.286
						v3.134c0,0.074,0.014,0.148,0.042,0.217l1.901,4.732c0.309,0.77,1.242,1.038,1.898,0.546l0,0
						c0.459-0.344,0.633-0.962,0.424-1.503l-1.64-4.251c-0.048-0.124-0.052-0.262-0.01-0.389l0.212-0.65l5.816-1.358
						c0.294-0.069,0.481-0.364,0.422-0.666l-0.771-3.988c-0.052-0.267-0.28-0.459-0.546-0.459h-2.576l0.194-2.948
						c0.052-0.796-0.178-1.585-0.649-2.22l-1.49-2.01c-0.512-0.69-1.31-1.096-2.157-1.096h-3.242c-0.835,0-1.611,0.443-2.05,1.17
						l-1.54,2.549c-0.063,0.105-0.159,0.186-0.271,0.231l-2.253,0.9c-0.236,0.094-0.504,0.014-0.653-0.196l-1.783-2.515
						c-0.324-0.457-0.842-0.727-1.393-0.727h-3.423C128.637,307.265,128.063,307.61,127.759,308.166z"/>
				</g>
			</g>
			<g>
				<g>
					<path style="fill:#E0E0E0;" d="M133.73,303.458c0,1.566-1.241,2.836-2.772,2.836c-1.531,0-2.772-1.27-2.772-2.836
						s1.241-2.836,2.772-2.836C132.489,300.622,133.73,301.892,133.73,303.458z"/>
				</g>
			</g>
			<g>
				<g>
					<path style="fill:#E0E0E0;" d="M147.602,301.377c0,1.654-1.31,2.995-2.926,2.995c-1.616,0-2.927-1.341-2.927-2.995
						s1.31-2.995,2.927-2.995C146.292,298.382,147.602,299.723,147.602,301.377z"/>
				</g>
			</g>
		</g>
		<g style="opacity:0.3;">
			<path d="M122.478,279.818c-1.688,0-3.253,0.883-4.125,2.328l-17.347,28.735c-0.925,1.532-0.925,3.449,0,4.981l17.347,28.735
				l37.343-64.779H122.478z"/>
		</g>
		<g>
			<g>
				<circle style="fill:#E0E0E0;" cx="138.066" cy="286.207" r="1.476"/>
			</g>
			<g>
				<g>
					<path style="fill:#263238;" d="M139.542,286.207c-0.087,0.024-0.067-0.585-0.695-1.027c-0.299-0.208-0.766-0.309-1.203-0.134
						c-0.434,0.162-0.799,0.625-0.795,1.161c-0.005,0.536,0.361,0.999,0.795,1.161c0.437,0.175,0.903,0.074,1.203-0.134
						C139.475,286.792,139.456,286.183,139.542,286.207c0.031-0.001,0.08,0.133,0.052,0.385c-0.028,0.246-0.16,0.626-0.523,0.935
						c-0.351,0.309-0.969,0.505-1.59,0.292c-0.615-0.192-1.16-0.844-1.152-1.612c-0.008-0.768,0.538-1.419,1.152-1.612
						c0.62-0.213,1.239-0.017,1.59,0.292c0.364,0.309,0.496,0.688,0.524,0.935C139.622,286.074,139.573,286.208,139.542,286.207z"/>
				</g>
			</g>
		</g>
	</g>
</g>
</svg>
