<?xml version="1.0" encoding="utf-8"?>
<!-- Generator: Adobe Illustrator 27.5.0, SVG Export Plug-In . SVG Version: 6.00 Build 0)  -->
<svg version="1.1" xmlns="http://www.w3.org/2000/svg" xmlns:xlink="http://www.w3.org/1999/xlink" x="0px" y="0px"
	 viewBox="0 0 750 500" style="enable-background:new 0 0 750 500;" xml:space="preserve">
<g id="Background_Simple">
	<g>
		<path style="fill:#92E3A9;" d="M87.959,181.837c0,0,57.876-79.346,176.428-97.082c118.552-17.736,251.107,88.681,304.315,128.82
			c53.208,40.14,156.101,75.993,166.16,140.022c10.059,64.029-23.121,95.329-23.121,95.329H41.285c0,0-23.337-107.464,2.8-177.475
			S87.959,181.837,87.959,181.837z"/>
		<path style="opacity:0.7;fill:#FFFFFF;" d="M87.959,181.837c0,0,57.876-79.346,176.428-97.082
			c118.552-17.736,251.107,88.681,304.315,128.82c53.208,40.14,156.101,75.993,166.16,140.022
			c10.059,64.029-23.121,95.329-23.121,95.329H41.285c0,0-23.337-107.464,2.8-177.475S87.959,181.837,87.959,181.837z"/>
	</g>
</g>
<g id="Pillar_2">
	<g>
		
			<rect x="591.741" y="43.627" style="fill:#FFFFFF;stroke:#263238;stroke-linecap:round;stroke-linejoin:round;stroke-miterlimit:10;" width="119.627" height="405.3"/>
		
			<rect x="591.741" y="292.625" style="fill:#92E3A9;stroke:#263238;stroke-linecap:round;stroke-linejoin:round;stroke-miterlimit:10;" width="119.627" height="156.301"/>
		<g>
			<polygon style="fill:#263238;" points="658.65,395.558 594.609,331.518 594.609,351.917 658.65,415.958 			"/>
			<polygon style="fill:#263238;" points="709.148,446.057 693.172,430.08 693.172,446.057 			"/>
			<polygon style="fill:#263238;" points="658.65,446.057 658.65,434.577 594.609,370.537 594.609,390.936 649.73,446.057 			"/>
			<polygon style="fill:#263238;" points="658.65,356.54 597.571,295.461 594.609,295.461 594.609,312.898 658.65,376.939 			"/>
			<polygon style="fill:#263238;" points="693.172,391.062 693.172,411.461 711.368,429.657 711.368,409.258 			"/>
			<polygon style="fill:#263238;" points="631.111,446.057 594.609,409.555 594.609,429.955 610.711,446.057 			"/>
			<polygon style="fill:#263238;" points="658.65,317.521 636.59,295.461 616.191,295.461 658.65,337.92 			"/>
			<polygon style="fill:#263238;" points="693.172,352.043 693.172,372.442 711.368,390.638 711.368,370.239 			"/>
		</g>
		
			<rect x="662.875" y="43.627" style="fill:#FFFFFF;stroke:#263238;stroke-linecap:round;stroke-linejoin:round;stroke-miterlimit:10;" width="48.493" height="405.3"/>
		
			<rect x="662.875" y="292.625" style="fill:#92E3A9;stroke:#263238;stroke-linecap:round;stroke-linejoin:round;stroke-miterlimit:10;" width="48.493" height="156.301"/>
		<g>
			<polygon style="fill:#263238;" points="666.155,363.226 666.155,383.626 709.682,340.098 709.682,319.699 			"/>
			<polygon style="fill:#263238;" points="666.155,441.264 666.155,448.927 678.891,448.927 709.682,418.135 709.682,397.736 			"/>
			<polygon style="fill:#263238;" points="695.401,294.961 666.155,324.207 666.155,344.607 709.682,301.079 709.682,294.961 			"/>
			<polygon style="fill:#263238;" points="666.155,402.245 666.155,422.644 709.682,379.117 709.682,358.717 			"/>
			<polygon style="fill:#263238;" points="709.682,436.755 697.51,448.927 709.682,448.927 			"/>
		</g>
	</g>
</g>
<g id="Lights_2">
	<g>
		<g>
			
				<line style="fill:none;stroke:#263238;stroke-linecap:round;stroke-linejoin:round;stroke-miterlimit:10;" x1="346.403" y1="78.164" x2="346.403" y2="43.627"/>
			<line style="fill:#FFFFFF;stroke:#000000;stroke-miterlimit:10;" x1="321.939" y1="78.164" x2="321.939" y2="43.627"/>
			<line style="fill:#FFFFFF;stroke:#000000;stroke-miterlimit:10;" x1="297.476" y1="78.164" x2="297.476" y2="43.627"/>
		</g>
		<g>
			
				<line style="fill:none;stroke:#263238;stroke-linecap:round;stroke-linejoin:round;stroke-miterlimit:10;" x1="433.464" y1="78.164" x2="433.464" y2="43.627"/>
			<line style="fill:#FFFFFF;stroke:#000000;stroke-miterlimit:10;" x1="409.001" y1="78.164" x2="409.001" y2="43.627"/>
			<line style="fill:#FFFFFF;stroke:#000000;stroke-miterlimit:10;" x1="384.537" y1="78.164" x2="384.537" y2="43.627"/>
		</g>
		<g>
			
				<line style="fill:none;stroke:#263238;stroke-linecap:round;stroke-linejoin:round;stroke-miterlimit:10;" x1="520.525" y1="78.164" x2="520.525" y2="43.627"/>
			<line style="fill:#FFFFFF;stroke:#000000;stroke-miterlimit:10;" x1="496.062" y1="78.164" x2="496.062" y2="43.627"/>
			<line style="fill:#FFFFFF;stroke:#000000;stroke-miterlimit:10;" x1="471.598" y1="78.164" x2="471.598" y2="43.627"/>
		</g>
		<g>
			
				<line style="fill:none;stroke:#263238;stroke-linecap:round;stroke-linejoin:round;stroke-miterlimit:10;" x1="607.586" y1="78.164" x2="607.586" y2="43.627"/>
			<line style="fill:#FFFFFF;stroke:#000000;stroke-miterlimit:10;" x1="583.123" y1="78.164" x2="583.123" y2="43.627"/>
			<line style="fill:#FFFFFF;stroke:#000000;stroke-miterlimit:10;" x1="558.66" y1="78.164" x2="558.66" y2="43.627"/>
		</g>
		<g>
			
				<rect x="552.707" y="78.96" style="fill:#263238;stroke:#263238;stroke-linecap:round;stroke-linejoin:round;stroke-miterlimit:10;" width="72.383" height="12.936"/>
			
				<rect x="552.707" y="83.399" style="fill:#FFFFFF;stroke:#263238;stroke-linecap:round;stroke-linejoin:round;stroke-miterlimit:10;" width="72.383" height="8.497"/>
			
				<rect x="575.077" y="83.399" style="fill:#FFFFFF;stroke:#263238;stroke-linecap:round;stroke-linejoin:round;stroke-miterlimit:10;" width="50.013" height="8.497"/>
		</g>
		<g>
			
				<rect x="462.422" y="78.96" style="fill:#263238;stroke:#263238;stroke-linecap:round;stroke-linejoin:round;stroke-miterlimit:10;" width="72.383" height="12.936"/>
			
				<rect x="462.422" y="83.399" style="fill:#FFFFFF;stroke:#263238;stroke-linecap:round;stroke-linejoin:round;stroke-miterlimit:10;" width="72.383" height="8.497"/>
			
				<rect x="484.792" y="83.399" style="fill:#FFFFFF;stroke:#263238;stroke-linecap:round;stroke-linejoin:round;stroke-miterlimit:10;" width="50.013" height="8.497"/>
		</g>
		<g>
			
				<rect x="372.137" y="78.96" style="fill:#263238;stroke:#263238;stroke-linecap:round;stroke-linejoin:round;stroke-miterlimit:10;" width="72.383" height="12.936"/>
			
				<rect x="372.137" y="83.399" style="fill:#FFFFFF;stroke:#263238;stroke-linecap:round;stroke-linejoin:round;stroke-miterlimit:10;" width="72.383" height="8.497"/>
			
				<rect x="394.507" y="83.399" style="fill:#FFFFFF;stroke:#263238;stroke-linecap:round;stroke-linejoin:round;stroke-miterlimit:10;" width="50.013" height="8.497"/>
		</g>
		<g>
			
				<rect x="281.852" y="78.96" style="fill:#263238;stroke:#263238;stroke-linecap:round;stroke-linejoin:round;stroke-miterlimit:10;" width="72.383" height="12.936"/>
			
				<rect x="281.852" y="83.399" style="fill:#FFFFFF;stroke:#263238;stroke-linecap:round;stroke-linejoin:round;stroke-miterlimit:10;" width="72.383" height="8.497"/>
			
				<rect x="304.222" y="83.399" style="fill:#FFFFFF;stroke:#263238;stroke-linecap:round;stroke-linejoin:round;stroke-miterlimit:10;" width="50.013" height="8.497"/>
		</g>
		
			<rect x="280.208" y="64.493" style="fill:#263238;stroke:#263238;stroke-linecap:round;stroke-linejoin:round;stroke-miterlimit:10;" width="343.928" height="5.756"/>
	</g>
</g>
<g id="Car_2">
	<g>
		<path style="fill:#263238;stroke:#263238;stroke-linecap:round;stroke-linejoin:round;stroke-miterlimit:10;" d="M600.336,399.1
			h-8.771l-0.126,0.185c-0.745-0.112-1.498-0.185-2.266-0.185c-10.694,0-19.363,11.154-19.363,24.913
			c0,13.759,8.669,24.913,19.363,24.913c0.768,0,1.522-0.073,2.266-0.185l0.126,0.185h8.771c10.694,0,19.363-11.154,19.363-24.913
			C619.699,410.254,611.03,399.1,600.336,399.1z"/>
		<path style="fill:#263238;stroke:#263238;stroke-linecap:round;stroke-linejoin:round;stroke-miterlimit:10;" d="M420.686,399.1
			h-8.771l-0.126,0.185c-0.745-0.112-1.498-0.185-2.266-0.185c-10.694,0-19.363,11.154-19.363,24.913
			c0,13.759,8.669,24.913,19.363,24.913c0.768,0,1.522-0.073,2.266-0.185l0.126,0.185h8.771c10.694,0,19.363-11.154,19.363-24.913
			C440.049,410.254,431.38,399.1,420.686,399.1z"/>
		<path style="fill:#B2B2B2;stroke:#263238;stroke-linecap:round;stroke-linejoin:round;stroke-miterlimit:10;" d="M683.797,399.833
			h-4.207l-3.771-26.437c-0.459-3.219-3.216-5.609-6.467-5.609h-23.59l-38.301-40.646c-4.146-4.4-9.924-6.895-15.971-6.895H489.954
			c-4.426,0-8.66,1.806-11.724,5l-174.397,73.626v31.084h261.476l65.622-0.466l48.66-3.191v-0.222h4.001
			c0.882,0,1.597-0.715,1.597-1.597v-23.256C685.188,400.456,684.565,399.833,683.797,399.833z"/>
		<path style="fill:#263238;stroke:#263238;stroke-linecap:round;stroke-linejoin:round;stroke-miterlimit:10;" d="M609.516,425.18
			v4.462l21.415-0.152l48.66-3.191v-0.222h4.001c0.627,0,1.157-0.371,1.419-0.897H609.516z"/>
		<path style="fill:#263238;stroke:#263238;stroke-linecap:round;stroke-linejoin:round;stroke-miterlimit:10;" d="M630.93,429.49
			L630.93,429.49c2.057-0.135,1.956-3.191-0.104-3.191h-24.604l-90.996-106.053h-25.271c-4.426,0-8.66,1.806-11.724,5
			l-174.397,73.626v31.084h261.476L630.93,429.49z"/>
		<g>
			<path style="fill:#263238;stroke:#263238;stroke-linecap:round;stroke-linejoin:round;stroke-miterlimit:10;" d="M344.575,399.1
				h-8.771l-5.751,8.443c-3.011,4.391-4.841,10.154-4.841,16.47c0,6.316,1.83,12.079,4.841,16.47l5.751,8.444h8.771
				c10.694,0,19.363-11.154,19.363-24.913C363.937,410.254,355.268,399.1,344.575,399.1z"/>
			
				<ellipse style="fill:#636363;stroke:#263238;stroke-linecap:round;stroke-linejoin:round;stroke-miterlimit:10;" cx="333.412" cy="424.014" rx="19.362" ry="24.913"/>
			
				<ellipse style="fill:#FFFFFF;stroke:#263238;stroke-linecap:round;stroke-linejoin:round;stroke-miterlimit:10;" cx="333.412" cy="424.014" rx="15.446" ry="19.875"/>
			<path style="fill:#FFFFFF;stroke:#263238;stroke-linecap:round;stroke-linejoin:round;stroke-miterlimit:10;" d="
				M336.675,424.013c0,2.319-1.461,4.199-3.263,4.199c-1.802,0-3.263-1.88-3.263-4.199c0-2.319,1.461-4.199,3.263-4.199
				C335.214,419.815,336.675,421.695,336.675,424.013z"/>
		</g>
		<g>
			<path style="fill:#263238;stroke:#263238;stroke-linecap:round;stroke-linejoin:round;stroke-miterlimit:10;" d="M539.996,399.1
				h-8.771l-5.751,8.443c-3.011,4.391-4.841,10.154-4.841,16.47c0,6.316,1.83,12.079,4.841,16.47l5.751,8.444h8.771
				c10.694,0,19.363-11.154,19.363-24.913C559.358,410.254,550.689,399.1,539.996,399.1z"/>
			
				<ellipse style="fill:#636363;stroke:#263238;stroke-linecap:round;stroke-linejoin:round;stroke-miterlimit:10;" cx="528.833" cy="424.014" rx="19.363" ry="24.913"/>
			
				<ellipse style="fill:#FFFFFF;stroke:#263238;stroke-linecap:round;stroke-linejoin:round;stroke-miterlimit:10;" cx="528.833" cy="424.014" rx="15.447" ry="19.875"/>
			<path style="fill:#FFFFFF;stroke:#263238;stroke-linecap:round;stroke-linejoin:round;stroke-miterlimit:10;" d="
				M532.096,424.013c0,2.319-1.461,4.199-3.263,4.199c-1.802,0-3.263-1.88-3.263-4.199c0-2.319,1.461-4.199,3.263-4.199
				C530.635,419.815,532.096,421.695,532.096,424.013z"/>
		</g>
		<path style="fill:#263238;stroke:#263238;stroke-linecap:round;stroke-linejoin:round;stroke-miterlimit:10;" d="M607.461,327.141
			c-0.316-0.336-0.66-0.639-0.994-0.952h-79.1v39.084h116.026L607.461,327.141z"/>
		<path style="fill:#B2B2B2;stroke:#263238;stroke-linecap:round;stroke-linejoin:round;stroke-miterlimit:10;" d="M616.545,399.833
			h-4.61l-4.571-32.046h-29.256l-38.301-40.646c-4.146-4.4-9.924-6.895-15.971-6.895h-93.205c-4.426,0-8.66,1.806-11.724,5
			l-59.534,39.799l-55.084,23.77l-8.619,11.574c-2.121,2.848-3.266,6.304-3.266,9.854v19.713h17.371v-6.569
			c0-16.064,11.682-29.087,26.092-29.087l0,0c12.839,0,20.818,10.412,22.82,24.55l1.573,11.106h145.164v-6.569
			c0-16.064,6.592-29.087,24.309-29.087h0c15.786,0,21.431,10.412,23.893,24.55l1.853,10.639l56.455-3.191v-0.222h4.61V399.833z"/>
		<path style="fill:#263238;stroke:#263238;stroke-linecap:round;stroke-linejoin:round;stroke-miterlimit:10;" d="M419.406,331.104
			l-51.118,33.941h95.539v-38.399h-33.827C426.012,326.646,422.193,328.253,419.406,331.104z"/>
		<g>
			<path style="fill:#FFFFFF;stroke:#263238;stroke-linecap:round;stroke-linejoin:round;stroke-miterlimit:10;" d="
				M408.305,365.044l30.301-38.399h-8.607c-3.987,0-7.806,1.607-10.594,4.458l-17.886,11.876l-17.411,22.065H408.305z"/>
			<polygon style="fill:#FFFFFF;stroke:#263238;stroke-linecap:round;stroke-linejoin:round;stroke-miterlimit:10;" points="
				463.827,365.044 463.827,337.472 442.069,365.044 			"/>
		</g>
		<path style="fill:#263238;stroke:#263238;stroke-linecap:round;stroke-linejoin:round;stroke-miterlimit:10;" d="M536.621,332.9
			l21.732,22.226c0.725,0.741,1.239,1.662,1.49,2.668l0,0c0.919,3.684-1.868,7.251-5.664,7.251h-83.952v-38.399h51.533
			C527.353,326.646,532.711,328.9,536.621,332.9z"/>
		<g>
			<polygon style="fill:#FFFFFF;stroke:#263238;stroke-linecap:round;stroke-linejoin:round;stroke-miterlimit:10;" points="
				516.263,326.646 507.822,326.646 477.521,365.044 485.962,365.044 			"/>
			<polygon style="fill:#FFFFFF;stroke:#263238;stroke-linecap:round;stroke-linejoin:round;stroke-miterlimit:10;" points="
				470.227,329.362 470.227,360.026 496.567,326.646 472.37,326.646 			"/>
		</g>
		<path style="fill:#B2B2B2;stroke:#263238;stroke-linecap:round;stroke-linejoin:round;stroke-miterlimit:10;" d="M607.364,367.787
			h61.988c3.251,0,6.007,2.391,6.467,5.609l3.771,26.437h-67.654L607.364,367.787z"/>
		
			<rect x="636.807" y="382.237" style="fill:#FFFFFF;stroke:#263238;stroke-linecap:round;stroke-linejoin:round;stroke-miterlimit:10;" width="29.397" height="12.072"/>
		
			<line style="fill:#FFFFFF;stroke:#263238;stroke-width:2;stroke-linecap:round;stroke-linejoin:round;stroke-miterlimit:10;" x1="682.821" y1="404.774" x2="556.852" y2="404.774"/>
		
			<line style="fill:#FFFFFF;stroke:#263238;stroke-width:2;stroke-linecap:round;stroke-linejoin:round;stroke-miterlimit:10;" x1="500.563" y1="404.774" x2="360.966" y2="404.774"/>
		
			<line style="fill:#FFFFFF;stroke:#263238;stroke-width:2;stroke-linecap:round;stroke-linejoin:round;stroke-miterlimit:10;" x1="314.622" y1="404.774" x2="298.645" y2="404.774"/>
		<path style="fill:#B2B2B2;stroke:#263238;stroke-linecap:round;stroke-linejoin:round;stroke-miterlimit:10;" d="M631.731,382.432
			h-27.774c-2.622,0-5.018,1.481-6.19,3.826l-4.645,9.29c-0.929,1.859,0.422,4.045,2.5,4.045h36.109V382.432z"/>
		<polygon style="fill:#263238;stroke:#263238;stroke-linecap:round;stroke-linejoin:round;stroke-miterlimit:10;" points="
			631.731,382.432 609.348,382.432 611.796,399.593 631.731,399.593 		"/>
		<polygon style="fill:#263238;stroke:#263238;stroke-linecap:round;stroke-linejoin:round;stroke-miterlimit:10;" points="
			677.003,382.432 670.224,382.432 670.136,399.593 679.451,399.593 		"/>
		<path style="fill:#263238;stroke:#263238;stroke-linecap:round;stroke-linejoin:round;stroke-miterlimit:10;" d="M374.516,372.13
			h-13.828c-1.105,0-2-0.895-2-2v-11.085c0-1.105,0.895-2,2-2h13.828c1.105,0,2,0.895,2,2v11.085
			C376.516,371.234,375.62,372.13,374.516,372.13z"/>
		
			<rect x="444.399" y="372.13" style="fill:#263238;stroke:#263238;stroke-linecap:round;stroke-linejoin:round;stroke-miterlimit:10;" width="17.142" height="6.857"/>
		
			<line style="fill:none;stroke:#263238;stroke-linecap:round;stroke-linejoin:round;stroke-miterlimit:10;" x1="465.655" y1="369.387" x2="465.655" y2="421.499"/>
		<path style="fill:none;stroke:#263238;stroke-linecap:round;stroke-linejoin:round;stroke-miterlimit:10;" d="M349.774,392.701
			c0,0,12.556,7.085,14.163,31.313h133.26"/>
		<path style="fill:none;stroke:#263238;stroke-linecap:round;stroke-linejoin:round;stroke-miterlimit:10;" d="M560.28,402.986
			c0,0-6.564-17.142-28.543-17.142c-15.318,0-22.645,8.045-26.312,14.4"/>
	</g>
</g>
<g id="Car_1">
	<g>
		<path style="fill:#263238;stroke:#263238;stroke-linecap:round;stroke-linejoin:round;stroke-miterlimit:10;" d="M401.851,399.1
			h-8.771l-0.126,0.185c-0.745-0.112-1.498-0.185-2.266-0.185c-10.694,0-19.363,11.154-19.363,24.913
			c0,13.759,8.669,24.913,19.363,24.913c0.768,0,1.522-0.073,2.266-0.185l0.126,0.185h8.771c10.694,0,19.363-11.154,19.363-24.913
			C421.214,410.254,412.545,399.1,401.851,399.1z"/>
		<path style="fill:#263238;stroke:#263238;stroke-linecap:round;stroke-linejoin:round;stroke-miterlimit:10;" d="M222.201,399.1
			h-8.771l-0.126,0.185c-0.745-0.112-1.498-0.185-2.266-0.185c-10.694,0-19.363,11.154-19.363,24.913
			c0,13.759,8.669,24.913,19.363,24.913c0.768,0,1.522-0.073,2.266-0.185l0.126,0.185h8.771c10.694,0,19.363-11.154,19.363-24.913
			C241.564,410.254,232.895,399.1,222.201,399.1z"/>
		<path style="fill:#FFFFFF;stroke:#263238;stroke-linecap:round;stroke-linejoin:round;stroke-miterlimit:10;" d="M485.312,399.833
			h-4.207l-3.771-26.437c-0.459-3.219-3.215-5.609-6.467-5.609h-23.59l-38.301-40.646c-4.146-4.4-9.924-6.895-15.97-6.895H291.469
			c-4.426,0-8.66,1.806-11.724,5l-174.397,73.626v31.084h261.475l65.622-0.466l48.66-3.191v-0.222h4.001
			c0.882,0,1.597-0.715,1.597-1.597v-23.256C486.703,400.456,486.08,399.833,485.312,399.833z"/>
		<path style="fill:#263238;stroke:#263238;stroke-linecap:round;stroke-linejoin:round;stroke-miterlimit:10;" d="M411.03,425.18
			v4.462l21.415-0.152l48.66-3.191v-0.222h4.001c0.627,0,1.158-0.371,1.419-0.897H411.03z"/>
		<path style="fill:#263238;stroke:#263238;stroke-linecap:round;stroke-linejoin:round;stroke-miterlimit:10;" d="M432.445,429.49
			L432.445,429.49c2.056-0.135,1.956-3.191-0.104-3.191h-24.605L316.74,320.246h-25.271c-4.426,0-8.66,1.806-11.724,5
			l-174.397,73.626v31.084h261.475L432.445,429.49z"/>
		<g>
			<path style="fill:#263238;stroke:#263238;stroke-linecap:round;stroke-linejoin:round;stroke-miterlimit:10;" d="M146.09,399.1
				h-8.771l-5.751,8.443c-3.011,4.391-4.841,10.154-4.841,16.47c0,6.316,1.83,12.079,4.841,16.47l5.751,8.444h8.771
				c10.694,0,19.363-11.154,19.363-24.913C165.452,410.254,156.783,399.1,146.09,399.1z"/>
			
				<ellipse style="fill:#636363;stroke:#263238;stroke-linecap:round;stroke-linejoin:round;stroke-miterlimit:10;" cx="134.927" cy="424.014" rx="19.363" ry="24.913"/>
			
				<ellipse style="fill:#FFFFFF;stroke:#263238;stroke-linecap:round;stroke-linejoin:round;stroke-miterlimit:10;" cx="134.927" cy="424.014" rx="15.447" ry="19.875"/>
			<path style="fill:#FFFFFF;stroke:#263238;stroke-linecap:round;stroke-linejoin:round;stroke-miterlimit:10;" d="M138.19,424.013
				c0,2.319-1.461,4.199-3.263,4.199c-1.802,0-3.263-1.88-3.263-4.199c0-2.319,1.461-4.199,3.263-4.199
				C136.729,419.815,138.19,421.695,138.19,424.013z"/>
		</g>
		<g>
			<path style="fill:#263238;stroke:#263238;stroke-linecap:round;stroke-linejoin:round;stroke-miterlimit:10;" d="M341.511,399.1
				h-8.771l-5.751,8.443c-3.011,4.391-4.841,10.154-4.841,16.47c0,6.316,1.83,12.079,4.841,16.47l5.751,8.444h8.771
				c10.694,0,19.363-11.154,19.363-24.913C360.873,410.254,352.204,399.1,341.511,399.1z"/>
			<path style="fill:#636363;stroke:#263238;stroke-linecap:round;stroke-linejoin:round;stroke-miterlimit:10;" d="M349.71,424.013
				c0,13.759-8.669,24.913-19.362,24.913c-10.694,0-19.363-11.154-19.363-24.913c0-13.759,8.669-24.913,19.363-24.913
				C341.042,399.1,349.71,410.254,349.71,424.013z"/>
			<path style="fill:#FFFFFF;stroke:#263238;stroke-linecap:round;stroke-linejoin:round;stroke-miterlimit:10;" d="
				M345.794,424.013c0,10.977-6.915,19.875-15.446,19.875c-8.531,0-15.447-8.898-15.447-19.875c0-10.976,6.916-19.875,15.447-19.875
				C338.879,404.139,345.794,413.037,345.794,424.013z"/>
			<path style="fill:#FFFFFF;stroke:#263238;stroke-linecap:round;stroke-linejoin:round;stroke-miterlimit:10;" d="
				M333.611,424.013c0,2.319-1.461,4.199-3.263,4.199c-1.803,0-3.263-1.88-3.263-4.199c0-2.319,1.461-4.199,3.263-4.199
				C332.15,419.815,333.611,421.695,333.611,424.013z"/>
		</g>
		<path style="fill:#263238;stroke:#263238;stroke-linecap:round;stroke-linejoin:round;stroke-miterlimit:10;" d="M408.976,327.141
			c-0.316-0.336-0.659-0.639-0.994-0.952h-79.1v39.084h116.026L408.976,327.141z"/>
		<path style="fill:#FFFFFF;stroke:#263238;stroke-linecap:round;stroke-linejoin:round;stroke-miterlimit:10;" d="M418.06,399.833
			h-4.61l-4.571-32.046h-29.256l-38.301-40.646c-4.147-4.4-9.925-6.895-15.971-6.895h-93.205c-4.426,0-8.66,1.806-11.723,5
			l-59.534,39.799l-55.084,23.77l-8.619,11.574c-2.121,2.848-3.266,6.304-3.266,9.854v19.713h17.371v-6.569
			c0-16.064,11.682-29.087,26.092-29.087h0c12.839,0,20.818,10.412,22.82,24.55l1.573,11.106H306.94v-6.569
			c0-16.064,6.592-29.087,24.31-29.087l0,0c15.786,0,21.431,10.412,23.893,24.55l1.853,10.639l56.455-3.191v-0.222h4.61V399.833z"/>
		<path style="fill:#263238;stroke:#263238;stroke-linecap:round;stroke-linejoin:round;stroke-miterlimit:10;" d="M220.921,331.104
			l-51.118,33.941h95.539v-38.399h-33.827C227.527,326.646,223.708,328.253,220.921,331.104z"/>
		<g>
			<path style="fill:#FFFFFF;stroke:#263238;stroke-linecap:round;stroke-linejoin:round;stroke-miterlimit:10;" d="M209.82,365.044
				l30.301-38.399h-8.606c-3.987,0-7.806,1.607-10.594,4.458l-17.887,11.876l-17.411,22.065H209.82z"/>
			<polygon style="fill:#FFFFFF;stroke:#263238;stroke-linecap:round;stroke-linejoin:round;stroke-miterlimit:10;" points="
				265.342,365.044 265.342,337.472 243.584,365.044 			"/>
		</g>
		<path style="fill:#263238;stroke:#263238;stroke-linecap:round;stroke-linejoin:round;stroke-miterlimit:10;" d="M338.136,332.9
			l21.732,22.226c0.725,0.741,1.239,1.662,1.49,2.668l0,0c0.919,3.684-1.868,7.251-5.664,7.251h-83.952v-38.399h51.533
			C328.868,326.646,334.225,328.9,338.136,332.9z"/>
		<g>
			<polygon style="fill:#FFFFFF;stroke:#263238;stroke-linecap:round;stroke-linejoin:round;stroke-miterlimit:10;" points="
				317.778,326.646 309.337,326.646 279.036,365.044 287.477,365.044 			"/>
			<polygon style="fill:#FFFFFF;stroke:#263238;stroke-linecap:round;stroke-linejoin:round;stroke-miterlimit:10;" points="
				271.742,329.362 271.742,360.026 298.082,326.646 273.885,326.646 			"/>
		</g>
		<path style="fill:#FFFFFF;stroke:#263238;stroke-linecap:round;stroke-linejoin:round;stroke-miterlimit:10;" d="M408.879,367.787
			h61.988c3.251,0,6.008,2.391,6.467,5.609l3.771,26.437H413.45L408.879,367.787z"/>
		
			<rect x="438.322" y="382.237" style="fill:#FFFFFF;stroke:#263238;stroke-linecap:round;stroke-linejoin:round;stroke-miterlimit:10;" width="29.397" height="12.072"/>
		
			<line style="fill:#FFFFFF;stroke:#263238;stroke-width:2;stroke-linecap:round;stroke-linejoin:round;stroke-miterlimit:10;" x1="484.336" y1="404.774" x2="358.367" y2="404.774"/>
		
			<line style="fill:#FFFFFF;stroke:#263238;stroke-width:2;stroke-linecap:round;stroke-linejoin:round;stroke-miterlimit:10;" x1="302.077" y1="404.774" x2="162.481" y2="404.774"/>
		
			<line style="fill:#FFFFFF;stroke:#263238;stroke-width:2;stroke-linecap:round;stroke-linejoin:round;stroke-miterlimit:10;" x1="116.137" y1="404.774" x2="100.16" y2="404.774"/>
		<path style="fill:#B2B2B2;stroke:#263238;stroke-linecap:round;stroke-linejoin:round;stroke-miterlimit:10;" d="M433.246,382.432
			h-27.774c-2.621,0-5.018,1.481-6.19,3.826l-4.645,9.29c-0.929,1.859,0.422,4.045,2.5,4.045h36.109V382.432z"/>
		<polygon style="fill:#263238;stroke:#263238;stroke-linecap:round;stroke-linejoin:round;stroke-miterlimit:10;" points="
			433.246,382.432 410.863,382.432 413.311,399.593 433.246,399.593 		"/>
		<polygon style="fill:#263238;stroke:#263238;stroke-linecap:round;stroke-linejoin:round;stroke-miterlimit:10;" points="
			478.517,382.432 471.74,382.432 471.651,399.593 480.965,399.593 		"/>
		<path style="fill:#263238;stroke:#263238;stroke-linecap:round;stroke-linejoin:round;stroke-miterlimit:10;" d="M176.031,372.13
			h-13.828c-1.105,0-2-0.895-2-2v-11.085c0-1.105,0.895-2,2-2h13.828c1.105,0,2,0.895,2,2v11.085
			C178.031,371.234,177.135,372.13,176.031,372.13z"/>
		
			<rect x="245.914" y="372.13" style="fill:#263238;stroke:#263238;stroke-linecap:round;stroke-linejoin:round;stroke-miterlimit:10;" width="17.142" height="6.857"/>
		
			<line style="fill:none;stroke:#263238;stroke-linecap:round;stroke-linejoin:round;stroke-miterlimit:10;" x1="267.17" y1="369.387" x2="267.17" y2="421.499"/>
		<path style="fill:none;stroke:#263238;stroke-linecap:round;stroke-linejoin:round;stroke-miterlimit:10;" d="M151.289,392.701
			c0,0,12.556,7.085,14.163,31.313h133.26"/>
		<path style="fill:none;stroke:#263238;stroke-linecap:round;stroke-linejoin:round;stroke-miterlimit:10;" d="M361.795,402.986
			c0,0-6.564-17.142-28.543-17.142c-15.319,0-22.645,8.045-26.313,14.4"/>
	</g>
</g>
<g id="Character">
	<g>
		<g>
			<g>
				<path style="fill:#FFFFFF;stroke:#263238;stroke-linecap:round;stroke-linejoin:round;stroke-miterlimit:10;" d="
					M90.377,271.644c0,0-3.575-5.013-7.656-4.852c-4.081,0.161-11.21,4.175-11.438,7.383s5.404,11.533,5.404,11.533l-1.602,6.163
					l13.641,5.431l1.046-5.018c0,0,4.791-0.189,4.763-0.899c-0.028-0.71,0.252-7.119,0.252-7.119s1.576-0.596,0.973-2.349
					c-0.603-1.754-2.844-4.509-2.844-4.509S93.13,273.846,90.377,271.644z"/>
				<path style="fill:#263238;" d="M92.559,278.963c0.203,0.542,0.186,1.049-0.037,1.132s-0.568-0.288-0.771-0.83
					c-0.203-0.542-0.186-1.049,0.037-1.132C92.012,278.049,92.357,278.421,92.559,278.963z"/>
				<path style="fill:none;stroke:#263238;stroke-linecap:round;stroke-linejoin:round;stroke-miterlimit:10;" d="M92.916,277.409
					c0,0-1.315-1.314-2.178-0.205"/>
				<path style="fill:none;stroke:#263238;stroke-linecap:round;stroke-linejoin:round;stroke-miterlimit:10;" d="M93.696,285.955
					c0,0-1.233,0.123-2.342-0.863"/>
			</g>
			<path style="fill:#263238;stroke:#263238;stroke-linecap:round;stroke-linejoin:round;stroke-miterlimit:10;" d="M90.377,271.644
				l-4.238,0.701c0,0,1.667,1.711,0.999,2.804c-0.668,1.093-0.668,1.093-0.668,1.093l-0.882,4.656l-1.413,0.233
				c0,0-3.341-3.6-4.847-1.23c-1.506,2.37,1.438,4.919,1.438,4.919s-2.024,2.746-3.43,3.157s-0.241-1.59-2.596-2.741
				c-2.356-1.151-6.122-6.512-5.688-9.017c0.434-2.505,2.886-7.934,7.621-9.543c4.735-1.609,7.759-1.551,10.094-0.932
				c2.335,0.619,4.997,0.513,5.422,2.274C92.614,269.778,90.377,271.644,90.377,271.644z"/>
		</g>
		<g>
			<polygon style="fill:#FFFFFF;stroke:#263238;stroke-linecap:round;stroke-linejoin:round;stroke-miterlimit:10;" points="
				92.899,326.462 102.285,334.622 98.513,342.591 92.204,340.352 			"/>
			<polygon style="fill:#FFFFFF;stroke:#263238;stroke-linecap:round;stroke-linejoin:round;stroke-miterlimit:10;" points="
				100.597,332.378 96.206,342.682 98.76,344.358 106.402,335.348 			"/>
			<path style="fill:#FFFFFF;stroke:#263238;stroke-linecap:round;stroke-linejoin:round;stroke-miterlimit:10;" d="
				M105.024,336.469l14.406,4.763c0,0,5.032,1.401,5.585,1.912s2.256,3.11,1.758,4.018c-0.497,0.908-1.739,0.957-1.739,0.957
				s-1.952,0.077-3.01,0.297c-1.058,0.219-3.407-0.754-5.018-1.046s-4.555-2.841-4.555-2.841l-12.008-2.547L105.024,336.469z"/>
			<path style="fill:#263238;stroke:#263238;stroke-linecap:round;stroke-linejoin:round;stroke-miterlimit:10;" d="
				M122.168,343.769c0,0-0.981,2.027,0.153,2.973c1.134,0.945,3.592,1.323,4.348-0.567
				C127.426,344.284,123.905,342.308,122.168,343.769z"/>
			<path style="fill:#FFFFFF;stroke:#263238;stroke-linecap:round;stroke-linejoin:round;stroke-miterlimit:10;" d="
				M115.921,341.698c0,0,3.259-0.857,3.939-1c0.679-0.143,3.395,1.286,4.21,1.286c0.815,0,2.902-1.055,2.495,0.088
				c-0.407,1.143-0.622,1.099-1.738,1.77c-1.116,0.67-4.037-0.059-4.037-0.059s-1.337,1.487-3.103,1.345
				c-1.766-0.143-1.494-1.286-1.494-1.286"/>
		</g>
		<path style="fill:#FFFFFF;stroke:#263238;stroke-linecap:round;stroke-linejoin:round;stroke-miterlimit:10;" d="M55.495,438.622
			c0,0,3.294,3.612,4.702,4.344c1.408,0.732,6.559,1.513,6.795,2.489c0.235,0.975-0.52,1.793-3.053,2.484
			c-2.533,0.691-4.688,0.973-8.857,0.153s-8.518-1.239-10.311-1.759c-1.793-0.52-2.344,0.487-2.815-1.464
			c-0.471-1.951,1.56-5.379,1.56-5.379S54.276,437.686,55.495,438.622z"/>
		<path style="fill:#263238;stroke:#263238;stroke-linecap:round;stroke-linejoin:round;stroke-miterlimit:10;" d="M66.175,360.009
			c0,0-4.646,26.97-5.922,29.581c-1.275,2.611-10.023,20.485-11.009,25.448c-0.986,4.963-5.839,21.699-5.839,21.699l0.109,2.753
			c0,0,1.998,0.709,3.374,0.655c1.376-0.054,8.606-1.522,8.606-1.522s0.921-1.612,0.647-3.571c-0.274-1.959-2.35-4.634-1.791-5.444
			c0.559-0.81,11.653-24.095,12.22-24.708c0.567-0.613,5.327-4.74,6.564-8.335c1.237-3.594,10.37-21.681,10.37-21.681
			s-8.381-7.744-12.045-10.75C67.795,361.126,66.175,360.009,66.175,360.009z"/>
		<path style="fill:#FFFFFF;stroke:#263238;stroke-linecap:round;stroke-linejoin:round;stroke-miterlimit:10;" d="M121.522,434.831
			c0,0,4.971,1.182,7.134,1.097c2.163-0.085,7.788-2.277,8.244-0.72c0.455,1.558-2.158,5.206-4.841,7.085
			c-2.683,1.879-9.079,4.495-10.637,4.95c-1.558,0.456-4.029,2.72-6.844,1.255c-2.815-1.464-2.049-7.01-2.049-7.01L121.522,434.831z
			"/>
		<path style="fill:#263238;stroke:#263238;stroke-linecap:round;stroke-linejoin:round;stroke-miterlimit:10;" d="M93.463,357.749
			c0,0,9.96,27.771,12.199,34.576c2.238,6.805,3.431,12.076,3.651,12.658c0.22,0.582,12.209,29.849,12.209,29.849
			s-3.684,6.448-6.005,7.525c-2.321,1.077-3.69,1.328-3.69,1.328s-13.87-27.026-15.645-32.077
			c-1.775-5.051-3.486-13.452-5.207-17.126c-1.721-3.674-27.557-31.486-27.557-31.486s8.09-2.606,14.572-3.059
			C84.472,359.483,93.463,357.749,93.463,357.749z"/>
		<path style="fill:#FFFFFF;stroke:#263238;stroke-linecap:round;stroke-linejoin:round;stroke-miterlimit:10;" d="M87.334,298.068
			c0,0,4.121,5.347,5.368,9.918c1.247,4.572,1.638,18.952,1.638,18.952s0.178,27.007,0.419,28.597
			c0.241,1.59,1.609,4.735,1.609,4.735s-5.678,0.224-10.591,1.84c-4.913,1.616-8.781,2.657-11.975,2.784s-10.383-1.9-10.383-1.9
			s0.558-8.375,1.148-11.42s0.784-7.14,0.784-7.14l-0.47-11.889c0,0-2.669-13.579-0.956-19.69c1.714-6.111,3.25-12.214,5.827-14.448
			c2.578-2.235,4.431-4.796,4.431-4.796L87.334,298.068z"/>
		<polygon style="fill:#FFFFFF;stroke:#263238;stroke-linecap:round;stroke-linejoin:round;stroke-miterlimit:10;" points="
			75.4,288.409 74.184,293.611 86.928,301.283 88.307,295.719 		"/>
		<g>
			<path style="fill:#FFFFFF;stroke:#263238;stroke-linecap:round;stroke-linejoin:round;stroke-miterlimit:10;" d="M55.388,339.674
				l2.604,16.426c0,0-1.975,3.988-2.267,5.599c-0.292,1.611-0.924,3.591-1.081,4.131c-0.156,0.539-0.628,6.601,0.444,6.736
				c1.072,0.135,4.875,1.94,5.557,1.202c0.682-0.738,2.65-4.903,2.778-6.152c0.128-1.249,1.006-10.526,0.737-12.826
				c-0.269-2.3,0.789-16.027,0.789-16.027S58.271,336.183,55.388,339.674z"/>
			<path style="fill:#FFFFFF;stroke:#263238;stroke-linecap:round;stroke-linejoin:round;stroke-miterlimit:10;" d="M74.999,296.245
				c0,0-5.366-0.854-7.752,1.728c-2.386,2.582-11.234,26.036-11.314,28.528c-0.079,2.491-0.331,9.61-0.331,9.61l9.61,0.331
				l3.177-9.545l11.613-16.454"/>
			<path style="fill:#FFFFFF;stroke:#263238;stroke-linecap:round;stroke-linejoin:round;stroke-miterlimit:10;" d="M54.283,334.208
				l1.105,5.466c0,0,1.392-0.766,3.883-0.687c2.491,0.079,5.585,1.912,5.585,1.912s1.45-3.79,1.543-5.926
				C66.492,332.837,61.908,329.286,54.283,334.208z"/>
		</g>
		
			<line style="fill:#FFFFFF;stroke:#263238;stroke-linecap:round;stroke-linejoin:round;stroke-miterlimit:10;" x1="72.518" y1="321.155" x2="82.338" y2="315.449"/>
	</g>
</g>
<g id="Pillar_1">
	<g>
		
			<rect x="185.928" y="43.627" style="fill:#FFFFFF;stroke:#263238;stroke-linecap:round;stroke-linejoin:round;stroke-miterlimit:10;" width="119.627" height="405.3"/>
		
			<rect x="185.928" y="292.625" style="fill:#92E3A9;stroke:#263238;stroke-linecap:round;stroke-linejoin:round;stroke-miterlimit:10;" width="119.627" height="156.301"/>
		<g>
			<polygon style="fill:#263238;" points="252.837,395.558 188.796,331.518 188.796,351.917 252.837,415.958 			"/>
			<polygon style="fill:#263238;" points="303.335,446.057 287.359,430.08 287.359,446.057 			"/>
			<polygon style="fill:#263238;" points="252.837,446.057 252.837,434.577 188.796,370.537 188.796,390.936 243.917,446.057 			"/>
			<polygon style="fill:#263238;" points="252.837,356.54 191.758,295.461 188.796,295.461 188.796,312.898 252.837,376.939 			"/>
			<polygon style="fill:#263238;" points="287.359,391.062 287.359,411.461 305.555,429.657 305.555,409.258 			"/>
			<polygon style="fill:#263238;" points="225.298,446.057 188.796,409.555 188.796,429.955 204.898,446.057 			"/>
			<polygon style="fill:#263238;" points="252.837,317.521 230.777,295.461 210.378,295.461 252.837,337.92 			"/>
			<polygon style="fill:#263238;" points="287.359,352.043 287.359,372.442 305.555,390.638 305.555,370.239 			"/>
		</g>
		
			<rect x="257.062" y="43.627" style="fill:#FFFFFF;stroke:#263238;stroke-linecap:round;stroke-linejoin:round;stroke-miterlimit:10;" width="48.493" height="405.3"/>
		
			<rect x="257.062" y="292.625" style="fill:#92E3A9;stroke:#263238;stroke-linecap:round;stroke-linejoin:round;stroke-miterlimit:10;" width="48.493" height="156.301"/>
		<g>
			<polygon style="fill:#263238;" points="260.341,363.226 260.341,383.626 303.869,340.098 303.869,319.699 			"/>
			<polygon style="fill:#263238;" points="260.341,441.264 260.341,448.927 273.078,448.927 303.869,418.135 303.869,397.736 			"/>
			<polygon style="fill:#263238;" points="289.588,294.961 260.341,324.207 260.341,344.607 303.869,301.079 303.869,294.961 			"/>
			<polygon style="fill:#263238;" points="260.341,402.245 260.341,422.644 303.869,379.117 303.869,358.717 			"/>
			<polygon style="fill:#263238;" points="303.869,436.755 291.697,448.927 303.869,448.927 			"/>
		</g>
	</g>
</g>
<g id="Lights_1">
	<g>
		<g>
			
				<line style="fill:none;stroke:#263238;stroke-linecap:round;stroke-linejoin:round;stroke-miterlimit:10;" x1="122.57" y1="78.164" x2="122.57" y2="43.627"/>
			<line style="fill:#FFFFFF;stroke:#000000;stroke-miterlimit:10;" x1="98.106" y1="78.164" x2="98.106" y2="43.627"/>
			<line style="fill:#FFFFFF;stroke:#000000;stroke-miterlimit:10;" x1="73.643" y1="78.164" x2="73.643" y2="43.627"/>
		</g>
		<g>
			
				<line style="fill:none;stroke:#263238;stroke-linecap:round;stroke-linejoin:round;stroke-miterlimit:10;" x1="209.631" y1="78.164" x2="209.631" y2="43.627"/>
			<line style="fill:#FFFFFF;stroke:#000000;stroke-miterlimit:10;" x1="185.167" y1="78.164" x2="185.167" y2="43.627"/>
			<line style="fill:#FFFFFF;stroke:#000000;stroke-miterlimit:10;" x1="160.704" y1="78.164" x2="160.704" y2="43.627"/>
		</g>
		<g>
			
				<rect x="154.752" y="78.96" style="fill:#263238;stroke:#263238;stroke-linecap:round;stroke-linejoin:round;stroke-miterlimit:10;" width="72.383" height="12.936"/>
			
				<rect x="154.752" y="83.399" style="fill:#FFFFFF;stroke:#263238;stroke-linecap:round;stroke-linejoin:round;stroke-miterlimit:10;" width="72.383" height="8.497"/>
			
				<rect x="177.122" y="83.399" style="fill:#FFFFFF;stroke:#263238;stroke-linecap:round;stroke-linejoin:round;stroke-miterlimit:10;" width="50.013" height="8.497"/>
		</g>
		<g>
			
				<rect x="64.467" y="78.96" style="fill:#263238;stroke:#263238;stroke-linecap:round;stroke-linejoin:round;stroke-miterlimit:10;" width="72.383" height="12.936"/>
			
				<rect x="64.467" y="83.399" style="fill:#FFFFFF;stroke:#263238;stroke-linecap:round;stroke-linejoin:round;stroke-miterlimit:10;" width="72.383" height="8.497"/>
			
				<rect x="86.837" y="83.399" style="fill:#FFFFFF;stroke:#263238;stroke-linecap:round;stroke-linejoin:round;stroke-miterlimit:10;" width="50.013" height="8.497"/>
		</g>
		
			<rect x="32.252" y="64.493" style="fill:#263238;stroke:#263238;stroke-linecap:round;stroke-linejoin:round;stroke-miterlimit:10;" width="193.927" height="5.756"/>
	</g>
</g>
<g id="Number">
	<g>
		<g>
			<path style="fill:#263238;" d="M283.043,250.817c-3.127,0-5.516-0.571-7.171-1.71c-1.655-1.14-2.785-2.739-3.392-4.799
				c-0.607-2.059-0.91-4.468-0.91-7.226h8.219c0,1.619,0.1,2.979,0.303,4.082c0.201,1.102,0.569,1.93,1.103,2.482
				c0.531,0.552,1.331,0.809,2.398,0.772c1.067-0.036,1.84-0.441,2.317-1.213c0.477-0.772,0.773-1.876,0.882-3.31
				c0.111-1.434,0.166-3.125,0.166-5.075c0-1.581-0.092-2.978-0.275-4.192c-0.185-1.213-0.544-2.169-1.077-2.868
				c-0.533-0.698-1.351-1.048-2.455-1.048c-0.993,0-1.811,0.35-2.455,1.048c-0.643,0.699-1.111,1.692-1.405,2.979h-7.282
				l0.607-25.373h20.518v7.336h-13.513l-0.496,9.873c0.441-0.552,1.185-1.029,2.233-1.434c1.048-0.404,2.18-0.642,3.392-0.717
				c2.317-0.22,4.238,0.221,5.765,1.324c1.525,1.103,2.655,2.73,3.392,4.881c0.735,2.151,1.103,4.771,1.103,7.861
				c0,2.354-0.147,4.533-0.441,6.536c-0.296,2.005-0.865,3.733-1.71,5.185c-0.846,1.453-2.06,2.584-3.64,3.393
				C287.637,250.412,285.579,250.817,283.043,250.817z"/>
		</g>
	</g>
</g>
<g id="Sign">
	<g>
		<path style="fill:#263238;stroke:#263238;stroke-linecap:round;stroke-linejoin:round;stroke-miterlimit:10;" d="M298.544,188.277
			h-35.483c-1.866,0-3.379-1.513-3.379-3.378v-35.483c0-1.866,1.513-3.378,3.379-3.378h35.483c1.866,0,3.379,1.513,3.379,3.378
			v35.483C301.922,186.764,300.41,188.277,298.544,188.277z"/>
		<g>
			<path style="fill:#92E3A9;" d="M272,184.74v-35.797h11.358c2.15,0,3.903,0.406,5.26,1.216c1.354,0.81,2.364,1.982,3.026,3.513
				c0.663,1.532,0.995,3.389,0.995,5.568c0,2.563-0.435,4.567-1.303,6.01c-0.87,1.443-2.056,2.468-3.557,3.071
				c-1.503,0.604-3.227,0.906-5.171,0.906h-3.314v15.512H272z M279.293,164.102h2.562c1.061,0,1.879-0.169,2.453-0.508
				c0.574-0.339,0.965-0.876,1.171-1.614c0.205-0.736,0.309-1.679,0.309-2.828c0-1.089-0.082-2.003-0.243-2.74
				c-0.162-0.736-0.524-1.311-1.082-1.723c-0.56-0.413-1.444-0.619-2.653-0.619h-2.518V164.102z"/>
		</g>
	</g>
</g>
<g id="Floor_1_">
	
		<line style="fill:none;stroke:#263238;stroke-linecap:round;stroke-linejoin:round;stroke-miterlimit:10;" x1="23.326" y1="448.927" x2="738.373" y2="448.927"/>
</g>
</svg>
