<?xml version="1.0" encoding="utf-8"?>
<!-- Generator: Adobe Illustrator 27.5.0, SVG Export Plug-In . SVG Version: 6.00 Build 0)  -->
<svg version="1.1" id="_x3C_Layer_x3E_" xmlns="http://www.w3.org/2000/svg" xmlns:xlink="http://www.w3.org/1999/xlink" x="0px"
	 y="0px" viewBox="0 0 2760 1840" style="enable-background:new 0 0 2760 1840;" xml:space="preserve">
<rect style="fill:#FFFFFF;" width="2760" height="1840"/>
<g>
	<path style="fill:#EBF3FA;" d="M2506.8,1610.241c-0.921,1.36-1.852,2.742-2.792,4.113H294.715
		c-90.564-60.536-162.457-190.46-151.065-327.375c9.769-117.819,82.18-251.505,160.186-336.26
		c75.342-81.837,130.592-96.237,147.5-225.938c3.399-26.458,6.814-83.734,5.349-88.116
		c-55.906-167.181,10.805-294.049,122.255-366.677c81.063-52.831,185.793-76.978,284.243-67.074
		c621.386,62.48,450.621,308.136,1044.871,151.232c399.299-105.436,584.15,205.091,484.406,437.366
		c-20.396,47.501-31.171,81.993-21.982,116.446c10.977,41.175,42.173,77.896,71.551,109.119
		C2556.348,1138.854,2736.292,1270.63,2506.8,1610.241z"/>
	<path style="opacity:0.5;fill:#8CB4F4;" d="M601.663,655.494c0,0,38.801-58.777,97.26-60.735
		c58.462-1.96,90.714-72.491,162.752-76.41c72.039-3.918,71.556,56.817,111.961,68.573c40.405,11.756,86.38,21.551,98.658,68.572
		C1084.574,702.516,601.663,655.494,601.663,655.494z"/>
	<g>
		<path style="fill:#D5E5FB;" d="M2584.021,1474.487c-17.604,42.249-42.809,88.497-77.222,139.427
			c-10.492-0.029-21.522-0.049-33.062-0.078h-0.354c-531.262-1.264-2133.373-5.976-2133.373-5.976s-177.593-105.103-177.593-287.534
			c0-2.519,0.03-5.017,0.098-7.554c2.616-97.52,28.742-283.352,253.386-379.823v87.792h51.566v-107.14
			c16.331-5.31,33.522-10.197,51.645-14.616c23.031-5.622,47.531-10.492,73.608-14.488c2.557-0.411,5.143-0.794,7.729-1.166
			c12.46-1.822,24.401-3.957,35.853-6.436v130.415h56.984v-30.466l67.222,0.274v-49.362h13.528v-9.776h1.792v9.776h51.89v0.01
			h10.394v-9.786h1.784v9.786h12.519v98.177h80.023v36.127h44.475v-20.982h41.252v-83.296h20.563v-38.861h3.115v38.861h49.303
			v-72.824h4.84v72.824h32.621v-1.009h-0.06v-9.238h0.06v-8.758h-0.06V924.24h0.06v-9.307h-0.06v-14.547h0.06v-9.297h-0.06v-14.547
			h0.06v-10.051h-0.06v-14.547h0.06v-12.794h-0.06v-14.548h0.06v-9.648h9.707v-10.893h1.567v10.893h72.002v-10.893h1.548v10.893
			h13.137v76.135l9.257,0.06v-0.06h-0.078v-14.547h0.078v-10.051h-0.078v-14.547h0.078v-10.013h-0.078v-14.556h0.078v-0.05h87.303
			v0.05h15.008c0.784,0.392,1.557,0.764,2.341,1.166v83.089h63.821v109.109h51.558V818.962h11.217v-14.116h2.018v14.116h40.713
			v-14.116h2.027v14.116h57.65v-14.116h2.018v14.116h36.285v-14.116h2.008v14.116h14.91v188.349h56.983v-30.466l67.221,0.274
			v-49.362h13.528v-9.776h1.793v9.776h51.89v0.01h10.374v-9.786h1.792v9.786h12.521v98.177h80.033v36.127h44.475v-20.982h41.252
			v-83.296h20.562v-38.861h3.114v38.861h49.305v-72.824h4.84v72.824h32.611v-1.009h-0.05v-9.238h0.05v-8.758h-0.05V924.24h0.05
			v-9.307h-0.05v-14.547h0.05v-9.297h-0.05v-14.547h0.05v-10.051h-0.05v-14.547h0.05v-12.794h-0.05v-14.548h0.05v-9.648h9.727
			v-10.893h1.558v10.893h71.981v-10.893h1.568v10.893h13.136v76.135l9.12,0.06h0.127v-0.06h-0.068v-14.547h0.068v-10.051h-0.068
			v-14.547h0.068v-10.013h-0.068v-14.556h0.068v-0.05h87.313v0.05h14.997c0.784,0.392,1.559,0.764,2.332,1.166v83.089h41.623
			c9.718,36.451,34.826,69.298,65.517,102.634l6.034,6.485C2539.205,1124.267,2683.795,1235.001,2584.021,1474.487z"/>
		<g>
			<rect x="1495.904" y="839.134" style="fill:#E2EEFD;" width="128.821" height="31.928"/>
			<rect x="1495.904" y="888.276" style="fill:#E2EEFD;" width="128.821" height="31.929"/>
			<rect x="1495.904" y="938.446" style="fill:#E2EEFD;" width="128.821" height="31.929"/>
			<rect x="1495.904" y="989.415" style="fill:#E2EEFD;" width="128.821" height="31.928"/>
			<rect x="1495.904" y="1038.594" style="fill:#E2EEFD;" width="128.821" height="31.928"/>
			<g>
				<rect x="2117.173" y="835.136" style="fill:#E2EEFD;" width="60.105" height="19.39"/>
				<rect x="2117.173" y="864.981" style="fill:#E2EEFD;" width="60.105" height="19.391"/>
				<rect x="2117.173" y="895.449" style="fill:#E2EEFD;" width="60.105" height="19.391"/>
				<rect x="2117.173" y="926.403" style="fill:#E2EEFD;" width="60.105" height="19.391"/>
				<rect x="2117.173" y="956.269" style="fill:#E2EEFD;" width="60.105" height="19.391"/>
			</g>
			<g>
				<rect x="2117.173" y="989.141" style="fill:#E2EEFD;" width="60.105" height="19.391"/>
				<rect x="2117.173" y="1018.986" style="fill:#E2EEFD;" width="60.105" height="19.39"/>
				<rect x="2117.173" y="1049.455" style="fill:#E2EEFD;" width="60.105" height="19.39"/>
				<rect x="2117.173" y="1080.409" style="fill:#E2EEFD;" width="60.105" height="19.39"/>
				<rect x="2117.173" y="1110.274" style="fill:#E2EEFD;" width="60.105" height="19.392"/>
			</g>
			<g>
				<rect x="2224.088" y="847.851" style="fill:#E2EEFD;" width="64.411" height="19.392"/>
				<rect x="2224.088" y="877.696" style="fill:#E2EEFD;" width="64.411" height="19.391"/>
				<rect x="2224.088" y="908.166" style="fill:#E2EEFD;" width="64.411" height="19.39"/>
				<rect x="2224.088" y="939.119" style="fill:#E2EEFD;" width="64.411" height="19.391"/>
				<rect x="2224.088" y="968.985" style="fill:#E2EEFD;" width="64.411" height="19.391"/>
			</g>
			<g>
				<rect x="2224.088" y="1000.123" style="fill:#E2EEFD;" width="64.411" height="19.391"/>
				<rect x="2224.088" y="1029.969" style="fill:#E2EEFD;" width="64.411" height="19.391"/>
				<rect x="2224.088" y="1060.438" style="fill:#E2EEFD;" width="64.411" height="19.391"/>
				<rect x="2224.088" y="1091.392" style="fill:#E2EEFD;" width="64.411" height="19.39"/>
				<rect x="2224.088" y="1121.258" style="fill:#E2EEFD;" width="64.411" height="19.391"/>
			</g>
			<g>
				<rect x="1128.003" y="835.136" style="fill:#E2EEFD;" width="64.41" height="19.39"/>
				<rect x="1128.003" y="864.981" style="fill:#E2EEFD;" width="64.41" height="19.391"/>
				<rect x="1128.003" y="895.449" style="fill:#E2EEFD;" width="64.41" height="19.391"/>
				<rect x="1128.003" y="926.403" style="fill:#E2EEFD;" width="64.41" height="19.391"/>
				<rect x="1128.003" y="956.269" style="fill:#E2EEFD;" width="64.41" height="19.391"/>
			</g>
			<g>
				<rect x="1237.075" y="847.851" style="fill:#E2EEFD;" width="73.204" height="19.392"/>
				<rect x="1237.075" y="877.696" style="fill:#E2EEFD;" width="73.204" height="19.391"/>
				<rect x="1237.075" y="908.166" style="fill:#E2EEFD;" width="73.204" height="19.39"/>
				<rect x="1237.075" y="939.119" style="fill:#E2EEFD;" width="73.204" height="19.391"/>
				<rect x="1237.075" y="968.985" style="fill:#E2EEFD;" width="73.204" height="19.391"/>
			</g>
		</g>
	</g>
	<path style="opacity:0.5;fill:#8CB4F4;" d="M1886.851,1611.2l-747.799,2.714v-165.025c30.154,0.926,61.399,6.191,88.013,19.753
		c82.749,42.19,71.911,98.308,174.393,77.737c102.465-20.587,187.011-29.192,232.906,0c45.895,29.193,79.57,17.574,136.667,17.392
		C1818.359,1563.626,1886.851,1568.679,1886.851,1611.2z"/>
	<path style="fill:#B5CFFC;" d="M1321.856,877.191c-8.448,4.889-18.395,8.003-29.211,8.751
		c-47.462,2.958-63.926,20.606-102.323,57.977c-24.535,23.82-60.131,25.416-85.76,25.148V706.042
		c10.806,7.356,21.968,15.716,33.554,23.439c26.108,17.503,54.427,31.734,85.425,24.179c31.131-7.559,55.163-7.122,73.993-1.039
		c24.021,7.557,39.749,24.021,51.012,44.191C1364.117,824.539,1350.622,860.727,1321.856,877.191z"/>
	<g>
		<g>
			<rect x="1454.411" y="1199.82" style="fill:#F0F5FF;" width="957.46" height="48.479"/>
			<g>
				<polygon style="fill:#F77D48;" points="1562.49,1248.3 1512.523,1248.3 1494.701,1199.82 1544.668,1199.82 				"/>
				<polygon style="fill:#F77D48;" points="1664.071,1248.3 1614.104,1248.3 1596.281,1199.82 1646.25,1199.82 				"/>
				<polygon style="fill:#F77D48;" points="1765.653,1248.3 1715.686,1248.3 1697.863,1199.82 1747.831,1199.82 				"/>
				<polygon style="fill:#F77D48;" points="1867.235,1248.3 1817.267,1248.3 1799.444,1199.82 1849.413,1199.82 				"/>
				<polygon style="fill:#F77D48;" points="1968.816,1248.3 1918.849,1248.3 1901.026,1199.82 1950.994,1199.82 				"/>
				<polygon style="fill:#F77D48;" points="2070.397,1248.3 2020.43,1248.3 2002.607,1199.82 2052.576,1199.82 				"/>
				<polygon style="fill:#F77D48;" points="2171.979,1248.3 2122.012,1248.3 2104.189,1199.82 2154.156,1199.82 				"/>
				<polygon style="fill:#F77D48;" points="2273.561,1248.3 2223.593,1248.3 2205.77,1199.82 2255.738,1199.82 				"/>
				<polygon style="fill:#F77D48;" points="2375.142,1248.3 2325.174,1248.3 2307.352,1199.82 2357.32,1199.82 				"/>
			</g>
		</g>
		
			<ellipse transform="matrix(0.1648 -0.9863 0.9863 0.1648 234.9064 2712.0083)" style="fill:#FFFFFF;" cx="1718.812" cy="1217.299" rx="89.789" ry="89.79"/>
		<path style="fill:#F77D48;" d="M1638.178,1217.299c0-44.531,36.101-80.633,80.634-80.633s80.633,36.102,80.633,80.633
			c0,44.533-36.1,80.635-80.633,80.635S1638.178,1261.832,1638.178,1217.299z"/>
		<g>
			<path style="fill:#FFFFFF;" d="M1655.878,1229.456l4.102-4.913c2.839,2.345,5.813,3.831,9.419,3.831
				c2.839,0,4.552-1.126,4.552-3.064c0-1.757-1.082-2.659-6.354-4.011c-6.355-1.622-10.456-3.38-10.456-9.735
				c0-5.722,4.597-9.509,11.041-9.509c4.598,0,8.518,1.442,11.718,4.012l-3.606,5.228c-2.792-1.938-5.542-3.11-8.201-3.11
				s-4.056,1.218-4.056,2.84c0,2.073,1.352,2.75,6.806,4.146c6.399,1.668,10.005,3.967,10.005,9.554
				c0,6.266-4.777,9.781-11.583,9.781C1664.485,1234.504,1659.664,1232.836,1655.878,1229.456z"/>
			<path style="fill:#FFFFFF;" d="M1693.556,1208.905h-9.599v-6.399h26.138v6.399h-9.599v25.147h-6.94V1208.905z"/>
			<path style="fill:#FFFFFF;" d="M1712.665,1218.279c0-8.968,7.075-16.314,16.812-16.314c9.733,0,16.719,7.257,16.719,16.314
				c0,8.969-7.075,16.314-16.811,16.314C1719.65,1234.594,1712.665,1227.338,1712.665,1218.279z M1738.94,1218.279
				c0-5.407-3.967-9.915-9.556-9.915c-5.588,0-9.464,4.417-9.464,9.915c0,5.408,3.966,9.915,9.556,9.915
				C1735.063,1228.194,1738.94,1223.777,1738.94,1218.279z"/>
			<path style="fill:#FFFFFF;" d="M1752.37,1202.506h12.889c7.527,0,12.079,4.461,12.079,10.996c0,7.301-5.679,11.086-12.754,11.086
				h-5.273v9.465h-6.94V1202.506z M1764.809,1218.414c3.471,0,5.499-2.072,5.499-4.867c0-3.109-2.164-4.776-5.635-4.776h-5.362
				v9.644H1764.809z"/>
		</g>
	</g>
	<g>
		<g>
			<rect x="1323.891" y="1238.031" style="fill:#91B0F2;" width="130.52" height="373.068"/>
			<rect x="1265.802" y="1238.031" style="fill:#AEC3FF;" width="130.521" height="373.068"/>
			<path style="fill:#91B0F2;" d="M1420.53,1073.238h-120.847c-18.713,0-33.882,15.169-33.882,33.882v110.179h188.609V1107.12
				C1454.411,1088.407,1439.242,1073.238,1420.53,1073.238z"/>
			<path style="fill:#AEC3FF;" d="M1368.137,1073.238h-74.149c-15.566,0-28.186,12.619-28.186,28.186v115.875h130.521v-115.875
				C1396.323,1085.857,1383.703,1073.238,1368.137,1073.238z"/>
		</g>
		<rect x="1265.802" y="1211.042" style="fill:#1C468A;" width="188.609" height="31.757"/>
	</g>
	<path style="fill:#F8FCFF;" d="M1265.845,628.511c0,0,31.296-61.76,106.132-54.897c0,0,108.65-102.94,224.512-13.726
		c0,0,123.16-22.105,214.368,19.139c60.813,27.5,80.898,56.348,80.898,56.348L1265.845,628.511z"/>
	<path style="fill:#F8FCFF;" d="M1690.302,745.158c0,0,20.276-42.012,68.767-37.343c0,0,70.396-70.021,145.467-9.336
		c0,0,79.798-15.036,138.896,13.018c39.401,18.705,52.415,38.327,52.415,38.327L1690.302,745.158z"/>
	<path style="fill:#F8FCFF;" d="M1870.591,505.813c0,0,19.286-35.714,65.403-31.746c0,0,66.955-59.525,138.354-7.936
		c0,0,75.896-12.783,132.104,11.067c37.475,15.901,49.853,32.582,49.853,32.582L1870.591,505.813z"/>
	<path style="fill:#AEC3FF;" d="M1160.21,636.666v977.688H294.715c0,0-64.252-42.946-109.314-126.192
		c-27.997-51.724-48.588-118.994-41.751-201.183c4.82-58.13,23.354-123.715,62.686-196.528
		c125.762-232.884,225.467-182.855,246.361-377.16c2.381-22.119,3.732-47.403,3.987-76.625H1160.21z"/>
	<path style="fill:#C5DAFF;" d="M1160.21,713.291v573.688H143.649c4.82-58.13,23.354-123.715,62.686-196.528
		c125.762-232.884,225.467-182.855,246.361-377.16H1160.21z"/>
	<path style="fill:#91B0F2;" d="M1160.21,1488.162v126.192H294.715c0,0-64.252-42.946-109.314-126.192H1160.21z"/>
	<path style="fill:#ADC8FE;" d="M2584.021,1474.487c-17.604,42.249-42.809,88.497-77.222,139.427
		c-10.492-0.029-21.522-0.049-33.062-0.078h-0.354l-286.428-2.057c11.607-54.702,123.323-46.855,163.565-51.195
		c40.242-4.35,39.381-88.38,109.05-87.499C2510.013,1473.723,2549.295,1484.36,2584.021,1474.487z"/>
	<g>
		<path style="fill:#F99746;" d="M561.197,756.992h3.456c168.125,0,326.323,79.595,426.523,214.6l98.279,132.417
			c10.839,14.604,25.008,26.409,41.328,34.435l175.242,86.172c30.962,15.224,50.576,46.727,50.576,81.229v142.283
			c0,23.186-18.798,41.983-41.984,41.983H534.461L561.197,756.992z"/>
		<path style="fill:#ED883B;" d="M946.635,1086.689l-1.098-1.715l-0.009-0.02l-1.93-3.008l-0.765-1.195l-1.283-2.008l-25.421-39.704
			l-26.548-41.466c-13.352-20.837-29.75-38.931-48.441-53.85c-5.672-4.525-11.55-8.758-17.613-12.687
			c-12.166-7.896-25.068-14.548-38.567-19.894c-21.013-8.338-43.426-13.471-66.574-15.038c-1.439-0.098-2.89-0.177-4.329-0.245
			c-3.615-0.176-7.25-0.264-10.893-0.264h-81.66c-10.963,0-19.837,8.885-19.837,19.837v332.233c0,6.78,3.468,13.098,9.188,16.742
			c2.86,1.813,5.163,4.301,6.749,7.19c1.578,2.88,2.449,6.162,2.449,9.551v168.709c0,10.951,8.885,19.837,19.837,19.837h215.063
			l-0.01-1.332c-0.176-12.54,0.685-24.216,2.352-35.061c9.267-60.295,43.642-95.209,66.789-112.352
			c0.128-0.098,0.244-0.187,0.372-0.284c14.038-10.335,22.385-26.664,22.385-44.092v-189.563L946.635,1086.689z"/>
		<g>
			<path style="fill:#91B0F2;" d="M867.256,1150.06H720.988c-45.336,0-82.09-36.753-82.09-82.089v-99.635
				c0-15.92,12.905-28.824,28.825-28.824h34.898c55.947,0,109.245,23.829,146.55,65.521v0.001
				c17.214,19.24,27.359,43.772,28.76,69.551l3.3,60.72C881.665,1143.321,875.285,1150.06,867.256,1150.06z"/>
		</g>
		<path style="fill:#2B478B;" d="M898.448,1039.037h23.918c12.794,0,23.165,10.37,23.165,23.164v64.693
			c0,12.793-10.372,23.165-23.166,23.165h-23.917V1039.037z"/>
		<path style="fill:#91B0F2;" d="M1034.183,1114.898l-136.59-154.25c-13.938-15.74-2.764-40.563,18.261-40.563h33.269
			c15.435,16.07,29.965,33.168,43.421,51.298l98.279,132.416c6.159,8.298,13.485,15.563,21.577,21.873l-25.552,5.981
			C1067.547,1136.173,1047.323,1129.738,1034.183,1114.898z"/>
		<path style="fill:#A1C3FF;" d="M1335.506,1322.163c0,0-13.579-55.887-41.585-73.668c-28.005-17.782-79.774-21.593-79.774-11.432
			s40.736,48.265,40.736,60.966s-5.093,24.134-5.093,24.134H1335.506z"/>
		<path style="fill:#F77D48;" d="M1316.735,1400.421c0,0-3.49,15.95-8.808,15.95c-5.315,0-16.946-34.062-15.617-38.215
			c1.33-4.153,29.741-1.496,30.406-0.665C1323.381,1378.322,1316.735,1400.421,1316.735,1400.421z"/>
		<path style="fill:#2B478B;" d="M711.064,1219.068c0-13.725-12.822-24.851-28.64-24.851c-15.818,0-28.641,11.126-28.641,24.851
			c0,13.724,12.822,24.849,28.641,24.849C698.242,1243.917,711.064,1232.792,711.064,1219.068z"/>
		<path style="fill:#ED883B;" d="M733.159,1209.381H630.005c-0.359,0-0.65,0.291-0.65,0.65v15.546c0,0.359,0.291,0.65,0.649,0.65
			h103.155c0.359,0,0.65-0.291,0.65-0.65v-15.547C733.81,1209.672,733.519,1209.381,733.159,1209.381z"/>
		<path style="fill:#F99746;" d="M577.91,794.727v691.69c0,2.04-1.654,3.693-3.693,3.693H186.468
			c-0.362-0.646-0.715-1.293-1.067-1.949c-9.022-16.674-17.28-34.973-24.099-54.858c-14.321-41.79-22.286-90.634-17.652-146.324
			c4.82-58.13,23.354-123.715,62.686-196.528c10.217-18.907,20.248-35.952,30.093-51.411c5.163-8.11,10.266-15.78,15.311-23.06
			c10.942-15.781,21.61-29.712,31.955-42.202c6.858-8.276,13.578-15.928,20.141-23.059c75.342-81.837,130.592-96.237,147.5-225.938
			h56.63C546.595,724.782,577.91,756.098,577.91,794.727z"/>
		<path style="fill:#2B478B;" d="M1380.004,1461.594v7.865c0,18.099-14.672,32.77-32.77,32.77H193.414
			c-2.361-3.938-4.672-7.974-6.946-12.117c-0.362-0.646-0.715-1.293-1.067-1.949c-9.022-16.674-17.28-34.973-24.099-54.858h1190.414
			C1367.339,1433.304,1380.004,1445.97,1380.004,1461.594z"/>
		<g>
			
				<ellipse transform="matrix(0.7071 -0.7071 0.7071 0.7071 -738.6879 1153.4271)" style="fill:#233862;" cx="1022.966" cy="1468.389" rx="141.853" ry="141.853"/>
			<g>
				<path style="fill:#91B0F2;" d="M1124.454,1433.304c-14.626-41.966-54.595-72.148-101.479-72.148
					c-46.903,0-86.861,30.183-101.487,72.148c-3.869,11.06-5.966,22.942-5.966,35.296c0,7.356,0.755,14.547,2.155,21.512
					c0.853,4.124,1.94,8.17,3.242,12.117c14.136,42.829,54.535,73.814,102.056,73.814c47.502,0,87.891-30.985,102.046-73.814
					c1.303-3.947,2.39-7.993,3.242-12.117c1.401-6.965,2.156-14.155,2.156-21.512
					C1130.42,1456.246,1128.322,1444.363,1124.454,1433.304z M1114.266,1502.229c-3.546,9.62-8.582,18.535-14.821,26.44
					c-6.671,8.483-14.733,15.83-23.824,21.708c-10.874,7.023-23.236,11.941-36.481,14.165h-0.01
					c-5.26,0.892-10.648,1.342-16.153,1.342c-5.495,0-10.903-0.45-16.153-1.342c-13.273-2.214-25.627-7.142-36.51-14.165
					c-9.042-5.849-17.065-13.156-23.717-21.581l-0.009-0.009c-6.28-7.936-11.354-16.89-14.931-26.559
					c-1.43-3.928-2.654-7.974-3.585-12.117c-0.383-1.705-0.725-3.419-0.999-5.144c-0.922-5.318-1.392-10.784-1.392-16.368
					c0-5.408,0.441-10.708,1.304-15.87v-0.01c1.096-6.74,2.899-13.226,5.318-19.416c3.253-8.355,7.651-16.163,12.981-23.207
					c6.612-8.768,14.665-16.369,23.815-22.463c11.049-7.386,23.677-12.558,37.273-14.909h0.01
					c5.398-0.931,10.933-1.421,16.595-1.421c5.652,0,11.188,0.49,16.595,1.421c13.587,2.352,26.205,7.523,37.255,14.909h0.01
					c9.14,6.073,17.201,13.687,23.813,22.453l0.01,0.01c5.329,7.044,9.708,14.852,12.98,23.207c2.42,6.19,4.223,12.686,5.319,19.416
					c0.861,5.172,1.303,10.472,1.303,15.88c0,5.584-0.47,11.05-1.392,16.368c-0.273,1.725-0.616,3.438-0.999,5.144
					C1116.92,1494.255,1115.716,1498.301,1114.266,1502.229z"/>
				<path style="fill:#91B0F2;" d="M1056.526,1470.779c1.284-20.297-15.449-37.03-35.746-35.747
					c-16.737,1.058-30.319,14.638-31.376,31.376c-1.283,20.296,15.449,37.029,35.745,35.747
					C1041.887,1501.097,1055.469,1487.516,1056.526,1470.779z"/>
				<polygon style="fill:#91B0F2;" points="1028.327,1442.984 1040.026,1369.863 1005.904,1369.863 1018.025,1442.984 				"/>
				<polygon style="fill:#91B0F2;" points="1047.809,1454.37 1104.563,1406.806 1078.788,1384.444 1040.026,1447.619 				"/>
				<polygon style="fill:#91B0F2;" points="1052.397,1479.114 1126.163,1485.612 1123.75,1451.575 1051.67,1468.837 				"/>
				<polygon style="fill:#91B0F2;" points="998.122,1454.37 941.368,1406.806 967.142,1384.444 1005.904,1447.619 				"/>
				<polygon style="fill:#91B0F2;" points="1028.327,1496.998 1040.026,1570.118 1005.904,1570.118 1018.025,1496.998 				"/>
				<polygon style="fill:#91B0F2;" points="1047.809,1485.406 1104.563,1532.971 1078.788,1555.537 1040.026,1492.363 				"/>
				<polygon style="fill:#91B0F2;" points="998.122,1485.612 941.368,1533.176 967.142,1555.537 1005.904,1492.363 				"/>
				<polygon style="fill:#91B0F2;" points="993.533,1479.114 919.769,1485.612 922.182,1451.575 994.262,1468.837 				"/>
			</g>
		</g>
		<path style="opacity:0.3;fill:#FFFFFF;" d="M534.454,950.72l-28.291,23.059H283.694c6.858-8.276,13.578-15.928,20.141-23.059
			H534.454z"/>
		<path style="opacity:0.3;fill:#FFFFFF;" d="M534.454,1015.981l-28.291,23.06H236.428c5.163-8.11,10.266-15.78,15.311-23.06
			H534.454z"/>
		<rect x="941.551" y="1072.154" style="fill:#2B478B;" width="17.633" height="9.796"/>
		<path style="fill:#2B478B;" d="M958.204,1066.93L958.204,1066.93c-2.344,0-4.245,1.901-4.245,4.245v19.129
			c0,2.344,1.901,4.245,4.245,4.245l0,0c2.345,0,4.245-1.901,4.245-4.245v-19.129C962.449,1068.831,960.549,1066.93,958.204,1066.93
			z"/>
	</g>
	<g id="P297LW_1_">
		<path style="fill:#FFB27D;" d="M1971.878,1123.817c0,0,1.51-5.785,0-12.829c-0.884-4.126-1.132-14.106-3.396-13.994
			c-2.504,0.124-1.133,7.348-3.522,8.543c-2.39,1.194-1.635,3.062-1.635,3.062l6.792,16.477L1971.878,1123.817z"/>
		<path style="fill:#FFB27D;" d="M1970.746,1127.34c0,0,2.413-13.116-2.977-22.704c-5.377-9.565-12.998-19.895-20.114-19.895
			c-7.841,0,2.381,19.04,3.595,28.889c1.1,8.917,10.063,11.949,12.075,17.986L1970.746,1127.34z"/>
		<path style="fill:#2B478B;" d="M2190.241,1145.452c24.702-6.068,36.086-12.292,36.086-12.292s-7.956-34.918-26.79-48.607
			c-6.727-4.888-20.362-8.868-30.721-11.338c-3.28-0.776-6.225-1.407-8.515-1.878c-2.97-0.6-4.828-0.922-4.881-0.933
			c-0.001,0-0.005-0.002-0.005-0.002c0,0.001-0.001,0.002-0.001,0.002s-0.385,1.122-0.994,3.076
			c-3.44,5.307-15.157,9.331-24.996,8.689c-9.833-0.644-16.214-8.121-16.214-12.17l-0.01-0.011v-0.002c0,0-0.793,0.231-2.196,0.672
			c-2.058,0.655-5.438,1.768-9.547,3.305c-10.736,4.009-26.38,8.335-32.702,19.258l-0.001-0.001c0,0-39.058,56.76-49.935,57.011
			c-8.074,0.188-46.438-29.526-46.438-29.526s-4.781,3.07-6.92,5.251c-3.26,3.325-4.191,5.66-4.191,5.66
			s31.696,57.011,53.832,57.868c19.723,0.764,38.328-12.611,56.605-27.898c10.313,48.696,4.88,98.408,4.88,98.408
			s9.624,27.02,42.623,26.645c12.864-0.146,24.056-1.107,33.553-2.521c26.467-3.927,33.964-9.385,33.858-12.137
			c-0.09-2.482-1.952-68.745-1.762-72.301C2185.945,1179.371,2188.945,1170.405,2190.241,1145.452z"/>
		<path style="fill:#233862;" d="M2065.272,1611.1c5.177-3.16,2.23-26.732,2.23-26.732s-24.122-19.299-27.439-4.524
			c-3.317,14.776-22.917,21.41-34.074,23.22c-7.702,1.249-10.087,5.515-10.825,8.037H2065.272z"/>
		<path style="fill:#233862;" d="M2172.389,1611.1c5.177-3.16,2.23-26.732,2.23-26.732s-24.123-19.299-27.439-4.524
			c-3.317,14.776-22.918,21.41-34.074,23.22c-7.701,1.249-10.086,5.515-10.824,8.037H2172.389z"/>
		<path style="fill:#2B478B;" d="M2138.867,1337.496c-8.584,36.278-19.4,77.705-23.625,101.058c-0.492,2.707-0.894,5.17-1.194,7.35
			c-0.296,2.185-0.493,4.092-0.579,5.681c-2.244,43.744-36.818,143.758-43.004,146.089c-9.568,3.61-24.639-4.063-32.527-6.573
			c-3.264-1.05-5.473-4.342-4.741-7.687c17.122-78.719,26.175-191.832,34.297-258.493c4.3-35.284,9.665-68.527,9.665-68.527
			s73.035-11.822,73.539,16.643C2150.889,1284.065,2145.556,1309.216,2138.867,1337.496z"/>
		<path style="fill:#233862;" d="M2138.867,1337.496c-8.584,36.278-19.4,77.705-23.625,101.058
			c-0.492,2.707-3.078,25.657-3.379,27.837l-4.589-166.809l10.762,0.991L2138.867,1337.496z"/>
		<path style="fill:#FFB27D;" d="M2116.71,1065.317l0.019,4.128c0,0-0.936,12.908,12.307,14.794
			c13.24,1.89,23.272-5.034,22.914-14.995c-1.193-7.713-2.502-13.01-2.591-19.391c-0.032-2.371,0.103-4.889,0.471-7.729
			l-25.659-0.616l-7.557,1.482L2116.71,1065.317z"/>
		<path style="fill:#ED975D;" d="M2116.613,1042.99l0.097,22.327c2.726,1.521,5.801,2.45,9.249,2.45
			c11.793,0,19.416-10.38,23.399-17.914c-0.032-2.371,0.103-4.889,0.471-7.729l-25.659-0.616L2116.613,1042.99z"/>
		<path style="fill:#2B478B;" d="M2105.668,1282.8l29.754,310.873c0,0,22.026,7.148,41.927,1.64c0,0,11.567-169.964,10.48-211.51
			c-1.088-41.547,0.04-101.251-1.447-122.377C2185.397,1247.42,2105.668,1282.8,2105.668,1282.8z"/>
		<path style="fill:#FFB27D;" d="M2111.273,1053.84c0,0,39.447,7.97,44.032-16.674c4.585-24.643,12.764-40.209-12.229-46.34
			c-24.993-6.13-31.65,2.36-35.181,10.214C2104.365,1008.894,2101.13,1051.133,2111.273,1053.84z"/>
		<path style="fill:#2B478B;" d="M2155.759,1034.818c0,0-4.642-4.017-3.989-9.584c0.651-5.568,0.645-12.846-3.884-11.49
			c-4.527,1.357-4.752,4.982-6.612,2.865c-1.86-2.117-1.895-11.035-15.364-11.656c-13.471-0.62-18.944,4.067-25.209,1.314
			c-6.263-2.754-6.595-12.235-6.595-12.235s1.782,3.386,4.473,4.462c0,0-10.45-14.294,1.648-24.095
			c12.1-9.801,24.438-3.386,31.44-2.961c15.427,0.934,25.392,1.859,30.432,11.997
			C2167.139,993.572,2165.657,1025.061,2155.759,1034.818z"/>
		<path style="fill:#233862;" d="M2129.425,1084.551c0,0,12.461-8.576,21.751-19.988c0,0,9.199,1.904,13.977,7.812
			c0,0-10.175,17.733-25.102,23.101L2129.425,1084.551z"/>
		<path style="fill:#233862;" d="M2117.662,1094.384l11.763-9.833c0,0-11.835-9.236-12.703-16.783c0,0-6.858,0.454-12.798,5.292
			C2103.924,1073.06,2106.425,1089.102,2117.662,1094.384z"/>
		<rect x="2083.471" y="1117.887" style="fill:#233862;" width="28.094" height="5.267"/>
		<rect x="2144.002" y="1117.887" style="fill:#233862;" width="28.094" height="5.267"/>
		<path style="fill:#192E4F;" d="M2123.07,1092.941c0,0-9.854,82.447-4.822,112.132l8.79,25.157l12.174-27.853
			c0,0-5.809-78.12-6.342-109.157L2123.07,1092.941z"/>
		<path style="fill:#FFB27D;" d="M2140.936,1222.878c0,0-5.524-4.225-9.77-4.852c-4.244-0.627-11.394-3.332-10.233-0.82
			c1.159,2.512,8.983,6.472,8.983,6.472L2140.936,1222.878z"/>
		<path style="fill:#233862;" d="M2145.176,1223.688c0,0,32.326-22.807,40.77-39.577l-1.084,15.569L2145.176,1223.688z"/>
		<g>
			<path style="fill:#AEC3FF;" d="M2130.338,1250.79l-21.585,2.636c-2.385,0.291-4.634-1.177-5.327-3.479l-14.768-48.97
				c-0.885-2.935,1.09-5.959,4.132-6.331l21.585-2.634c2.385-0.292,4.635,1.176,5.328,3.478l14.768,48.97
				C2135.355,1247.396,2133.381,1250.419,2130.338,1250.79z"/>
			<path style="fill:#91B0F2;" d="M2122.694,1251.724l-21.585,2.636c-2.386,0.291-4.635-1.178-5.328-3.479l-14.767-48.97
				c-0.886-2.936,1.088-5.96,4.132-6.331l21.584-2.635c2.386-0.291,4.636,1.177,5.329,3.478l14.766,48.971
				C2127.71,1248.328,2125.737,1251.353,2122.694,1251.724z"/>
			<path style="fill:#91B0F2;" d="M2107.436,1202.37L2107.436,1202.37c-0.629,0.076-1.311-0.362-1.518-0.975l-14.461-42.966
				c-0.205-0.612,0.14-1.177,0.768-1.253l0,0c0.629-0.077,1.312,0.361,1.518,0.974l14.461,42.965
				C2108.409,1201.729,2108.063,1202.293,2107.436,1202.37z"/>
		</g>
		<path style="fill:#233862;" d="M2136.922,1242.321c0,0,23.977,5.687,49.023-0.771l-0.443-16.688l-46.29,13.563L2136.922,1242.321z
			"/>
		<path style="fill:#FFB27D;" d="M2160.344,1220.427c0,0-12.435,3.979-15.168,3.261c-2.259-0.594-4.24-0.81-6.847-2.582
			c-2.752-1.874-8.838,0.603-10.635,1.8c-5.034,3.356-22.026,3.22-22.026,6.576c0,3.355,6.987,14.949,16.341,15.585
			c4.816,0.327,50.745-11.482,50.745-11.482L2160.344,1220.427z"/>
		<path style="fill:#2B478B;" d="M2226.327,1133.16c0,0,14.963,47.637,6.261,73.465c-0.708,2.103-2.064,3.917-3.886,5.182
			c-8.22,5.703-46.498,25.061-78.924,29.744c0,0-2.741-4.134-3.982-9.937c-0.62-2.894-0.62-7.927-0.62-7.927
			s49.297-29.18,48.291-33.959c-1.006-4.78-14.591-43.271-14.591-43.271L2226.327,1133.16z"/>
		<path style="fill:#233862;" d="M2077.304,1251.035c0,0,40.325,14.75,108.642-1.35l0.437,11.74c0,0-57.702,13.237-109.793-1.432
			L2077.304,1251.035z"/>
		<polygon style="fill:#233862;" points="2168.816,1078.787 2196.234,1087.207 2201.517,1081.365 2172.789,1074.199 		"/>
		<polygon style="fill:#233862;" points="2082.023,1079.458 2078.501,1085.884 2099.129,1077.277 2099.129,1074.814 		"/>
	</g>
	<path style="fill:#A8D29F;" d="M644.857,645.698c-25.275,52.095-117.691,42.633-189.085,26.155
		c0.098-2.282,0.196-4.604,0.284-6.945c0.333-8.983-1.676-26.518-4.8-35.863c-55.906-167.18,16.232-286.428,127.682-359.056
		c8.601,7.856,16.232,16.8,22.472,26.969c51.616,84.246,79.045,46.903,124.106,100.84c45.063,53.938-20.336,78.761-71.041,99.597
		C586.54,525.313,687.626,557.533,644.857,645.698z"/>
	<path style="fill:#8EC181;" d="M2459.817,1611.1h-65.896c-3.532-2.995,2.444-9.798,8.687-10.255
		c2.711-0.204,6.14,0.362,10.058,1.189c0.906-12.044,6.085-66.188,25.602-64.013c21.944,2.436,0,23.845-6.203,36.52
		c-4.595,9.389-9.442,22.852-11.658,29.204c1.782,0.387,3.626,0.765,5.511,1.111c2.908-8.931,13.73-38.971,27.493-37.221
		c16.159,2.05,9.665,14.094-1.789,21.243c-8.403,5.258-18.722,12.73-23.624,16.341c4.154,0.678,8.489,1.135,12.888,1.032
		C2452.172,1605.984,2457.682,1609.311,2459.817,1611.1z"/>
	<path style="fill:#8EC181;" d="M1531.131,1611.1h50.969c2.731-2.316-1.89-7.578-6.718-7.932c-2.099-0.158-4.751,0.28-7.78,0.92
		c-0.701-9.315-4.707-51.194-19.802-49.512c-16.974,1.884,0,18.443,4.797,28.247c3.556,7.261,7.305,17.674,9.018,22.589
		c-1.378,0.298-2.805,0.591-4.262,0.859c-2.249-6.908-10.62-30.143-21.265-28.789c-12.499,1.584-7.476,10.901,1.383,16.43
		c6.5,4.067,14.48,9.848,18.272,12.64c-3.213,0.523-6.565,0.878-9.968,0.799C1537.044,1607.143,1532.783,1609.716,1531.131,1611.1z"
		/>
	<path style="fill:#2E3552;" d="M2575.914,1617.614H209.063c-1.504,0-2.735-1.23-2.735-2.735v-1.044c0-1.505,1.23-2.735,2.735-2.735
		h2366.851c1.504,0,2.734,1.23,2.734,2.735v1.044C2578.648,1616.384,2577.418,1617.614,2575.914,1617.614z"/>
</g>
</svg>
