<?xml version="1.0" encoding="utf-8"?>
<!-- Generator: Adobe Illustrator 27.5.0, SVG Export Plug-In . SVG Version: 6.00 Build 0)  -->
<svg version="1.1" xmlns="http://www.w3.org/2000/svg" xmlns:xlink="http://www.w3.org/1999/xlink" x="0px" y="0px"
	 viewBox="0 0 750 500" style="enable-background:new 0 0 750 500;" xml:space="preserve">
<g id="Background_Simple">
	<g>
		<path style="fill:#92E3A9;" d="M675.115,271.259c-20.649-35.54-46.112-68.174-75.537-96.965
			c-31.751-31.067-64.118-52.069-105.874-65.662c-28.27-9.202-57.758-14.468-87.379-15.447
			c-55.082-1.82-100.517,10.998-145.767,43.336c-48.512,34.67-93.769,73.904-141.044,110.314c-4.934,3.8-9.888,7.574-14.868,11.31
			c-82.45,61.851-122.497,171.719-66.745,198.576h641.539c0,0,58.355-3.014,43.973-64.294
			C713.347,349.533,696.913,308.777,675.115,271.259z"/>
		<path style="opacity:0.8;fill:#FFFFFF;" d="M675.115,271.259c-20.649-35.54-46.112-68.174-75.537-96.965
			c-31.751-31.067-64.118-52.069-105.874-65.662c-28.27-9.202-57.758-14.468-87.379-15.447
			c-55.082-1.82-100.517,10.998-145.767,43.336c-48.512,34.67-93.769,73.904-141.044,110.314c-4.934,3.8-9.888,7.574-14.868,11.31
			c-82.45,61.851-122.497,171.719-66.745,198.576h641.539c0,0,58.355-3.014,43.973-64.294
			C713.347,349.533,696.913,308.777,675.115,271.259z"/>
	</g>
</g>
<g id="Buildings">
	<g>
		<polyline style="fill:none;stroke:#263238;stroke-miterlimit:10;" points="541.878,210.368 541.878,68.204 556.956,68.204 
			556.956,53.548 602.19,53.548 602.19,65.273 614.037,65.273 614.037,308.565 646.347,308.565 646.347,351.068 666.81,351.068 		
			"/>
		<polyline style="fill:none;stroke:#263238;stroke-miterlimit:10;" points="395.407,229.421 395.407,119.5 426.639,119.5 
			426.639,145.881 441.717,145.881 441.717,107.775 475.104,107.775 475.104,271.924 503.106,271.924 503.106,330.549 
			525.723,330.549 525.723,239.681 541.878,239.681 541.878,220.628 		"/>
		<polyline style="fill:none;stroke:#263238;stroke-miterlimit:10;" points="278.014,156.141 278.014,351.068 296.323,351.068 
			296.323,236.749 322.171,236.749 322.171,333.48 395.407,333.48 395.407,247.009 		"/>
		<polyline style="fill:none;stroke:#263238;stroke-miterlimit:10;" points="220.933,299.771 220.933,59.41 278.014,59.41 
			278.014,140.019 		"/>
		<polyline style="fill:none;stroke:#263238;stroke-miterlimit:10;" points="110.003,229.421 110.003,257.268 126.158,257.268 
			126.158,131.225 190.777,131.225 190.777,326.152 220.933,326.152 220.933,307.099 		"/>
		<polyline style="fill:none;stroke:#263238;stroke-miterlimit:10;" points="39.998,351.068 63.692,351.068 63.692,169.331 
			110.003,169.331 110.003,214.765 		"/>
	</g>
</g>
<g id="Clouds">
	<g>
		<g>
			<path style="fill:none;stroke:#263238;stroke-linecap:round;stroke-linejoin:round;stroke-miterlimit:10;" d="M140.143,106.003
				h65.639c0,0,1.353-4.963-2.256-7.218c-3.609-2.256-4.511,0.451-8.572-0.451c0,0-10.827-16.692-19.399-15.79
				c-1.365,0.144-2.501,0.425-3.459,0.815"/>
			<path style="fill:none;stroke:#263238;stroke-linecap:round;stroke-linejoin:round;stroke-miterlimit:10;" d="M168.332,86.408
				c-1.669,2.426-2.312,5.578-4.055,8.317c-3.158,4.962-8.12-2.256-13.083-0.451c-4.962,1.805-3.158,4.962-6.316,6.316
				c-3.158,1.353-10.376-5.865-13.083-3.609c-2.707,2.256-3.609,5.865-5.414,6.767c-1.804,0.902-5.413-2.256-7.218,0
				c-1.805,2.256-1.805,2.256-1.805,2.256h18.332"/>
		</g>
		<g>
			<path style="fill:none;stroke:#263238;stroke-linecap:round;stroke-linejoin:round;stroke-miterlimit:10;" d="M694.458,120.717
				c-1.593-0.622-3.253-1.029-4.914-0.425c-4.962,1.805-3.158,4.962-6.316,6.316s-10.376-5.865-13.083-3.609
				c-2.707,2.256-3.609,5.865-5.414,6.767c-1.805,0.902-5.414-2.256-7.218,0c-1.805,2.256-1.805,2.256-1.805,2.256h52.304"/>
			<path style="fill:none;stroke:#263238;stroke-linecap:round;stroke-linejoin:round;stroke-miterlimit:10;" d="M723.219,112.65
				c-3.004-2.545-6.298-4.404-9.314-4.087c-8.572,0.902-8.12,7.218-11.278,12.181c-0.525,0.826-1.101,1.314-1.717,1.563"/>
			<path style="fill:none;stroke:#263238;stroke-linecap:round;stroke-linejoin:round;stroke-miterlimit:10;" d="M713.021,132.022
				h31.11c0,0,1.353-4.963-2.256-7.218c-3.609-2.256-4.511,0.451-8.571-0.451c0,0-2.762-4.258-6.6-8.356"/>
		</g>
		<g>
			<path style="fill:none;stroke:#263238;stroke-linecap:round;stroke-linejoin:round;stroke-miterlimit:10;" d="M359.604,56.54
				c-2.183-0.622-4.417-0.825-6.651-0.013c-8.936,3.249-5.686,8.935-11.372,11.372c-5.686,2.437-18.683-10.56-23.557-6.498
				c-4.874,4.061-6.499,10.56-9.748,12.185c-3.249,1.625-9.748-4.062-12.997,0c-3.249,4.062-3.249,4.062-3.249,4.062h95.952"/>
			<path style="fill:none;stroke:#263238;stroke-linecap:round;stroke-linejoin:round;stroke-miterlimit:10;" d="M393.546,77.648
				h57.698c0,0,2.437-8.936-4.062-12.997c-6.499-4.062-8.123,0.812-15.434-0.812c0,0-19.495-30.056-34.93-28.431
				c-15.434,1.625-14.622,12.997-20.308,21.932c-3.147,4.945-7.289,3.173-11.875,1.154"/>
		</g>
	</g>
</g>
<g id="Trees">
	<g>
		<path style="fill:#92E3A9;" d="M739.855,245.063c0,46.002-27.213,83.294-60.782,83.294c-33.569,0-60.782-37.292-60.782-83.294
			s27.213-204.107,60.782-204.107C712.642,40.956,739.855,199.061,739.855,245.063z"/>
		<path style="opacity:0.5;fill:#FFFFFF;" d="M739.855,245.063c0,46.002-27.213,83.294-60.782,83.294
			c-33.569,0-60.782-37.292-60.782-83.294s27.213-204.107,60.782-204.107C712.642,40.956,739.855,199.061,739.855,245.063z"/>
		<polygon style="fill:#B2B2B2;" points="713.155,269.13 694.75,275.938 698.443,264.859 689.644,277.826 680.859,281.075 
			680.232,244.695 712.206,202.215 695.07,219.35 697.968,207.435 689.771,224.65 680.053,234.367 679.073,177.528 675.591,260.426 
			645.29,228.317 661.934,250.942 646.24,249.198 665.626,255.961 675.229,269.015 673.55,308.985 662.375,301.401 673.203,317.256 
			668.07,439.415 683.589,439.415 680.959,286.879 		"/>
		<g>
			<path style="fill:#FFFFFF;" d="M712.512,177.708c0,0,0.562,5.584-2.49,9.684c-3.052,4.099-8.563,5.162-8.563,5.162
				s-0.562-5.584,2.49-9.684C707.001,178.77,712.512,177.708,712.512,177.708z"/>
			<path style="fill:#FFFFFF;" d="M730.831,203.447c0,0,0.562,5.584-2.49,9.684c-3.052,4.099-8.563,5.161-8.563,5.161
				s-0.562-5.584,2.49-9.684C725.32,204.509,730.831,203.447,730.831,203.447z"/>
			<path style="fill:#FFFFFF;" d="M730.824,253.561c0,0-1.35,5.447-5.605,8.28c-4.254,2.833-9.801,1.978-9.801,1.978
				s1.35-5.448,5.605-8.28C725.277,252.706,730.824,253.561,730.824,253.561z"/>
			<path style="fill:#FFFFFF;" d="M630.214,253.561c0,0,1.351,5.447,5.604,8.28c4.254,2.833,9.801,1.978,9.801,1.978
				s-1.35-5.448-5.605-8.28C635.76,252.706,630.214,253.561,630.214,253.561z"/>
			<path style="fill:#FFFFFF;" d="M709.664,232.758c0,0,0.562,5.584-2.49,9.684c-3.052,4.1-8.563,5.162-8.563,5.162
				s-0.562-5.584,2.49-9.684C704.154,233.821,709.664,232.758,709.664,232.758z"/>
			<path style="fill:#FFFFFF;" d="M704.919,149.708c0,0,0.562,5.584-2.49,9.684c-3.052,4.1-8.563,5.162-8.563,5.162
				s-0.562-5.584,2.49-9.684C699.408,150.77,704.919,149.708,704.919,149.708z"/>
			<path style="fill:#FFFFFF;" d="M694.003,171.064c0,0,0.562,5.584-2.49,9.684c-3.052,4.1-8.563,5.162-8.563,5.162
				s-0.562-5.584,2.49-9.684C688.493,172.126,694.003,171.064,694.003,171.064z"/>
			<path style="fill:#FFFFFF;" d="M719.916,155.515c0,0,0.562,5.584-2.49,9.684c-3.052,4.099-8.563,5.162-8.563,5.162
				s-0.562-5.584,2.49-9.684C714.405,156.577,719.916,155.515,719.916,155.515z"/>
			<path style="fill:#FFFFFF;" d="M635.712,155.515c0,0-0.562,5.584,2.49,9.684c3.052,4.099,8.563,5.162,8.563,5.162
				s0.562-5.584-2.49-9.684C641.223,156.577,635.712,155.515,635.712,155.515z"/>
			<path style="fill:#FFFFFF;" d="M707.292,123.606c0,0,0.562,5.584-2.49,9.684c-3.052,4.099-8.563,5.162-8.563,5.162
				s-0.562-5.584,2.49-9.684C701.781,124.668,707.292,123.606,707.292,123.606z"/>
			<path style="fill:#FFFFFF;" d="M701.927,95.879c0,0,1.947,5.264,0.022,9.999c-1.924,4.735-6.992,7.148-6.992,7.148
				s-1.947-5.264-0.022-9.999C696.86,98.292,701.927,95.879,701.927,95.879z"/>
			<path style="fill:#FFFFFF;" d="M663.491,88.634c0,0,4.972,2.604,6.714,7.409c1.743,4.805-0.404,9.991-0.404,9.991
				s-4.972-2.604-6.714-7.409C661.345,93.82,663.491,88.634,663.491,88.634z"/>
			<path style="fill:#FFFFFF;" d="M681.415,121.789c0,0,3.542,4.354,3.248,9.456c-0.294,5.103-4.311,9.022-4.311,9.022
				s-3.542-4.354-3.248-9.456C677.397,125.709,681.415,121.789,681.415,121.789z"/>
			<path style="fill:#FFFFFF;" d="M680.466,72.434c0,0,3.542,4.354,3.248,9.456c-0.294,5.103-4.311,9.021-4.311,9.021
				s-3.542-4.354-3.248-9.456C676.448,76.353,680.466,72.434,680.466,72.434z"/>
			<path style="fill:#FFFFFF;" d="M640.238,177.708c0,0-0.562,5.584,2.49,9.684c3.052,4.099,8.563,5.162,8.563,5.162
				s0.562-5.584-2.49-9.684C645.749,178.77,640.238,177.708,640.238,177.708z"/>
			<path style="fill:#FFFFFF;" d="M629.797,208.081c0,0-0.562,5.584,2.49,9.684c3.052,4.099,8.563,5.162,8.563,5.162
				s0.562-5.584-2.49-9.684C635.308,209.143,629.797,208.081,629.797,208.081z"/>
			<path style="fill:#FFFFFF;" d="M657.512,219.108c0,0-0.562,5.584,2.49,9.684c3.052,4.099,8.563,5.162,8.563,5.162
				s0.562-5.584-2.49-9.684C663.023,220.17,657.512,219.108,657.512,219.108z"/>
			<path style="fill:#FFFFFF;" d="M665.089,177.022c0,0-2.138,5.189-0.387,9.991c1.75,4.802,6.726,7.398,6.726,7.398
				s2.138-5.189,0.387-9.991C670.065,179.618,665.089,177.022,665.089,177.022z"/>
			<path style="fill:#FFFFFF;" d="M645.464,289.009c0,0,5.612,0.103,9.447-3.276c3.836-3.378,4.442-8.958,4.442-8.958
				s-5.612-0.102-9.447,3.276C646.071,283.43,645.464,289.009,645.464,289.009z"/>
			<path style="fill:#FFFFFF;" d="M699.311,282.871c0,0,1.524,5.402,5.867,8.096c4.343,2.695,9.859,1.663,9.859,1.663
				s-1.524-5.401-5.867-8.096C704.828,281.839,699.311,282.871,699.311,282.871z"/>
			<path style="fill:#FFFFFF;" d="M651.724,149.708c0,0-0.562,5.584,2.49,9.684c3.052,4.1,8.563,5.162,8.563,5.162
				s0.562-5.584-2.49-9.684C657.235,150.77,651.724,149.708,651.724,149.708z"/>
			<path style="fill:#FFFFFF;" d="M651.628,125.03c0,0-0.562,5.584,2.49,9.683c3.052,4.099,8.563,5.162,8.563,5.162
				s0.562-5.584-2.49-9.684C657.139,126.092,651.628,125.03,651.628,125.03z"/>
		</g>
	</g>
	<g>
		<path style="fill:#92E3A9;" d="M379.885,276.291c0,38.611-22.84,69.911-51.016,69.911c-28.175,0-51.016-31.3-51.016-69.911
			s22.84-171.312,51.016-171.312C357.044,104.978,379.885,237.68,379.885,276.291z"/>
		<path style="opacity:0.5;fill:#FFFFFF;" d="M379.885,276.291c0,38.611-22.84,69.911-51.016,69.911
			c-28.175,0-51.016-31.3-51.016-69.911s22.84-171.312,51.016-171.312C357.044,104.978,379.885,237.68,379.885,276.291z"/>
		<polygon style="fill:#B2B2B2;" points="357.474,296.491 342.027,302.204 345.126,292.906 337.741,303.789 330.367,306.517 
			329.841,275.981 356.677,240.327 342.295,254.709 344.728,244.708 337.848,259.157 329.691,267.313 328.869,219.606 
			325.946,289.185 300.514,262.235 314.483,281.225 301.311,279.761 317.582,285.437 325.643,296.394 324.233,329.941 
			314.853,323.577 323.941,336.884 319.633,439.415 332.659,439.415 330.451,311.388 		"/>
		<g>
			<path style="fill:#FFFFFF;" d="M356.935,219.757c0,0,0.472,4.687-2.09,8.128c-2.562,3.441-7.187,4.332-7.187,4.332
				s-0.472-4.687,2.09-8.128C352.309,220.649,356.935,219.757,356.935,219.757z"/>
			<path style="fill:#FFFFFF;" d="M372.311,241.361c0,0,0.472,4.687-2.09,8.128c-2.562,3.441-7.187,4.332-7.187,4.332
				s-0.472-4.687,2.09-8.128C367.685,242.252,372.311,241.361,372.311,241.361z"/>
			<path style="fill:#FFFFFF;" d="M372.304,283.423c0,0-1.133,4.572-4.704,6.95c-3.571,2.378-8.226,1.66-8.226,1.66
				s1.133-4.572,4.704-6.95C367.648,282.705,372.304,283.423,372.304,283.423z"/>
			<path style="fill:#FFFFFF;" d="M287.859,283.423c0,0,1.134,4.572,4.704,6.95c3.571,2.378,8.226,1.66,8.226,1.66
				s-1.133-4.572-4.704-6.95C292.515,282.705,287.859,283.423,287.859,283.423z"/>
			<path style="fill:#FFFFFF;" d="M354.545,265.963c0,0,0.472,4.687-2.09,8.128c-2.562,3.441-7.187,4.332-7.187,4.332
				s-0.472-4.687,2.09-8.128C349.919,266.854,354.545,265.963,354.545,265.963z"/>
			<path style="fill:#FFFFFF;" d="M350.561,196.256c0,0,0.472,4.687-2.09,8.128c-2.562,3.441-7.187,4.332-7.187,4.332
				s-0.472-4.687,2.09-8.128C345.936,197.148,350.561,196.256,350.561,196.256z"/>
			<path style="fill:#FFFFFF;" d="M341.4,214.181c0,0,0.472,4.687-2.09,8.128c-2.562,3.441-7.188,4.332-7.188,4.332
				s-0.472-4.687,2.09-8.128C336.775,215.072,341.4,214.181,341.4,214.181z"/>
			<path style="fill:#FFFFFF;" d="M363.149,201.13c0,0,0.472,4.687-2.09,8.128c-2.562,3.441-7.187,4.332-7.187,4.332
				s-0.472-4.687,2.09-8.128C358.524,202.022,363.149,201.13,363.149,201.13z"/>
			<path style="fill:#FFFFFF;" d="M292.475,201.13c0,0-0.472,4.687,2.09,8.128c2.562,3.441,7.187,4.332,7.187,4.332
				s0.472-4.687-2.09-8.128C297.1,202.022,292.475,201.13,292.475,201.13z"/>
			<path style="fill:#FFFFFF;" d="M352.553,174.348c0,0,0.472,4.687-2.09,8.128c-2.562,3.441-7.187,4.332-7.187,4.332
				s-0.472-4.687,2.09-8.128C347.928,175.24,352.553,174.348,352.553,174.348z"/>
			<path style="fill:#FFFFFF;" d="M348.051,151.077c0,0,1.634,4.418,0.019,8.392c-1.615,3.974-5.868,5.999-5.868,5.999
				s-1.634-4.418-0.019-8.392C343.798,153.102,348.051,151.077,348.051,151.077z"/>
			<path style="fill:#FFFFFF;" d="M315.79,144.995c0,0,4.173,2.186,5.635,6.219c1.463,4.033-0.339,8.385-0.339,8.385
				s-4.173-2.186-5.635-6.219C313.989,149.348,315.79,144.995,315.79,144.995z"/>
			<path style="fill:#FFFFFF;" d="M330.834,172.824c0,0,2.973,3.654,2.726,7.937c-0.246,4.283-3.618,7.572-3.618,7.572
				s-2.973-3.654-2.726-7.937C327.462,176.113,330.834,172.824,330.834,172.824z"/>
			<path style="fill:#FFFFFF;" d="M330.038,131.398c0,0,2.973,3.654,2.726,7.937c-0.246,4.283-3.618,7.572-3.618,7.572
				s-2.973-3.654-2.726-7.937C326.666,134.688,330.038,131.398,330.038,131.398z"/>
			<path style="fill:#FFFFFF;" d="M296.273,219.757c0,0-0.472,4.687,2.09,8.128c2.562,3.441,7.187,4.332,7.187,4.332
				s0.472-4.687-2.09-8.128C300.899,220.649,296.273,219.757,296.273,219.757z"/>
			<path style="fill:#FFFFFF;" d="M287.51,245.25c0,0-0.472,4.687,2.09,8.128c2.562,3.441,7.187,4.332,7.187,4.332
				s0.472-4.687-2.09-8.128C292.136,246.142,287.51,245.25,287.51,245.25z"/>
			<path style="fill:#FFFFFF;" d="M310.772,254.505c0,0-0.472,4.687,2.09,8.128c2.562,3.441,7.187,4.332,7.187,4.332
				s0.472-4.687-2.09-8.128C315.397,255.397,310.772,254.505,310.772,254.505z"/>
			<path style="fill:#FFFFFF;" d="M317.132,219.182c0,0-1.794,4.356-0.325,8.386c1.469,4.03,5.646,6.209,5.646,6.209
				s1.794-4.355,0.325-8.386C321.308,221.361,317.132,219.182,317.132,219.182z"/>
			<path style="fill:#FFFFFF;" d="M300.66,313.176c0,0,4.71,0.086,7.929-2.749c3.219-2.835,3.729-7.518,3.729-7.518
				s-4.71-0.086-7.929,2.749C301.169,308.493,300.66,313.176,300.66,313.176z"/>
			<path style="fill:#FFFFFF;" d="M345.855,308.024c0,0,1.279,4.534,4.924,6.796c3.645,2.262,8.275,1.395,8.275,1.395
				s-1.279-4.533-4.924-6.795C350.485,307.157,345.855,308.024,345.855,308.024z"/>
			<path style="fill:#FFFFFF;" d="M305.914,196.256c0,0-0.472,4.687,2.09,8.128c2.562,3.441,7.187,4.332,7.187,4.332
				s0.472-4.687-2.09-8.128C310.54,197.148,305.914,196.256,305.914,196.256z"/>
			<path style="fill:#FFFFFF;" d="M305.833,175.543c0,0-0.472,4.687,2.09,8.128c2.562,3.441,7.187,4.332,7.187,4.332
				s0.472-4.687-2.09-8.128C310.459,176.435,305.833,175.543,305.833,175.543z"/>
		</g>
	</g>
	<g>
		<path style="fill:#92E3A9;" d="M534.016,302.664c0,32.368-19.148,58.608-42.768,58.608c-23.62,0-42.768-26.24-42.768-58.608
			c0-32.368,19.148-143.615,42.768-143.615C514.868,159.049,534.016,270.296,534.016,302.664z"/>
		<path style="opacity:0.5;fill:#FFFFFF;" d="M534.016,302.664c0,32.368-19.148,58.608-42.768,58.608
			c-23.62,0-42.768-26.24-42.768-58.608c0-32.368,19.148-143.615,42.768-143.615C514.868,159.049,534.016,270.296,534.016,302.664z"
			/>
		<polygon style="fill:#B2B2B2;" points="515.229,319.598 502.279,324.388 504.877,316.593 498.686,325.717 492.504,328.003 
			492.063,302.405 514.561,272.515 502.504,284.572 504.543,276.188 498.775,288.3 491.938,295.138 491.248,255.144 
			488.798,313.473 467.478,290.881 479.189,306.8 468.146,305.573 481.787,310.332 488.544,319.517 487.362,347.641 
			479.499,342.305 487.117,353.461 483.506,439.415 494.425,439.415 492.575,332.087 		"/>
		<g>
			<path style="fill:#FFFFFF;" d="M514.776,255.271c0,0,0.396,3.929-1.752,6.814c-2.148,2.884-6.025,3.632-6.025,3.632
				s-0.396-3.929,1.752-6.814C510.899,256.018,514.776,255.271,514.776,255.271z"/>
			<path style="fill:#FFFFFF;" d="M527.667,273.381c0,0,0.396,3.929-1.752,6.814c-2.148,2.884-6.025,3.632-6.025,3.632
				s-0.396-3.929,1.752-6.814C523.789,274.129,527.667,273.381,527.667,273.381z"/>
			<path style="fill:#FFFFFF;" d="M527.661,308.643c0,0-0.95,3.833-3.944,5.826c-2.993,1.993-6.896,1.392-6.896,1.392
				s0.95-3.833,3.944-5.826C523.758,308.041,527.661,308.643,527.661,308.643z"/>
			<path style="fill:#FFFFFF;" d="M456.869,308.643c0,0,0.95,3.833,3.943,5.826c2.993,1.993,6.896,1.392,6.896,1.392
				s-0.95-3.833-3.944-5.826C460.772,308.041,456.869,308.643,456.869,308.643z"/>
			<path style="fill:#FFFFFF;" d="M512.773,294.006c0,0,0.396,3.929-1.752,6.814c-2.147,2.885-6.025,3.632-6.025,3.632
				s-0.396-3.929,1.752-6.814C508.895,294.753,512.773,294.006,512.773,294.006z"/>
			<path style="fill:#FFFFFF;" d="M509.434,235.569c0,0,0.396,3.929-1.752,6.814c-2.148,2.885-6.025,3.632-6.025,3.632
				s-0.396-3.929,1.752-6.814C505.556,236.317,509.434,235.569,509.434,235.569z"/>
			<path style="fill:#FFFFFF;" d="M501.753,250.596c0,0,0.396,3.929-1.752,6.814c-2.148,2.885-6.025,3.632-6.025,3.632
				s-0.396-3.929,1.752-6.814C497.876,251.343,501.753,250.596,501.753,250.596z"/>
			<path style="fill:#FFFFFF;" d="M519.986,239.655c0,0,0.396,3.929-1.752,6.814c-2.148,2.884-6.026,3.632-6.026,3.632
				s-0.395-3.929,1.752-6.814C516.109,240.402,519.986,239.655,519.986,239.655z"/>
			<path style="fill:#FFFFFF;" d="M460.738,239.655c0,0-0.396,3.929,1.752,6.814c2.148,2.884,6.025,3.632,6.025,3.632
				s0.396-3.929-1.752-6.814C464.616,240.402,460.738,239.655,460.738,239.655z"/>
			<path style="fill:#FFFFFF;" d="M511.103,217.203c0,0,0.396,3.929-1.752,6.814c-2.148,2.884-6.025,3.632-6.025,3.632
				s-0.396-3.929,1.752-6.814C507.226,217.951,511.103,217.203,511.103,217.203z"/>
			<path style="fill:#FFFFFF;" d="M507.329,197.694c0,0,1.37,3.704,0.016,7.035c-1.354,3.331-4.92,5.029-4.92,5.029
				s-1.37-3.704-0.016-7.035C503.763,199.392,507.329,197.694,507.329,197.694z"/>
			<path style="fill:#FFFFFF;" d="M480.284,192.596c0,0,3.498,1.832,4.724,5.213c1.226,3.381-0.284,7.03-0.284,7.03
				s-3.498-1.832-4.724-5.213C478.774,196.245,480.284,192.596,480.284,192.596z"/>
			<path style="fill:#FFFFFF;" d="M492.896,215.925c0,0,2.492,3.064,2.286,6.654c-0.207,3.59-3.033,6.348-3.033,6.348
				s-2.492-3.063-2.286-6.654C490.069,218.683,492.896,215.925,492.896,215.925z"/>
			<path style="fill:#FFFFFF;" d="M492.228,181.197c0,0,2.492,3.063,2.285,6.654c-0.207,3.59-3.033,6.348-3.033,6.348
				s-2.492-3.063-2.285-6.654C489.401,183.955,492.228,181.197,492.228,181.197z"/>
			<path style="fill:#FFFFFF;" d="M463.923,255.271c0,0-0.396,3.929,1.752,6.814c2.148,2.884,6.025,3.632,6.025,3.632
				s0.396-3.929-1.752-6.814C467.801,256.018,463.923,255.271,463.923,255.271z"/>
			<path style="fill:#FFFFFF;" d="M456.576,276.642c0,0-0.395,3.929,1.752,6.814c2.148,2.884,6.025,3.632,6.025,3.632
				s0.396-3.929-1.752-6.814C460.454,277.389,456.576,276.642,456.576,276.642z"/>
			<path style="fill:#FFFFFF;" d="M476.077,284.401c0,0-0.396,3.929,1.752,6.814c2.148,2.884,6.025,3.632,6.025,3.632
				s0.396-3.929-1.752-6.814C479.955,285.148,476.077,284.401,476.077,284.401z"/>
			<path style="fill:#FFFFFF;" d="M481.409,254.788c0,0-1.504,3.652-0.272,7.03c1.232,3.379,4.733,5.205,4.733,5.205
				s1.504-3.651,0.272-7.03C484.91,256.615,481.409,254.788,481.409,254.788z"/>
			<path style="fill:#FFFFFF;" d="M467.6,333.586c0,0,3.948,0.072,6.647-2.305c2.699-2.377,3.126-6.303,3.126-6.303
				s-3.948-0.072-6.647,2.305S467.6,333.586,467.6,333.586z"/>
			<path style="fill:#FFFFFF;" d="M505.488,329.267c0,0,1.072,3.801,4.128,5.697c3.056,1.896,6.937,1.17,6.937,1.17
				s-1.072-3.801-4.128-5.697C509.37,328.54,505.488,329.267,505.488,329.267z"/>
			<path style="fill:#FFFFFF;" d="M472.005,235.569c0,0-0.395,3.929,1.752,6.814c2.148,2.885,6.025,3.632,6.025,3.632
				s0.396-3.929-1.752-6.814C475.883,236.317,472.005,235.569,472.005,235.569z"/>
			<path style="fill:#FFFFFF;" d="M471.937,218.205c0,0-0.396,3.929,1.752,6.814c2.148,2.884,6.025,3.632,6.025,3.632
				s0.395-3.929-1.752-6.814C475.815,218.952,471.937,218.205,471.937,218.205z"/>
		</g>
	</g>
	<g>
		<path style="fill:#92E3A9;" d="M105.438,312.806c0,29.968-17.728,54.261-39.596,54.261c-21.868,0-39.596-24.294-39.596-54.261
			s17.727-132.964,39.596-132.964C87.71,179.841,105.438,282.838,105.438,312.806z"/>
		<path style="opacity:0.5;fill:#FFFFFF;" d="M105.438,312.806c0,29.968-17.728,54.261-39.596,54.261
			c-21.868,0-39.596-24.294-39.596-54.261s17.727-132.964,39.596-132.964C87.71,179.841,105.438,282.838,105.438,312.806z"/>
		<polygon style="fill:#B2B2B2;" points="88.044,328.484 76.054,332.918 78.46,325.702 72.728,334.149 67.005,336.266 
			66.596,312.566 87.425,284.892 76.263,296.055 78.151,288.293 72.811,299.507 66.48,305.838 65.842,268.81 63.573,322.814 
			43.834,301.896 54.677,316.635 44.452,315.499 57.082,319.905 63.338,328.409 62.244,354.447 54.964,349.507 62.017,359.835 
			58.674,439.415 68.783,439.415 67.07,340.046 		"/>
		<g>
			<path style="fill:#FFFFFF;" d="M87.625,268.927c0,0,0.366,3.638-1.622,6.308c-1.988,2.671-5.578,3.363-5.578,3.363
				s-0.366-3.638,1.622-6.308C84.035,269.619,87.625,268.927,87.625,268.927z"/>
			<path style="fill:#FFFFFF;" d="M99.559,285.695c0,0,0.366,3.638-1.622,6.309c-1.988,2.671-5.578,3.362-5.578,3.362
				s-0.366-3.638,1.622-6.308C95.969,286.387,99.559,285.695,99.559,285.695z"/>
			<path style="fill:#FFFFFF;" d="M99.554,318.341c0,0-0.88,3.549-3.651,5.394c-2.771,1.845-6.385,1.289-6.385,1.289
				s0.88-3.549,3.651-5.394C95.941,317.784,99.554,318.341,99.554,318.341z"/>
			<path style="fill:#FFFFFF;" d="M34.012,318.341c0,0,0.88,3.549,3.651,5.394c2.771,1.845,6.385,1.289,6.385,1.289
				s-0.88-3.549-3.651-5.394C37.626,317.784,34.012,318.341,34.012,318.341z"/>
			<path style="fill:#FFFFFF;" d="M85.77,304.79c0,0,0.366,3.638-1.622,6.308c-1.988,2.671-5.579,3.363-5.579,3.363
				s-0.366-3.638,1.622-6.308C82.18,305.482,85.77,304.79,85.77,304.79z"/>
			<path style="fill:#FFFFFF;" d="M82.679,250.687c0,0,0.366,3.638-1.622,6.308c-1.988,2.671-5.578,3.363-5.578,3.363
				s-0.366-3.638,1.622-6.308C79.089,251.379,82.679,250.687,82.679,250.687z"/>
			<path style="fill:#FFFFFF;" d="M75.568,264.599c0,0,0.366,3.638-1.622,6.308c-1.989,2.671-5.578,3.363-5.578,3.363
				s-0.366-3.638,1.622-6.308C71.978,265.291,75.568,264.599,75.568,264.599z"/>
			<path style="fill:#FFFFFF;" d="M92.449,254.47c0,0,0.366,3.638-1.622,6.308c-1.988,2.67-5.578,3.362-5.578,3.362
				s-0.366-3.638,1.622-6.308C88.858,255.162,92.449,254.47,92.449,254.47z"/>
			<path style="fill:#FFFFFF;" d="M37.594,254.47c0,0-0.366,3.638,1.622,6.308c1.989,2.67,5.578,3.362,5.578,3.362
				s0.366-3.638-1.622-6.308C41.184,255.162,37.594,254.47,37.594,254.47z"/>
			<path style="fill:#FFFFFF;" d="M84.224,233.683c0,0,0.366,3.638-1.622,6.308c-1.989,2.67-5.579,3.363-5.579,3.363
				s-0.366-3.638,1.622-6.308C80.634,234.375,84.224,233.683,84.224,233.683z"/>
			<path style="fill:#FFFFFF;" d="M80.73,215.62c0,0,1.268,3.429,0.015,6.514c-1.254,3.084-4.555,4.656-4.555,4.656
				s-1.268-3.429-0.015-6.514C77.429,217.192,80.73,215.62,80.73,215.62z"/>
			<path style="fill:#FFFFFF;" d="M55.691,210.901c0,0,3.239,1.697,4.374,4.827c1.135,3.13-0.263,6.508-0.263,6.508
				s-3.239-1.697-4.374-4.826C54.292,214.279,55.691,210.901,55.691,210.901z"/>
			<path style="fill:#FFFFFF;" d="M67.367,232.5c0,0,2.307,2.836,2.116,6.16c-0.191,3.324-2.809,5.877-2.809,5.877
				s-2.307-2.836-2.116-6.16C64.75,235.053,67.367,232.5,67.367,232.5z"/>
			<path style="fill:#FFFFFF;" d="M66.749,200.347c0,0,2.307,2.836,2.116,6.16c-0.191,3.324-2.808,5.877-2.808,5.877
				s-2.307-2.836-2.116-6.16C64.132,202.9,66.749,200.347,66.749,200.347z"/>
			<path style="fill:#FFFFFF;" d="M40.543,268.927c0,0-0.366,3.638,1.622,6.308c1.988,2.671,5.578,3.363,5.578,3.363
				s0.366-3.638-1.622-6.308C44.133,269.619,40.543,268.927,40.543,268.927z"/>
			<path style="fill:#FFFFFF;" d="M33.741,288.714c0,0-0.366,3.638,1.622,6.308c1.989,2.671,5.579,3.363,5.579,3.363
				s0.366-3.638-1.622-6.308C37.331,289.405,33.741,288.714,33.741,288.714z"/>
			<path style="fill:#FFFFFF;" d="M51.796,295.897c0,0-0.366,3.638,1.622,6.308c1.988,2.67,5.578,3.363,5.578,3.363
				s0.366-3.638-1.622-6.309C55.386,296.589,51.796,295.897,51.796,295.897z"/>
			<path style="fill:#FFFFFF;" d="M56.732,268.481c0,0-1.393,3.381-0.252,6.509c1.14,3.128,4.382,4.819,4.382,4.819
				s1.393-3.381,0.252-6.509C59.973,270.172,56.732,268.481,56.732,268.481z"/>
			<path style="fill:#FFFFFF;" d="M43.947,341.434c0,0,3.656,0.067,6.154-2.134c2.498-2.201,2.894-5.835,2.894-5.835
				s-3.656-0.067-6.154,2.134C44.343,337.799,43.947,341.434,43.947,341.434z"/>
			<path style="fill:#FFFFFF;" d="M79.025,337.435c0,0,0.993,3.519,3.822,5.274c2.829,1.756,6.423,1.083,6.423,1.083
				s-0.993-3.519-3.822-5.274C82.619,336.763,79.025,337.435,79.025,337.435z"/>
			<path style="fill:#FFFFFF;" d="M48.026,250.687c0,0-0.366,3.638,1.622,6.308c1.989,2.671,5.579,3.363,5.579,3.363
				s0.366-3.638-1.622-6.308C51.616,251.379,48.026,250.687,48.026,250.687z"/>
			<path style="fill:#FFFFFF;" d="M47.963,234.611c0,0-0.366,3.638,1.622,6.308c1.988,2.671,5.578,3.363,5.578,3.363
				s0.366-3.638-1.622-6.308C51.553,235.303,47.963,234.611,47.963,234.611z"/>
		</g>
	</g>
</g>
<g id="Floor">
	
		<line style="fill:none;stroke:#263238;stroke-linecap:round;stroke-linejoin:round;stroke-miterlimit:10;" x1="11.71" y1="439.415" x2="740.747" y2="439.415"/>
</g>
<g id="Character_2">
	<g>
		<path style="fill:#263238;stroke:#263238;stroke-linecap:round;stroke-linejoin:round;stroke-miterlimit:10;" d="M92.074,419.643
			l281.782,11.675l100.533-2.625c0,0,1.542-57.058-26.216-79.162c-27.758-22.104-65.283-16.449-79.162-6.682
			c-13.879,9.767-49.862,74.022-49.862,74.022l-149.071-4.112c0,0-14.393-59.114-29.814-69.395
			c-15.421-10.281-31.87-8.739-44.721,11.309C82.692,374.718,92.074,419.643,92.074,419.643z"/>
		<path style="fill:#263238;stroke:#263238;stroke-linecap:round;stroke-linejoin:round;stroke-miterlimit:10;" d="M625.576,353.546
			h-23.661c-19.933,0-36.091,22.829-36.091,50.991c0,28.161,16.159,50.991,36.091,50.991c0.001,0,0.001,0,0.002,0h23.659
			c19.933,0,36.091-22.829,36.091-50.991C661.667,376.375,645.508,353.546,625.576,353.546z"/>
		<path style="fill:#263238;stroke:#263238;stroke-linecap:round;stroke-linejoin:round;stroke-miterlimit:10;" d="M327.174,353.546
			h-20.907c-17.613,0-31.891,20.172-31.891,45.056c0,24.884,14.278,45.056,31.891,45.056c0.001,0,0.001,0,0.002,0h20.905
			c17.613,0,31.891-20.172,31.891-45.056C359.065,373.718,344.786,353.546,327.174,353.546z"/>
		<g>
			<g>
				<path style="fill:#263238;stroke:#263238;stroke-linecap:round;stroke-linejoin:round;stroke-miterlimit:10;" d="
					M151.942,353.546h-22.539v11.911c-7.251,8.905-11.842,22.022-11.842,36.662c0,14.64,4.591,27.757,11.842,36.662v11.911h22.539
					c18.988,0,34.38-21.747,34.38-48.573C186.322,375.293,170.93,353.546,151.942,353.546z"/>
				
					<ellipse style="fill:#263238;stroke:#263238;stroke-linecap:round;stroke-linejoin:round;stroke-miterlimit:10;" cx="129.403" cy="402.119" rx="34.38" ry="48.573"/>
				
					<ellipse style="fill:#FFFFFF;stroke:#263238;stroke-linecap:round;stroke-linejoin:round;stroke-miterlimit:10;" cx="129.403" cy="402.119" rx="27.108" ry="38.299"/>
				<path style="fill:#FFFFFF;stroke:#263238;stroke-linecap:round;stroke-linejoin:round;stroke-miterlimit:10;" d="
					M131.957,402.119c0,1.993-1.143,3.608-2.554,3.608c-1.41,0-2.554-1.616-2.554-3.608c0-1.993,1.143-3.608,2.554-3.608
					C130.814,398.511,131.957,400.126,131.957,402.119z"/>
			</g>
		</g>
		<g>
			<g>
				<path style="fill:#263238;stroke:#263238;stroke-linecap:round;stroke-linejoin:round;stroke-miterlimit:10;" d="
					M441.628,353.546h-25.496v13.474c-8.202,10.074-13.396,24.912-13.396,41.473c0,16.561,5.193,31.399,13.396,41.473v13.474h25.496
					c21.479,0,38.892-24.601,38.892-54.947C480.52,378.147,463.107,353.546,441.628,353.546z"/>
				
					<ellipse style="fill:#263238;stroke:#263238;stroke-linecap:round;stroke-linejoin:round;stroke-miterlimit:10;" cx="416.132" cy="408.493" rx="38.892" ry="54.947"/>
				
					<ellipse style="fill:#FFFFFF;stroke:#263238;stroke-linecap:round;stroke-linejoin:round;stroke-miterlimit:10;" cx="416.132" cy="408.493" rx="30.665" ry="43.324"/>
				<path style="fill:#FFFFFF;stroke:#263238;stroke-linecap:round;stroke-linejoin:round;stroke-miterlimit:10;" d="
					M421.295,408.493c0,4.029-2.312,7.296-5.164,7.296c-2.852,0-5.164-3.266-5.164-7.296c0-4.029,2.312-7.296,5.164-7.296
					C418.983,401.197,421.295,404.464,421.295,408.493z"/>
			</g>
		</g>
		<path style="fill:#C2C2C2;stroke:#263238;stroke-linecap:round;stroke-linejoin:round;stroke-miterlimit:10;" d="M329.281,231.257
			c0,0-31.84,4.245-55.189,15.92c-23.349,11.675-71.109,56.25-71.109,56.25s-44.045,9.552-65.802,16.981
			c-21.757,7.429-46.168,22.288-49.352,27.595c-3.184,5.307-1.061,12.205-1.061,12.205s-4.776,5.837-4.245,11.144
			c0.531,5.307,0,37.677,1.592,41.392c1.592,3.715,7.96,6.899,7.96,6.899s-1.592-34.493,4.245-49.882
			c5.837-15.389,15.92-24.941,28.656-22.288c12.736,2.653,20.165,13.267,23.88,29.186c3.715,15.92,11.144,49.882,11.144,49.882
			l213.857,4.776c0,0-5.837-40.861,0-57.842c5.837-16.981,21.757-34.493,46.168-27.595c24.41,6.899,36.085,45.106,41.392,58.373
			c5.307,13.267,2.653,21.757,7.96,25.472c5.307,3.715,12.736,2.123,12.736,2.123s196.876-11.144,203.244-13.797
			c6.368-2.653,31.309-6.899,32.901-11.675c1.592-4.776,8.491-24.941,7.96-44.045c-0.531-19.104-7.96-29.186-9.021-32.37
			c-1.061-3.184,1.592-11.144,0-16.981c-1.592-5.837-3.715-10.083-4.776-14.858c-1.061-4.776-2.123-9.021-9.021-12.205
			c-6.899-3.184-39.8-6.368-46.698-7.96c-6.899-1.592-64.741-28.125-87.559-35.554c-22.819-7.429-66.333-13.797-66.333-13.797
			s-2.123-7.96-6.899-9.552c-4.776-1.592-21.227,5.307-21.227,5.307S369.611,223.297,329.281,231.257z"/>
		<path style="fill:#263238;stroke:#263238;stroke-linecap:round;stroke-linejoin:round;stroke-miterlimit:10;" d="M602.042,309.265
			l-32.37-7.429c0,0-5.307-6.899-7.429-6.899c-2.123,0-48.821,5.837-54.658,7.429c-5.837,1.592-8.491,2.123-6.899,7.96
			c1.592,5.837,7.96,8.491,7.96,8.491s27.595,8.491,33.962,8.491c6.368,0,67.925,3.184,67.925,3.184L602.042,309.265z"/>
		<path style="fill:#263238;stroke:#263238;stroke-linecap:round;stroke-linejoin:round;stroke-miterlimit:10;" d="M708.174,305.55
			c-1.592,0.531-24.941,5.307-24.941,5.307l-1.592,20.165c0,0,21.757,1.061,28.656,0c6.899-1.061,6.899-1.061,6.899-1.061
			c-1.061-3.184,1.592-11.144,0-16.981c-1.592-5.837-3.715-10.083-4.776-14.858C712.419,298.121,709.766,305.019,708.174,305.55z"/>
		
			<line style="fill:none;stroke:#263238;stroke-linecap:round;stroke-linejoin:round;stroke-miterlimit:10;" x1="607.348" y1="308.734" x2="679.518" y2="308.734"/>
		<path style="fill:none;stroke:#263238;stroke-linecap:round;stroke-linejoin:round;stroke-miterlimit:10;" d="M550.036,286.446
			c0,0,84.375-9.552,136.38-1.592"/>
		<path style="fill:none;stroke:#263238;stroke-linecap:round;stroke-linejoin:round;stroke-miterlimit:10;" d="M575.508,331.553
			c0,0,10.613,20.165,15.389,21.227c4.776,1.061,100.826,2.123,106.133,1.061c5.307-1.061,6.899-5.837,7.429-7.429
			c0.531-1.592,1.592-10.083,1.592-10.083"/>
		<path style="fill:#263238;stroke:#263238;stroke-linecap:round;stroke-linejoin:round;stroke-miterlimit:10;" d="M718.257,406.376
			c0.958-2.873,3.834-11.317,5.86-21.746c-9.511,0.201-152.588,3.262-160.283,5.827c-7.96,2.653-19.104,23.349-19.104,23.349
			l-77.119,14.113c0.469,0.689,1.037,1.297,1.765,1.807c5.307,3.715,12.736,2.123,12.736,2.123s196.876-11.144,203.244-13.797
			C691.724,415.397,716.665,411.152,718.257,406.376z"/>
		<path style="fill:#FFFFFF;stroke:#263238;stroke-linecap:round;stroke-linejoin:round;stroke-miterlimit:10;" d="M573.386,404.784
			c0,0-12.205,6.368-10.613,7.429c1.592,1.061,24.41,0,24.41,0s8.491-7.429,6.899-8.491
			C592.49,402.661,573.386,404.784,573.386,404.784z"/>
		<path style="fill:#FFFFFF;stroke:#263238;stroke-linecap:round;stroke-linejoin:round;stroke-miterlimit:10;" d="M705.755,404.349
			l-2.357,4.68l13.322-3.212l2.011-5.53l-8.441,0.918C708.343,401.416,706.636,402.6,705.755,404.349z"/>
		<path style="fill:#263238;stroke:#263238;stroke-linecap:round;stroke-linejoin:round;stroke-miterlimit:10;" d="M205.199,306.95
			l210.783-21.296c0,0,17.819-18.253,17.384-25.642c-0.435-7.388-28.684-19.557-54.326-23.469
			c-25.642-3.911-76.056,5.215-93.005,10.865c-16.95,5.65-66.495,46.503-66.495,46.503L205.199,306.95z"/>
		<g>
			<path style="fill:#666666;stroke:#263238;stroke-linecap:round;stroke-linejoin:round;stroke-miterlimit:10;" d="
				M378.697,289.422l3.474-0.351c5.478-16.945,15.566-37.792,20.192-47.012c-1.026-0.325-2.065-0.642-3.113-0.951
				C394.342,250.877,384.069,272.172,378.697,289.422z"/>
			<path style="fill:#666666;stroke:#263238;stroke-linecap:round;stroke-linejoin:round;stroke-miterlimit:10;" d="
				M303.314,297.038l15.665-1.583c4.99-15.136,14.104-41.335,22.732-58.567c-2.529,0.258-5.068,0.549-7.6,0.867
				C328.463,246.518,317.347,265.349,303.314,297.038z"/>
		</g>
		<g>
			<path style="fill:#C2C2C2;stroke:#263238;stroke-linecap:round;stroke-linejoin:round;stroke-miterlimit:10;" d="M220.845,302.17
				c0,0-0.435-16.95-2.173-18.254c-1.738-1.304-13.038-2.173-17.819,2.608c-4.781,4.781-3.042,11.3-2.173,13.907
				c0.869,2.608,6.954,5.215,10.865,5.65C213.457,306.516,217.803,305.647,220.845,302.17z"/>
			<path style="fill:#263238;stroke:#263238;stroke-linecap:round;stroke-linejoin:round;stroke-miterlimit:10;" d="
				M206.069,287.393c-0.635,1.271-1.5,10.662-0.224,17.833c1.296,0.426,2.587,0.731,3.701,0.855c3.911,0.435,8.257-0.435,11.3-3.911
				c0,0-0.435-16.95-2.173-18.253C218.672,283.916,206.938,285.655,206.069,287.393z"/>
		</g>
		<path style="fill:#263238;stroke:#263238;stroke-linecap:round;stroke-linejoin:round;stroke-miterlimit:10;" d="M435.106,236.979
			l60.41,36.941c0,0,99.959-3.042,147.331,2.173c0,0-54.76-25.207-69.971-30.857c-15.211-5.65-46.503-11.3-52.587-12.169
			C514.204,232.198,455.097,232.633,435.106,236.979z"/>
		<g>
			<path style="fill:#263238;stroke:#263238;stroke-linecap:round;stroke-linejoin:round;stroke-miterlimit:10;" d="M385.54,312.234
				l-23.261,1.342C362.279,313.576,373.015,321.405,385.54,312.234z"/>
			<path style="fill:none;stroke:#263238;stroke-linecap:round;stroke-linejoin:round;stroke-miterlimit:10;" d="M365.634,308.432
				l20.354-1.789c0,0-3.131-2.908-6.934-2.908"/>
		</g>
		<g>
			<path style="fill:#263238;stroke:#263238;stroke-linecap:round;stroke-linejoin:round;stroke-miterlimit:10;" d="
				M281.759,322.523l-23.261,1.342C258.497,323.865,269.233,331.693,281.759,322.523z"/>
			<path style="fill:none;stroke:#263238;stroke-linecap:round;stroke-linejoin:round;stroke-miterlimit:10;" d="M261.852,318.721
				l20.354-1.789c0,0-3.131-2.908-6.934-2.908"/>
		</g>
		<path style="fill:none;stroke:#263238;stroke-linecap:round;stroke-linejoin:round;stroke-miterlimit:10;" d="M298.586,299.802
			c0,0-11.698,13.648-12.534,17.269c-0.836,3.621-0.557,6.406-0.836,7.799s-4.178,21.447-2.228,40.665s3.621,29.802,3.899,31.195
			c0.279,1.393-0.836,4.456,0,6.685s2.785,5.013,2.785,5.013"/>
		<path style="fill:none;stroke:#263238;stroke-linecap:round;stroke-linejoin:round;stroke-miterlimit:10;" d="M420.023,289.218
			c0,0-18.94,16.155-19.497,18.661c-0.557,2.507-2.785,7.242-3.342,8.356c-0.557,1.114-17.826,24.51-22.561,37.88
			c-4.735,13.369-15.597,43.729-16.711,47.349c-1.114,3.621-4.178,7.52-6.406,7.52c-2.228,0-47.907,1.393-47.907,1.393"/>
		<path style="fill:none;stroke:#263238;stroke-linecap:round;stroke-linejoin:round;stroke-miterlimit:10;" d="M423.365,284.762
			c0,0,15.319-18.661,15.319-25.903c0-7.242-25.346-17.269-35.93-21.447c-10.584-4.178-33.423-5.57-44.843-5.57"/>
		
			<line style="fill:none;stroke:#263238;stroke-linecap:round;stroke-linejoin:round;stroke-miterlimit:10;" x1="414.453" y1="289.497" x2="198.038" y2="310.665"/>
		
			<line style="fill:none;stroke:#263238;stroke-linecap:round;stroke-linejoin:round;stroke-miterlimit:10;" x1="184.39" y1="406.199" x2="355.962" y2="400.629"/>
		
			<line style="fill:none;stroke:#263238;stroke-linecap:round;stroke-linejoin:round;stroke-miterlimit:10;" x1="185.225" y1="411.77" x2="276.304" y2="410.099"/>
		<path style="fill:none;stroke:#263238;stroke-linecap:round;stroke-linejoin:round;stroke-miterlimit:10;" d="M193.303,313.172
			c0,0-10.027,10.027-10.027,13.369c0,3.342-0.279,9.47-0.279,9.47s-4.178,21.447-2.507,38.437c1.671,16.99,3.342,26.46,3.342,26.46
			"/>
		<path style="fill:#263238;stroke:#263238;stroke-linecap:round;stroke-linejoin:round;stroke-miterlimit:10;" d="M86.767,360.208
			c0,0,13.786-8.879,16.293-14.728c2.507-5.849-0.557-8.634-3.621-7.52s-11.977,7.52-13.369,11.141
			C84.677,352.722,84.958,358.225,86.767,360.208z"/>
		<path style="fill:none;stroke:#263238;stroke-linecap:round;stroke-linejoin:round;stroke-miterlimit:10;" d="M429.426,291.089
			c0,0-7.089,12.052-7.089,15.242c0,3.19-0.354,7.798,1.418,8.507c1.772,0.709,24.812-0.709,24.812-0.709s2.836-1.063,3.19-2.836
			c0.354-1.772-1.063-5.317-0.354-7.089c0.709-1.772,4.962-10.988,5.317-13.115c0.354-2.127-2.481-2.481-3.899-2.481
			c-1.418,0-18.077,1.063-18.077,1.063S431.553,289.671,429.426,291.089z"/>
		<path style="fill:#FFFFFF;stroke:#263238;stroke-linecap:round;stroke-linejoin:round;stroke-miterlimit:10;" d="M149.049,330.434
			c0,0,105.629-11.697,174.748-16.305"/>
		<path style="fill:none;stroke:#263238;stroke-linecap:round;stroke-linejoin:round;stroke-miterlimit:10;" d="M391.499,309.875
			c0,0,84.716-3.899,99.957-3.899"/>
		<path style="fill:#263238;stroke:#263238;stroke-linecap:round;stroke-linejoin:round;stroke-miterlimit:10;" d="M558.205,368.407
			l-1.475,2.343l33.546-1.006l0.335-4.025l-28.447,0.461C560.553,366.205,559.064,367.043,558.205,368.407z"/>
		<polygon style="fill:#263238;stroke:#263238;stroke-linecap:round;stroke-linejoin:round;stroke-miterlimit:10;" points="
			714.229,365.047 714.061,368.066 725.467,368.234 724.607,365.233 		"/>
		<polygon style="fill:none;stroke:#263238;stroke-linecap:round;stroke-linejoin:round;stroke-miterlimit:10;" points="
			611.779,318.174 617.823,336.098 675.761,336.098 671.385,318.383 		"/>
		<path style="fill:none;stroke:#263238;stroke-linecap:round;stroke-linejoin:round;stroke-miterlimit:10;" d="M504.515,279.79
			c0,0,51.329,3.071,54.839,4.387c3.51,1.316,3.29,7.019,3.29,7.677"/>
		<g>
			<g>
				<g>
					<path style="fill:#FFFFFF;stroke:#263238;stroke-linecap:round;stroke-linejoin:round;stroke-miterlimit:10;" d="
						M285.186,248.127l-0.307,4.146l-4.727,5.788l2.731,2.504c0,0-2.161,11.264-0.768,12.591c1.393,1.328,10.005,1.138,10.005,1.138
						s-3.261,14.19-3.433,14.885c-0.172,0.695,17.077-1.1,17.077-1.1s-0.174-11.095,1.786-14.052
						c1.96-2.957,4.756-5.808,7.411-8.593c2.655-2.786,0.83-14.3-5.96-20.649c-6.789-6.349-9.976-7.382-15.125-6.442
						C288.726,239.283,285.186,248.127,285.186,248.127z"/>
					
						<line style="fill:none;stroke:#263238;stroke-linecap:round;stroke-linejoin:round;stroke-miterlimit:10;" x1="283.958" y1="263.636" x2="286.107" y2="264.557"/>
					<path style="fill:#263238;" d="M286.954,254.063c-0.251,1.016-0.116,1.922,0.303,2.026c0.418,0.103,0.961-0.636,1.211-1.651
						c0.251-1.015,0.116-1.922-0.303-2.026C287.747,252.309,287.205,253.048,286.954,254.063z"/>
				</g>
			</g>
			<g>
				<path style="fill:#92E3A9;stroke:#263238;stroke-linecap:round;stroke-linejoin:round;stroke-miterlimit:10;" d="
					M318.979,295.455l0.147-0.015c-0.025-0.059-0.057-0.123-0.082-0.183C319.023,295.322,319,295.391,318.979,295.455z"/>
				<path style="fill:#92E3A9;stroke:#263238;stroke-linecap:round;stroke-linejoin:round;stroke-miterlimit:10;" d="
					M309.676,283.098c-1.837-1.44-3.76-2.491-5.624-2.849c-6.112-1.172-15.079,1.657-15.079,1.657
					c-0.584,0.301-7.702,10.315-12.099,17.803l26.439-2.671C305.509,292.08,307.633,287.437,309.676,283.098z"/>
			</g>
			<g>
				<path style="fill:#92E3A9;stroke:#263238;stroke-linecap:round;stroke-linejoin:round;stroke-miterlimit:10;" d="
					M312.474,277.241c-0.965-0.764-1.98-1.438-3.045-1.966c-6.669-3.306-12.522,1.2-16.238,2.168
					c-6.855,1.787-8.125,7.524-8.125,7.524s-2.54,3.653-1.488,4.973c1.052,1.32,8.953-7.632,13.83-8.281
					c3.719-0.495,7.462,1.471,10.955,4.247C309.771,282.876,311.141,279.993,312.474,277.241z"/>
			</g>
			<path style="fill:none;stroke:#263238;stroke-linecap:round;stroke-linejoin:round;stroke-miterlimit:10;" d="M287.614,248.215
				c0,0,1.491,0.497,2.486,2.983"/>
			<path style="fill:#263238;stroke:#263238;stroke-linecap:round;stroke-linejoin:round;stroke-miterlimit:10;" d="
				M298.741,245.943c0,0-4.971,2.486-3.729,4.226s3.48,4.474,3.48,4.474l-0.994,3.977l5.717,1.491c0,0,0.497,9.943,1.491,10.937
				s1.211,4.962,2.843,2.978s9.811-8.113,11.8-11.842c1.989-3.729,3.006-14.751,0.52-17.983c-2.486-3.231-18.394-9.694-20.88-10.44
				c-2.486-0.746-14.169,2.486-14.169,3.48c0,0.994,4.474,0.746,4.474,0.746s-8.203,3.48-5.717,4.723
				c2.486,1.243,8.949-0.249,8.949-0.249L298.741,245.943z"/>
			<path style="fill:#FFFFFF;stroke:#263238;stroke-miterlimit:10;" d="M300.921,260.488c0,0,3.746-6.204,7.461-2.335
				c3.715,3.868,0.081,8.625-3.91,9.851c-3.991,1.226-5.503-1.606-5.503-1.606"/>
			<path style="fill:#92E3A9;stroke:#263238;stroke-linecap:round;stroke-linejoin:round;stroke-miterlimit:10;" d="
				M302.263,282.252c0,0-10.044-5.576-17.443-2.493c-7.399,3.083-17.881,9.249-17.881,9.249s-20.964,6.782-24.972,9.249
				c-4.008,2.466-6.782,5.858-6.782,5.858l60.575-6.214"/>
		</g>
	</g>
</g>
<g id="Character_1">
	<g>
		<path style="fill:#263238;stroke:#263238;stroke-linecap:round;stroke-linejoin:round;stroke-miterlimit:10;" d="M131.958,288.263
			c0,0-1.836,61.82-0.918,84.766c0.918,22.946,1.147,55.53,1.147,55.53s-3.442,4.13-2.524,5.278
			c0.918,1.147,2.524,5.966,2.524,5.966s-5.737,6.654-6.195,10.555c-0.459,3.901,4.819,2.983,4.819,2.983h15.144
			c0,0,0.918-1.606,0.918-3.671c0-2.065,0-9.867,0.23-10.555c0.229-0.688,3.442-6.425,3.901-10.096
			c0.459-3.671,0.459-2.524,0.459-10.326c0-7.802,8.49-100.369,8.49-100.369l4.819-0.459l13.309,110.695
			c0,0-0.688,2.983-0.459,4.819c0.229,1.836,3.671,13.997,3.671,13.997s-0.459,5.277,2.295,5.966c2.754,0.688,28.224,0,28.224,0
			s1.377-0.918,0.918-2.983c-0.459-2.065-0.688-3.671-2.983-4.819s-8.49-3.212-8.49-3.212l-1.836-2.754c0,0,0-5.737,0-7.113
			c0-1.377-2.754-6.195-2.754-6.195l-3.901-118.267l-1.377-22.487l-59.43-0.229V288.263z"/>
		<g>
			<path style="fill:#92E3A9;stroke:#263238;stroke-linecap:round;stroke-linejoin:round;stroke-miterlimit:10;" d="M147.3,195.448
				c0,0-25.513,10.019-25.979,10.601c-0.466,0.583,8.388,29.474,8.388,29.474l4.194,45.434c0,0,21.203,6.291,35.532,5.126
				c14.329-1.165,22.135-4.077,22.135-4.077l0.466-49.279l4.893-28.309l-19.921-7.805L147.3,195.448z"/>
			<path style="fill:none;stroke:#263238;stroke-linecap:round;stroke-linejoin:round;stroke-miterlimit:10;" d="M131.832,230.994
				l0.145,7.23c0,0,2.024-1.735,4.917-0.434c2.892,1.302,4.338,2.025,4.772,1.735c0.434-0.289,2.169-2.314,4.338-2.314
				c2.169,0,3.615-0.145,3.615-0.145l-0.578-8.387l-14.171,0.868"/>
			<path style="fill:none;stroke:#263238;stroke-linecap:round;stroke-linejoin:round;stroke-miterlimit:10;" d="M189.963,230.994
				l-0.145,7.23c0,0-2.025-1.735-4.917-0.434c-2.892,1.302-4.338,2.025-4.772,1.735c-0.434-0.289-2.169-2.314-4.338-2.314
				c-2.169,0-3.615-0.145-3.615-0.145l0.578-8.387l14.171,0.868"/>
			<path style="fill:#FFFFFF;stroke:#263238;stroke-linecap:round;stroke-linejoin:round;stroke-miterlimit:10;" d="
				M181.408,212.775l-5.243,4.66c0,0,0.117,2.679,1.864,5.359c1.747,2.68,4.194,3.961,4.194,3.961s3.844-1.98,5.359-9.902
				C187.583,216.852,184.088,215.221,181.408,212.775z"/>
			
				<line style="fill:none;stroke:#263238;stroke-linecap:round;stroke-linejoin:round;stroke-miterlimit:10;" x1="162.004" y1="242.251" x2="162.004" y2="246.125"/>
			
				<line style="fill:none;stroke:#263238;stroke-linecap:round;stroke-linejoin:round;stroke-miterlimit:10;" x1="162.004" y1="213.764" x2="162.004" y2="238.195"/>
		</g>
		<path style="fill:#FFFFFF;stroke:#263238;stroke-linecap:round;stroke-linejoin:round;stroke-miterlimit:10;" d="M150.096,185.895
			c0,0-0.233,7.689,0.466,9.32c0.699,1.631,10.135,14.679,12.116,14.795s11.067-14.679,11.3-15.494
			c0.233-0.815,0.233-6.291,0.233-6.291L150.096,185.895z"/>
		<polygon style="fill:#92E3A9;stroke:#263238;stroke-linecap:round;stroke-linejoin:round;stroke-miterlimit:10;" points="
			149.63,191.604 144.737,196.263 150.212,215.835 160.348,208.612 		"/>
		<polygon style="fill:#92E3A9;stroke:#263238;stroke-linecap:round;stroke-linejoin:round;stroke-miterlimit:10;" points="
			164.658,208.379 174.444,216.185 178.754,196.729 174.327,193.234 		"/>
		<path style="fill:#FFFFFF;stroke:#263238;stroke-linecap:round;stroke-linejoin:round;stroke-miterlimit:10;" d="M140.077,258.823
			c0,0-8.155-1.515-9.087-2.214c-0.932-0.699-5.475-5.009-7.223-5.708c-1.747-0.699-14.096,0.117-14.096,0.117
			s-1.049,9.436-0.699,10.485c0.349,1.049,2.563,1.515,2.563,1.515s6.99,3.378,11.417,3.961c4.427,0.583,16.193,1.864,16.193,1.864
			s4.776,2.33,6.524,3.145c1.747,0.816,5.708-0.349,5.708-0.349l2.446-1.048l-11.184-9.203L140.077,258.823z"/>
		<g>
			<g>
				<path style="fill:#263238;stroke:#263238;stroke-linecap:round;stroke-linejoin:round;stroke-miterlimit:10;" d="
					M165.357,256.26l-30.989,3.845l-1.281,6.524c0,0,20.97,6.174,22.018,5.825c1.048-0.349,24.931-5.359,25.979-5.825
					c1.048-0.466,1.631-1.864,0.815-4.194C181.084,260.105,165.357,256.26,165.357,256.26z"/>
				<path style="fill:#9E9E9E;stroke:#263238;stroke-linecap:round;stroke-linejoin:round;stroke-miterlimit:10;" d="
					M134.368,260.105l20.067,4.569c1.925,0.293,3.319,1.99,3.233,3.935l0,0c-0.104,2.355-2.3,4.052-4.605,3.558l-19.893-5.516
					c-1.579-0.338-2.687-1.76-2.629-3.374l0,0C130.611,261.288,132.401,259.805,134.368,260.105z"/>
			</g>
			<polygon style="fill:#FFFFFF;stroke:#263238;stroke-linecap:round;stroke-linejoin:round;stroke-miterlimit:10;" points="
				146.484,260.92 158.367,263.833 172.813,259.755 159.299,256.26 			"/>
		</g>
		<g>
			<path style="fill:#FFFFFF;stroke:#263238;stroke-linecap:round;stroke-linejoin:round;stroke-miterlimit:10;" d="M184.23,255.095
				c0,0-10.019-10.135-10.485-10.252s-7.689,1.281-7.689,1.281s-2.68,5.242-2.796,6.291c-0.117,1.048,0.233,1.747,0.233,1.747
				s-0.932,5.126-0.35,5.475c0.583,0.349,2.68,2.33,5.708,3.029c3.029,0.699,8.271,1.048,8.271,1.048s2.214,0.699,3.961,0.815
				c1.747,0.117,15.96,0.35,22.251-1.747c6.291-2.097,9.786-7.34,10.135-8.621c0.35-1.281,1.048-2.796,0.583-3.145
				c-0.466-0.35-10.019-1.864-14.795-1.398c-4.777,0.466-9.553,3.844-10.601,4.66C187.608,255.095,184.23,255.095,184.23,255.095z"
				/>
			<polyline style="fill:none;stroke:#263238;stroke-linecap:round;stroke-linejoin:round;stroke-miterlimit:10;" points="
				174.56,247.29 167.337,249.969 163.493,254.163 			"/>
			<polyline style="fill:none;stroke:#263238;stroke-linecap:round;stroke-linejoin:round;stroke-miterlimit:10;" points="
				174.094,252.183 168.036,255.095 163.143,259.639 			"/>
			<polyline style="fill:none;stroke:#263238;stroke-linecap:round;stroke-linejoin:round;stroke-miterlimit:10;" points="
				176.308,257.192 169.201,259.639 165.939,261.503 			"/>
			
				<line style="fill:none;stroke:#263238;stroke-linecap:round;stroke-linejoin:round;stroke-miterlimit:10;" x1="175.609" y1="260.804" x2="170.25" y2="262.435"/>
			<polygon style="fill:none;stroke:#263238;stroke-linecap:round;stroke-linejoin:round;stroke-miterlimit:10;" points="
				169.318,248.804 173.745,237.853 175.026,238.436 171.182,248.571 			"/>
		</g>
		<path style="fill:#FFFFFF;stroke:#263238;stroke-linecap:round;stroke-linejoin:round;stroke-miterlimit:10;" d="M140.077,258.823
			c0,0,4.427-4.776,5.708-4.776c1.281,0,4.776,2.912,5.359,3.262c0.582,0.35,2.447,0.35,2.33,1.398s-2.563,1.747-3.961,1.631
			c-1.398-0.117-4.544-0.816-4.544-0.816l-6.407,0.466L140.077,258.823z"/>
		<g>
			<polygon style="fill:#92E3A9;stroke:#263238;stroke-linecap:round;stroke-linejoin:round;stroke-miterlimit:10;" points="
				121.32,206.049 105.127,250.785 128.41,250.668 129.592,234.708 			"/>
			<path style="fill:#FFFFFF;stroke:#263238;stroke-linecap:round;stroke-linejoin:round;stroke-miterlimit:10;" d="
				M119.224,212.457l2.679,4.777c0,0,0.466,1.398-2.563,4.893c-3.029,3.495-5.359,4.66-5.359,4.66L119.224,212.457z"/>
		</g>
		<g>
			<polygon style="fill:#92E3A9;stroke:#263238;stroke-linecap:round;stroke-linejoin:round;stroke-miterlimit:10;" points="
				196.928,204.418 216.616,250.785 192.035,250.668 191.453,231.563 			"/>
			<path style="fill:#FFFFFF;stroke:#263238;stroke-linecap:round;stroke-linejoin:round;stroke-miterlimit:10;" d="
				M201.006,215.369l-2.33,3.611c0,0,0.932,6.291,4.077,7.922c3.145,1.631,4.427,1.864,4.427,1.864L201.006,215.369z"/>
		</g>
		<g>
			<path style="fill:#FFFFFF;stroke:#263238;stroke-linecap:round;stroke-linejoin:round;stroke-miterlimit:10;" d="
				M157.253,151.126c-3.657,0.788-6.996,2.698-9.443,5.528c-0.514,0.594-0.947,1.16-1.209,1.632
				c-1.165,2.097,1.748,23.067,2.097,25.397c0.35,2.33,3.262,8.155,5.475,10.601c2.214,2.447,5.475,5.476,10.135,5.476
				c4.66,0,9.669-7.689,10.718-9.786c1.049-2.097,1.281-19.106,1.864-23.649c0.582-4.544,0-7.223-2.446-10.951
				c-2.446-3.728-10.601-5.592-14.096-4.893C159.358,150.677,158.284,150.903,157.253,151.126z"/>
			<path style="fill:#263238;stroke:#263238;stroke-linecap:round;stroke-linejoin:round;stroke-miterlimit:10;" d="
				M160.348,150.479c-0.99,0.198-2.064,0.424-3.095,0.646c-3.657,0.788-6.996,2.698-9.443,5.528
				c-0.514,0.594-0.947,1.16-1.209,1.632c-0.645,1.16-0.04,8.098,0.687,14.46l0.012-0.015c0,0,0.816-0.699,1.048-1.631
				c0.233-0.932,1.165-0.816,2.214-1.98c1.048-1.165,0-6.407,0.699-8.155c0.699-1.747,3.495-1.514,6.408,0.466
				c2.912,1.98,3.844,3.146,6.757,2.563c1.842-0.368,6.873-5.126,9.087-3.495c2.214,1.631,0.466,6.524,1.281,8.854
				c0.816,2.33,1.281,6.291,1.281,6.291s0.096-0.183,0.25-0.477c0.18-3.733,0.348-7.152,0.565-8.842
				c0.582-4.544,0-7.223-2.446-10.951C171.997,151.644,163.842,149.78,160.348,150.479z"/>
			<g>
				<path style="fill:#263238;stroke:#263238;stroke-linecap:round;stroke-linejoin:round;stroke-miterlimit:10;" d="
					M162.678,179.954c0,0-0.233-1.048-1.049-1.631c-0.815-0.583-8.737-0.932-9.902-0.816c-1.165,0.117-1.165,3.961-0.466,4.66
					c0.699,0.699,7.922,2.214,9.32,1.514C161.979,182.983,162.794,181.119,162.678,179.954z"/>
				<path style="fill:#263238;stroke:#263238;stroke-linecap:round;stroke-linejoin:round;stroke-miterlimit:10;" d="
					M164.192,179.954c0,0,0.233-1.048,1.048-1.631c0.816-0.583,8.737-0.932,9.902-0.816c1.165,0.117,1.165,3.961,0.466,4.66
					c-0.699,0.699-7.922,2.214-9.32,1.514C164.891,182.983,164.076,181.119,164.192,179.954z"/>
				<polygon style="fill:#263238;stroke:#263238;stroke-linecap:round;stroke-linejoin:round;stroke-miterlimit:10;" points="
					147.183,171.682 151.727,177.507 150.795,178.672 				"/>
				<polygon style="fill:#263238;stroke:#263238;stroke-linecap:round;stroke-linejoin:round;stroke-miterlimit:10;" points="
					175.143,177.507 175.958,172.614 175.958,179.022 				"/>
				<polygon style="fill:#263238;stroke:#263238;stroke-linecap:round;stroke-linejoin:round;stroke-miterlimit:10;" points="
					165.24,178.323 161.629,178.323 162.678,179.954 164.192,179.954 				"/>
			</g>
			<path style="fill:none;stroke:#263238;stroke-linecap:round;stroke-linejoin:round;stroke-miterlimit:10;" d="M160.348,188.807
				c0,0,2.097,1.747,3.029,1.864c0.932,0.117,3.612-1.631,3.844-2.097"/>
			
				<line style="fill:none;stroke:#263238;stroke-linecap:round;stroke-linejoin:round;stroke-miterlimit:10;" x1="161.512" y1="192.768" x2="165.823" y2="192.652"/>
			<path style="fill:none;stroke:#263238;stroke-linecap:round;stroke-linejoin:round;stroke-miterlimit:10;" d="M153.591,176.342
				c0,0,4.776-0.466,7.689,1.165"/>
			<path style="fill:none;stroke:#263238;stroke-linecap:round;stroke-linejoin:round;stroke-miterlimit:10;" d="M165.24,176.925
				c0,0,4.66-1.514,7.572-0.815"/>
			<path style="fill:#FFFFFF;stroke:#263238;stroke-linecap:round;stroke-linejoin:round;stroke-miterlimit:10;" d="
				M147.067,170.867c0,0-1.747-1.165-2.33,0.932c-0.582,2.097,0.816,6.174,1.282,6.99c0.466,0.815,2.33,2.097,2.33,2.097
				L147.067,170.867z"/>
			<path style="fill:#FFFFFF;stroke:#263238;stroke-linecap:round;stroke-linejoin:round;stroke-miterlimit:10;" d="
				M176.657,170.517c0,0,2.447-0.583,2.447,2.563c0,3.145-2.796,8.038-2.796,8.038L176.657,170.517z"/>
		</g>
		<g>
			<path style="fill:#787878;stroke:#263238;stroke-linecap:round;stroke-linejoin:round;stroke-miterlimit:10;" d="M134.29,278.4
				c0,0,9.978,4.483,29.499,4.338c19.521-0.145,28.342-4.917,28.342-4.917l-0.289,9.689c0,0-11.857,3.615-28.632,3.326
				c-16.774-0.289-29.644-4.338-29.644-4.338L134.29,278.4z"/>
			<path style="fill:#666666;stroke:#263238;stroke-linecap:round;stroke-linejoin:round;stroke-miterlimit:10;" d="
				M135.447,276.809c0,0-4.049-0.868-4.772-0.434c-0.723,0.434-1.446,2.314-1.301,3.76c0.145,1.446,0.145,10.411,0.723,11.424
				c0.578,1.012,4.194,1.301,5.64,1.301c1.446,0,2.458-0.868,2.603-1.735c0.145-0.868-0.723-10.845-0.578-12.002
				C137.905,277.966,136.604,277.098,135.447,276.809z"/>
			<path style="fill:#666666;stroke:#263238;stroke-linecap:round;stroke-linejoin:round;stroke-miterlimit:10;" d="
				M185.914,287.004c0,4.033-2.654,7.302-5.929,7.302s-5.929-3.269-5.929-7.302c0-4.033,2.654-7.302,5.929-7.302
				S185.914,282.97,185.914,287.004z"/>
			
				<rect x="159.017" y="282.882" style="fill:#FFFFFF;stroke:#263238;stroke-linecap:round;stroke-linejoin:round;stroke-miterlimit:10;" width="9.255" height="7.519"/>
			<path style="fill:#666666;stroke:#263238;stroke-linecap:round;stroke-linejoin:round;stroke-miterlimit:10;" d="
				M187.215,278.544l0.434,14.027c0,0,1.591,0.868,2.892-0.723l-0.578-14.171C189.963,277.677,188.083,277.243,187.215,278.544z"/>
			<path style="fill:#263238;stroke:#263238;stroke-linecap:round;stroke-linejoin:round;stroke-miterlimit:10;" d="
				M191.698,277.677l0.145,26.029c0,0,0,1.301,1.591,1.012c1.591-0.289,3.904-2.747,4.338-3.904
				c0.434-1.157,0.723-16.196,0.723-16.919c0-0.723,1.735-4.483,2.169-6.363c0.434-1.88,0.579-3.037-2.314-3.471
				s-5.64,2.892-5.64,2.892L191.698,277.677z"/>
			<path style="fill:#666666;stroke:#263238;stroke-linecap:round;stroke-linejoin:round;stroke-miterlimit:10;" d="
				M137.616,277.677c0,0,0,15.328,0.145,15.906c0.145,0.578,5.206,2.314,6.363,1.88c1.157-0.434,2.747-2.458,3.037-3.181
				c0.289-0.723-0.145-11.713-0.289-12.87c-0.145-1.157-6.073-2.024-6.796-2.024C139.351,277.387,138.339,277.387,137.616,277.677z"
				/>
		</g>
	</g>
</g>
</svg>
