<?xml version="1.0" encoding="utf-8"?>
<!-- Generator: Adobe Illustrator 27.5.0, SVG Export Plug-In . SVG Version: 6.00 Build 0)  -->
<svg version="1.1" xmlns="http://www.w3.org/2000/svg" xmlns:xlink="http://www.w3.org/1999/xlink" x="0px" y="0px"
	 viewBox="0 0 500 500" style="enable-background:new 0 0 500 500;" xml:space="preserve">
<g id="Background_Complete">
	<g>
		<g>
			<g>
				<g>
					<rect x="40.739" y="36.547" style="fill:#E0E0E0;" width="114.546" height="189.606"/>
				</g>
			</g>
		</g>
		<g>
			<g>
				<g>
					<rect x="36.929" y="36.547" style="fill:#EBEBEB;" width="114.546" height="189.606"/>
				</g>
			</g>
		</g>
		<g>
			<g>
				<g>
					<rect x="41.807" y="40.392" style="fill:#FFFFFF;" width="104.791" height="181.916"/>
				</g>
			</g>
		</g>
		<g>
			<g>
				<g>
					<g>
						<rect x="61.757" y="64.031" style="fill:#EBEBEB;" width="64.438" height="134.639"/>
					</g>
				</g>
			</g>
			<g>
				<g>
					<g>
						<path style="fill:#E0E0E0;" d="M61.757,151.025c-0.149-12.577,11.16-24.855,23.614-26.611
							c5.939-0.837,12.249,0.341,17.798-1.934c9.905-4.062,13.057-17.222,23.025-21.125l0.455,97.315H61.757V151.025z"/>
					</g>
				</g>
			</g>
		</g>
	</g>
	<g>
		<g>
			<g>
				<polygon style="fill:#E0E0E0;" points="454.851,27.943 454.851,132.281 304.993,132.281 299.594,28.673 				"/>
			</g>
		</g>
		<g>
			<g>
				
					<rect x="322.829" y="5.438" transform="matrix(6.123234e-17 -1 1 6.123234e-17 294.156 454.8898)" style="fill:#FFFFFF;" width="103.389" height="149.858"/>
			</g>
			<g>
				<path style="fill:#E0E0E0;" d="M450.163,132.772H298.883V27.962h151.279V132.772z M300.305,131.35h148.436V29.383H300.305
					V131.35z"/>
			</g>
		</g>
		<g>
			<g>
				<g>
					<rect x="315.825" y="41.518" style="fill:#FFFFFF;" width="117.396" height="77.698"/>
				</g>
			</g>
			<g>
				<g>
					<g>
						<path style="fill:#E0E0E0;" d="M433.221,41.518c0,0-0.202,0.013-0.579,0.02c-0.398,0.005-0.95,0.011-1.669,0.02
							c-1.488,0.009-3.647,0.023-6.447,0.041c-5.639,0.021-13.838,0.052-24.192,0.091c-20.703,0.041-50.006,0.099-84.508,0.167
							l0.339-0.34c0.009,23.739,0.02,50.043,0.031,77.689v0.009l-0.37-0.37c44.285,0.028,85.115,0.054,117.396,0.075l-0.295,0.295
							c0.065-23.645,0.118-43.032,0.155-56.532c0.032-6.748,0.058-12.019,0.075-15.633c0.014-1.786,0.025-3.156,0.033-4.108
							C433.2,42.012,433.221,41.518,433.221,41.518s0.021,0.452,0.032,1.363c0.008,0.939,0.019,2.291,0.033,4.053
							c0.017,3.598,0.043,8.848,0.075,15.566c0.037,13.544,0.09,32.994,0.155,56.715l0.001,0.295l-0.296,0
							c-32.281,0.021-73.111,0.047-117.396,0.075l-0.37,0v-0.371v-0.009c0.011-27.646,0.021-53.949,0.031-77.689l0-0.34l0.34,0.001
							c34.593,0.068,63.974,0.126,84.731,0.167c10.322,0.039,18.494,0.07,24.115,0.091c2.771,0.018,4.908,0.032,6.379,0.041
							c0.703,0.009,1.242,0.015,1.631,0.02C433.046,41.504,433.221,41.518,433.221,41.518z"/>
					</g>
				</g>
			</g>
		</g>
		<g>
			<g>
				<g>
					<path style="fill:#E0E0E0;" d="M299.594,28.382c0.063-0.081,1.043,0.562,2.577,1.669c1.533,1.107,3.621,2.677,5.875,4.481
						c2.254,1.805,4.237,3.511,5.633,4.79c1.396,1.278,2.212,2.121,2.146,2.196c-0.139,0.157-3.742-2.814-8.242-6.408
						C303.079,31.521,299.462,28.551,299.594,28.382z"/>
				</g>
			</g>
		</g>
		<g>
			<g>
				<g>
					<path style="fill:#E0E0E0;" d="M449.452,28.673c0.127,0.16-3.404,3.166-7.885,6.713c-4.483,3.548-8.219,6.293-8.345,6.132
						c-0.127-0.16,3.403-3.165,7.886-6.713C445.588,31.258,449.325,28.512,449.452,28.673z"/>
				</g>
			</g>
		</g>
		<g>
			<g>
				<g>
					<path style="fill:#FFFFFF;" d="M449.333,132.076c-5.57-4.514-11.139-9.028-16.709-13.542"/>
				</g>
			</g>
			<g>
				<g>
					<g>
						<path style="fill:#E0E0E0;" d="M432.624,118.534c0.129-0.159,3.974,2.744,8.587,6.483c4.615,3.74,8.25,6.9,8.122,7.059
							c-0.129,0.159-3.973-2.744-8.588-6.484C436.132,121.853,432.496,118.693,432.624,118.534z"/>
					</g>
				</g>
			</g>
		</g>
		<g>
			<g>
				<g>
					<path style="fill:#E0E0E0;" d="M299.594,132.061c-0.127-0.16,3.367-3.135,7.802-6.643c4.437-3.509,8.136-6.223,8.262-6.063
						c0.127,0.16-3.366,3.134-7.803,6.643C303.42,129.507,299.721,132.221,299.594,132.061z"/>
				</g>
			</g>
		</g>
		<g>
			<g>
				
					<rect x="363.587" y="41.8" transform="matrix(6.123234e-17 -1 1 6.123234e-17 297.8613 455.3283)" style="fill:#E0E0E0;" width="26.016" height="73.868"/>
			</g>
		</g>
	</g>
	<g>
		<g>
			<path style="fill:#EBEBEB;" d="M227.56,374.584c0-4.538,3.474-7.816,8.142-7.816c2.476,0,4.604,0.89,6.015,2.54l-1.824,1.716
				c-1.107-1.194-2.476-1.781-4.061-1.781c-3.148,0-5.428,2.215-5.428,5.342c0,3.127,2.28,5.342,5.428,5.342
				c1.585,0,2.953-0.587,4.061-1.803l1.824,1.737c-1.411,1.65-3.539,2.54-6.036,2.54C231.034,382.401,227.56,379.122,227.56,374.584
				z"/>
		</g>
		<g>
			<path style="fill:#EBEBEB;" d="M212.132,386.493h-18.843l-0.001-18.844h18.844V386.493z M194.288,385.493h16.843V368.65h-16.844
				L194.288,385.493z"/>
		</g>
		<g>
			<g>
				<path style="fill:#E0E0E0;" d="M189.696,390.411c-0.555-0.423,3.942-7.182,10.874-14.351
					c6.915-7.19,13.506-11.927,13.949-11.388c0.477,0.567-5.27,6.119-12.074,13.195
					C195.621,384.922,190.279,390.867,189.696,390.411z"/>
			</g>
		</g>
		<g>
			<g>
				<path style="fill:#E0E0E0;" d="M214.83,390.034c-0.606,0.435-5.746-5.819-12.544-13.061
					c-6.773-7.27-12.668-12.816-12.193-13.391c0.429-0.542,7.185,4.199,14.095,11.613
					C211.12,382.583,215.399,389.641,214.83,390.034z"/>
			</g>
		</g>
	</g>
	<g>
		<g>
			<path style="fill:#EBEBEB;" d="M86.014,313.13l-9.259-0.657l-2.13,4.155l-3.545-0.251l9.647-17.926l3.387,0.241l7.044,19.11
				l-3.598-0.256L86.014,313.13z M85.068,310.352l-2.917-8.343l-4.04,7.849L85.068,310.352z"/>
		</g>
		<g>
			<path style="fill:#EBEBEB;" d="M55.788,317.395l-22.737-1.615l1.615-22.736l22.737,1.615L55.788,317.395z M34.119,314.854
				l20.742,1.473l1.474-20.742l-20.742-1.473L34.119,314.854z"/>
		</g>
		<g>
			<g>
				<path style="fill:#E0E0E0;" d="M28.217,320.344c-0.521-0.457,5.63-8.206,14.683-16.328c9.035-8.149,17.388-13.447,17.787-12.881
					c0.439,0.602-7.129,6.773-16.046,14.817C35.705,313.967,28.77,320.844,28.217,320.344z"/>
			</g>
		</g>
		<g>
			<g>
				<path style="fill:#E0E0E0;" d="M58.871,322.06c-0.64,0.396-6.26-7.751-13.929-17.18c-7.637-9.46-14.44-16.645-13.92-17.189
					c0.461-0.507,8.18,5.936,15.943,15.55C54.758,312.826,59.463,321.714,58.871,322.06z"/>
			</g>
		</g>
	</g>
	<g>
		<g>
			<path style="fill:#EBEBEB;" d="M469.654,214.21c0.866,3.062-1.026,5.528-5.62,6.828l-8.879,2.514l-5.058-17.862l8.37-2.37
				c4.286-1.213,7.096-0.052,7.898,2.781c0.52,1.837-0.016,3.449-1.184,4.579C467.268,210.751,468.997,211.887,469.654,214.21z
				 M454.152,207.354l1.393,4.924l4.695-1.329c2.297-0.65,3.367-1.835,2.905-3.468c-0.47-1.658-2.003-2.107-4.299-1.456
				L454.152,207.354z M466.217,214.824c-0.506-1.786-2.083-2.193-4.583-1.485l-5.358,1.517l1.459,5.153l5.358-1.517
				C465.593,217.784,466.723,216.61,466.217,214.824z"/>
		</g>
		<g>
			<path style="fill:#EBEBEB;" d="M416.66,236.631l-6.209-21.932l21.932-6.209l6.21,21.932L416.66,236.631z M411.685,215.388
				l5.664,20.008l20.009-5.665l-5.665-20.008L411.685,215.388z"/>
		</g>
		<g>
			<g>
				<path style="fill:#E0E0E0;" d="M413.665,242.566c-0.645-0.253,2.505-9.631,8.259-20.347c5.727-10.735,11.782-18.557,12.35-18.16
					c0.617,0.417-4.403,8.793-10.054,19.389C418.54,234.024,414.355,242.849,413.665,242.566z"/>
			</g>
		</g>
		<g>
			<g>
				<path style="fill:#E0E0E0;" d="M443.078,233.76c-0.467,0.59-8.521-5.161-18.939-11.422
					c-10.398-6.301-19.238-10.746-18.934-11.434c0.262-0.633,9.711,2.803,20.28,9.205
					C436.071,226.474,443.516,233.234,443.078,233.76z"/>
			</g>
		</g>
	</g>
</g>
<g id="Background_Simple" style="display:none;">
	<path style="display:inline;fill:#F5F5F5;" d="M425.625,85.089l-2.434-4.011c-20.516-33.808-57.609-54.188-96.717-51.715
		c-5.027,0.318-10.033,0.998-14.971,2.056c-35.557,7.611-66.497,34.5-79.321,68.937c-7.542,20.253-9.649,43.571-23.962,59.647
		c-18.627,20.922-50.251,21.579-78.055,20.712c-27.804-0.867-59.449-0.128-77.985,20.877
		c-11.609,13.154-15.299,31.861-14.362,49.478c2.478,46.641,34.979,88.345,76.311,109.074
		c41.332,20.729,89.996,22.586,135.232,13.467c63.37-12.774,123.634-47.855,159.857-102.038
		C445.44,217.39,454.607,143.57,425.625,85.089z"/>
</g>
<g id="Table">
	<g>
		<g>
			<path d="M467.247,430.948c0,0.144-98.143,0.26-219.182,0.26c-121.08,0-219.202-0.117-219.202-0.26
				c0-0.144,98.122-0.26,219.202-0.26C369.104,430.687,467.247,430.804,467.247,430.948z"/>
		</g>
	</g>
</g>
<g id="Screen">
	<g>
		<g>
			<g>
				<rect x="81.592" y="77.228" style="fill:#FFFFFF;" width="256.812" height="260.517"/>
			</g>
			<g>
				<g>
					<path style="fill:#263238;" d="M338.404,337.745c0,0-0.009-0.11-0.013-0.317c-0.003-0.21-0.007-0.515-0.013-0.918
						c-0.006-0.813-0.014-2.016-0.025-3.603c-0.012-3.173-0.03-7.871-0.053-13.998c-0.027-12.238-0.067-30.176-0.118-52.998
						c-0.056-45.576-0.135-110.653-0.23-188.683l0.451,0.451c-74.737,0.02-162.84,0.044-256.787,0.069h-0.025l0.521-0.521
						c-0.026,95.474-0.051,184.899-0.071,260.517l-0.449-0.449c77.004,0.095,141.155,0.174,186.062,0.229
						c22.487,0.051,40.154,0.09,52.205,0.117c6.033,0.023,10.659,0.04,13.782,0.052c1.562,0.011,2.747,0.02,3.546,0.025
						c0.397,0.006,0.698,0.01,0.904,0.013C338.295,337.737,338.404,337.745,338.404,337.745c0.004,0.004-0.092,0.008-0.287,0.013
						c-0.201,0.003-0.493,0.007-0.879,0.013c-0.789,0.006-1.958,0.014-3.498,0.025c-3.104,0.012-7.701,0.029-13.696,0.052
						c-12.028,0.027-29.661,0.067-52.104,0.117c-44.976,0.055-109.226,0.134-186.348,0.229l-0.449,0.001l0-0.45
						c-0.021-75.618-0.045-165.043-0.071-260.517l0-0.521h0.521h0.025c93.947,0.025,182.05,0.049,256.787,0.069l0.452,0
						l-0.001,0.451c-0.095,78.149-0.174,143.326-0.23,188.972c-0.051,22.778-0.091,40.682-0.118,52.896
						c-0.023,6.089-0.041,10.758-0.053,13.911c-0.011,1.565-0.02,2.752-0.025,3.554c-0.006,0.392-0.01,0.689-0.013,0.893
						C338.412,337.652,338.408,337.749,338.404,337.745z"/>
				</g>
			</g>
		</g>
		<g>
			<path d="M101.746,119.721v6.911h-1.284v-5.834h-1.461v-1.076H101.746z"/>
			<path d="M103.078,125.881c0-0.494,0.365-0.819,0.81-0.819c0.444,0,0.81,0.326,0.81,0.819c0,0.474-0.365,0.82-0.81,0.82
				C103.443,126.701,103.078,126.355,103.078,125.881z"/>
		</g>
		<g>
			<path d="M187.859,91.79c0-2.043,1.58-3.554,3.722-3.554c2.143,0,3.722,1.5,3.722,3.554c0,2.054-1.58,3.554-3.722,3.554
				C189.439,95.345,187.859,93.834,187.859,91.79z M194.01,91.79c0-1.412-1.037-2.428-2.429-2.428s-2.429,1.017-2.429,2.428
				c0,1.412,1.037,2.429,2.429,2.429S194.01,93.202,194.01,91.79z"/>
			<path d="M202.805,88.335v6.911h-1.057l-3.811-4.68v4.68h-1.273v-6.911h1.056l3.811,4.68v-4.68H202.805z"/>
			<path d="M204.659,88.335h1.283v5.825h3.613v1.086h-4.896V88.335z"/>
			<path d="M210.571,88.335h1.283v6.911h-1.283V88.335z"/>
			<path d="M219.86,88.335v6.911h-1.057l-3.811-4.68v4.68h-1.273v-6.911h1.056l3.811,4.68v-4.68H219.86z"/>
			<path d="M226.898,94.17v1.076h-5.183v-6.911h5.044v1.076h-3.761v1.797h3.337v1.056h-3.337v1.905H226.898z"/>
			<path d="M232.454,89.421h-2.29v-1.086h5.864v1.086h-2.291v5.825h-1.283V89.421z"/>
			<path d="M242.177,94.17v1.076h-5.183v-6.911h5.044v1.076h-3.761v1.797h3.337v1.056h-3.337v1.905H242.177z"/>
			<path d="M243.025,94.515l0.444-0.997c0.553,0.444,1.432,0.76,2.281,0.76c1.076,0,1.53-0.385,1.53-0.898
				c0-1.491-4.107-0.514-4.107-3.081c0-1.115,0.889-2.063,2.784-2.063c0.829,0,1.698,0.217,2.3,0.612l-0.405,0.997
				c-0.622-0.365-1.303-0.543-1.906-0.543c-1.066,0-1.501,0.415-1.501,0.938c0,1.471,4.097,0.513,4.097,3.051
				c0,1.105-0.898,2.053-2.794,2.053C244.673,95.345,243.597,95.009,243.025,94.515z"/>
			<path d="M251.119,89.421h-2.29v-1.086h5.864v1.086h-2.29v5.825h-1.283V89.421z"/>
		</g>
		<g>
			<path d="M133.746,150.079h-3.456l-0.681,1.599h-1.323l3.11-6.911h1.264l3.12,6.911h-1.343L133.746,150.079z M133.321,149.072
				l-1.303-3.021l-1.294,3.021H133.321z"/>
		</g>
		<g>
			<circle cx="98.922" cy="92.431" r="2.815"/>
		</g>
		<g>
			<circle cx="107.432" cy="92.431" r="2.815"/>
		</g>
		<g>
			<circle cx="115.942" cy="92.431" r="2.815"/>
		</g>
		<g>
			<g>
				<path d="M338.404,106.331c0,0.144-57.203,0.26-127.75,0.26c-70.572,0-127.763-0.117-127.763-0.26
					c0-0.144,57.191-0.26,127.763-0.26C281.201,106.07,338.404,106.187,338.404,106.331z"/>
			</g>
		</g>
		<g>
			<g>
				<path d="M310.317,125.649c0,0.144-44.532,0.26-99.452,0.26c-54.939,0-99.461-0.117-99.461-0.26s44.522-0.26,99.461-0.26
					C265.786,125.388,310.317,125.505,310.317,125.649z"/>
			</g>
		</g>
		<g>
			<g>
				<path d="M188.164,132.406c0,0.144-17.041,0.26-38.057,0.26c-21.024,0-38.061-0.117-38.061-0.26s17.037-0.26,38.061-0.26
					C171.123,132.146,188.164,132.263,188.164,132.406z"/>
			</g>
		</g>
		<g>
			<path d="M122.952,152.774h-9.11v-9.11h9.11V152.774z M114.841,151.774h7.11v-7.11h-7.11V151.774z"/>
		</g>
		<g>
			<path d="M135.357,167.096c0,1.185-0.928,1.876-2.705,1.876h-3.435v-6.911h3.238c1.659,0,2.547,0.701,2.547,1.797
				c0,0.71-0.355,1.234-0.889,1.52C134.853,165.615,135.357,166.198,135.357,167.096z M130.499,163.068v1.905h1.816
				c0.889,0,1.392-0.316,1.392-0.948c0-0.642-0.504-0.957-1.392-0.957H130.499z M134.063,166.968c0-0.691-0.523-0.997-1.491-0.997
				h-2.073v1.994h2.073C133.54,167.965,134.063,167.659,134.063,166.968z"/>
		</g>
		<g>
			<path d="M122.952,170.068h-9.11v-9.11h9.11V170.068z M114.841,169.068h7.11v-7.11h-7.11V169.068z"/>
		</g>
		<g>
			<path d="M128.722,182.81c0-2.063,1.58-3.554,3.702-3.554c1.125,0,2.093,0.405,2.734,1.155l-0.829,0.78
				c-0.503-0.543-1.126-0.81-1.846-0.81c-1.432,0-2.468,1.007-2.468,2.428c0,1.422,1.037,2.429,2.468,2.429
				c0.721,0,1.343-0.267,1.846-0.819l0.829,0.79c-0.642,0.75-1.609,1.155-2.745,1.155
				C130.302,186.365,128.722,184.874,128.722,182.81z"/>
		</g>
		<g>
			<path d="M122.952,187.362h-9.11v-9.11h9.11V187.362z M114.841,186.362h7.11v-7.11h-7.11V186.362z"/>
		</g>
		<g>
			<path d="M129.216,196.65h3.021c2.241,0,3.771,1.382,3.771,3.455s-1.53,3.456-3.771,3.456h-3.021V196.65z M132.177,202.474
				c1.54,0,2.537-0.938,2.537-2.37c0-1.431-0.997-2.369-2.537-2.369h-1.678v4.739H132.177z"/>
		</g>
		<g>
			<path d="M122.952,204.656h-9.11v-9.11h9.11V204.656z M114.841,203.656h7.11v-7.11h-7.11V203.656z"/>
		</g>
		<g>
			<g>
				<path d="M210.861,148.219c0,0.144-15.029,0.26-33.564,0.26c-18.542,0-33.568-0.117-33.568-0.26s15.026-0.26,33.568-0.26
					C195.832,147.958,210.861,148.075,210.861,148.219z"/>
			</g>
		</g>
		<g>
			<g>
				<path d="M303.258,165.512c0,0.144-35.715,0.26-79.761,0.26c-44.061,0-79.769-0.117-79.769-0.26s35.707-0.26,79.769-0.26
					C267.544,165.252,303.258,165.369,303.258,165.512z"/>
			</g>
		</g>
		<g>
			<g>
				<path d="M165.681,200.1c0,0.144-4.914,0.26-10.975,0.26c-6.063,0-10.976-0.117-10.976-0.26c0-0.144,4.913-0.26,10.976-0.26
					C160.766,199.84,165.681,199.956,165.681,200.1z"/>
			</g>
		</g>
		<g>
			<g>
				<path d="M223.494,182.806c0,0.144-17.857,0.26-39.88,0.26c-22.031,0-39.884-0.117-39.884-0.26c0-0.144,17.853-0.26,39.884-0.26
					C205.636,182.546,223.494,182.663,223.494,182.806z"/>
			</g>
		</g>
		<g>
			<path d="M101.948,224.717v1.086h-5.094v-0.859l2.744-2.606c0.671-0.642,0.79-1.046,0.79-1.431c0-0.632-0.435-0.998-1.283-0.998
				c-0.671,0-1.234,0.227-1.619,0.721l-0.898-0.691c0.533-0.721,1.491-1.145,2.626-1.145c1.5,0,2.468,0.76,2.468,1.984
				c0,0.671-0.188,1.283-1.146,2.182l-1.846,1.757H101.948z"/>
			<path d="M102.746,225.053c0-0.494,0.365-0.819,0.81-0.819c0.444,0,0.81,0.326,0.81,0.819c0,0.474-0.365,0.82-0.81,0.82
				C103.111,225.872,102.746,225.527,102.746,225.053z"/>
		</g>
		<g>
			<path d="M131.333,249.251h-3.456l-0.681,1.599h-1.323l3.11-6.911h1.264l3.12,6.911h-1.343L131.333,249.251z M130.908,248.244
				l-1.303-3.021l-1.294,3.021H130.908z"/>
		</g>
		<g>
			<g>
				<path d="M307.903,224.82c0,0.144-44.532,0.26-99.452,0.26c-54.939,0-99.461-0.117-99.461-0.26c0-0.144,44.522-0.26,99.461-0.26
					C263.371,224.56,307.903,224.676,307.903,224.82z"/>
			</g>
		</g>
		<g>
			<g>
				<path d="M185.749,231.578c0,0.144-17.041,0.26-38.057,0.26c-21.024,0-38.061-0.117-38.061-0.26s17.037-0.26,38.061-0.26
					C168.708,231.318,185.749,231.434,185.749,231.578z"/>
			</g>
		</g>
		<g>
			<path d="M120.537,251.946h-9.11v-9.11h9.11V251.946z M112.427,250.946h7.11v-7.11h-7.11V250.946z"/>
		</g>
		<g>
			<path d="M132.942,266.269c0,1.185-0.928,1.876-2.705,1.876h-3.436v-6.911h3.238c1.659,0,2.547,0.701,2.547,1.797
				c0,0.711-0.355,1.234-0.889,1.52C132.439,264.788,132.942,265.37,132.942,266.269z M128.085,262.241v1.905h1.816
				c0.889,0,1.392-0.316,1.392-0.948c0-0.642-0.503-0.957-1.392-0.957H128.085z M131.649,266.141c0-0.691-0.523-0.997-1.491-0.997
				h-2.073v1.994h2.073C131.126,267.138,131.649,266.831,131.649,266.141z"/>
		</g>
		<g>
			<path d="M120.537,269.24h-9.11v-9.11h9.11V269.24z M112.427,268.24h7.11v-7.11h-7.11V268.24z"/>
		</g>
		<g>
			<path d="M126.308,281.983c0-2.063,1.58-3.555,3.702-3.555c1.126,0,2.093,0.405,2.734,1.155l-0.829,0.78
				c-0.503-0.543-1.126-0.81-1.846-0.81c-1.432,0-2.468,1.007-2.468,2.429c0,1.421,1.037,2.429,2.468,2.429
				c0.721,0,1.343-0.267,1.846-0.819l0.829,0.789c-0.642,0.751-1.609,1.155-2.745,1.155
				C127.888,285.536,126.308,284.046,126.308,281.983z"/>
		</g>
		<g>
			<path d="M120.537,286.534h-9.11v-9.11h9.11V286.534z M112.427,285.534h7.11v-7.11h-7.11V285.534z"/>
		</g>
		<g>
			<path d="M126.802,295.821h3.021c2.241,0,3.771,1.383,3.771,3.456c0,2.073-1.53,3.455-3.771,3.455h-3.021V295.821z
				 M129.763,301.646c1.54,0,2.537-0.938,2.537-2.369c0-1.432-0.997-2.37-2.537-2.37h-1.678v4.739H129.763z"/>
		</g>
		<g>
			<path d="M120.537,303.827h-9.11v-9.109h9.11V303.827z M112.427,302.827h7.11v-7.109h-7.11V302.827z"/>
		</g>
		<g>
			<g>
				<path d="M208.446,247.39c0,0.144-15.029,0.26-33.564,0.26c-18.542,0-33.568-0.117-33.568-0.26s15.026-0.26,33.568-0.26
					C193.417,247.13,208.446,247.246,208.446,247.39z"/>
			</g>
		</g>
		<g>
			<g>
				<path d="M300.844,264.684c0,0.144-35.715,0.26-79.761,0.26c-44.061,0-79.769-0.117-79.769-0.26s35.707-0.26,79.769-0.26
					C265.129,264.424,300.844,264.54,300.844,264.684z"/>
			</g>
		</g>
		<g>
			<g>
				<path d="M163.266,299.272c0,0.144-4.915,0.26-10.975,0.26c-6.063,0-10.976-0.117-10.976-0.26s4.913-0.26,10.976-0.26
					C158.352,299.012,163.266,299.128,163.266,299.272z"/>
			</g>
		</g>
		<g>
			<g>
				<path d="M221.079,281.978c0,0.144-17.857,0.26-39.88,0.26c-22.031,0-39.884-0.117-39.884-0.26s17.854-0.26,39.884-0.26
					C203.222,281.718,221.079,281.834,221.079,281.978z"/>
			</g>
		</g>
		<g>
			<g>
				<path style="fill:#FF725E;" d="M285.659,322.997H244.49c-6.977,0-12.633-5.656-12.633-12.633l0,0
					c0-6.977,5.656-12.633,12.633-12.633h41.169c6.977,0,12.633,5.656,12.633,12.633l0,0
					C298.292,317.341,292.636,322.997,285.659,322.997z"/>
			</g>
			<g>
				<path style="fill:#FFFFFF;" d="M254.765,307.361v6.868h-1.305l-3.424-4.17v4.17h-1.57v-6.868h1.314l3.414,4.17v-4.17H254.765z"
					/>
				<path style="fill:#FFFFFF;" d="M261.709,312.953v1.275h-5.317v-6.868h5.19v1.275h-3.611v1.491h3.189v1.236h-3.189v1.59H261.709z
					"/>
				<path style="fill:#FFFFFF;" d="M267.231,314.229l-1.658-2.384l-1.629,2.384h-1.825l2.541-3.493l-2.413-3.375h1.805l1.58,2.228
					l1.55-2.228h1.718l-2.395,3.316l2.561,3.552H267.231z"/>
				<path style="fill:#FFFFFF;" d="M271.036,308.656h-2.198v-1.295h5.985v1.295h-2.198v5.573h-1.589V308.656z"/>
			</g>
			<g>
				<path style="fill:#FFFFFF;" d="M283.488,313.707c-0.161,0-0.319-0.078-0.416-0.223c-0.153-0.23-0.091-0.54,0.139-0.693
					l3.191-2.127c0.149-0.1,0.162-0.249,0.16-0.309c-0.002-0.061-0.022-0.209-0.177-0.3l-3.152-1.863
					c-0.237-0.141-0.316-0.447-0.176-0.686c0.141-0.237,0.448-0.314,0.686-0.176l3.152,1.863c0.404,0.24,0.654,0.663,0.667,1.134
					c0.013,0.471-0.214,0.907-0.605,1.168l-3.191,2.127C283.68,313.68,283.584,313.707,283.488,313.707z"/>
			</g>
		</g>
		<g>
			<g>
				<g>
					<path style="fill:#FF725E;" d="M112.762,169.91c-0.305-0.305,1.63-2.734,4.321-5.425c2.692-2.692,5.121-4.626,5.426-4.321
						c0.305,0.305-1.629,2.734-4.321,5.426C115.496,168.281,113.067,170.215,112.762,169.91z"/>
				</g>
			</g>
			<g>
				<g>
					<path style="fill:#FF725E;" d="M124.172,170.861c-0.305,0.305-2.894-1.789-5.782-4.677c-2.889-2.889-4.983-5.477-4.678-5.782
						c0.305-0.305,2.893,1.789,5.782,4.678C122.383,167.967,124.477,170.556,124.172,170.861z"/>
				</g>
			</g>
		</g>
		<g>
			<g>
				<g>
					<path style="fill:#FF725E;" d="M110.569,252.436c-0.305-0.305,1.63-2.734,4.321-5.425c2.692-2.692,5.121-4.626,5.426-4.321
						c0.305,0.305-1.629,2.734-4.321,5.426C113.303,250.807,110.874,252.741,110.569,252.436z"/>
				</g>
			</g>
			<g>
				<g>
					<path style="fill:#FF725E;" d="M121.979,253.387c-0.305,0.305-2.894-1.789-5.782-4.677c-2.889-2.889-4.983-5.477-4.677-5.782
						c0.305-0.305,2.893,1.789,5.782,4.678C120.19,250.493,122.284,253.082,121.979,253.387z"/>
				</g>
			</g>
		</g>
	</g>
</g>
<g id="Character">
	<g>
		<g>
			<g>
				<path style="fill:#E0E0E0;" d="M304.523,455.545l-70.214-22.556c-0.187-0.06-0.383-0.083-0.578-0.069l-54.015,4.041
					c-9.487-22.962-21.376-51.746-26.788-64.879c-1.815-4.405-5.847-7.5-10.572-8.117l-58.472-7.637
					c-3.061-0.4-5.394,2.683-4.177,5.521l32.932,76.795c0.883,2.059,2.588,3.655,4.701,4.4l66.888,26.681
					c1.53,0.61,3.187,0.831,4.823,0.643l4.274-0.469l0,0c14.828-1.546,87.96-9.013,110.891-11.397
					C305.854,458.333,306.089,456.048,304.523,455.545z"/>
			</g>
			<g>
				<g>
					<path style="fill:#263238;" d="M304.523,455.545c0,0,0.123,0.028,0.341,0.143c0.215,0.109,0.53,0.369,0.673,0.847
						c0.153,0.453,0.09,1.179-0.483,1.669c-0.278,0.249-0.694,0.348-1.103,0.374c-0.414,0.044-0.855,0.092-1.324,0.143
						c-3.765,0.398-9.301,0.984-16.43,1.738c-14.279,1.487-34.925,3.637-60.436,6.294c-6.379,0.661-13.063,1.354-20.027,2.075
						c-3.482,0.36-7.034,0.728-10.654,1.103c-1.808,0.196-3.634,0.393-5.475,0.593c-1.844,0.283-3.835,0.092-5.604-0.655
						c-14.012-5.581-28.983-11.544-44.737-17.819c-3.938-1.569-7.926-3.158-11.959-4.765c-2.017-0.804-4.045-1.612-6.084-2.425
						c-1.02-0.406-2.042-0.814-3.068-1.222c-0.51-0.211-1.027-0.395-1.553-0.624c-0.52-0.235-1.016-0.524-1.477-0.862
						c-0.923-0.675-1.706-1.547-2.28-2.544c-0.56-1.025-0.921-2.056-1.387-3.085c-0.884-2.061-1.773-4.132-2.666-6.213
						c-1.786-4.162-3.589-8.364-5.408-12.604c-7.275-16.96-14.808-34.521-22.522-52.507l-1.058-2.466
						c-0.354-0.782-0.765-1.722-0.67-2.681c0.068-1.921,1.606-3.639,3.489-3.947c0.231-0.049,0.47-0.047,0.705-0.068
						c0.232,0.017,0.478,0.022,0.698,0.051l1.317,0.172l2.63,0.344c1.751,0.229,3.498,0.457,5.241,0.685
						c6.97,0.911,13.87,1.813,20.688,2.704c6.818,0.892,13.556,1.773,20.203,2.642c1.662,0.217,3.318,0.434,4.968,0.65
						c1.649,0.245,3.294,0.354,4.946,0.753c3.267,0.836,6.153,2.932,7.959,5.716c0.928,1.395,1.461,2.962,2.088,4.435
						c0.616,1.493,1.229,2.98,1.84,4.461c1.222,2.962,2.434,5.9,3.635,8.812c2.402,5.824,4.762,11.546,7.076,17.157
						c4.627,11.222,9.07,22,13.301,32.262l-0.218-0.134c19.314-1.43,36.98-2.738,52.617-3.895c0.491-0.036,0.98-0.072,1.467-0.107
						c0.266-0.018,0.556,0.066,0.77,0.142l0.689,0.222c0.917,0.296,1.827,0.589,2.729,0.88c1.804,0.582,3.577,1.153,5.318,1.715
						c3.482,1.123,6.838,2.206,10.061,3.245c6.445,2.081,12.359,3.99,17.699,5.714c10.67,3.455,19.039,6.164,24.75,8.014
						c2.844,0.928,5.024,1.64,6.502,2.123C303.771,455.279,304.523,455.545,304.523,455.545s-0.766-0.222-2.242-0.685
						c-1.483-0.469-3.67-1.16-6.522-2.061c-5.72-1.823-14.101-4.494-24.787-7.9c-5.345-1.708-11.265-3.601-17.716-5.663
						c-3.225-1.032-6.583-2.106-10.068-3.221c-1.743-0.558-3.517-1.125-5.322-1.703c-0.903-0.289-1.813-0.58-2.731-0.874
						c-0.461-0.121-0.927-0.363-1.34-0.345c-0.482,0.036-0.967,0.073-1.453,0.109c-15.635,1.182-33.299,2.517-52.61,3.977
						l-0.157,0.012l-0.06-0.146c-4.241-10.257-8.696-21.031-13.334-32.248c-2.318-5.609-4.683-11.329-7.09-17.152
						c-1.203-2.911-2.417-5.848-3.641-8.809c-0.612-1.481-1.226-2.967-1.843-4.46c-0.634-1.493-1.16-3.026-2.047-4.352
						c-1.741-2.68-4.521-4.697-7.667-5.5c-1.564-0.38-3.245-0.497-4.886-0.739c-1.65-0.215-3.307-0.431-4.969-0.648
						c-6.647-0.867-13.385-1.746-20.204-2.635c-6.819-0.89-13.718-1.79-20.689-2.7c-1.743-0.228-3.49-0.456-5.241-0.684l-2.63-0.343
						c-0.887-0.085-1.76-0.327-2.563-0.158c-1.643,0.266-3.004,1.783-3.059,3.463c-0.079,0.852,0.256,1.616,0.628,2.448l1.058,2.466
						c7.712,17.987,15.241,35.549,22.513,52.511c1.817,4.241,3.619,8.444,5.403,12.607c0.892,2.082,1.78,4.153,2.663,6.214
						c0.457,1.013,0.847,2.1,1.359,3.033c0.538,0.937,1.273,1.757,2.141,2.392c0.434,0.318,0.899,0.59,1.388,0.811
						c0.488,0.212,1.013,0.401,1.523,0.612c1.025,0.409,2.048,0.818,3.067,1.224c2.039,0.814,4.067,1.624,6.084,2.429
						c4.033,1.61,8.02,3.202,11.957,4.775c15.75,6.291,30.717,12.27,44.725,17.866c1.716,0.722,3.579,0.906,5.397,0.634
						c1.843-0.197,3.669-0.392,5.478-0.585c3.62-0.369,7.173-0.732,10.655-1.087c6.965-0.71,13.65-1.391,20.03-2.042
						c25.518-2.587,46.171-4.682,60.454-6.13c7.133-0.712,12.673-1.265,16.44-1.641c0.47-0.046,0.912-0.089,1.326-0.13
						c0.416-0.023,0.791-0.111,1.062-0.343c0.548-0.456,0.623-1.153,0.482-1.593c-0.13-0.463-0.428-0.723-0.636-0.838
						C304.641,455.59,304.519,455.554,304.523,455.545z"/>
				</g>
			</g>
		</g>
		<g>
			<polygon style="fill:#F5F5F5;" points="214.161,441.645 240.493,452.663 273.302,449.244 245.706,437.846 			"/>
		</g>
		<g>
			<polygon style="fill:#F5F5F5;" points="194.305,462.469 245.706,457.829 196.625,438.368 180.851,439.56 189.187,459.675 			"/>
		</g>
		<g>
			<g>
				<path d="M299.432,455.514c0.001,0.009-0.12,0.029-0.356,0.059c-0.263,0.031-0.609,0.071-1.049,0.122
					c-0.954,0.099-2.308,0.24-4.037,0.419c-3.54,0.344-8.607,0.837-14.857,1.444c-12.576,1.172-29.899,2.786-49.034,4.569
					c-14.255,1.29-27.505,2.489-38.521,3.486l-0.16,0.014l-0.06-0.147c-3.533-8.625-6.465-15.783-8.527-20.816
					c-1.003-2.485-1.793-4.444-2.345-5.813c-0.255-0.651-0.455-1.161-0.601-1.534c-0.133-0.348-0.185-0.534-0.185-0.534
					s0.094,0.169,0.247,0.509c0.161,0.368,0.38,0.869,0.66,1.51c0.578,1.358,1.405,3.302,2.455,5.768
					c2.103,5.016,5.093,12.149,8.697,20.745l-0.22-0.133c11.014-1.022,24.26-2.251,38.513-3.573
					c19.14-1.724,36.468-3.284,49.047-4.417c6.256-0.538,11.329-0.975,14.872-1.28c1.733-0.138,3.09-0.246,4.046-0.322
					c0.441-0.03,0.79-0.053,1.053-0.07C299.309,455.508,299.431,455.505,299.432,455.514z"/>
			</g>
		</g>
		<g>
			<g>
				<path d="M81.409,359.144c0.001-0.009,0.152,0.003,0.445,0.035c0.316,0.038,0.747,0.089,1.3,0.155
					c1.167,0.151,2.844,0.369,4.992,0.648c4.357,0.594,10.618,1.448,18.344,2.502c7.742,1.078,16.959,2.372,27.184,3.885
					c2.555,0.393,5.173,0.797,7.847,1.208c0.668,0.114,1.34,0.229,2.015,0.345c0.334,0.051,0.682,0.129,1.031,0.208
					c0.173,0.041,0.35,0.073,0.521,0.123c0.164,0.07,0.333,0.128,0.493,0.211c0.648,0.305,1.262,0.719,1.755,1.271
					c0.241,0.276,0.474,0.582,0.609,0.951l0.392,0.976c2.091,5.22,4.256,10.624,6.474,16.159
					c8.835,22.153,16.832,42.204,22.631,56.745c2.865,7.252,5.187,13.129,6.803,17.218c0.785,2.018,1.398,3.594,1.825,4.691
					c0.197,0.521,0.35,0.927,0.462,1.225c0.101,0.277,0.149,0.421,0.141,0.424c-0.008,0.003-0.073-0.134-0.19-0.404
					c-0.124-0.293-0.294-0.693-0.511-1.206c-0.448-1.088-1.091-2.652-1.916-4.655c-1.652-4.075-4.026-9.93-6.957-17.157
					c-5.835-14.526-13.882-34.557-22.773-56.688c-2.214-5.536-4.376-10.942-6.464-16.163l-0.39-0.977
					c-0.104-0.293-0.301-0.555-0.516-0.802c-0.436-0.49-0.994-0.87-1.591-1.152c-0.147-0.077-0.305-0.13-0.457-0.196
					c-0.158-0.046-0.322-0.073-0.482-0.111c-0.32-0.072-0.64-0.145-0.982-0.198c-0.672-0.116-1.34-0.232-2.005-0.347
					c-2.671-0.417-5.286-0.826-7.838-1.225c-10.219-1.503-19.424-2.857-27.164-3.995c-7.716-1.123-13.97-2.033-18.321-2.666
					c-2.142-0.32-3.815-0.571-4.979-0.745c-0.55-0.088-0.979-0.156-1.293-0.206C81.556,359.182,81.407,359.153,81.409,359.144z"/>
			</g>
		</g>
		<g>
			<path style="fill:#FFFFFF;" d="M133.1,405.112c2.5,3.346,3.005,7.196,1.128,8.599c-1.877,1.403-5.426-0.173-7.926-3.519
				c-2.5-3.346-3.005-7.196-1.128-8.599C127.051,400.19,130.6,401.765,133.1,405.112z"/>
		</g>
	</g>
	<g>
		<g>
			<path style="fill:#FF725E;" d="M449.48,348.011c-3.35-18.957-24.361-30.455-31.297-36.772l10.429,13.947
				c5.31,21.551,7.38,44.628,6.04,67.329c-0.145,2.461,0.127,5.792,1.887,6.15c0.603,0.123,1.205-0.197,1.758-0.552
				c6.163-3.952,10.162-12.984,11.058-22.327S451.031,356.792,449.48,348.011z"/>
		</g>
		<g>
			<g>
				<g>
					<path style="fill:#455A64;" d="M434.096,326.724c-0.991-1.916-0.583-7.992-5.97-1.643l-0.341-2.38l-33.469-25.667l-74.503,3.87
						c-7.151,0.446-17.895,12.828-20.571,17.958c-2.2,19.231-2.646,36.298-2.646,36.298s-2.56,21.382,0,31.491
						c2.56,10.108,5.589,13.764,9.556,21.621c3.967,7.857,10.739,14.693,10.739,14.693l3.484,27.01l77.83,6.984l35.637-2.044
						c0,0-3.194-53.243-3.194-54.186c0-0.437,4.45-10.718,9.228-21.629C448.013,360.514,443.417,344.745,434.096,326.724z"/>
				</g>
				<g>
					<path style="fill:#455A64;" d="M238.624,423.568c0.39-0.043,4.278-26.284,6.824-32.257c2.4-5.632,53.794-72.45,53.794-72.45
						l12.103,38.963l-5.193,20.853l-28.03,33.69l-7.911,24.417L238.624,423.568z"/>
				</g>
				<g>
					<path style="fill:#455A64;" d="M444.463,346.703c-3.694-23.393-21.912-22.374-21.912-22.374l-18.109,31.507l-0.016,65.136
						l-87.365,7.558l-1.617,21.941c0,0,87.043,19.902,107.154,13.232c13.307-4.414,24.549-15.542,25.78-33.734
						C449.609,411.777,448.157,370.096,444.463,346.703z"/>
				</g>
				<g>
					<g>
						<path d="M278.244,412.369c-0.104,0.014-0.176-1.751-1.027-4.422c-0.829-2.653-2.613-6.21-5.721-9.139
							c-3.111-2.929-6.769-4.497-9.466-5.167c-2.716-0.69-4.482-0.656-4.475-0.761c0-0.03,0.438-0.064,1.231-0.04
							c0.792,0.023,1.94,0.138,3.33,0.443c2.765,0.588,6.544,2.139,9.737,5.145c3.191,3.007,4.965,6.686,5.716,9.411
							c0.387,1.369,0.571,2.508,0.641,3.298C278.282,411.928,278.274,412.367,278.244,412.369z"/>
					</g>
				</g>
				<g>
					<g>
						<path d="M320.06,427.658c-0.001-0.009,0.127-0.033,0.377-0.072c0.276-0.039,0.644-0.092,1.112-0.159
							c1.009-0.133,2.446-0.322,4.283-0.563c3.752-0.47,9.13-1.143,15.765-1.974c13.342-1.62,31.727-3.852,52.033-6.317
							c3.958-0.474,7.843-0.938,11.555-1.383l-0.226,0.246c0.671-17.715,0.973-33.335,0.881-44.524
							c-0.032-5.595-0.122-10.081-0.195-13.168c-0.036-1.521-0.064-2.709-0.083-3.547c-0.005-0.384-0.008-0.688-0.011-0.919
							c0-0.207,0.004-0.313,0.012-0.313c0.008,0,0.02,0.105,0.036,0.311c0.015,0.231,0.034,0.534,0.058,0.917
							c0.041,0.837,0.099,2.024,0.173,3.544c0.131,3.087,0.273,7.574,0.351,13.171c0.183,11.195-0.056,26.827-0.707,44.546
							l-0.008,0.22l-0.218,0.026c-3.711,0.446-7.596,0.913-11.554,1.389c-20.314,2.406-38.705,4.585-52.051,6.166
							c-6.642,0.761-12.028,1.379-15.784,1.81c-1.842,0.2-3.283,0.356-4.295,0.466c-0.471,0.046-0.841,0.081-1.118,0.108
							C320.191,427.661,320.061,427.667,320.06,427.658z"/>
					</g>
				</g>
				<g>
					<g>
						<path d="M449.584,427.658c0.009,0.001,0.008,0.135-0.003,0.397c-0.015,0.287-0.036,0.673-0.062,1.164
							c-0.042,1.024-0.204,2.529-0.509,4.452c-0.311,1.923-0.85,4.252-1.713,6.886c-0.907,2.616-2.19,5.525-4.077,8.468
							c-1.866,2.951-4.424,5.875-7.666,8.411c-3.224,2.549-7.272,4.541-11.767,5.616c-2.24,0.582-4.59,0.903-6.99,1.171
							c-2.406,0.203-4.871,0.316-7.38,0.277c-5.016-0.068-10.194-0.587-15.437-1.436c-10.467-1.723-20.437-3.365-29.51-4.858
							c-4.533-0.753-8.841-1.469-12.875-2.14c-4.019-0.734-7.764-1.418-11.186-2.044c-6.832-1.278-12.37-2.248-16.212-2.829
							c-1.9-0.279-3.386-0.497-4.427-0.65c-0.486-0.07-0.867-0.126-1.152-0.167c-0.259-0.041-0.392-0.066-0.391-0.075
							c0.001-0.009,0.135-0.001,0.397,0.022c0.286,0.029,0.67,0.067,1.159,0.116c1.018,0.107,2.517,0.286,4.443,0.554
							c3.854,0.519,9.408,1.436,16.249,2.667c3.424,0.606,7.172,1.269,11.194,1.98c4.035,0.655,8.345,1.355,12.88,2.092
							c9.074,1.481,19.046,3.109,29.515,4.818c5.223,0.846,10.376,1.365,15.361,1.44c2.493,0.043,4.939-0.066,7.326-0.262
							c2.378-0.261,4.708-0.572,6.921-1.142c4.446-1.051,8.421-2.99,11.619-5.492c3.209-2.487,5.754-5.361,7.621-8.269
							c1.887-2.9,3.183-5.774,4.11-8.363c0.883-2.607,1.448-4.916,1.788-6.825c0.335-1.909,0.528-3.407,0.604-4.426
							c0.048-0.489,0.086-0.872,0.114-1.158C449.556,427.791,449.575,427.658,449.584,427.658z"/>
					</g>
				</g>
				<g>
					<g>
						<path d="M317.705,429.272c-0.012,0.002-0.042-0.139-0.088-0.414c-0.049-0.311-0.112-0.714-0.191-1.219
							c-0.159-1.115-0.381-2.68-0.663-4.659l0.032,0.069c-1.752-1.939-3.997-4.423-6.624-7.331l-0.008-0.009l-0.006-0.009
							c-1.181-1.713-2.384-3.624-3.486-5.758c-1.093-2.137-2.127-4.469-3.055-6.97c-1.814-5.014-3.233-10.685-3.979-16.715
							c-0.832-6.565-0.72-12.883-0.428-18.583c0.315-5.708,0.905-10.822,1.46-15.104c0.561-4.282,1.093-7.734,1.468-10.119
							c0.19-1.158,0.34-2.074,0.449-2.743c0.053-0.287,0.095-0.521,0.13-0.711c0.032-0.16,0.053-0.241,0.062-0.24
							c0.009,0.001,0.005,0.085-0.009,0.247c-0.021,0.193-0.047,0.429-0.079,0.719c-0.086,0.672-0.204,1.593-0.353,2.757
							c-0.313,2.393-0.789,5.853-1.303,10.135c-0.508,4.283-1.059,9.392-1.347,15.083c-0.265,5.687-0.361,11.975,0.466,18.493
							c0.74,5.993,2.138,11.629,3.918,16.614c0.911,2.486,1.924,4.805,2.994,6.933c1.079,2.125,2.256,4.028,3.41,5.737l-0.014-0.017
							c2.589,2.943,4.8,5.456,6.526,7.418l0.027,0.031l0.004,0.039c0.23,1.986,0.412,3.556,0.541,4.675
							c0.052,0.508,0.093,0.914,0.125,1.227C317.71,429.127,317.716,429.271,317.705,429.272z"/>
					</g>
				</g>
				<g>
					<g>
						<path d="M417.754,431.703c-0.064,0.042-0.729-0.873-1.818-2.336c-1.089-1.463-2.619-3.463-4.401-5.596
							c-1.786-2.132-3.484-3.991-4.732-5.321c-1.248-1.33-2.031-2.146-1.978-2.202c0.046-0.049,0.92,0.673,2.241,1.943
							c1.32,1.269,3.073,3.1,4.869,5.246c1.794,2.146,3.287,4.194,4.303,5.718C417.254,430.678,417.811,431.667,417.754,431.703z"/>
					</g>
				</g>
			</g>
			<g>
				<g>
					<path style="fill:#FFBE9D;" d="M260.034,426.781c-0.742-4.267-4.638-7.606-4.638-7.606s-1.855-5.194-4.638-6.564
						c-2.783-1.37-5.009,1.37-7.42,0.628c-2.412-0.742-7.606-0.928-9.275,0c-1.67,0.927-3.71,6.122-3.71,6.122s-2.411,0-4.823,1.298
						c-1.874,1.009-2.849,2.239-3.192,2.738c-1.385-0.692-3.14-0.094-4.234,1.006c-1.098,1.104-1.68,2.605-2.234,4.061
						c-0.449,1.18-0.897,2.361-1.346,3.541c-0.21,0.553-0.424,1.135-0.346,1.722c0.132,0.991,1.126,1.721,2.125,1.765
						c0.999,0.044,1.956-0.48,2.658-1.193c0.647-0.657,1.311-1.427,1.785-2.231l0.331,2.319c0,0,0.555,3.673,3.525,3.896
						c2.043,0.153,4.267-2.226,4.267-2.226l5.194-0.557l0.742,5.194c0,0,1.019,3.384,4.823,3.339
						c1.864-0.022,4.267-3.154,4.267-3.154l4.823,1.855c0,0,5.565,3.896,8.162,2.597c2.597-1.299,1.855-4.081,1.855-4.081
						s1.855-2.04,2.597-4.267S260.776,431.048,260.034,426.781z"/>
				</g>
				<g>
					<g>
						<g>
							<path style="fill:#EB996E;" d="M221.043,433.502c-0.136,0.002-0.244-2.482,0.186-5.508c0.42-3.028,1.208-5.386,1.338-5.347
								c0.147,0.04-0.408,2.43-0.822,5.419C221.32,431.053,221.194,433.504,221.043,433.502z"/>
						</g>
					</g>
					<g>
						<g>
							<path style="fill:#EB996E;" d="M229.107,428.619c0.144-0.007,0.344,1.723,0.447,3.862c0.067,1.068,0.008,2.101-0.285,2.791
								c-0.286,0.698-0.698,0.968-0.733,0.922c-0.064-0.056,0.218-0.392,0.384-1.039c0.177-0.646,0.18-1.583,0.114-2.65
								C228.931,430.367,228.964,428.626,229.107,428.619z"/>
						</g>
					</g>
					<g>
						<g>
							<path style="fill:#EB996E;" d="M232.568,426.407c0.103,0.101-0.581,0.963-1.527,1.925c-0.946,0.963-1.796,1.661-1.898,1.56
								c-0.103-0.101,0.581-0.963,1.527-1.925C231.615,427.005,232.465,426.306,232.568,426.407z"/>
						</g>
					</g>
					<g>
						<g>
							<path style="fill:#EB996E;" d="M233.258,416.428c0.075,0.003,0.091,1.083,0.118,2.825c0.026,1.742,0.078,4.147,0.217,6.799
								c0.141,2.653,0.342,5.05,0.499,6.785c0.156,1.735,0.254,2.811,0.179,2.822c-0.068,0.01-0.294-1.049-0.545-2.779
								c-0.251-1.73-0.512-4.135-0.653-6.801c-0.139-2.665-0.133-5.084-0.066-6.83C233.076,417.502,233.19,416.425,233.258,416.428z
								"/>
						</g>
					</g>
					<g>
						<g>
							<path style="fill:#EB996E;" d="M252.719,418.421c0.037,0.021-0.214,0.497-0.572,1.395c-0.355,0.899-0.779,2.233-1.153,3.923
								c-0.179,0.859-0.373,1.788-0.58,2.779c-0.209,1.001-0.445,2.085-0.879,3.179c-0.428,1.089-1.099,2.193-2.117,3.024
								c-0.991,0.838-2.454,1.32-3.842,0.951c-0.684-0.172-1.337-0.525-1.797-1.065c-0.47-0.536-0.704-1.21-0.814-1.849
								c-0.191-1.295-0.106-2.496-0.065-3.656c0.132-2.313,0.501-4.374,0.944-6.064c0.433-1.694,0.936-3.02,1.312-3.919
								c0.189-0.45,0.348-0.793,0.467-1.021c0.116-0.229,0.184-0.346,0.201-0.339c0.04,0.017-0.162,0.516-0.478,1.433
								c-0.315,0.916-0.761,2.247-1.143,3.933c-0.392,1.682-0.718,3.721-0.822,6.001c-0.03,1.131-0.096,2.361,0.088,3.543
								c0.104,0.585,0.314,1.159,0.702,1.598c0.381,0.447,0.936,0.75,1.532,0.9c1.214,0.32,2.48-0.085,3.396-0.843
								c0.933-0.753,1.571-1.771,1.992-2.807c0.821-2.096,1.08-4.186,1.546-5.863c0.423-1.694,0.908-3.033,1.325-3.918
								c0.211-0.442,0.392-0.776,0.527-0.995C252.624,418.522,252.703,418.412,252.719,418.421z"/>
						</g>
					</g>
					<g>
						<g>
							<path style="fill:#EB996E;" d="M254.677,420.667c0.135,0.003-0.089,1.589-1.396,2.959c-1.293,1.384-2.863,1.698-2.874,1.564
								c-0.055-0.146,1.315-0.649,2.495-1.922C254.104,422.018,254.528,420.621,254.677,420.667z"/>
						</g>
					</g>
					<g>
						<g>
							<path style="fill:#EB996E;" d="M243.943,433.604c0.138-0.011,0.381,1.886,0.247,4.232c-0.088,1.665-0.342,3.089-0.526,3.746
								l-0.02,0.07l-0.035,0.013c-0.264,0.094-0.376-0.101-0.398-0.182c-0.023-0.105,0.028-0.147,0.043-0.139
								c0.021,0.006,0.027,0.048,0.067,0.088c0.03,0.042,0.145,0.079,0.169,0.034l-0.055,0.082c0.015-0.68,0.149-2.098,0.236-3.741
								C243.802,435.497,243.794,433.613,243.943,433.604z"/>
						</g>
					</g>
					<g>
						<g>
							<path style="fill:#EB996E;" d="M255.712,429.456c0.055,0.051-0.485,0.709-1.362,1.759c-0.866,1.053-2.082,2.505-3.054,4.32
								c-0.969,1.814-1.38,3.666-1.396,5.006c-0.031,1.346,0.233,2.165,0.144,2.189c-0.046,0.023-0.446-0.776-0.512-2.185
								c-0.081-1.399,0.294-3.367,1.304-5.253c1.009-1.883,2.297-3.324,3.239-4.321C255.028,429.977,255.661,429.41,255.712,429.456
								z"/>
						</g>
					</g>
				</g>
			</g>
			<g>
				<g>
					<path style="fill:#FFBE9D;" d="M253.66,438.678c0,0-1.198-3.61,2.285-6.083c3.483-2.473,13.932-8.985,14.159-8.985
						c0.227,0,12.266-3.97,17.339-4.521c5.073-0.552,27.258,10.503,27.258,10.503s5.149,7.42,4.316,14.537
						c-0.833,7.117-5.463,7.528-5.463,7.528l-6.444-1.565l-6.644-1.268c0,0-14.689,4.089-16.96,3.332
						c-2.271-0.757-3.104-3.256-0.606-4.619c2.499-1.363,9.691-3.483,9.691-3.483l5.527-2.347l-18.02,2.574
						c0,0-15.219,3.029-16.96,2.574c-1.741-0.454-2.044-1.741-2.196-3.029c0,0-6.133,3.029-7.95,1.363
						C251.175,443.524,250.314,440.041,253.66,438.678z"/>
				</g>
				<g>
					<g>
						<path style="fill:#EB996E;" d="M292.509,434.301c-0.001,0.037-0.48,0.057-1.345,0.072c-0.865,0.018-2.116,0.021-3.655,0.101
							c-1.535,0.092-3.37,0.243-5.328,0.75c-0.978,0.252-1.98,0.598-2.974,1.062c-0.996,0.465-1.991,1.035-3.026,1.607
							c-1.036,0.571-2.073,1.113-3.139,1.504c-1.061,0.405-2.161,0.61-3.19,0.692c-2.053,0.164-3.909,0.107-5.339,0.602
							c-1.438,0.482-2.407,1.314-2.906,1.99c-0.514,0.678-0.613,1.165-0.665,1.146c-0.017-0.005,0.004-0.123,0.062-0.348
							c0.072-0.219,0.191-0.545,0.437-0.914c0.47-0.744,1.453-1.669,2.95-2.221c1.511-0.571,3.407-0.542,5.416-0.733
							c2.03-0.125,4.077-1.009,6.123-2.175c1.03-0.569,2.038-1.143,3.064-1.614c1.026-0.471,2.066-0.819,3.071-1.064
							c2.015-0.494,3.88-0.607,5.43-0.653c1.554-0.034,2.808,0.021,3.673,0.065C292.032,434.218,292.509,434.266,292.509,434.301z"
							/>
					</g>
				</g>
				<g>
					<g>
						<path style="fill:#EB996E;" d="M287.066,426.707c0.007,0.017-0.104,0.076-0.323,0.174c-0.216,0.103-0.547,0.227-0.977,0.375
							c-0.861,0.293-2.146,0.595-3.744,0.86c-1.594,0.279-3.51,0.496-5.551,1.04c-2.041,0.539-4.139,1.576-6.297,2.752
							c-4.309,2.42-8.471,4.134-11.515,5.217c-1.524,0.545-2.771,0.945-3.637,1.205c-0.866,0.26-1.353,0.38-1.363,0.347
							c-0.012-0.035,0.453-0.22,1.298-0.539c0.937-0.356,2.136-0.812,3.572-1.358c3.006-1.17,7.102-2.919,11.397-5.331
							c2.163-1.178,4.314-2.229,6.422-2.758c2.098-0.531,4.024-0.708,5.617-0.94c1.596-0.218,2.874-0.461,3.743-0.691
							C286.579,426.835,287.05,426.665,287.066,426.707z"/>
					</g>
				</g>
				<g>
					<g>
						<path style="fill:#EB996E;" d="M301.677,430.955c-0.081-0.001-0.1-0.479-0.291-1.199c-0.186-0.717-0.588-1.683-1.335-2.519
							c-0.748-0.835-1.665-1.341-2.357-1.605c-0.695-0.269-1.168-0.341-1.16-0.422c0.002-0.062,0.498-0.123,1.272,0.071
							c0.766,0.187,1.807,0.686,2.633,1.608c0.825,0.922,1.206,2.011,1.308,2.793C301.855,430.474,301.739,430.96,301.677,430.955z"
							/>
					</g>
				</g>
				<g>
					<g>
						<path style="fill:#EB996E;" d="M309.957,442.232c-0.092-0.016,0.088-0.674-0.146-1.679c-0.218-0.995-0.939-2.3-2.176-3.268
							c-1.249-0.967-2.632-1.484-3.617-1.861c-0.994-0.37-1.616-0.604-1.594-0.676c0.02-0.065,0.673,0.042,1.709,0.326
							c1.024,0.293,2.482,0.766,3.823,1.801c1.343,1.048,2.077,2.509,2.217,3.61C310.327,441.602,310,442.257,309.957,442.232z"/>
					</g>
				</g>
				<g>
					<g>
						<path style="fill:#EB996E;" d="M260.942,443.827c0.016,0.029-0.283,0.238-0.872,0.525c-0.588,0.289-1.464,0.652-2.577,1.012
							c-0.567,0.173-1.148,0.374-1.866,0.507c-0.716,0.099-1.491,0.026-2.257-0.233c-0.818-0.241-1.464-0.969-1.823-1.756
							c-0.365-0.791-0.603-1.701-0.477-2.659c0.067-0.684,0.466-1.348,0.948-1.759c0.475-0.437,1.004-0.753,1.533-1.009
							l-0.132,0.292c-0.393-1.313-0.31-2.728,0.258-3.757c0.546-1.03,1.267-1.749,1.896-2.289c0.636-0.536,1.194-0.884,1.581-1.112
							c0.389-0.226,0.611-0.326,0.626-0.302c0.046,0.066-0.805,0.56-1.998,1.649c-0.579,0.549-1.249,1.284-1.721,2.243
							c-0.487,0.958-0.541,2.191-0.161,3.434l0.059,0.193l-0.191,0.099c-0.942,0.489-2.069,1.21-2.182,2.392
							c-0.11,0.81,0.096,1.65,0.423,2.369c0.331,0.721,0.843,1.307,1.522,1.521c0.685,0.246,1.401,0.329,2.04,0.257
							c0.63-0.098,1.267-0.286,1.816-0.432c1.113-0.31,1.998-0.617,2.603-0.845C260.596,443.94,260.924,443.792,260.942,443.827z"/>
					</g>
				</g>
			</g>
			<g>
				<g>
					<path style="fill:#263238;" d="M338.418,241.543c-2.172-21.662-6.758-43.223-5.808-64.973l-17.807,11.091
						c0.884,8.615-6.864,15.297-11.356,22.701c-5.438,8.965-6.182,20.609-1.928,30.193c1.598,3.6,3.875,6.996,4.457,10.892
						c0.985,6.583-3.065,13.275-1.569,19.762c1.722,7.469,10.867,11.576,18.236,9.469c7.369-2.108,12.642-8.959,14.814-16.309
						C339.629,257.017,339.183,249.169,338.418,241.543z"/>
				</g>
				<g>
					<g>
						<g>
							<g>
								<g>
									<g>
										<path style="fill:#263238;" d="M315.763,183.975c1.952-10.516,9.896-19.704,20.018-23.156
											c10.123-3.453,22.025-1.033,29.996,6.099c3.249,2.907,5.912,6.546,9.674,8.75c4.248,2.49,4.794,1.648,9.479,3.161
											c4.685,1.514,13.854,13.73,14.02,18.652l3.635,21.395c0.129,5.057-6.176,8.3-11.053,6.955
											c-4.877-1.346-8.324-5.613-11.121-9.828c-2.797-4.215-5.46-8.792-9.771-11.44c-7.149-4.389-16.328-2.154-24.426,0.037
											c-8.098,2.19-17.512,3.981-24.25-1.015C316.159,199.279,314.443,191.082,315.763,183.975z"/>
									</g>
								</g>
							</g>
						</g>
						<g>
							<g>
								<g>
									<g>
										<g>
											<g>
												<path style="fill:#FFBE9D;" d="M313.175,215.005c0.04-14.078,8.295-31.844,22.359-31.207l44.299,8.402
													c4.272,0.193,7.686,3.623,7.859,7.897l1.665,105.502c0.105,0.017,0.201,0.031,0.306,0.047
													c0,0-15.391,38.706-44.791,31.442c-5.829-1.441-1.525-15.946-3.06-22.308l-0.293,0.056
													c-0.059-0.763-0.113-1.473-0.168-2.202c-1.414-7.365-1.073-14.435-1.073-14.435l0,0
													c-0.611-8.488-0.82-11.972-0.82-11.893c0,0-18.096-1.896-23.216-25.05C313.695,249.742,313.132,230.645,313.175,215.005
													z"/>
											</g>
										</g>
									</g>
								</g>
							</g>
							<g>
								<g>
									<g>
										<g>
											<g>
												<g>
													<g>
														<g>
															<g>
																<g>
																	<g>
																		<g>
																			<g>
																				<g>
																					<g>
																						<g>
																							<g>
																								<g>
																									<g>
																										<g>
																											<g>
																												<path style="fill:#263238;" d="M320.949,233.418c0.039,1.587,1.415,2.862,3.073,2.851
																													c1.654-0.011,2.967-1.302,2.928-2.889c-0.04-1.587-1.416-2.863-3.07-2.853
																													C322.222,230.538,320.909,231.832,320.949,233.418z"/>
																											</g>
																										</g>
																									</g>
																								</g>
																							</g>
																						</g>
																					</g>
																				</g>
																			</g>
																		</g>
																	</g>
																</g>
																<g>
																	<g>
																		<g>
																			<g>
																				<g>
																					<g>
																						<g>
																							<g>
																								<g>
																									<g>
																										<g>
																											<g>
																												<g>
																													<path style="fill:#263238;" d="M317.907,224.672c0.395,0.369,2.566-1.449,5.792-1.635
																														c3.22-0.232,5.688,1.286,6.014,0.869c0.162-0.185-0.26-0.868-1.336-1.557
																														c-1.06-0.686-2.835-1.309-4.844-1.18c-2.009,0.132-3.655,0.974-4.581,1.79
																														C318.007,223.781,317.714,224.508,317.907,224.672z"/>
																												</g>
																											</g>
																										</g>
																									</g>
																								</g>
																							</g>
																						</g>
																					</g>
																				</g>
																			</g>
																		</g>
																	</g>
																</g>
															</g>
															<g>
																<g>
																	<g>
																		<g>
																			<g>
																				<g>
																					<g>
																						<g>
																							<g>
																								<g>
																									<g>
																										<g>
																											<g>
																												<path style="fill:#263238;" d="M350.101,231.79c0.039,1.587,1.415,2.862,3.073,2.851
																													c1.654-0.011,2.967-1.302,2.928-2.889c-0.039-1.587-1.416-2.863-3.07-2.853
																													C351.373,228.909,350.061,230.204,350.101,231.79z"/>
																											</g>
																										</g>
																									</g>
																								</g>
																							</g>
																						</g>
																					</g>
																				</g>
																			</g>
																		</g>
																	</g>
																</g>
																<g>
																	<g>
																		<g>
																			<g>
																				<g>
																					<g>
																						<g>
																							<g>
																								<g>
																									<g>
																										<g>
																											<g>
																												<g>
																													<path style="fill:#263238;" d="M349.655,223.365c0.396,0.368,2.569-1.449,5.794-1.634
																														c3.22-0.232,5.688,1.285,6.014,0.869c0.161-0.186-0.256-0.868-1.336-1.556
																														c-1.06-0.687-2.834-1.309-4.843-1.18c-2.009,0.133-3.654,0.974-4.581,1.79
																														C349.759,222.473,349.463,223.201,349.655,223.365z"/>
																												</g>
																											</g>
																										</g>
																									</g>
																								</g>
																							</g>
																						</g>
																					</g>
																				</g>
																			</g>
																		</g>
																	</g>
																</g>
															</g>
															<g>
																<g>
																	<g>
																		<g>
																			<g>
																				<g>
																					<g>
																						<g>
																							<g>
																								<g>
																									<g>
																										<g>
																											<g>
																												<path style="fill:#263238;" d="M339.388,247.995c0.004-0.184-2.022-0.41-5.297-0.63
																													c-0.829-0.036-1.618-0.152-1.791-0.706c-0.23-0.584,0.061-1.492,0.403-2.475
																													c0.655-2.04,1.339-4.179,2.059-6.42c2.845-9.135,4.852-16.627,4.484-16.738
																													c-0.369-0.111-2.975,7.203-5.82,16.338c-0.681,2.251-1.334,4.398-1.954,6.451
																													c-0.256,0.955-0.728,2.049-0.233,3.259c0.259,0.602,0.891,1.012,1.427,1.123
																													c0.538,0.129,1.002,0.11,1.411,0.11C337.357,248.287,339.386,248.18,339.388,247.995z"/>
																											</g>
																										</g>
																									</g>
																								</g>
																							</g>
																						</g>
																					</g>
																				</g>
																			</g>
																		</g>
																	</g>
																</g>
															</g>
															<g>
																<g>
																	<g>
																		<g>
																			<g>
																				<g>
																					<g>
																						<g>
																							<g>
																								<g>
																									<g>
																										<g>
																											<path style="fill:#EB996E;" d="M339.457,286.307c0,0,15.788,0.067,30.805-10.236
																												c0,0-6.919,16.749-30.447,15.97L339.457,286.307z"/>
																										</g>
																									</g>
																								</g>
																							</g>
																						</g>
																					</g>
																				</g>
																			</g>
																		</g>
																	</g>
																</g>
															</g>
															<g>
																<g>
																	<g>
																		<g>
																			<g>
																				<g>
																					<g>
																						<g>
																							<g>
																								<g>
																									<g>
																										<g>
																											<path style="fill:#EB996E;" d="M341.22,255.689c1.068-1.604,3.05-2.569,5.081-2.473
																												c1.409,0.066,2.864,0.656,3.783,1.745c0.919,1.088,1.195,2.697,0.487,3.83
																												c-0.797,1.277-2.599,1.669-4.165,1.324c-1.567-0.345-2.952-1.279-4.272-2.213
																												c-0.365-0.258-0.738-0.529-0.979-0.899c-0.241-0.369-0.317-0.868-0.068-1.201"/>
																										</g>
																									</g>
																								</g>
																							</g>
																						</g>
																					</g>
																				</g>
																			</g>
																		</g>
																	</g>
																</g>
															</g>
															<g>
																<g>
																	<g>
																		<g>
																			<g>
																				<g>
																					<g>
																						<g>
																							<g>
																								<g>
																									<g>
																										<g>
																											<g>
																												<path style="fill:#263238;" d="M349.016,249.655c-0.526,0.001-0.322,3.503-3.17,6.169
																													c-2.841,2.674-6.598,2.505-6.596,2.996c-0.036,0.223,0.872,0.63,2.45,0.578
																													c1.549-0.04,3.776-0.672,5.518-2.303c1.737-1.634,2.401-3.715,2.434-5.159
																													C349.697,250.465,349.255,249.621,349.016,249.655z"/>
																											</g>
																										</g>
																									</g>
																								</g>
																							</g>
																						</g>
																					</g>
																				</g>
																			</g>
																		</g>
																	</g>
																</g>
															</g>
														</g>
													</g>
												</g>
												<g>
													<g>
														<g>
															<g>
																<g>
																	<g>
																		<g>
																			<g>
																				<g>
																					<g>
																						<g>
																							<g>
																								<path style="fill:#263238;" d="M348.111,211.139c0.371,0.858,3.567,0.248,7.379,0.477
																									c3.818,0.152,6.936,1.076,7.391,0.259c0.201-0.39-0.38-1.183-1.666-1.958
																									c-1.274-0.774-3.275-1.462-5.562-1.579c-2.287-0.112-4.346,0.374-5.691,1.018
																									C348.607,209.999,347.95,210.731,348.111,211.139z"/>
																							</g>
																						</g>
																					</g>
																				</g>
																			</g>
																		</g>
																	</g>
																</g>
															</g>
														</g>
													</g>
												</g>
												<g>
													<g>
														<g>
															<g>
																<g>
																	<g>
																		<g>
																			<g>
																				<g>
																					<g>
																						<g>
																							<g>
																								<path style="fill:#263238;" d="M318.531,215.264c0.612,0.698,2.788-0.196,5.459-0.393
																									c2.663-0.29,4.965,0.195,5.44-0.603c0.206-0.386-0.195-1.098-1.225-1.733
																									c-1.016-0.632-2.68-1.099-4.514-0.933c-1.832,0.169-3.384,0.929-4.268,1.735
																									C318.524,214.148,318.259,214.921,318.531,215.264z"/>
																							</g>
																						</g>
																					</g>
																				</g>
																			</g>
																		</g>
																	</g>
																</g>
															</g>
														</g>
													</g>
												</g>
											</g>
										</g>
									</g>
								</g>
							</g>
						</g>
						<g>
							<g>
								<g>
									<g>
										<path style="fill:#263238;" d="M335.93,177.772l1.824-2.66c13.578,0.699,27.06,3.257,39.95,7.581
											c5.154,1.729,10.399,3.861,14.098,7.844c5.093,5.484,6.344,13.405,7.348,20.822c3.819,28.234,7.341,57.341,0.099,84.896
											c-2.361-3.319-6.662-4.61-10.702-5.131c-4.04-0.521-8.246-0.518-11.979-2.147c-4.094-1.785-7.241-5.488-8.622-9.735
											c-1.381-4.248-1.051-8.975,0.634-13.112c1.886-4.631,5.483-9.209,4.232-14.05c-1.309-5.067-7.385-7.639-9.082-12.59
											c-2.932-8.558,8.805-17.139,5.788-25.668c-1.114-3.149-4.06-5.314-7.137-6.613c-3.077-1.299-6.399-1.925-9.51-3.141
											C342.495,200.011,335.334,188.895,335.93,177.772z"/>
									</g>
								</g>
							</g>
						</g>
					</g>
					<g>
						<path style="fill:#FF725E;" d="M405.107,191.719c-14.541-20.381-24.392-22.845-38.063-23.609l19.013,42.602
							c2.847,6.854,6.773,15.174,7.381,22.571c0.721,8.762-2.321,16.107-6.388,23.902c-4.88,9.352-10.244,18.275-18.628,24.677
							c-8.384,6.402-27.072,14.448-36.773,10.303l13.528,7.564l32.322,0.122l37.647,0.147c0,0,4.405-3.854,8.274-13.817
							C433.111,261.227,421.325,214.45,405.107,191.719z"/>
					</g>
					<g>
						<g>
							<g>
								<path style="fill:#FF725E;" d="M431.921,324.459c0,0-8.101-16.615-18.671-25.757c-10.57-9.142-17.06-9.05-32.141-7.771
									c-15.082,1.28-36.178,3.654-41.177,2.391l-0.474-7.016c-2.475-0.244-12.646-5.2-14.626-8.19
									c-3.784,3.869-5.431,7.985-4.569,12.393l-2.472,0.933c-7.482,2.825-11.943,10.802-9.924,18.541
									c0.939,3.598,3.216,5.806,7.775,6.595c18.1,3.131,66.487-9.946,81.062-10.021
									C411.278,306.483,431.921,324.459,431.921,324.459z"/>
							</g>
						</g>
					</g>
					<g>
						<g>
							<g>
								<g>
									<path style="fill:#263238;" d="M314.045,316.409c0.004-0.029,0.439-0.003,1.262,0.073c0.823,0.079,2.034,0.208,3.598,0.317
										c3.124,0.236,7.662,0.477,13.256,0.222c5.59-0.267,12.229-1.054,19.462-2.644c3.616-0.788,7.387-1.751,11.255-2.869
										c3.86-1.19,7.854-2.422,11.945-3.684c8.183-2.497,16.4-4.189,23.904-3.449c7.487,0.651,13.902,3.203,18.764,6.04
										c4.87,2.889,8.241,6.052,10.329,8.404c1.041,1.184,1.81,2.134,2.279,2.82c0.488,0.67,0.732,1.029,0.709,1.046
										c-0.023,0.017-0.313-0.309-0.842-0.942c-0.509-0.65-1.314-1.561-2.384-2.702c-2.144-2.267-5.541-5.328-10.386-8.114
										c-4.837-2.735-11.176-5.187-18.533-5.784c-7.362-0.685-15.445,0.994-23.6,3.482c-4.093,1.23-8.068,2.54-11.956,3.67
										c-3.895,1.113-7.682,2.064-11.323,2.836c-7.281,1.558-13.974,2.289-19.6,2.482c-5.631,0.181-10.185-0.152-13.31-0.489
										c-1.565-0.16-2.772-0.341-3.589-0.474C314.468,316.519,314.041,316.438,314.045,316.409z"/>
								</g>
							</g>
						</g>
					</g>
					<g>
						<path style="fill:#FF725E;" d="M432.793,318.981c-18.262-23.738-53.277-32.814-80.77-20.935l-29.04,6.152
							c-7.652,1.325-19.922,3.815-20.506,10.902c-0.584,7.087,1.175,15.447,4.716,21.614c6.74,11.741,3.076,27.474,9.816,39.215
							c3.185,5.549,6.436,11.182,11.072,15.591s10.938,7.501,17.299,6.814c7.081-0.765,12.876-5.938,17.377-11.457
							c9.692-11.885,15.74-26.331,24.817-38.692c9.077-12.361,19.763-21.454,38.822-22.631c3.469-0.214,13.333,4.398,13.333,4.398
							C440.055,328.573,433.659,320.106,432.793,318.981z"/>
					</g>
					<g style="opacity:0.3;">
						<g>
							<g>
								<g>
									<path d="M393.761,304.876c-12.608,0.027-24.98,6.064-37.224,8.76c-49.156,10.824-49.156-7.719-49.156-7.719v0
										c-1.542,8.708,6.635,12.717,15.251,14.711c16.436,3.804,33.957,5.843,45.858,2.057c9.555-3.039,19.543-5.236,29.185-7.986
										c9.642-2.75,23.56-1.713,30.866,5.153C421.984,309.083,406.369,304.849,393.761,304.876z"/>
								</g>
							</g>
						</g>
					</g>
					<g style="opacity:0.3;">
						<g>
							<g>
								<g>
									<path d="M329.87,303.554c1.052,2.62,3.523,4.483,6.203,5.371c2.681,0.887,5.569,0.911,8.386,0.718
										c10.283-0.701,20.158-4.131,29.888-7.531c-7.777-0.274-15.303,2.436-22.933,3.963c-7.631,1.526-16.231,1.663-22.432-3.039"
										/>
								</g>
							</g>
						</g>
					</g>
				</g>
				<g>
					<g>
						<path d="M435.257,326.612c-0.007,0.006-0.083-0.071-0.224-0.226c-0.158-0.178-0.361-0.407-0.616-0.696
							c-0.523-0.626-1.341-1.509-2.41-2.628c-2.178-2.154-5.535-5.313-10.688-7.357c-2.572-0.983-5.54-1.664-8.779-1.894
							c-3.237-0.276-6.718-0.19-10.335,0.323c-7.252,0.987-14.931,3.557-23.062,5.876c-8.089,2.423-15.915,4.741-23.307,5.127
							c-7.361,0.349-13.985-0.387-19.444-1.391c-5.465-1.01-9.81-2.157-12.82-2.905c-1.476-0.378-2.635-0.674-3.46-0.886
							c-0.372-0.1-0.668-0.179-0.897-0.241c-0.201-0.057-0.304-0.091-0.302-0.099c0.002-0.009,0.108,0.008,0.314,0.048
							c0.233,0.049,0.532,0.111,0.909,0.19c0.831,0.189,1.998,0.453,3.484,0.791c3.024,0.687,7.381,1.779,12.836,2.739
							c5.447,0.955,12.046,1.648,19.351,1.275c7.317-0.407,15.093-2.722,23.188-5.147c8.127-2.316,15.823-4.88,23.145-5.852
							c3.646-0.505,7.176-0.576,10.436-0.278c3.268,0.251,6.279,0.963,8.878,1.982c5.212,2.12,8.555,5.353,10.698,7.558
							c1.052,1.145,1.846,2.052,2.345,2.701c0.239,0.302,0.429,0.543,0.577,0.729C435.202,326.519,435.264,326.607,435.257,326.612z
							"/>
					</g>
				</g>
				<g>
					<g>
						<path d="M416.903,302.151c-0.007,0.006-0.078-0.051-0.211-0.169c-0.153-0.14-0.344-0.315-0.58-0.531
							c-0.492-0.486-1.262-1.152-2.264-1.997c-2.019-1.665-5.15-3.857-9.393-5.843c-4.235-1.986-9.609-3.68-15.742-4.526
							c-6.133-0.838-12.994-0.795-20.092,0.057c-7.117,0.814-13.766,2.352-19.841,3.696c-3.046,0.626-6.039,0.995-8.826,0.702
							c-2.776-0.271-5.331-1.173-7.234-2.621c-1.925-1.414-3.268-3.134-4.296-4.697c-1.01-1.584-1.713-3.043-2.232-4.253
							c-0.516-1.213-0.85-2.179-1.069-2.836c-0.094-0.307-0.17-0.555-0.231-0.754c-0.049-0.171-0.07-0.259-0.061-0.262
							c0.009-0.003,0.046,0.08,0.111,0.245c0.074,0.194,0.165,0.436,0.279,0.735c0.25,0.644,0.614,1.596,1.155,2.789
							c0.544,1.191,1.269,2.625,2.289,4.175c1.038,1.529,2.38,3.202,4.27,4.559c1.86,1.386,4.342,2.241,7.059,2.489
							c2.726,0.269,5.664-0.107,8.688-0.742c6.044-1.365,12.733-2.927,19.877-3.743c7.132-0.856,14.04-0.886,20.219-0.015
							c6.178,0.878,11.585,2.624,15.832,4.668c4.255,2.045,7.377,4.299,9.366,6.021c0.988,0.873,1.738,1.566,2.208,2.077
							c0.222,0.232,0.401,0.419,0.545,0.569C416.851,302.075,416.91,302.145,416.903,302.151z"/>
					</g>
				</g>
				<g>
					<g>
						<path d="M411.015,301.655c-0.002,0.009-0.089,0.001-0.256-0.024c-0.197-0.032-0.441-0.072-0.742-0.121
							c-0.692-0.115-1.643-0.272-2.848-0.471c-2.477-0.37-6.077-0.852-10.55-1.061c-4.47-0.215-9.817-0.164-15.697,0.498
							c-5.883,0.643-12.231,2.149-18.887,3.731c-6.643,1.606-13.106,2.954-19.089,2.915c-2.983-0.006-5.821-0.348-8.396-1.015
							c-2.585-0.72-4.771-2.028-6.477-3.505c-3.44-2.97-5.309-6.212-6.421-8.447c-1.091-2.273-1.389-3.645-1.389-3.645
							c0.009-0.003,0.046,0.076,0.109,0.233c0.072,0.186,0.161,0.416,0.271,0.7c0.244,0.612,0.623,1.507,1.19,2.621
							c1.158,2.191,3.063,5.373,6.476,8.255c1.692,1.435,3.839,2.689,6.349,3.37c2.538,0.638,5.339,0.96,8.287,0.953
							c5.918,0.012,12.327-1.335,18.97-2.942c6.653-1.582,13.029-3.08,18.954-3.702c5.914-0.639,11.285-0.652,15.77-0.389
							c4.488,0.257,8.092,0.796,10.564,1.229c1.235,0.229,2.192,0.417,2.835,0.568c0.297,0.069,0.537,0.126,0.732,0.172
							C410.934,301.621,411.017,301.646,411.015,301.655z"/>
					</g>
				</g>
				<g>
					<g>
						<path d="M411.915,256.783c0.035,0.009-0.101,0.606-0.378,1.68c-0.131,0.54-0.31,1.195-0.576,1.938
							c-0.258,0.745-0.514,1.609-0.915,2.518c-0.37,0.922-0.786,1.928-1.32,2.969c-0.485,1.065-1.12,2.142-1.765,3.288
							c-1.362,2.248-3.027,4.622-5.015,6.918c-2.013,2.276-4.145,4.242-6.193,5.89c-1.05,0.792-2.033,1.564-3.025,2.186
							c-0.961,0.668-1.903,1.213-2.768,1.702c-0.849,0.518-1.671,0.886-2.375,1.241c-0.701,0.362-1.326,0.626-1.844,0.828
							c-1.028,0.417-1.602,0.631-1.615,0.598c-0.013-0.033,0.534-0.311,1.532-0.783c0.503-0.229,1.112-0.518,1.796-0.903
							c0.687-0.378,1.491-0.765,2.321-1.299c0.846-0.506,1.769-1.064,2.71-1.741c0.972-0.631,1.936-1.409,2.967-2.203
							c2.011-1.652,4.11-3.607,6.101-5.858c1.967-2.272,3.625-4.611,4.996-6.823c0.65-1.128,1.293-2.186,1.789-3.233
							c0.546-1.022,0.978-2.011,1.366-2.917c0.419-0.893,0.697-1.742,0.98-2.473c0.291-0.729,0.497-1.371,0.657-1.9
							C411.678,257.354,411.881,256.774,411.915,256.783z"/>
					</g>
				</g>
				<g>
					<g>
						<path d="M410.407,316.39c-0.004,0.018-0.282-0.009-0.806-0.074c-0.277-0.037-0.598-0.079-0.967-0.128
							c-0.382-0.045-0.829-0.041-1.328-0.069c-1.991-0.073-4.917,0.162-8.315,1.289c-1.693,0.572-3.496,1.345-5.37,2.301
							c-1.868,0.969-3.795,2.136-5.769,3.445c-3.945,2.624-8.064,5.85-12.484,9.097c-8.805,6.509-16.774,12.399-22.592,16.699
							c-2.874,2.093-5.214,3.798-6.882,5.013c-0.788,0.56-1.416,1.007-1.887,1.342c-0.435,0.302-0.668,0.454-0.679,0.439
							c-0.011-0.014,0.202-0.194,0.616-0.524c0.456-0.354,1.065-0.827,1.828-1.42c1.644-1.247,3.951-2.997,6.783-5.145
							c5.795-4.332,13.732-10.266,22.501-16.822c4.418-3.246,8.543-6.459,12.53-9.079c1.993-1.305,3.943-2.468,5.837-3.429
							c1.9-0.948,3.732-1.71,5.453-2.266c3.455-1.097,6.431-1.279,8.439-1.142c0.503,0.044,0.953,0.056,1.336,0.118
							c0.369,0.068,0.69,0.127,0.967,0.178C410.139,316.312,410.41,316.372,410.407,316.39z"/>
					</g>
				</g>
				<g>
					<g>
						<path d="M442.675,347.054c-0.035,0.008-0.185-0.495-0.43-1.411c-0.247-0.915-0.586-2.243-1.062-3.864
							c-0.48-1.618-1.106-3.533-2.049-5.545c-0.949-2-2.245-4.105-4.052-5.907c-1.789-1.816-3.938-3.074-6.059-3.663
							c-2.125-0.603-4.153-0.632-5.822-0.511c-3.356,0.283-5.352,1.028-5.379,0.914c-0.005-0.017,0.115-0.071,0.35-0.159
							c0.234-0.091,0.584-0.207,1.04-0.342c0.912-0.265,2.255-0.607,3.957-0.78c1.694-0.17,3.774-0.183,5.983,0.415
							c2.206,0.583,4.457,1.885,6.299,3.757c1.862,1.858,3.176,4.025,4.118,6.073c0.936,2.059,1.53,4.007,1.968,5.647
							c0.434,1.644,0.718,2.987,0.905,3.917C442.627,346.527,442.71,347.046,442.675,347.054z"/>
					</g>
				</g>
			</g>
		</g>
	</g>
</g>
<g id="Speech_Bubble">
	<g>
		<path style="fill:#455A64;" d="M435.927,343.657"/>
	</g>
	<g>
		<g>
			<g>
				<g>
					<g>
						<g>
							<g>
								<g>
									<g>
										
											<ellipse transform="matrix(0.9989 -0.0464 0.0464 0.9989 -5.3379 19.7887)" style="fill:#FFFFFF;" cx="423.294" cy="124.795" rx="35.644" ry="35.644"/>
									</g>
								</g>
							</g>
						</g>
						<g>
							<g>
								<g>
									<g>
										<g>
											<g>
												<g>
													<g>
														<g>
															<g>
																<g>
																	<g>
																		<path style="fill:#263238;" d="M403.456,165.988c0.013,0.035,0.365-0.141,1.045-0.232
																			c0.67-0.092,1.709-0.039,2.791,0.529c0.533,0.285,1.073,0.697,1.495,1.266c0.414,0.569,0.711,1.291,0.751,2.087
																			c0.115,1.564-0.694,3.44-2.34,4.281c-1.663,0.81-3.648,0.326-4.828-0.707c-0.611-0.512-1.01-1.183-1.215-1.857
																			c-0.201-0.679-0.204-1.359-0.111-1.956c0.197-1.206,0.781-2.067,1.257-2.547c0.482-0.488,0.834-0.663,0.814-0.695
																			c-0.005-0.01-0.093,0.031-0.255,0.12c-0.083,0.042-0.18,0.102-0.288,0.186c-0.111,0.078-0.237,0.172-0.362,0.296
																			c-0.519,0.467-1.161,1.34-1.399,2.6c-0.113,0.624-0.125,1.342,0.078,2.072c0.207,0.725,0.63,1.457,1.279,2.011
																			c0.634,0.565,1.465,0.975,2.375,1.134c0.907,0.174,1.91,0.072,2.804-0.36c0.882-0.454,1.568-1.193,1.974-2.022
																			c0.42-0.822,0.593-1.733,0.523-2.579c-0.052-0.852-0.382-1.631-0.836-2.232c-0.461-0.601-1.041-1.024-1.608-1.309
																			c-1.149-0.568-2.233-0.582-2.918-0.448c-0.175,0.026-0.326,0.069-0.455,0.111
																			c-0.131,0.036-0.238,0.076-0.321,0.118C403.536,165.933,403.451,165.978,403.456,165.988z"/>
																	</g>
																</g>
															</g>
														</g>
													</g>
												</g>
											</g>
										</g>
									</g>
									<g>
										<g>
											<g>
												<g>
													<g>
														<g>
															<g>
																<g>
																	<g>
																		<g>
																			<path style="fill:#263238;" d="M393.607,145.087c0,0-0.094-0.175-0.29-0.506
																				c-0.202-0.338-0.495-0.827-0.877-1.465c-0.194-0.322-0.411-0.681-0.649-1.077
																				c-0.22-0.407-0.421-0.873-0.662-1.366c-0.235-0.495-0.489-1.029-0.76-1.599c-0.146-0.28-0.263-0.584-0.37-0.903
																				c-0.113-0.316-0.23-0.642-0.35-0.977c-1.047-2.647-1.83-6.086-2.104-10.113
																				c-0.252-4.024,0.163-8.693,1.779-13.52c0.206-0.601,0.415-1.21,0.626-1.825c0.247-0.601,0.536-1.194,0.806-1.801
																				c0.138-0.303,0.276-0.607,0.415-0.913c0.136-0.307,0.274-0.616,0.455-0.904c0.34-0.589,0.683-1.183,1.03-1.784
																				c0.175-0.299,0.343-0.605,0.527-0.903c0.204-0.285,0.409-0.571,0.615-0.858c0.412-0.575,0.828-1.156,1.247-1.742
																				c0.437-0.573,0.945-1.097,1.421-1.655c0.242-0.276,0.485-0.553,0.73-0.831c0.124-0.137,0.241-0.282,0.371-0.414
																				l0.409-0.381c1.102-1.008,2.164-2.103,3.437-2.984c0.621-0.457,1.22-0.958,1.874-1.39
																				c0.669-0.408,1.343-0.82,2.022-1.235c0.343-0.201,0.673-0.43,1.03-0.61c0.361-0.173,0.724-0.347,1.088-0.522
																				c0.731-0.34,1.452-0.72,2.206-1.035c1.545-0.536,3.075-1.195,4.725-1.536c0.407-0.103,0.815-0.207,1.224-0.31
																				c0.205-0.05,0.409-0.108,0.616-0.151l0.629-0.095c0.84-0.127,1.685-0.255,2.535-0.383
																				c0.854-0.088,1.721-0.103,2.588-0.159c0.434-0.013,0.869-0.069,1.306-0.047l1.314,0.057
																				c1.762,0.004,3.515,0.316,5.292,0.557c0.872,0.208,1.749,0.417,2.629,0.626l0.661,0.158
																				c0.217,0.066,0.43,0.145,0.646,0.217l1.294,0.442l1.299,0.444l1.258,0.565l1.261,0.572l0.633,0.287
																				c0.205,0.108,0.403,0.229,0.605,0.344c0.805,0.464,1.613,0.929,2.424,1.396c0.762,0.544,1.527,1.09,2.295,1.638
																				c2.987,2.304,5.655,5.096,7.885,8.268c2.146,3.231,3.781,6.731,4.844,10.352
																				c0.232,0.915,0.463,1.826,0.694,2.733c0.141,0.926,0.281,1.848,0.42,2.767l0.101,0.688l0.037,0.694l0.075,1.383
																				l0.07,1.377l-0.058,1.372l-0.058,1.366l-0.032,0.68l-0.094,0.673c-0.124,0.897-0.248,1.79-0.371,2.678
																				c-0.421,1.743-0.766,3.49-1.404,5.134l-0.424,1.245c-0.138,0.415-0.349,0.8-0.518,1.2
																				c-0.367,0.788-0.696,1.59-1.088,2.354c-0.428,0.745-0.855,1.486-1.278,2.223l-0.317,0.552
																				c-0.115,0.177-0.244,0.346-0.365,0.519c-0.245,0.344-0.49,0.687-0.734,1.028c-0.917,1.413-2.087,2.6-3.148,3.844
																				c-0.568,0.588-1.183,1.122-1.766,1.68c-0.295,0.276-0.589,0.55-0.881,0.824
																				c-0.298,0.267-0.631,0.491-0.943,0.738c-0.633,0.482-1.262,0.961-1.885,1.436
																				c-0.64,0.451-1.324,0.828-1.976,1.241c-1.284,0.867-2.69,1.457-4.03,2.118l-0.503,0.243
																				c-0.171,0.073-0.348,0.13-0.521,0.195c-0.348,0.127-0.694,0.253-1.039,0.378
																				c-0.693,0.24-1.366,0.524-2.058,0.722c-0.699,0.178-1.391,0.355-2.076,0.529
																				c-0.343,0.088-0.684,0.175-1.023,0.261c-0.346,0.055-0.69,0.109-1.033,0.163
																				c-0.686,0.105-1.364,0.209-2.036,0.312c-0.335,0.064-0.672,0.08-1.008,0.096
																				c-0.336,0.018-0.67,0.037-1.002,0.055c-0.664,0.031-1.321,0.085-1.971,0.097
																				c-0.65-0.027-1.293-0.053-1.928-0.079c-5.084-0.248-9.585-1.558-13.242-3.254
																				c-0.459-0.21-0.916-0.406-1.355-0.617c-0.423-0.242-0.838-0.48-1.246-0.714
																				c-0.408-0.233-0.808-0.462-1.199-0.686c-0.194-0.115-0.394-0.216-0.578-0.34c-0.18-0.128-0.359-0.255-0.535-0.38
																				c-0.706-0.501-1.382-0.981-2.026-1.439c-0.631-0.475-1.172-1-1.717-1.457c-0.269-0.234-0.53-0.461-0.783-0.681
																				c-0.259-0.215-0.499-0.435-0.707-0.673c-0.433-0.459-0.837-0.889-1.214-1.289
																				c-0.372-0.403-0.733-0.759-1.032-1.112c-0.282-0.366-0.538-0.699-0.767-0.996
																				c-0.456-0.588-0.806-1.039-1.047-1.349C393.736,145.237,393.607,145.087,393.607,145.087s0.11,0.163,0.339,0.473
																				c0.235,0.316,0.576,0.773,1.021,1.371c0.226,0.301,0.479,0.638,0.757,1.008c0.295,0.357,0.653,0.719,1.022,1.126
																				c0.374,0.404,0.776,0.839,1.206,1.303c0.207,0.241,0.447,0.463,0.704,0.681c0.253,0.223,0.513,0.453,0.781,0.689
																				c0.543,0.463,1.084,0.994,1.714,1.475c0.645,0.463,1.32,0.949,2.026,1.456c0.177,0.127,0.355,0.255,0.535,0.385
																				c0.184,0.125,0.384,0.228,0.578,0.344c0.393,0.227,0.793,0.459,1.202,0.696c0.409,0.236,0.825,0.477,1.249,0.723
																				c0.44,0.215,0.898,0.413,1.359,0.626c3.669,1.722,8.191,3.055,13.308,3.321c0.639,0.028,1.286,0.057,1.94,0.085
																				c0.654-0.01,1.316-0.062,1.985-0.092c0.334-0.017,0.671-0.035,1.009-0.053c0.338-0.015,0.678-0.03,1.016-0.093
																				c0.677-0.102,1.361-0.205,2.052-0.309c0.345-0.054,0.694-0.1,1.041-0.162c0.342-0.086,0.686-0.173,1.031-0.26
																				c0.691-0.175,1.389-0.351,2.093-0.529c0.698-0.199,1.377-0.482,2.076-0.723c0.348-0.126,0.697-0.252,1.048-0.379
																				c0.174-0.066,0.353-0.122,0.525-0.196l0.508-0.243c1.351-0.663,2.769-1.257,4.065-2.127
																				c0.658-0.415,1.348-0.793,1.993-1.247c0.63-0.478,1.264-0.959,1.903-1.444c0.315-0.248,0.65-0.474,0.952-0.743
																				c0.296-0.275,0.592-0.552,0.89-0.829c0.588-0.561,1.21-1.099,1.783-1.691c1.072-1.253,2.252-2.449,3.18-3.873
																				c0.246-0.344,0.493-0.69,0.741-1.036c0.122-0.174,0.252-0.344,0.368-0.523l0.321-0.556
																				c0.428-0.743,0.859-1.49,1.292-2.241c0.396-0.77,0.729-1.579,1.1-2.373c0.172-0.403,0.384-0.792,0.524-1.21
																				l0.43-1.255c0.644-1.658,0.995-3.42,1.42-5.179c0.125-0.896,0.251-1.797,0.377-2.702l0.095-0.679l0.033-0.686
																				l0.059-1.379l0.059-1.384l-0.069-1.39l-0.075-1.396l-0.038-0.7l-0.101-0.695
																				c-0.141-0.927-0.282-1.858-0.423-2.792c-0.232-0.916-0.465-1.836-0.699-2.759
																				c-1.071-3.655-2.72-7.188-4.887-10.449c-2.25-3.201-4.944-6.019-7.96-8.344
																				c-0.775-0.553-1.547-1.104-2.317-1.652c-0.819-0.471-1.635-0.941-2.447-1.408
																				c-0.204-0.115-0.404-0.238-0.611-0.347l-0.638-0.289l-1.273-0.576l-1.27-0.569l-1.311-0.448l-1.305-0.445
																				c-0.218-0.072-0.433-0.152-0.652-0.218l-0.667-0.159c-0.889-0.211-1.773-0.421-2.653-0.63
																				c-1.793-0.243-3.562-0.555-5.34-0.557l-1.325-0.056c-0.441-0.021-0.879,0.035-1.317,0.049
																				c-0.875,0.057-1.749,0.073-2.611,0.163c-0.857,0.131-1.71,0.26-2.557,0.389l-0.635,0.097
																				c-0.209,0.043-0.414,0.103-0.621,0.153c-0.413,0.105-0.825,0.21-1.235,0.314
																				c-1.663,0.347-3.206,1.012-4.763,1.556c-0.76,0.319-1.487,0.703-2.223,1.047
																				c-0.366,0.177-0.731,0.353-1.096,0.528c-0.36,0.183-0.692,0.414-1.037,0.617
																				c-0.684,0.419-1.362,0.835-2.036,1.248c-0.658,0.436-1.261,0.942-1.886,1.404
																				c-1.282,0.891-2.35,1.996-3.458,3.014l-0.411,0.385c-0.132,0.133-0.249,0.28-0.373,0.418
																				c-0.246,0.281-0.49,0.561-0.734,0.839c-0.478,0.564-0.989,1.093-1.428,1.671
																				c-0.421,0.592-0.839,1.177-1.253,1.758c-0.207,0.29-0.413,0.579-0.617,0.866c-0.184,0.3-0.353,0.609-0.529,0.911
																				c-0.348,0.606-0.692,1.205-1.033,1.799c-0.182,0.291-0.32,0.602-0.456,0.912
																				c-0.139,0.309-0.278,0.616-0.416,0.921c-0.271,0.612-0.559,1.21-0.806,1.815
																				c-0.211,0.62-0.419,1.233-0.626,1.839c-1.611,4.864-2.012,9.562-1.741,13.605
																				c0.293,4.047,1.098,7.497,2.168,10.146c0.123,0.335,0.242,0.661,0.359,0.978
																				c0.109,0.319,0.229,0.623,0.378,0.904c0.277,0.569,0.536,1.102,0.776,1.597c0.245,0.492,0.452,0.957,0.677,1.362
																				c0.244,0.394,0.466,0.751,0.665,1.071c0.395,0.632,0.698,1.116,0.907,1.45
																				C393.495,144.925,393.607,145.087,393.607,145.087z"/>
																		</g>
																	</g>
																</g>
															</g>
														</g>
													</g>
												</g>
											</g>
										</g>
									</g>
								</g>
							</g>
						</g>
					</g>
				</g>
			</g>
		</g>
		<g>
			<g>
				<g>
					<g>
						<g>
							<polygon style="fill:#FF725E;" points="405.294,125.709 410.572,120.432 420.75,129.479 440.729,110.254 445.629,115.531 
								419.996,139.657 							"/>
						</g>
					</g>
				</g>
			</g>
		</g>
	</g>
</g>
</svg>
